<svg data-name="group 2" xmlns="http://www.w3.org/2000/svg" width="160.323" height="21" viewBox="0 0 160.323 21">
    <g data-name="group 1">
        <path data-name="path 1" d="M191.519 185.977h7.009a12.027 12.027 0 0 1 4.348.736 9.016 9.016 0 0 1 3.22 2.062 8.884 8.884 0 0 1 2 3.159 11.365 11.365 0 0 1 .687 4.024v.058a11.41 11.41 0 0 1-.7 4.053 8.971 8.971 0 0 1-5.283 5.337 11.834 11.834 0 0 1-4.375.764h-6.905zm7.095 15.231a5.044 5.044 0 0 0 3.648-1.327 4.994 4.994 0 0 0 1.381-3.779v-.058a4.7 4.7 0 0 0-5.029-5.106h-2.059v10.269z" transform="translate(-169.984 -185.573)" style="fill:#fff"/>
        <path data-name="path 2" d="M259.662 185.977h14.59v4.76h-9.632v3.058h8.724v4.414h-8.724v3.2h9.762v4.76h-14.72z" transform="translate(-219.695 -185.573)" style="fill:#fff"/>
        <path data-name="path 3" d="M318.4 185.977h8.6a9.669 9.669 0 0 1 3.556.577 6.031 6.031 0 0 1 2.363 1.615 6.634 6.634 0 0 1 1.609 4.7v.058a6.866 6.866 0 0 1-1.012 3.865 6.546 6.546 0 0 1-2.727 2.337l4.336 7.038h-5.816l-3.66-6.116h-2.207v6.116H318.4zm8.359 9.692a2.835 2.835 0 0 0 2-.649 2.261 2.261 0 0 0 .7-1.745v-.058a2.188 2.188 0 0 0-.728-1.8 3.081 3.081 0 0 0-2-.592h-3.3v4.846z" transform="translate(-262.547 -185.573)" style="fill:#fff"/>
        <path data-name="path 4" d="M382.133 185.977h14.59v4.76h-9.632v3.058h8.723v4.414h-8.723v3.2h9.761v4.76h-14.719z" transform="translate(-309.039 -185.573)" style="fill:#fff"/>
        <path data-name="path 5" d="M440.869 185.977h8.594a9.668 9.668 0 0 1 3.556.577 6.029 6.029 0 0 1 2.363 1.615 6.633 6.633 0 0 1 1.609 4.7v.058a6.864 6.864 0 0 1-1.012 3.865 6.544 6.544 0 0 1-2.727 2.337l4.336 7.038h-5.816l-3.661-6.116h-2.207v6.116h-5.037zm8.36 9.692a2.834 2.834 0 0 0 2-.649 2.261 2.261 0 0 0 .7-1.745v-.058a2.188 2.188 0 0 0-.727-1.8 3.082 3.082 0 0 0-2-.592h-3.3v4.846z" transform="translate(-351.888 -185.573)" style="fill:#fff"/>
        <path data-name="path 6" d="M504.6 185.977h8.594a9.668 9.668 0 0 1 3.556.577 6.033 6.033 0 0 1 2.363 1.615 6.635 6.635 0 0 1 1.609 4.7v.058a6.867 6.867 0 0 1-1.012 3.865 6.545 6.545 0 0 1-2.727 2.337l4.336 7.038H515.5l-3.661-6.116h-2.206v6.116H504.6zm8.359 9.692a2.835 2.835 0 0 0 2-.649 2.261 2.261 0 0 0 .7-1.745v-.058a2.188 2.188 0 0 0-.728-1.8 3.081 3.081 0 0 0-2-.592h-3.3v4.846z" transform="translate(-398.38 -185.573)" style="fill:#fff"/>
        <path data-name="path 7" d="M575.787 205.484a9.228 9.228 0 0 1-3.894-.822 9.556 9.556 0 0 1-3.089-2.236 10.422 10.422 0 0 1-2.038-3.317 11.138 11.138 0 0 1-.74-4.067v-.058a11.254 11.254 0 0 1 .74-4.082 10.335 10.335 0 0 1 2.064-3.346 9.741 9.741 0 0 1 3.115-2.25 9.629 9.629 0 0 1 7.788 0 9.555 9.555 0 0 1 3.089 2.235 10.432 10.432 0 0 1 2.038 3.317 11.134 11.134 0 0 1 .74 4.067v.058a11.245 11.245 0 0 1-.74 4.081 10.316 10.316 0 0 1-2.064 3.346 9.745 9.745 0 0 1-3.116 2.25 9.224 9.224 0 0 1-3.893.824zm.039-5.048a4.166 4.166 0 0 0 1.9-.433 4.418 4.418 0 0 0 1.458-1.168 5.58 5.58 0 0 0 .938-1.716 6.335 6.335 0 0 0 .338-2.077v-.058a6.341 6.341 0 0 0-.338-2.077 5.475 5.475 0 0 0-.964-1.731 4.8 4.8 0 0 0-1.484-1.2 4.294 4.294 0 0 0-3.788-.014 4.6 4.6 0 0 0-1.458 1.168 5.224 5.224 0 0 0-.938 1.716 6.563 6.563 0 0 0-.325 2.077v.058a6.339 6.339 0 0 0 .337 2.077 5.6 5.6 0 0 0 .951 1.731 4.639 4.639 0 0 0 1.471 1.2 4.058 4.058 0 0 0 1.902.447z" transform="translate(-443.191 -184.484)" style="fill:#fff"/>
        <path data-name="path 8" d="M642.808 185.977h8.592a9.667 9.667 0 0 1 3.556.577 6.03 6.03 0 0 1 2.363 1.615 6.633 6.633 0 0 1 1.609 4.7v.058a6.865 6.865 0 0 1-1.012 3.865 6.546 6.546 0 0 1-2.727 2.337l4.336 7.038h-5.816l-3.66-6.116h-2.207v6.116h-5.036zm8.359 9.692a2.835 2.835 0 0 0 2-.649 2.261 2.261 0 0 0 .7-1.745v-.058a2.188 2.188 0 0 0-.727-1.8 3.081 3.081 0 0 0-2-.592h-3.3v4.846z" transform="translate(-499.204 -185.573)" style="fill:#fff"/>
        <path data-name="path 9" d="m125.06 185.976-13.154 20.193h6.041l2.292-3.519h6.693v3.519h5.06v-20.193zm-1.946 12.26 3.817-5.86v5.86z" transform="translate(-111.906 -185.572)" style="fill:#fff"/>
    </g>
</svg>
