<svg xmlns="http://www.w3.org/2000/svg" width="30" height="20" viewBox="0 0 30 20">
    <g data-name="그룹 6554">
        <path data-name="패스 6758" d="M86.047 14.49q3.185 0 3.186 2.43A2.306 2.306 0 0 1 87 19.35l2.834 3.95H88.62l-2.69-3.867h-.248V23.3h-.991v-8.81zm-.366 4.077h.437a2.707 2.707 0 0 0 1.585-.386 1.37 1.37 0 0 0 .538-1.193 1.382 1.382 0 0 0-.525-1.232A2.7 2.7 0 0 0 86.2 15.4h-.52z" transform="translate(-66.869 -3.661)" style="fill:#0000c5"/>
        <path data-name="패스 6759" d="M91.71 14.49v3.773l3.79-3.773h1.332l-4.176 4.1 4.316 4.71H95.6l-3.645-4.042-.248.245v3.8h-.99V14.49z" transform="translate(-66.972 -3.661)" style="fill:#0000c5"/>
        <path data-name="패스 6760" d="m75.546 23.285-1.422-7.375-.374-1.936-.656 1.773-2.041 5.523-2.042-5.523-.656-1.773-.374 1.936-1.421 7.375h1.015l1.082-5.676 2.4 6.038 2.4-6.038 1.082 5.676z" transform="translate(-66.56 -3.647)" style="fill:#0000c5"/>
        <path data-name="패스 6761" d="M82.682 23.281h1.085L80.1 14.167v-.115l-.024.058-.023-.058v.115l-3.667 9.114h1.085l.995-2.5h3.219zm-3.849-3.411 1.244-3.126 1.245 3.126z" transform="translate(-66.728 -3.649)" style="fill:#0000c5"/>
        <path data-name="패스 6762" d="M69.695 2.339a3.345 3.345 0 0 1 2.159.613 2.148 2.148 0 0 1 .755 1.769 2.254 2.254 0 0 1-.209.979 1.815 1.815 0 0 1-.666.743 2.137 2.137 0 0 1 1.215.812 2.345 2.345 0 0 1 .472 1.454 2.147 2.147 0 0 1-.831 1.791 3.65 3.65 0 0 1-2.294.648h-2.123V2.339zm-.531 3.879h.46a3.289 3.289 0 0 0 1.256-.176 1.125 1.125 0 0 0 .566-.5 1.75 1.75 0 0 0 .171-.825 1.4 1.4 0 0 0-.407-1.126 2.61 2.61 0 0 0-1.6-.345h-.448zm1.05 4.019a2.828 2.828 0 0 0 1.657-.4 1.389 1.389 0 0 0 .56-1.208 1.326 1.326 0 0 0-.578-1.168 3.155 3.155 0 0 0-1.769-.4h-.92v3.179z" transform="translate(-66.588 -2.339)" style="fill:#0000c5"/>
        <path data-name="패스 6763" d="M76.966 2.339v7.9h2.954v.911h-3.945V2.339z" transform="translate(-66.721 -2.339)" style="fill:#0000c5"/>
        <path data-name="패스 6764" d="M83.117 2.339v5.432a3.581 3.581 0 0 0 .248 1.565 1.848 1.848 0 0 0 .8.759 2.391 2.391 0 0 0 1.138.292 2.287 2.287 0 0 0 1.044-.246 2.066 2.066 0 0 0 .72-.542 1.807 1.807 0 0 0 .324-.683 5.327 5.327 0 0 0 .094-1.169V2.339h.991v5.619a4.391 4.391 0 0 1-.183 1.4 2.614 2.614 0 0 1-.643.993 3.163 3.163 0 0 1-1.067.706 3.385 3.385 0 0 1-1.28.245 3.308 3.308 0 0 1-1.575-.39 3.125 3.125 0 0 1-1.168-1.046 3.527 3.527 0 0 1-.431-1.928v-5.6z" transform="translate(-66.825 -2.339)" style="fill:#0000c5"/>
        <path data-name="패스 6765" d="M95.331 2.339v.911H91.71v2.617h3.516v.911H91.71v3.458h3.621v.911H90.72V2.339z" transform="translate(-66.972 -2.339)" style="fill:#0000c5"/>
    </g>
</svg>
