<svg xmlns="http://www.w3.org/2000/svg" width="325.206" height="350.3" viewBox="0 0 325.206 350.3">
    <g data-name="그룹 7829">
        <g data-name="그룹 7796">
            <g data-name="그룹 7795">
                <path data-name="패스 6893" d="M675.739 2754.3c2.9-2.486 6.162-19.431 6.948-23.715a7.736 7.736 0 0 0 .029-2.77 6.486 6.486 0 0 0-.032-.17 2.9 2.9 0 0 0-2.136-2.243c-7.824-1.952-30.937-3.51-35.747-3.818a15.864 15.864 0 0 0-1.751-.017c-42.721 1.949-69.014 7.5-77.661 9.6-1.693.41-3.407.739-5.128 1.01-4.947.777-5.278 3.365-5.02 4.87.177 1.035.351 2.069.444 3.115.233 2.654.983 7.238 3.388 9.318a.524.524 0 0 1-.151.892c-5.111 1.929-29.739 11.905-36.114 27.2 0 0-42.136 97.719-46.715 215.207a54.731 54.731 0 0 0 6.471 28.266c2.75 5.061 6.362 9.761 10.878 11.843a21.384 21.384 0 0 1 3.047 1.7 12 12 0 0 0 7.8 1.823 6.576 6.576 0 0 1 2.018.378 2.962 2.962 0 0 1 1.74 3.778c-.453 1.282-.974 3.2-.522 4.249a.3.3 0 0 0 .583-.089c.156-1.726 1.232-6.037 8.054-6.416" transform="translate(-406.375 -2721.547)" style="fill:#efefef"/>
                <path data-name="패스 6894" d="M755.275 2790.124s3.431-3.03 30.028-6.354c0 0 31.346-7.124 45.594 9.024 0 0 15.2 10.924 20.9 46.069 0 0 23.747 125.385 26.122 157.206 0 0 .475 38.945-4.274 46.544 0 0-8.074 26.122-23.272 34.671 0 0-5.224 2.375-8.549-.95 0 0-4.274 1.425-3.325 8.549 0 0 .669 11.031-1.36 14.865a1.059 1.059 0 0 1-1.93-.146c-1.628-4.523-8.064-17.768-31.948-21.945-1.818-.318-2.642.785-1.826 2.441a.142.142 0 0 0 .046.056c.968.7 26.283 18.832 34.167 19.927" transform="translate(-552.985 -2753.396)" style="fill:#efefef"/>
                <path data-name="패스 6895" d="M569.07 3008.5s-8.827 123.192-9.576 150.167a100.115 100.115 0 0 1-.925 10.943c-.844 6.095-1.521 15.521 1.224 20.88a12.141 12.141 0 0 1 1.291 5.233l.316 12.338a32.129 32.129 0 0 1-.115 3.66c-.1 1.154.246 3.052 3.51 3.378 0 0 105.437 10.924 134.409 5.7 0 0 22.322-3.8 25.172-4.749" transform="translate(-449.313 -2872.214)" style="fill:#efefef"/>
                <path data-name="패스 6896" d="m679.222 2932 68.392 12.348s51.769 170.5 50.344 170.5-16.148 50.344-16.148 50.344l2.85 13.773-30.871-13.3-90.714-90.714-8.075-55.087z" transform="translate(-500.335 -2832.047)" style="fill:#efefef"/>
            </g>
            <path data-name="패스 6897" d="M724.448 2777.5c-17.573 7.124-19.948 13.773-19.948 13.773s3.419 4.273 7.824 3.5a2.468 2.468 0 0 0 1.162-.553c1.518-1.284 6.784-5.393 12.386-5.793" transform="translate(-526.325 -2750.925)" style="stroke:#221f1f;stroke-miterlimit:10;stroke-width:.5px;fill:none"/>
            <path data-name="패스 6898" d="M675.739 2754.927c2.9-2.487 6.164-19.441 6.948-23.719a7.723 7.723 0 0 0 .03-2.764l-.035-.179a2.892 2.892 0 0 0-2.127-2.234 93.39 93.39 0 0 0-10.4-1.645 248.829 248.829 0 0 0-49.7-.737c-29.495 2.481-48.066 6.443-55.069 8.14-1.693.41-3.407.74-5.128 1.01-4.947.777-5.278 3.365-5.02 4.87.177 1.036.352 2.069.444 3.116.234 2.656.984 7.245 3.393 9.323a.519.519 0 0 1-.149.884c-5.1 1.923-29.743 11.9-36.121 27.207 0 0-42.136 97.719-46.715 215.207a54.731 54.731 0 0 0 6.471 28.266c2.75 5.061 6.362 9.761 10.878 11.843a21.407 21.407 0 0 1 3.047 1.7 12 12 0 0 0 7.8 1.823 6.572 6.572 0 0 1 2.023.379 2.958 2.958 0 0 1 1.737 3.772c-.454 1.283-.977 3.2-.522 4.257a.3.3 0 0 0 .581-.088c.155-1.724 1.228-6.04 8.054-6.419" transform="translate(-406.375 -2722.178)" style="stroke:#221f1f;stroke-miterlimit:10;stroke-width:.5px;fill:none"/>
            <path data-name="패스 6899" d="M746.5 2753.646s21.3-19.882 77.853-21.577" transform="translate(-548.377 -2727.071)" style="stroke:#221f1f;stroke-miterlimit:10;stroke-width:.5px;fill:none"/>
            <path data-name="패스 6900" d="M541.94 3350.5c-12.349 3.8-15.883 15.792-15.883 15.792" transform="translate(-432.632 -3051.784)" style="stroke:#221f1f;stroke-miterlimit:10;stroke-width:.5px;fill:none"/>
            <path data-name="패스 6901" d="M729.083 2782.3a42.123 42.123 0 0 1 4.794-2.511.216.216 0 0 1 .252.326c-.988 1.454-3.936 5.991-4.736 9.505-.17.747-.339 1.492-.563 2.226-2.446 8.022-15.4 53.319-17.887 120.633-.118 3.2-.163 6.4-.2 9.6-.026 2.249-.325 5.748-1.936 5.748 0 0-2.375.475-2.424-3.459-.008-.608.033-1.212.019-1.82-.176-7.684-.375-59.037 22.25-139.686a.95.95 0 0 1 .431-.562z" transform="translate(-527.307 -2752.119)" style="stroke:#221f1f;stroke-miterlimit:10;stroke-width:.5px;fill:none"/>
            <path data-name="패스 6903" d="M755.275 2790.124s3.431-3.03 30.028-6.354c0 0 31.346-7.124 45.594 9.024 0 0 15.2 10.924 20.9 46.069 0 0 23.747 125.385 26.122 157.206 0 0 .475 38.945-4.274 46.544 0 0-8.074 26.122-23.272 34.671 0 0-5.224 2.375-8.549-.95 0 0-4.274 1.425-3.325 8.549 0 0 .669 11.031-1.36 14.865a1.059 1.059 0 0 1-1.93-.146c-1.628-4.523-8.064-17.768-31.948-21.945-1.818-.318-2.642.785-1.826 2.441a.142.142 0 0 0 .046.056c.968.7 26.283 18.832 34.167 19.927" transform="translate(-552.985 -2753.395)" style="stroke:#221f1f;stroke-miterlimit:10;stroke-width:.5px;fill:none"/>
            <path data-name="패스 6904" d="M859.053 3376.5s-11.428 10.495-7.852 14.983" transform="translate(-602.988 -3065.435)" style="stroke:#221f1f;stroke-miterlimit:10;stroke-width:.5px;fill:none"/>
            <path data-name="패스 6905" d="M872.5 2854.5s-18.048 119.21-7.6 154.831" transform="translate(-608.836 -2791.355)" style="stroke:#221f1f;stroke-miterlimit:10;stroke-width:.5px;fill:none"/>
            <path data-name="패스 6906" d="M873.973 3111.5s-15.9 40.094-15.854 65.439a26.781 26.781 0 0 0 7.216 18.314c.712.757 1.276 1.261 1.514 1.261" transform="translate(-606.984 -2926.295)" style="stroke:#221f1f;stroke-miterlimit:10;stroke-width:.5px;fill:none"/>
            <path data-name="패스 6907" d="M873.332 3276.5s-7.991 11.356-7.746 21.007a10.716 10.716 0 0 1-.5 3.578c-1.281 3.96-3.686 13.829.491 22.782" transform="translate(-609.667 -3012.929)" style="stroke:#221f1f;stroke-miterlimit:10;stroke-width:.5px;fill:none"/>
            <path data-name="패스 6908" d="M569.07 3008.5s-8.827 123.192-9.576 150.167a100.115 100.115 0 0 1-.925 10.943c-.844 6.095-1.521 15.521 1.224 20.88a12.141 12.141 0 0 1 1.291 5.233l.316 12.338a32.129 32.129 0 0 1-.115 3.66c-.1 1.154.246 3.052 3.51 3.378 0 0 105.437 10.924 134.409 5.7 0 0 22.322-3.8 25.172-4.749" transform="translate(-449.313 -2872.214)" style="stroke:#221f1f;stroke-miterlimit:10;stroke-width:.5px;fill:none"/>
            <path data-name="패스 6909" d="M648.77 2785.9a12.666 12.666 0 0 0 2.671 1.989.688.688 0 0 1 .39.7 189.14 189.14 0 0 1-5.422 27.6c-1.069 3.78-2.642 7.4-3.609 11.2-4.442 17.5-14.964 62.147-16.084 96.513 0 0 0 17.1-1.9 16.623 0 0-2.85.475-2.375-1.9 0 0 2.946-45.871 9.234-77.4q.97-4.863 2.352-9.624c3.932-13.63 16.6-58.614 14.626-65.638a.07.07 0 0 1 .117-.063z" transform="translate(-483.211 -2755.325)" style="stroke:#221f1f;stroke-miterlimit:10;stroke-width:.5px;fill:none"/>
            <path data-name="패스 6910" d="M624.906 3109.373s.247 4.954-.584 7.56a1.69 1.69 0 0 1-1.871 1.185c-.653-.119-1.247-.594-1.009-2.019l.475-7.6" transform="translate(-482.686 -2924.72)" style="stroke:#221f1f;stroke-miterlimit:10;stroke-width:.5px;fill:none"/>
            <path data-name="패스 6911" d="M651.5 2781.5s6.869 6.5 12.458 7.286" transform="translate(-498.497 -2753.026)" style="stroke:#221f1f;stroke-miterlimit:10;stroke-width:.5px;fill:none"/>
            <path data-name="패스 6912" d="M683.64 2799.626s5.633 2.79 9.907 3.265" transform="translate(-515.372 -2762.543)" style="stroke:#221f1f;stroke-miterlimit:10;stroke-width:.5px;fill:none"/>
            <path data-name="패스 6913" d="M680.249 2768.352s-18.793-11.246-25.447-12.261a13.871 13.871 0 0 1-3.72-1.056c-2.8-1.287-6.835-3.818-6.31-7.569" transform="translate(-494.94 -2735.156)" style="stroke:#221f1f;stroke-miterlimit:10;stroke-width:.5px;fill:none"/>
            <path data-name="패스 6914" d="M868.5 3368.365s.361-9.873 9.5-6.747a22.244 22.244 0 0 1 6.839 3.865c2.076 1.695 5.757 4.378 8.661 4.76a9.568 9.568 0 0 1 3.405 1.042c2.5 1.378 5.942 4.224 4.366 8.954" transform="translate(-612.435 -3057.3)" style="stroke:#221f1f;stroke-miterlimit:10;stroke-width:.5px;fill:none"/>
            <path data-name="패스 6915" d="M558.735 3381.037s40.258 3.544 69.23 3.07c0 0 24.885.383 44.407 2.867a69.8 69.8 0 0 0 20.468-.309 29.741 29.741 0 0 0 8.368-2.428" transform="translate(-449.79 -3067.817)" style="stroke:#221f1f;stroke-miterlimit:10;stroke-width:.5px;fill:none"/>
            <path data-name="패스 6916" d="M709.774 3087.45a58.464 58.464 0 0 1-1.391 8.423 1.743 1.743 0 0 1-1.959 1.177c-.6-.145-.925-.638-.925-2l.475-8.549" transform="translate(-526.85 -2913.168)" style="stroke:#221f1f;stroke-miterlimit:10;stroke-width:.5px;fill:none"/>
        </g>
        <path data-name="선 2685" transform="translate(113.174 46.5)" style="stroke:#343434;fill:none" d="M0 0h177"/>
        <path data-name="선 2686" transform="translate(29 26.5)" style="stroke:#343434;fill:none" d="M0 0v323"/>
        <path data-name="선 2687" transform="translate(123.174 86.5)" style="stroke:#343434;fill:none" d="M0 0h138.5"/>
        <path data-name="선 2688" transform="translate(113.406 44)" style="stroke:#343434;fill:none" d="M0 0v5"/>
        <path data-name="선 2689" transform="rotate(90 2.5 29)" style="stroke:#343434;fill:none" d="M0 0v5"/>
        <path data-name="선 2690" transform="translate(122.674 84)" style="stroke:#343434;fill:none" d="M0 0v5"/>
        <path data-name="선 2691" transform="translate(290.174 44)" style="stroke:#343434;fill:none" d="M0 0v5"/>
        <path data-name="선 2692" transform="rotate(90 -159 190.5)" style="stroke:#343434;fill:none" d="M0 0v5"/>
        <g data-name="그룹 7281">
            <path data-name="선 2728" transform="rotate(-12 411.786 -454.515)" style="stroke:#343434;fill:none" d="M0 0v59.944"/>
            <path data-name="선 2730" transform="rotate(78 6.562 102.996)" style="stroke:#343434;fill:none" d="M0 0v5"/>
            <path data-name="선 2734" transform="rotate(78 -23.16 139.7)" style="stroke:#343434;fill:none" d="M0 0v5"/>
        </g>
        <g data-name="그룹 7282">
            <path data-name="선 2736" transform="rotate(-3 845.146 -5350.286)" style="stroke:#343434;fill:none" d="M0 0v313.483"/>
            <path data-name="선 2737" transform="rotate(87 122.46 167.846)" style="stroke:#343434;fill:none" d="M0 0v5"/>
            <path data-name="선 2738" transform="rotate(87 -34.03 332.753)" style="stroke:#343434;fill:none" d="M0 0v5"/>
        </g>
        <path data-name="선 2693" transform="translate(261.674 84)" style="stroke:#343434;fill:none" d="M0 0v5"/>
        <path data-name="선 2694" transform="translate(144.174 12)" style="stroke:#343434;fill:none" d="M0 0h107.377"/>
        <path data-name="선 2695" transform="translate(143.674 9.5)" style="stroke:#343434;fill:none" d="M0 0v5"/>
        <path data-name="선 2696" transform="translate(252.051 9.5)" style="stroke:#343434;fill:none" d="M0 0v5"/>
        <path data-name="사각형 2249" transform="translate(0 178)" style="fill:#343434" d="M0 0h58v20H0z"/>
        <path data-name="사각형 2250" transform="translate(88.674 95.854)" style="fill:#343434" d="M0 0h41v20H0z"/>
        <path data-name="사각형 2251" transform="translate(267.248 165)" style="fill:#343434" d="M0 0h40v20H0z"/>
        <path data-name="사각형 2252" transform="translate(166.674 76)" style="fill:#343434" d="M0 0h51v20H0z"/>
        <path data-name="사각형 2253" transform="translate(175.674 37)" style="fill:#343434" d="M0 0h43v20H0z"/>
        <path data-name="사각형 2254" transform="translate(177.674 2)" style="fill:#343434" d="M0 0h41v20H0z"/>
        <text data-name="A 102.5" transform="translate(10 191)" style="fill:#fff;font-size:10px;font-family:FuturaLTPro-Book,Futura LT Pro"><tspan x="0" y="0">A 102.5</tspan></text>
        <text data-name="E 50" transform="translate(98.674 108.854)" style="fill:#fff;font-size:10px;font-family:FuturaLTPro-Book,Futura LT Pro"><tspan x="0" y="0">E 50</tspan></text>
        <text data-name="F 30" transform="translate(277.248 178)" style="fill:#fff;font-size:10px;font-family:FuturaLTPro-Book,Futura LT Pro"><tspan x="0" y="0">F 30</tspan></text>
        <text data-name="D 34.5" transform="translate(176.674 89)" style="fill:#fff;font-size:10px;font-family:FuturaLTPro-Book,Futura LT Pro"><tspan x="0" y="0">D 34.5</tspan></text>
        <text data-name="C 40" transform="translate(185.674 50)" style="fill:#fff;font-size:10px;font-family:FuturaLTPro-Book,Futura LT Pro"><tspan x="0" y="0">C 40</tspan></text>
        <text data-name="B 21" transform="translate(187.674 15)" style="fill:#fff;font-size:10px;font-family:FuturaLTPro-Book,Futura LT Pro"><tspan x="0" y="0">B 21</tspan></text>
    </g>
</svg>
