<svg xmlns="http://www.w3.org/2000/svg" width="320" height="339" viewBox="0 0 320 339">
  <g id="그룹_8005" data-name="그룹 8005" transform="translate(-20 -917)">
    <rect id="사각형_2301" data-name="사각형 2301" width="320" height="339" transform="translate(20 917)" fill="none"/>
    <g id="그룹_8003" data-name="그룹 8003" transform="translate(20942.416 -3146.823)">
      <g id="그룹_7806" data-name="그룹 7806" transform="matrix(0.946, 0.326, -0.326, 0.946, -3327.523, 7054.668)">
        <line id="선_2774" data-name="선 2774" x2="96.286" transform="translate(-17456.5 3095)" fill="none" stroke="#343434" stroke-width="1"/>
        <line id="선_2775" data-name="선 2775" y2="5" transform="translate(-17456.326 3092.5)" fill="none" stroke="#343434" stroke-width="1"/>
        <line id="선_2776" data-name="선 2776" y2="5" transform="translate(-17359.99 3092.5)" fill="none" stroke="#343434" stroke-width="1"/>
      </g>
      <g id="그룹_7898" data-name="그룹 7898" transform="matrix(0.891, -0.454, 0.454, 0.891, -6589.903, -6354.09)">
        <line id="선_2774-2" data-name="선 2774" x2="47.561" transform="translate(-17456.5 3095)" fill="none" stroke="#343434" stroke-width="1"/>
        <line id="선_2775-2" data-name="선 2775" y2="5" transform="translate(-17456.326 3092.5)" fill="none" stroke="#343434" stroke-width="1"/>
        <line id="선_2776-2" data-name="선 2776" y2="5" transform="translate(-17408.717 3092.5)" fill="none" stroke="#343434" stroke-width="1"/>
      </g>
      <g id="그룹_7897" data-name="그룹 7897" transform="translate(-28418.557 270.089)">
        <path id="패스_7197" data-name="패스 7197" d="M7634.9,4053.108l9.231-53.849,6.374-11.209,43.079-22.419,35.167,41.76,6.374,54.069-8.572,19.122,33.848-2.857-2.637,5.275-56.267,53.849-10.551-30.551-3.736-31.211Z" transform="translate(-43.952 -104.408)" fill="#eee"/>
        <path id="패스_7198" data-name="패스 7198" d="M7949.624,4449.4l-.765,47.694a5.951,5.951,0,0,1-3.532,5.257l-33.992,15.107a8.279,8.279,0,0,1-4.486.638l-25.8-3.527" transform="translate(-233.068 -476.079)" fill="#eee" stroke="#221f1f" stroke-miterlimit="10" stroke-width="0.5"/>
        <path id="패스_7199" data-name="패스 7199" d="M7906.522,3866.608c3.394-25.37-6.4-33.909-11.825-36.128a9.879,9.879,0,0,0-7.436-.039c-12.581,5.065-18.544,30.452-18.544,30.452l11.43-1.759-1.952-7.722a4.161,4.161,0,0,1,.644-3.436c2.107-2.96,6.837-9.249,10.833-12.007a5.256,5.256,0,0,1,6.128.079,11.689,11.689,0,0,1,3.837,5.047,14.4,14.4,0,0,1,.051,10.548l-3.935,10.349Z" transform="translate(-223.594)" fill="#eee" stroke="#221f1f" stroke-miterlimit="10" stroke-width="0.5"/>
        <path id="패스_7200" data-name="패스 7200" d="M8009.1,4494.453" transform="translate(-331.452 -510.696)" fill="#eee" stroke="#221f1f" stroke-miterlimit="10" stroke-width="0.5"/>
        <path id="패스_7201" data-name="패스 7201" d="M7578.934,4400.545l67.634,16.724a10.6,10.6,0,0,0,5.172-.02l12.912-3.3" transform="translate(-0.956 -438.548)" fill="#eee" stroke="#221f1f" stroke-miterlimit="10" stroke-width="0.5"/>
        <line id="선_2821" data-name="선 2821" y1="59.087" x2="1.062" transform="translate(7675.052 3982.877)" fill="#eee" stroke="#221f1f" stroke-miterlimit="10" stroke-width="0.5"/>
        <path id="패스_7202" data-name="패스 7202" d="M7578.527,4351.111l.2,45.036a4.994,4.994,0,0,0,3.359,4.7l62.176,21.53a7.02,7.02,0,0,0,4.771-.064l8.532-3.215a6.837,6.837,0,0,0,4.422-6.155l2.29-64.1a6.052,6.052,0,0,0-4.928-6.163l-68.111-12.821a5.19,5.19,0,0,0-2.923.3l-6.426,2.623a5.122,5.122,0,0,0-3.172,4.345l-1.029,13.214a.664.664,0,0,0,.5.7l68.411,17.156a4.6,4.6,0,0,0,2.313-.019l14.67-4.2" transform="translate(0 -384.168)" fill="#eee" stroke="#221f1f" stroke-miterlimit="10" stroke-width="0.5"/>
        <path id="패스_7203" data-name="패스 7203" d="M7884.843,3949.979" transform="translate(-235.983 -92.383)" fill="#eee"/>
        <path id="패스_7204" data-name="패스 7204" d="M7650.825,3971.264c13.371-7.968,25.863-8.99,36.3-6.87a38.406,38.406,0,0,1,21.031,12.122,39.062,39.062,0,0,1,9.745,24.242l3.158,68.927a1.214,1.214,0,0,0,1.633.946c.5-.192.981-.189,1.487-.352l37.426-9.889c-1.939-61.173-5.435-77.24-6.741-81.2-.389-1.179-.781-2.358-1.135-3.549-8.969-30.119-46.193-32.837-46.193-32.837-12.147-.4-26.241,5.442-35.436,10.092a56.332,56.332,0,0,0-26.65,28.574c-9.349,22.477-9.127,51.119-9.127,51.119" transform="translate(-45.044 -86.853)" fill="#eee" stroke="#221f1f" stroke-miterlimit="10" stroke-width="0.5"/>
      </g>
      <g id="그룹_7808" data-name="그룹 7808" transform="translate(-3187.402 1021)">
        <line id="선_2771" data-name="선 2771" y2="165.634" transform="translate(-17499.5 3110.5)" fill="none" stroke="#343434" stroke-width="1"/>
        <line id="선_2772" data-name="선 2772" y2="5" transform="translate(-17497 3110) rotate(90)" fill="none" stroke="#343434" stroke-width="1"/>
        <line id="선_2773" data-name="선 2773" y2="5" transform="translate(-17497 3275.634) rotate(90)" fill="none" stroke="#343434" stroke-width="1"/>
      </g>
    </g>
  </g>
</svg>
