<svg xmlns="http://www.w3.org/2000/svg" width="470" height="510" viewBox="0 0 470 510">
  <g id="그룹_7901" data-name="그룹 7901" transform="translate(-1330 -211)">
    <rect id="사각형_2270" data-name="사각형 2270" width="470" height="510" transform="translate(1330 211)" fill="none"/>
    <g id="그룹_7899" data-name="그룹 7899" transform="translate(22934.162 -11786.537)">
      <g id="그룹_7897" data-name="그룹 7897" transform="translate(-29070.557 8255.803)">
        <path id="패스_7197" data-name="패스 7197" d="M7634.9,4092.71l13.411-78.228,9.259-16.284,62.582-32.568,51.087,60.666,9.26,78.547-12.453,27.778,49.171-4.151-3.832,7.663-81.739,78.228-15.326-44.382-5.428-45.34Z" transform="translate(-37.951 -90.152)" fill="#eee"/>
        <path id="패스_7198" data-name="패스 7198" d="M7980.669,4449.4l-1.111,69.285a8.646,8.646,0,0,1-5.13,7.637l-49.381,21.947a12.035,12.035,0,0,1-6.518.926l-37.479-5.124" transform="translate(-201.246 -411.078)" fill="#eee" stroke="#221f1f" stroke-miterlimit="10" stroke-width="0.5"/>
        <path id="패스_7199" data-name="패스 7199" d="M7923.637,3883.3c4.93-36.856-9.3-49.26-17.179-52.483a14.352,14.352,0,0,0-10.8-.056c-18.276,7.359-26.938,44.238-26.938,44.238l16.6-2.555-2.836-11.218a6.045,6.045,0,0,1,.935-4.991c3.061-4.3,9.932-13.436,15.738-17.443a7.636,7.636,0,0,1,8.9.115,16.985,16.985,0,0,1,5.574,7.331,20.9,20.9,0,0,1,.073,15.323l-5.716,15.034Z" transform="translate(-193.065)" fill="#eee" stroke="#221f1f" stroke-miterlimit="10" stroke-width="0.5"/>
        <path id="패스_7200" data-name="패스 7200" d="M8009.1,4494.453" transform="translate(-286.197 -440.968)" fill="#eee" stroke="#221f1f" stroke-miterlimit="10" stroke-width="0.5"/>
        <path id="패스_7201" data-name="패스 7201" d="M7578.934,4400.545l98.254,24.295a15.418,15.418,0,0,0,7.514-.028l18.757-4.789" transform="translate(-0.826 -378.67)" fill="#eee" stroke="#221f1f" stroke-miterlimit="10" stroke-width="0.5"/>
        <line id="선_2821" data-name="선 2821" y1="85.837" x2="1.543" transform="translate(7719.13 4052.208)" fill="#eee" stroke="#221f1f" stroke-miterlimit="10" stroke-width="0.5"/>
        <path id="패스_7202" data-name="패스 7202" d="M7578.906,4360.775l.3,65.425a7.254,7.254,0,0,0,4.88,6.821l90.324,31.277a10.2,10.2,0,0,0,6.93-.094l12.394-4.67a9.932,9.932,0,0,0,6.425-8.942l3.326-93.119a8.79,8.79,0,0,0-7.158-8.953l-98.946-18.625a7.545,7.545,0,0,0-4.246.429l-9.334,3.81a7.443,7.443,0,0,0-4.608,6.313l-1.5,19.2a.966.966,0,0,0,.727,1.011l99.381,24.923a6.683,6.683,0,0,0,3.36-.028l21.313-6.1" transform="translate(0 -331.716)" fill="#eee" stroke="#221f1f" stroke-miterlimit="10" stroke-width="0.5"/>
        <path id="패스_7203" data-name="패스 7203" d="M7884.843,3949.979" transform="translate(-203.762 -79.769)" fill="#eee"/>
        <path id="패스_7204" data-name="패스 7204" d="M7657.393,3984.158c19.424-11.575,37.572-13.06,52.727-9.98a55.791,55.791,0,0,1,30.553,17.609A56.746,56.746,0,0,1,7754.828,4027l4.587,100.131a1.764,1.764,0,0,0,2.373,1.374c.721-.279,1.425-.275,2.16-.512l54.369-14.367c-2.817-88.867-7.895-112.207-9.793-117.964-.565-1.713-1.135-3.426-1.649-5.155-13.029-43.754-67.1-47.7-67.1-47.7-17.646-.582-38.121,7.905-51.479,14.66a81.834,81.834,0,0,0-38.715,41.51c-13.581,32.653-13.259,74.262-13.259,74.262" transform="translate(-38.894 -74.994)" fill="#eee" stroke="#221f1f" stroke-miterlimit="10" stroke-width="0.5"/>
      </g>
      <g id="그룹_7806" data-name="그룹 7806" transform="matrix(0.946, 0.326, -0.326, 0.946, -3982.269, 15127.205)">
        <line id="선_2774" data-name="선 2774" x2="145.506" transform="translate(-17456.5 3095)" fill="none" stroke="#343434" stroke-width="1"/>
        <line id="선_2775" data-name="선 2775" y2="5" transform="translate(-17456.326 3092.5)" fill="none" stroke="#343434" stroke-width="1"/>
        <line id="선_2776" data-name="선 2776" y2="5" transform="translate(-17310.771 3092.5)" fill="none" stroke="#343434" stroke-width="1"/>
      </g>
      <g id="그룹_7898" data-name="그룹 7898" transform="translate(-6488.045 2748.049) rotate(-23)">
        <line id="선_2774-2" data-name="선 2774" x2="68.991" transform="translate(-17456.5 3095)" fill="none" stroke="#343434" stroke-width="1"/>
        <line id="선_2775-2" data-name="선 2775" y2="5" transform="translate(-17456.326 3092.5)" fill="none" stroke="#343434" stroke-width="1"/>
        <line id="선_2776-2" data-name="선 2776" y2="5" transform="translate(-17387.287 3092.5)" fill="none" stroke="#343434" stroke-width="1"/>
      </g>
      <g id="그룹_7808" data-name="그룹 7808" transform="translate(-3764 9020)">
        <line id="선_2771" data-name="선 2771" y2="240.466" transform="translate(-17499.5 3110.5)" fill="none" stroke="#343434" stroke-width="1"/>
        <line id="선_2772" data-name="선 2772" y2="5" transform="translate(-17497 3110) rotate(90)" fill="none" stroke="#343434" stroke-width="1"/>
        <line id="선_2773" data-name="선 2773" y2="5" transform="translate(-17497 3350.466) rotate(90)" fill="none" stroke="#343434" stroke-width="1"/>
      </g>
    </g>
  </g>
</svg>
