<svg xmlns="http://www.w3.org/2000/svg" width="470" height="510" viewBox="0 0 470 510">
  <g id="그룹_8000" data-name="그룹 8000" transform="translate(-1330 -211)">
    <rect id="사각형_2270" data-name="사각형 2270" width="470" height="510" transform="translate(1330 211)" fill="none"/>
    <g id="그룹_7894" data-name="그룹 7894" transform="translate(18917 -9971.648)">
      <g id="그룹_7892" data-name="그룹 7892" transform="translate(-26103.961 6554.379)">
        <path id="패스_7181" data-name="패스 7181" d="M8675.688,3993.386l162.465,4.256-2.727,6.039-105.681,6.569-54.085-7.857-1.84-4.887,2.21-1.81Z" transform="translate(-5.462 -101.963)" fill="#eee"/>
        <path id="패스_7182" data-name="패스 7182" d="M8677.69,3894.183a68.66,68.66,0,0,1,4.6-27.283s15.8-47.71,59.724-56.343c.942-.185,1.905-.265,2.855-.4.324-.047.692-.1,1.1-.151,36.006-4.663,71.117,13.128,86.34,46.088,4.05,8.77,8.074,18.843,9.184,30.083a20.93,20.93,0,0,1-2.146,11.564c-.286.554-.558.939-.96.844" transform="translate(-7.562 -0.001)" fill="#eee" stroke="#221f1f" stroke-miterlimit="10" stroke-width="0.5"/>
        <path id="패스_7183" data-name="패스 7183" d="M8670.128,3999.571s-6.662,2.754-6.139,9.441c0,0,.285,24.726,3.334,36.224.132.5.247,1,.358,1.5.513,2.317,2.564,9.579,8.689,12.976a11.927,11.927,0,0,0,5.06,1.438c9.563.59,59.5,3.283,133.023.228a27.317,27.317,0,0,0,11.906-3.173c.2-.113.4-.23.6-.351a18.2,18.2,0,0,0,8.625-14.056l1.5-27.484a13.95,13.95,0,0,0-.782-6.105,10.617,10.617,0,0,0-4.269-5.88,2.157,2.157,0,0,0-2.933.557c-.6.9-2.043,1.809-5.389,1.847,0,0-100.389,3.263-142.076-.245a22.764,22.764,0,0,1-8.613-2.43c-2.413-1.255-4.439-2.905-2.9-4.485" transform="translate(0 -105.389)" fill="#eee" stroke="#221f1f" stroke-miterlimit="10" stroke-width="0.5"/>
        <path id="패스_7184" data-name="패스 7184" d="M8683.664,4009.5s-2.241,37.955,8.688,57.018" transform="translate(-10.808 -110.888)" fill="#eee" stroke="#221f1f" stroke-miterlimit="10" stroke-width="0.5"/>
        <path id="패스_7185" data-name="패스 7185" d="M8711.58,4015.684s-.192,40.847,8.644,55.018" transform="translate(-26.372 -114.312)" fill="#eee" stroke="#221f1f" stroke-miterlimit="10" stroke-width="0.5"/>
        <path id="패스_7186" data-name="패스 7186" d="M8741.643,4017.259s.274,46.26,9.951,54.83" transform="translate(-43.021 -115.184)" fill="#eee" stroke="#221f1f" stroke-miterlimit="10" stroke-width="0.5"/>
        <path id="패스_7187" data-name="패스 7187" d="M8769.482,4018.079s-.678,38.06,7.331,55.408" transform="translate(-58.43 -115.638)" fill="#eee" stroke="#221f1f" stroke-miterlimit="10" stroke-width="0.5"/>
        <path id="패스_7188" data-name="패스 7188" d="M9017.537,4015.116s4.479,38.569-7.93,54.531" transform="translate(-191.419 -113.998)" fill="#eee" stroke="#221f1f" stroke-miterlimit="10" stroke-width="0.5"/>
        <path id="패스_7189" data-name="패스 7189" d="M8990.518,4016.326s4.157,30.709-5.61,54.616" transform="translate(-177.74 -114.668)" fill="#eee" stroke="#221f1f" stroke-miterlimit="10" stroke-width="0.5"/>
        <path id="패스_7190" data-name="패스 7190" d="M8958.978,4017.086s5.96,32.955-6.059,55" transform="translate(-160.025 -115.088)" fill="#eee" stroke="#221f1f" stroke-miterlimit="10" stroke-width="0.5"/>
        <path id="패스_7191" data-name="패스 7191" d="M8935.874,4017.544s4.716,41.164-6.953,54.818" transform="translate(-146.735 -115.342)" fill="#eee" stroke="#221f1f" stroke-miterlimit="10" stroke-width="0.5"/>
        <path id="패스_7192" data-name="패스 7192" d="M8801.448,4018.57s-2.85,26.989,4.837,55.051" transform="translate(-75.855 -115.91)" fill="#eee" stroke="#221f1f" stroke-miterlimit="10" stroke-width="0.5"/>
        <path id="패스_7193" data-name="패스 7193" d="M8830.637,4018.831s-5.226,30.546,3.747,54.237" transform="translate(-91.468 -116.055)" fill="#eee" stroke="#221f1f" stroke-miterlimit="10" stroke-width="0.5"/>
        <path id="패스_7194" data-name="패스 7194" d="M8911.536,4018s2.091,45.778-5.615,54.828" transform="translate(-133.997 -115.595)" fill="#eee" stroke="#221f1f" stroke-miterlimit="10" stroke-width="0.5"/>
        <path id="패스_7195" data-name="패스 7195" d="M8859.26,4018.653s-3.862,9.041-.853,54.22" transform="translate(-107.049 -115.956)" fill="#eee" stroke="#221f1f" stroke-miterlimit="10" stroke-width="0.5"/>
        <path id="패스_7196" data-name="패스 7196" d="M8884.972,4018.41s1.194,45.764-2.049,54.763" transform="translate(-121.261 -115.822)" fill="#eee" stroke="#221f1f" stroke-miterlimit="10" stroke-width="0.5"/>
      </g>
      <g id="그룹_7893" data-name="그룹 7893" transform="translate(66.17 203.646)">
        <line id="선_2775" data-name="선 2775" y2="5" transform="translate(-17506.17 10225.436)" fill="none" stroke="#343434" stroke-width="1"/>
        <line id="선_2820" data-name="선 2820" y2="5" transform="translate(-17330.477 10225.436)" fill="none" stroke="#343434" stroke-width="1"/>
        <path id="패스_7180" data-name="패스 7180" d="M-19503.633,10468.324s87.053,23.751,175.693,0" transform="translate(1997.463 -240.389)" fill="none" stroke="#343434" stroke-width="1"/>
      </g>
      <g id="그룹_7808" data-name="그룹 7808" transform="translate(146.092 7256)">
        <line id="선_2771" data-name="선 2771" y2="143.026" transform="translate(-17499.5 3110.5)" fill="none" stroke="#343434" stroke-width="1"/>
        <line id="선_2772" data-name="선 2772" y2="5" transform="translate(-17497 3110) rotate(90)" fill="none" stroke="#343434" stroke-width="1"/>
        <line id="선_2773" data-name="선 2773" y2="5" transform="translate(-17497 3253.026) rotate(90)" fill="none" stroke="#343434" stroke-width="1"/>
      </g>
    </g>
  </g>
</svg>
