<svg xmlns="http://www.w3.org/2000/svg" width="320" height="339" viewBox="0 0 320 339">
  <g id="그룹_8002" data-name="그룹 8002" transform="translate(-20 -917)">
    <rect id="사각형_2301" data-name="사각형 2301" width="320" height="339" transform="translate(20 917)" fill="none"/>
    <g id="그룹_7894" data-name="그룹 7894" transform="translate(17534.004 -9363.324)">
      <g id="그룹_7892" data-name="그룹 7892" transform="translate(-26095.18 6553.054)">
        <path id="패스_7181" data-name="패스 7181" d="M8675.5,3993.386l145.992,3.824-2.449,5.427-94.966,5.9-48.6-7.06-1.653-4.392,1.986-1.626Z" transform="translate(-5.908 -110.293)" fill="#eee"/>
        <path id="패스_7182" data-name="패스 7182" d="M8677.684,3885.573a61.7,61.7,0,0,1,4.129-24.517s14.2-42.873,53.668-50.63c.848-.166,1.713-.238,2.566-.361.291-.042.622-.088.99-.135,32.354-4.19,63.906,11.8,77.586,41.415,3.639,7.881,7.255,16.932,8.252,27.033a18.806,18.806,0,0,1-1.93,10.392c-.256.5-.5.844-.861.758" transform="translate(-8.181 -0.001)" fill="#eee" stroke="#221f1f" stroke-miterlimit="10" stroke-width="0.5"/>
        <path id="패스_7183" data-name="패스 7183" d="M8669.5,3999.571s-5.986,2.475-5.517,8.484c0,0,.257,22.219,3,32.551.118.447.222.9.322,1.347.461,2.082,2.3,8.608,7.809,11.66a10.715,10.715,0,0,0,4.546,1.292c8.593.531,53.467,2.95,119.536.2a24.551,24.551,0,0,0,10.7-2.851c.18-.1.361-.207.541-.316a16.35,16.35,0,0,0,7.751-12.63l1.347-24.7a12.531,12.531,0,0,0-.7-5.486,9.541,9.541,0,0,0-3.835-5.284,1.939,1.939,0,0,0-2.636.5c-.541.809-1.836,1.625-4.842,1.66,0,0-90.211,2.932-127.671-.22a20.455,20.455,0,0,1-7.74-2.184c-2.168-1.128-3.989-2.61-2.6-4.03" transform="translate(0 -113.998)" fill="#eee" stroke="#221f1f" stroke-miterlimit="10" stroke-width="0.5"/>
        <path id="패스_7184" data-name="패스 7184" d="M8683.645,4009.5s-2.014,34.107,7.807,51.237" transform="translate(-11.69 -119.947)" fill="#eee" stroke="#221f1f" stroke-miterlimit="10" stroke-width="0.5"/>
        <path id="패스_7185" data-name="패스 7185" d="M8711.58,4015.684s-.173,36.706,7.768,49.439" transform="translate(-28.527 -123.65)" fill="#eee" stroke="#221f1f" stroke-miterlimit="10" stroke-width="0.5"/>
        <path id="패스_7186" data-name="패스 7186" d="M8741.643,4017.259s.247,41.57,8.942,49.27" transform="translate(-46.535 -124.594)" fill="#eee" stroke="#221f1f" stroke-miterlimit="10" stroke-width="0.5"/>
        <path id="패스_7187" data-name="패스 7187" d="M8769.481,4018.08s-.609,34.2,6.588,49.79" transform="translate(-63.204 -125.086)" fill="#eee" stroke="#221f1f" stroke-miterlimit="10" stroke-width="0.5"/>
        <path id="패스_7188" data-name="패스 7188" d="M9016.733,4015.116s4.024,34.658-7.126,49" transform="translate(-207.057 -123.31)" fill="#eee" stroke="#221f1f" stroke-miterlimit="10" stroke-width="0.5"/>
        <path id="패스_7189" data-name="패스 7189" d="M8989.949,4016.327s3.735,27.6-5.042,49.078" transform="translate(-192.26 -124.036)" fill="#eee" stroke="#221f1f" stroke-miterlimit="10" stroke-width="0.5"/>
        <path id="패스_7190" data-name="패스 7190" d="M8958.363,4017.086s5.356,29.614-5.444,49.419" transform="translate(-173.098 -124.49)" fill="#eee" stroke="#221f1f" stroke-miterlimit="10" stroke-width="0.5"/>
        <path id="패스_7191" data-name="패스 7191" d="M8935.17,4017.545s4.236,36.99-6.249,49.26" transform="translate(-158.722 -124.765)" fill="#eee" stroke="#221f1f" stroke-miterlimit="10" stroke-width="0.5"/>
        <path id="패스_7192" data-name="패스 7192" d="M8801.4,4018.571s-2.561,24.252,4.347,49.469" transform="translate(-82.051 -125.38)" fill="#eee" stroke="#221f1f" stroke-miterlimit="10" stroke-width="0.5"/>
        <path id="패스_7193" data-name="패스 7193" d="M8830.483,4018.831s-4.7,27.449,3.367,48.738" transform="translate(-98.941 -125.536)" fill="#eee" stroke="#221f1f" stroke-miterlimit="10" stroke-width="0.5"/>
        <path id="패스_7194" data-name="패스 7194" d="M8910.967,4018s1.879,41.136-5.046,49.269" transform="translate(-144.944 -125.038)" fill="#eee" stroke="#221f1f" stroke-miterlimit="10" stroke-width="0.5"/>
        <path id="패스_7195" data-name="패스 7195" d="M8859.058,4018.653s-3.471,8.124-.767,48.722" transform="translate(-115.795 -125.429)" fill="#eee" stroke="#221f1f" stroke-miterlimit="10" stroke-width="0.5"/>
        <path id="패스_7196" data-name="패스 7196" d="M8884.765,4018.41s1.073,41.124-1.842,49.21" transform="translate(-131.167 -125.284)" fill="#eee" stroke="#221f1f" stroke-miterlimit="10" stroke-width="0.5"/>
      </g>
      <g id="그룹_7893" data-name="그룹 7893" transform="translate(72.166 200.646)">
        <line id="선_2775" data-name="선 2775" y2="5" transform="translate(-17506.17 10225.436)" fill="none" stroke="#343434" stroke-width="1"/>
        <line id="선_2820" data-name="선 2820" y2="5" transform="translate(-17346.039 10225.436)" fill="none" stroke="#343434" stroke-width="1"/>
        <path id="패스_7180" data-name="패스 7180" d="M-19503.633,10468.324s79.342,23.751,160.131,0" transform="translate(1997.463 -240.389)" fill="none" stroke="#343434" stroke-width="1"/>
      </g>
      <g id="그룹_7808" data-name="그룹 7808" transform="translate(146.092 7256)">
        <line id="선_2771" data-name="선 2771" y2="126.516" transform="translate(-17499.5 3110.5)" fill="none" stroke="#343434" stroke-width="1"/>
        <line id="선_2772" data-name="선 2772" y2="5" transform="translate(-17497 3110) rotate(90)" fill="none" stroke="#343434" stroke-width="1"/>
        <line id="선_2773" data-name="선 2773" y2="5" transform="translate(-17497 3236.516) rotate(90)" fill="none" stroke="#343434" stroke-width="1"/>
      </g>
    </g>
  </g>
</svg>
