<svg xmlns="http://www.w3.org/2000/svg" width="470" height="510" viewBox="0 0 470 510">
  <g id="그룹_7866" data-name="그룹 7866" transform="translate(20719 -8814)">
    <rect id="사각형_2280" data-name="사각형 2280" width="470" height="510" transform="translate(-20719 8814)" fill="none"/>
    <g id="그룹_7831" data-name="그룹 7831" transform="translate(-22022 8587)">
      <g id="그룹_7820" data-name="그룹 7820" transform="translate(796.5 -3458.5)">
        <path id="패스_6990" data-name="패스 6990" d="M1231,3781.05l9.581-13.839,36.373-7.585,22.888,5.811,22.356,9.936-9.226,24.84-34.421,64.938-21.646,3.9" transform="translate(-406.763 -4.597)" fill="#eee"/>
        <path id="패스_6991" data-name="패스 6991" d="M1219.879,3925.818h0a7.548,7.548,0,0,0-2.242,5.125L1215.955,4080l-1.826,85a5.861,5.861,0,0,1-3.195,5.271,2.492,2.492,0,0,1-1.15.261c-5.956-.024-51.439-.255-53.442-1.182-.079-.037-.125-.123-.187-.185a11.75,11.75,0,0,1-3.395-8.236l-.325-105.765-.03-1.242c.147-22.715-.5-44.621-1.773-67.3-5.51-98.157,7.367-149.737,7.367-149.737" transform="translate(-354.03 -54.436)" fill="#eee" stroke="#221f1f" stroke-miterlimit="10" stroke-width="0.5"/>
        <path id="패스_6992" data-name="패스 6992" d="M1195.295,3780.768l-18.89,12.653-1.793,2.827-.744,5.318,16.7,51.208,43.222,38.428,6.609-6.877" transform="translate(-369.905 -18.237)" fill="#eee"/>
        <path id="패스_6993" data-name="패스 6993" d="M1350.1,3804.019" transform="translate(-483.6 -33.237)" fill="#eee" stroke="#221f1f" stroke-miterlimit="10" stroke-width="0.5"/>
        <path id="패스_6994" data-name="패스 6994" d="M1235.425,3774.974l-27.214,1.091a129.975,129.975,0,0,0-21.588,2.688h0a20.176,20.176,0,0,0-9.836,5.207l-2.971,2.859c.011-1.774-.669-6.392,3.308-17.722s57.59-9.736,57.59-9.736" transform="translate(-369.847 -4.377)" fill="#eee" stroke="#221f1f" stroke-miterlimit="10" stroke-width="0.5"/>
        <path id="패스_6995" data-name="패스 6995" d="M1348.7,3866.511" transform="translate(-482.694 -73.553)" fill="#eee" stroke="#221f1f" stroke-miterlimit="10" stroke-width="0.5"/>
        <path id="패스_6996" data-name="패스 6996" d="M1168.38,3884.127s40.483-4.351,47.209-1.823c0,0-3.536,52.852-2.137,56.055l-27.024,8.342-20.89-7.233S1166.592,3886.245,1168.38,3884.127Z" transform="translate(-364.53 -83.233)" fill="#eee" stroke="#221f1f" stroke-miterlimit="10" stroke-width="0.5"/>
        <path id="패스_6997" data-name="패스 6997" d="M1169.765,3855.352s51.706,5.3,63.07,3.956" transform="translate(-367.258 -66.355)" fill="#eee" stroke="#221f1f" stroke-miterlimit="10" stroke-width="0.5"/>
        <path id="패스_6998" data-name="패스 6998" d="M1220.6,4757.194s-44,2.483-61.39-3.194" transform="translate(-360.446 -646.111)" fill="#eee" stroke="#221f1f" stroke-miterlimit="10" stroke-width="0.5"/>
        <path id="패스_6999" data-name="패스 6999" d="M1348.357,3925.818h0a7.547,7.547,0,0,1,2.241,5.125L1352.281,4080l1.826,85a5.861,5.861,0,0,0,3.195,5.271,2.493,2.493,0,0,0,1.15.261c5.956-.024,51.439-.255,53.442-1.182.079-.037.125-.123.187-.185a11.75,11.75,0,0,0,3.395-8.236l.325-105.765.03-1.242c-.147-22.715.5-44.621,1.774-67.3,5.51-98.157-7.367-149.737-7.367-149.737" transform="translate(-482.475 -54.436)" fill="#eee" stroke="#221f1f" stroke-miterlimit="10" stroke-width="0.5"/>
        <path id="패스_7000" data-name="패스 7000" d="M695.5,3789.591l1.005,13.781,46.19.059-4.258-14.194-.4-.695Z" transform="translate(-61.289 -23.252)" fill="#eee"/>
        <path id="패스_7001" data-name="패스 7001" d="M641.383,3824.355,620.8,3824l-7.1,26.97h18.453l12.42-24.485Z" transform="translate(-8.518 -46.128)" fill="#eee"/>
        <path id="패스_7002" data-name="패스 7002" d="M711.4,3822.92l-45.776-1.419-12.42,62.455,54.293,31.937,10.646-4.968Z" transform="translate(-34.001 -44.515)" fill="#eee"/>
        <path id="패스_7003" data-name="패스 7003" d="M645.117,3799.882l-12.48-1.248a1.459,1.459,0,0,1-1.283-1.77,99.338,99.338,0,0,0,1.508-11.747,2.248,2.248,0,0,1,2.673-2.032c15.99,3.163,61.5,1.894,61.5,1.894" transform="translate(-19.882 -19.704)" fill="#eee" stroke="#221f1f" stroke-miterlimit="10" stroke-width="0.5"/>
        <path id="패스_7004" data-name="패스 7004" d="M675.177,3783.839l-2.1-.175a.765.765,0,0,0-.823.654c-.4,2.794-1.786,13.205-1.389,20.551a1.429,1.429,0,0,0,1.19,1.331,10.312,10.312,0,0,0,1.149.134,1.9,1.9,0,0,0,1.979-1.925c-.037-3.859-.075-15.931.834-19.385A.948.948,0,0,0,675.177,3783.839Z" transform="translate(-45.351 -20.104)" fill="#eee" stroke="#221f1f" stroke-miterlimit="10" stroke-width="0.5"/>
        <path id="패스_7005" data-name="패스 7005" d="M620.3,3826.5s-4.968,23.42-7.1,24.485" transform="translate(-8.196 -47.741)" fill="#eee" stroke="#221f1f" stroke-miterlimit="10" stroke-width="0.5"/>
        <path id="패스_7006" data-name="패스 7006" d="M675.447,3923.629l-.177.3a16.37,16.37,0,0,0-2.908,6.4,41.872,41.872,0,0,0-1.18,7.916l-1.59,28.625-1.836,19.541a593.716,593.716,0,0,0-2.5,66.806l.429,22.594-1.826,84.995a5.859,5.859,0,0,1-3.195,5.271,2.493,2.493,0,0,1-1.15.262c-5.956-.025-51.439-.255-53.442-1.183-.079-.037-.125-.122-.187-.184a11.753,11.753,0,0,1-3.394-8.236l-.325-105.765-.14-31.627q-.149-33.777-1.237-67.542c-1.442-43.453,2.878-85.26,3.971-94.963a1.776,1.776,0,0,1,2.225-1.512c22.829,6.044,28.538-20.819,28.538-20.819" transform="translate(0 -52.902)" fill="#eee" stroke="#221f1f" stroke-miterlimit="10" stroke-width="0.5"/>
        <path id="패스_7007" data-name="패스 7007" d="M667.594,4749.693s-44,2.484-61.39-3.193" transform="translate(-3.68 -641.273)" fill="#eee" stroke="#221f1f" stroke-miterlimit="10" stroke-width="0.5"/>
        <path id="패스_7008" data-name="패스 7008" d="M1380.367,3780.768l18.89,12.653,1.793,2.827.744,5.318-16.7,51.208L1341.87,3891.2l-6.609-6.877" transform="translate(-474.026 -18.237)" fill="#eee"/>
        <path id="패스_7009" data-name="패스 7009" d="M918.194,3824.355l20.582-.355,7.1,26.97H927.42L915,3826.484Z" transform="translate(-202.898 -46.128)" fill="#eee"/>
        <path id="패스_7010" data-name="패스 7010" d="M786.242,3822.92l45.776-1.419,12.42,62.455-54.293,31.937-10.646-4.968Z" transform="translate(-115.481 -44.515)" fill="#eee"/>
        <path id="패스_7011" data-name="패스 7011" d="M982.5,3826.5s4.968,23.42,7.1,24.485" transform="translate(-246.445 -47.741)" fill="#eee" stroke="#221f1f" stroke-miterlimit="10" stroke-width="0.5"/>
        <path id="패스_7012" data-name="패스 7012" d="M807.5,3925.7a12.636,12.636,0,0,1,1.844,4.623,41.872,41.872,0,0,1,1.18,7.916l1.59,28.625,1.836,19.541a593.7,593.7,0,0,1,2.5,66.806l-.429,22.594,1.826,84.995a5.861,5.861,0,0,0,3.195,5.271,2.5,2.5,0,0,0,1.15.262c5.956-.025,51.439-.255,53.442-1.183.079-.037.125-.122.187-.184a11.752,11.752,0,0,0,3.394-8.236l.325-105.765.14-31.627q.15-33.777,1.238-67.542c1.442-43.453-2.878-85.26-3.971-94.963a1.776,1.776,0,0,0-2.225-1.512c-22.829,6.044-28.538-20.819-28.538-20.819" transform="translate(-133.545 -52.902)" fill="#eee" stroke="#221f1f" stroke-miterlimit="10" stroke-width="0.5"/>
        <path id="패스_7013" data-name="패스 7013" d="M806.5,3902.826s16.678,2.839,17.388-21.646l.355-44.18" transform="translate(-132.9 -54.515)" fill="#eee" stroke="#221f1f" stroke-miterlimit="10" stroke-width="0.5"/>
        <path id="패스_7014" data-name="패스 7014" d="M836.5,4749.693s44,2.484,61.39-3.193" transform="translate(-152.254 -641.273)" fill="#eee" stroke="#221f1f" stroke-miterlimit="10" stroke-width="0.5"/>
        <path id="패스_7015" data-name="패스 7015" d="M1346.521,3804.019" transform="translate(-481.291 -33.237)" fill="#eee" stroke="#221f1f" stroke-miterlimit="10" stroke-width="0.5"/>
        <path id="패스_7016" data-name="패스 7016" d="M1408.994,3779.945l7.142,6.874c-.012-1.774.668-6.392-3.309-17.722s-55.327-9.736-55.327-9.736" transform="translate(-488.374 -4.377)" fill="#eee" stroke="#221f1f" stroke-miterlimit="10" stroke-width="0.5"/>
        <line id="선_2790" data-name="선 2790" x2="34.431" y2="1.374" transform="translate(869.843 3770.752)" fill="#eee" stroke="#221f1f" stroke-miterlimit="10" stroke-width="0.5"/>
        <path id="패스_7017" data-name="패스 7017" d="M1448.128,3769.859a.846.846,0,0,0-.762.862l.439,15.553s-.347,1.244,2.85,1.756c0,0,13.5,2.042,15.281,3.449,0,0,1.427,1.056,1.039-3.91l-.741-11.942a1.757,1.757,0,0,0-.761-1.344A26.7,26.7,0,0,0,1448.128,3769.859Z" transform="translate(-546.349 -11.113)" fill="#eee" stroke="#221f1f" stroke-miterlimit="10" stroke-width="0.5"/>
        <path id="패스_7018" data-name="패스 7018" d="M1346.818,3756.673a1.52,1.52,0,0,0-1.407,1.607c.211,3.617.829,14.848.587,18.608a1.965,1.965,0,0,0,1.3,1.991,4.07,4.07,0,0,0,1.5.238,2.045,2.045,0,0,0,1.945-2.137l-.742-18.724a1.522,1.522,0,0,0-1.238-1.436A7.808,7.808,0,0,0,1346.818,3756.673Z" transform="translate(-480.572 -2.684)" fill="#eee" stroke="#221f1f" stroke-miterlimit="10" stroke-width="0.5"/>
        <line id="선_2791" data-name="선 2791" y1="97.231" x2="0.432" transform="translate(865.18 3775.038)" fill="#eee" stroke="#221f1f" stroke-miterlimit="10" stroke-width="0.5"/>
        <path id="패스_7019" data-name="패스 7019" d="M1347.926,3866.511" transform="translate(-482.197 -73.553)" fill="#eee" stroke="#221f1f" stroke-miterlimit="10" stroke-width="0.5"/>
        <path id="패스_7020" data-name="패스 7020" d="M1352.949,3819.947s-.846,88.185-2.572,95.648" transform="translate(-483.778 -43.513)" fill="#eee" stroke="#221f1f" stroke-miterlimit="10" stroke-width="0.5"/>
        <path id="패스_7021" data-name="패스 7021" d="M683.2,3832.5c9.226,2.129,41.327,1.351,46.591,1.064" transform="translate(-53.356 -51.612)" fill="#eee" stroke="#221f1f" stroke-miterlimit="10" stroke-width="0.5"/>
        <line id="선_2792" data-name="선 2792" x1="1.065" y1="90.843" transform="translate(672.891 3782.131)" fill="#eee" stroke="#221f1f" stroke-miterlimit="10" stroke-width="0.5"/>
        <path id="패스_7022" data-name="패스 7022" d="M787,3752.5" transform="translate(-120.319)" fill="none" stroke="#eee" stroke-miterlimit="10" stroke-width="1"/>
        <path id="패스_7023" data-name="패스 7023" d="M1437.248,3884.127s-40.483-4.351-47.209-1.823c0,0,3.536,52.852,2.137,56.055l27.024,8.342,20.89-7.233S1439.036,3886.245,1437.248,3884.127Z" transform="translate(-509.366 -83.233)" fill="#eee" stroke="#221f1f" stroke-miterlimit="10" stroke-width="0.5"/>
        <path id="패스_7024" data-name="패스 7024" d="M1417.6,3855.352s-48.733,5.3-60.1,3.956" transform="translate(-488.374 -66.355)" fill="#eee" stroke="#221f1f" stroke-miterlimit="10" stroke-width="0.5"/>
        <path id="패스_7025" data-name="패스 7025" d="M1320.1,3808.019" transform="translate(-464.246 -35.818)" fill="#eee" stroke="#221f1f" stroke-miterlimit="10" stroke-width="0.5"/>
        <path id="패스_7026" data-name="패스 7026" d="M1318.7,3870.511" transform="translate(-463.34 -76.134)" fill="#eee" stroke="#221f1f" stroke-miterlimit="10" stroke-width="0.5"/>
        <path id="패스_7027" data-name="패스 7027" d="M1364.416,4757.194s44,2.483,61.39-3.194" transform="translate(-492.835 -646.111)" fill="#eee" stroke="#221f1f" stroke-miterlimit="10" stroke-width="0.5"/>
        <path id="패스_7028" data-name="패스 7028" d="M853.559,3799.882l12.48-1.248a1.46,1.46,0,0,0,1.283-1.77,99.338,99.338,0,0,1-1.508-11.747,2.248,2.248,0,0,0-2.673-2.032c-15.99,3.163-58.2,1.894-58.2,1.894s-3.1-.344-1.5,15.907a.9.9,0,0,0,.851.814c5.265.287,35.422,1.021,44.649-1.108" transform="translate(-130.634 -19.704)" fill="#eee" stroke="#221f1f" stroke-miterlimit="10" stroke-width="0.5"/>
        <path id="패스_7029" data-name="패스 7029" d="M930.975,3783.839l2.1-.175a.765.765,0,0,1,.823.654c.4,2.794,1.786,13.205,1.389,20.551a1.429,1.429,0,0,1-1.19,1.331,10.3,10.3,0,0,1-1.149.134,1.9,1.9,0,0,1-1.98-1.925c.037-3.859.075-15.931-.834-19.385A.948.948,0,0,1,930.975,3783.839Z" transform="translate(-212.641 -20.104)" fill="#eee" stroke="#221f1f" stroke-miterlimit="10" stroke-width="0.5"/>
        <ellipse id="타원_97" data-name="타원 97" cx="2.809" cy="3.371" rx="2.809" ry="3.371" transform="translate(677.118 3770.477)" fill="#eee" stroke="#221f1f" stroke-miterlimit="10" stroke-width="0.5"/>
      </g>
      <g id="그룹_7807" data-name="그룹 7807" transform="translate(18867 -2806)">
        <line id="선_2771" data-name="선 2771" y2="348.865" transform="translate(-17499.5 3110.5)" fill="none" stroke="#343434" stroke-width="1"/>
        <line id="선_2772" data-name="선 2772" y2="5" transform="translate(-17497 3110) rotate(90)" fill="none" stroke="#343434" stroke-width="1"/>
        <line id="선_2773" data-name="선 2773" y2="5" transform="translate(-17497 3458.865) rotate(90)" fill="none" stroke="#343434" stroke-width="1"/>
      </g>
      <g id="그룹_7805" data-name="그룹 7805" transform="translate(18867 -2805)">
        <line id="선_2774" data-name="선 2774" x2="116.326" transform="translate(-17456.5 3095)" fill="none" stroke="#343434" stroke-width="1"/>
        <line id="선_2775" data-name="선 2775" y2="5" transform="translate(-17456.326 3092.5)" fill="none" stroke="#343434" stroke-width="1"/>
        <line id="선_2776" data-name="선 2776" y2="5" transform="translate(-17339.949 3092.5)" fill="none" stroke="#343434" stroke-width="1"/>
      </g>
      <g id="그룹_7806" data-name="그룹 7806" transform="translate(18934.5 -2420)">
        <line id="선_2774-2" data-name="선 2774" x2="60.434" transform="translate(-17456.5 3095)" fill="none" stroke="#343434" stroke-width="1"/>
        <line id="선_2775-2" data-name="선 2775" y2="5" transform="translate(-17456.326 3092.5)" fill="none" stroke="#343434" stroke-width="1"/>
        <line id="선_2776-2" data-name="선 2776" y2="5" transform="translate(-17395.842 3092.5)" fill="none" stroke="#343434" stroke-width="1"/>
      </g>
      <g id="그룹_7804" data-name="그룹 7804" transform="translate(18881 -2778)">
        <line id="선_2778" data-name="선 2778" x2="138.93" transform="translate(-17480 3155.5)" fill="none" stroke="#343434" stroke-width="1"/>
        <line id="선_2777" data-name="선 2777" y2="5" transform="translate(-17479.768 3153)" fill="none" stroke="#343434" stroke-width="1"/>
        <line id="선_2779" data-name="선 2779" y2="5" transform="translate(-17341.008 3153)" fill="none" stroke="#343434" stroke-width="1"/>
      </g>
      <g id="그룹_7808" data-name="그룹 7808" transform="translate(18977.5 -2784.696)">
        <line id="선_2771-2" data-name="선 2771" y2="89.247" transform="translate(-17499.5 3110.5)" fill="none" stroke="#343434" stroke-width="1"/>
        <line id="선_2772-2" data-name="선 2772" y2="5" transform="translate(-17497 3110) rotate(90)" fill="none" stroke="#343434" stroke-width="1"/>
        <line id="선_2773-2" data-name="선 2773" y2="5" transform="translate(-17497 3199.247) rotate(90)" fill="none" stroke="#343434" stroke-width="1"/>
      </g>
      <g id="그룹_7809" data-name="그룹 7809" transform="translate(19170.5 -2795.193)">
        <line id="선_2771-3" data-name="선 2771" y2="97.624" transform="translate(-17499.5 3110.5)" fill="none" stroke="#343434" stroke-width="1"/>
        <line id="선_2772-3" data-name="선 2772" y2="5" transform="translate(-17497 3110) rotate(90)" fill="none" stroke="#343434" stroke-width="1"/>
        <line id="선_2773-3" data-name="선 2773" y2="5" transform="translate(-17497 3207.624) rotate(90)" fill="none" stroke="#343434" stroke-width="1"/>
      </g>
    </g>
  </g>
</svg>
