<svg xmlns="http://www.w3.org/2000/svg" width="320" height="339" viewBox="0 0 320 339">
  <g id="그룹_7990" data-name="그룹 7990" transform="translate(-20 -917)">
    <rect id="사각형_2301" data-name="사각형 2301" width="320" height="339" transform="translate(20 917)" fill="none"/>
    <g id="그룹_7988" data-name="그룹 7988" transform="translate(5584.25 2818.811)">
      <g id="그룹_7820" data-name="그룹 7820" transform="translate(-6100.75 -5602.311)">
        <path id="패스_6990" data-name="패스 6990" d="M1231,3772.92l5.945-8.588,22.571-4.707,14.2,3.606,13.873,6.166-5.725,15.415-21.359,40.3-13.432,2.422" transform="translate(-491.663 -5.556)" fill="#eee"/>
        <path id="패스_6991" data-name="패스 6991" d="M1193.082,3892.068h0a4.683,4.683,0,0,0-1.391,3.18l-1.044,92.495-1.133,52.743a3.637,3.637,0,0,1-1.982,3.271,1.549,1.549,0,0,1-.714.162c-3.7-.015-31.92-.159-33.163-.733-.049-.023-.077-.076-.116-.115a7.292,7.292,0,0,1-2.106-5.11l-.2-65.631-.019-.771c.091-14.1-.311-27.688-1.1-41.763-3.419-60.91,4.572-92.917,4.572-92.917" transform="translate(-427.923 -65.798)" fill="#eee" stroke="#221f1f" stroke-miterlimit="10" stroke-width="0.5"/>
        <path id="패스_6992" data-name="패스 6992" d="M1187.164,3780.768l-11.722,7.852-1.112,1.754-.462,3.3,10.364,31.776,26.821,23.846,4.1-4.268" transform="translate(-447.112 -22.043)" fill="#eee"/>
        <path id="패스_6993" data-name="패스 6993" d="M1350.1,3804.019" transform="translate(-584.538 -40.174)" fill="#eee" stroke="#221f1f" stroke-miterlimit="10" stroke-width="0.5"/>
        <path id="패스_6994" data-name="패스 6994" d="M1212.033,3769.02l-16.887.677a80.673,80.673,0,0,0-13.4,1.668h0a12.521,12.521,0,0,0-6.1,3.231l-1.843,1.774c.007-1.1-.415-3.966,2.053-11s35.737-6.042,35.737-6.042" transform="translate(-447.042 -5.29)" fill="#eee" stroke="#221f1f" stroke-miterlimit="10" stroke-width="0.5"/>
        <path id="패스_6995" data-name="패스 6995" d="M1348.7,3866.511" transform="translate(-583.442 -88.906)" fill="#eee" stroke="#221f1f" stroke-miterlimit="10" stroke-width="0.5"/>
        <path id="패스_6996" data-name="패스 6996" d="M1167.3,3883.135s25.121-2.7,29.295-1.131c0,0-2.194,32.8-1.326,34.784l-16.769,5.176-12.963-4.488S1166.191,3884.45,1167.3,3883.135Z" transform="translate(-440.615 -100.605)" fill="#eee" stroke="#221f1f" stroke-miterlimit="10" stroke-width="0.5"/>
        <path id="패스_6997" data-name="패스 6997" d="M1169.765,3855.352s32.085,3.29,39.137,2.455" transform="translate(-443.912 -80.204)" fill="#eee" stroke="#221f1f" stroke-miterlimit="10" stroke-width="0.5"/>
        <path id="패스_6998" data-name="패스 6998" d="M1197.3,4755.982s-27.3,1.542-38.095-1.982" transform="translate(-435.679 -780.969)" fill="#eee" stroke="#221f1f" stroke-miterlimit="10" stroke-width="0.5"/>
        <path id="패스_6999" data-name="패스 6999" d="M1348.357,3892.068h0a4.682,4.682,0,0,1,1.391,3.18l1.044,92.495,1.133,52.743a3.637,3.637,0,0,0,1.983,3.271,1.549,1.549,0,0,0,.714.162c3.7-.015,31.92-.159,33.163-.733.049-.023.078-.076.116-.115a7.291,7.291,0,0,0,2.106-5.11l.2-65.631.018-.771c-.091-14.1.311-27.688,1.1-41.763,3.419-60.91-4.572-92.917-4.572-92.917" transform="translate(-583.178 -65.798)" fill="#eee" stroke="#221f1f" stroke-miterlimit="10" stroke-width="0.5"/>
        <path id="패스_7000" data-name="패스 7000" d="M695.5,3789.193l.624,8.552,28.663.036-2.642-8.808-.248-.431Z" transform="translate(-74.081 -28.106)" fill="#eee"/>
        <path id="패스_7001" data-name="패스 7001" d="M630.879,3824.22l-12.772-.22-4.4,16.736h11.45l7.707-15.194Z" transform="translate(-10.296 -55.756)" fill="#eee"/>
        <path id="패스_7002" data-name="패스 7002" d="M689.317,3822.381l-28.406-.881-7.707,38.755,33.691,19.818,6.606-3.083Z" transform="translate(-41.098 -53.806)" fill="#eee"/>
        <path id="패스_7003" data-name="패스 7003" d="M639.88,3793.492l-7.744-.774a.905.905,0,0,1-.8-1.1,61.639,61.639,0,0,0,.936-7.29,1.4,1.4,0,0,1,1.659-1.261c9.923,1.963,38.16,1.175,38.16,1.175" transform="translate(-24.031 -23.816)" fill="#eee" stroke="#221f1f" stroke-miterlimit="10" stroke-width="0.5"/>
        <path id="패스_7004" data-name="패스 7004" d="M673.514,3783.771l-1.3-.108a.474.474,0,0,0-.511.406,77.7,77.7,0,0,0-.862,12.752.887.887,0,0,0,.738.826,6.4,6.4,0,0,0,.713.083,1.178,1.178,0,0,0,1.228-1.194c-.023-2.4-.046-9.886.517-12.029A.588.588,0,0,0,673.514,3783.771Z" transform="translate(-54.816 -24.3)" fill="#eee" stroke="#221f1f" stroke-miterlimit="10" stroke-width="0.5"/>
        <path id="패스_7005" data-name="패스 7005" d="M617.608,3826.5s-3.083,14.533-4.4,15.194" transform="translate(-9.907 -57.705)" fill="#eee" stroke="#221f1f" stroke-miterlimit="10" stroke-width="0.5"/>
        <path id="패스_7006" data-name="패스 7006" d="M647.007,3889.808l-.11.183a10.158,10.158,0,0,0-1.8,3.97,25.982,25.982,0,0,0-.732,4.912l-.987,17.763-1.14,12.126a368.4,368.4,0,0,0-1.549,41.455l.266,14.021-1.133,52.742a3.636,3.636,0,0,1-1.982,3.271,1.543,1.543,0,0,1-.714.163c-3.7-.016-31.919-.159-33.163-.734-.049-.023-.077-.076-.116-.114a7.294,7.294,0,0,1-2.106-5.111l-.2-65.631-.087-19.625q-.092-20.96-.768-41.912a440.955,440.955,0,0,1,2.464-58.928,1.1,1.1,0,0,1,1.381-.938c14.166,3.75,17.709-12.919,17.709-12.919" transform="translate(0 -63.944)" fill="#eee" stroke="#221f1f" stroke-miterlimit="10" stroke-width="0.5"/>
        <path id="패스_7007" data-name="패스 7007" d="M644.3,4748.481s-27.3,1.542-38.095-1.981" transform="translate(-4.448 -775.12)" fill="#eee" stroke="#221f1f" stroke-miterlimit="10" stroke-width="0.5"/>
        <path id="패스_7008" data-name="패스 7008" d="M1363.251,3780.768l11.722,7.852,1.112,1.754.462,3.3-10.364,31.776-26.821,23.846-4.1-4.268" transform="translate(-572.966 -22.043)" fill="#eee"/>
        <path id="패스_7009" data-name="패스 7009" d="M916.982,3824.22l12.772-.22,4.4,16.736h-11.45L915,3825.542Z" transform="translate(-245.247 -55.756)" fill="#eee"/>
        <path id="패스_7010" data-name="패스 7010" d="M783.684,3822.381l28.406-.881,7.707,38.755-33.691,19.818-6.606-3.083Z" transform="translate(-139.584 -53.806)" fill="#eee"/>
        <path id="패스_7011" data-name="패스 7011" d="M982.5,3826.5s3.083,14.533,4.4,15.194" transform="translate(-297.883 -57.705)" fill="#eee" stroke="#221f1f" stroke-miterlimit="10" stroke-width="0.5"/>
        <path id="패스_7012" data-name="패스 7012" d="M807.5,3891.092a7.842,7.842,0,0,1,1.144,2.869,25.982,25.982,0,0,1,.732,4.912l.987,17.763,1.139,12.126a368.418,368.418,0,0,1,1.549,41.455l-.266,14.021,1.133,52.742a3.637,3.637,0,0,0,1.982,3.271,1.545,1.545,0,0,0,.714.163c3.7-.016,31.92-.159,33.163-.734.049-.023.078-.076.116-.114a7.293,7.293,0,0,0,2.106-5.111l.2-65.631.087-19.625q.093-20.96.768-41.912a441.018,441.018,0,0,0-2.464-58.928,1.1,1.1,0,0,0-1.381-.938c-14.167,3.75-17.709-12.919-17.709-12.919" transform="translate(-161.418 -63.944)" fill="#eee" stroke="#221f1f" stroke-miterlimit="10" stroke-width="0.5"/>
        <path id="패스_7013" data-name="패스 7013" d="M806.5,3877.847s10.349,1.762,10.79-13.432l.22-27.415" transform="translate(-160.639 -65.893)" fill="#eee" stroke="#221f1f" stroke-miterlimit="10" stroke-width="0.5"/>
        <path id="패스_7014" data-name="패스 7014" d="M836.5,4748.481s27.3,1.542,38.095-1.981" transform="translate(-184.032 -775.12)" fill="#eee" stroke="#221f1f" stroke-miterlimit="10" stroke-width="0.5"/>
        <path id="패스_7015" data-name="패스 7015" d="M1346.521,3804.019" transform="translate(-581.746 -40.174)" fill="#eee" stroke="#221f1f" stroke-miterlimit="10" stroke-width="0.5"/>
        <path id="패스_7016" data-name="패스 7016" d="M1389.454,3772.1l4.432,4.265c-.007-1.1.415-3.966-2.053-11s-34.332-6.042-34.332-6.042" transform="translate(-590.308 -5.29)" fill="#eee" stroke="#221f1f" stroke-miterlimit="10" stroke-width="0.5"/>
        <line id="선_2790" data-name="선 2790" x2="21.365" y2="0.853" transform="translate(767.637 3763.826)" fill="#eee" stroke="#221f1f" stroke-miterlimit="10" stroke-width="0.5"/>
        <path id="패스_7017" data-name="패스 7017" d="M1447.838,3769.808a.525.525,0,0,0-.473.535l.273,9.651s-.215.772,1.769,1.09c0,0,8.376,1.267,9.483,2.14,0,0,.885.655.645-2.426l-.46-7.41a1.091,1.091,0,0,0-.473-.834A16.57,16.57,0,0,0,1447.838,3769.808Z" transform="translate(-660.384 -13.432)" fill="#eee" stroke="#221f1f" stroke-miterlimit="10" stroke-width="0.5"/>
        <path id="패스_7018" data-name="패스 7018" d="M1346.282,3756.668a.944.944,0,0,0-.873,1c.131,2.245.514,9.214.364,11.547a1.219,1.219,0,0,0,.808,1.235,2.527,2.527,0,0,0,.931.148,1.27,1.27,0,0,0,1.207-1.326l-.461-11.619a.944.944,0,0,0-.768-.891A4.848,4.848,0,0,0,1346.282,3756.668Z" transform="translate(-580.878 -3.244)" fill="#eee" stroke="#221f1f" stroke-miterlimit="10" stroke-width="0.5"/>
        <line id="선_2791" data-name="선 2791" y1="60.335" x2="0.268" transform="translate(764.744 3766.486)" fill="#eee" stroke="#221f1f" stroke-miterlimit="10" stroke-width="0.5"/>
        <path id="패스_7019" data-name="패스 7019" d="M1347.926,3866.511" transform="translate(-582.842 -88.906)" fill="#eee" stroke="#221f1f" stroke-miterlimit="10" stroke-width="0.5"/>
        <path id="패스_7020" data-name="패스 7020" d="M1351.973,3819.947s-.525,54.722-1.6,59.354" transform="translate(-584.753 -52.595)" fill="#eee" stroke="#221f1f" stroke-miterlimit="10" stroke-width="0.5"/>
        <path id="패스_7021" data-name="패스 7021" d="M683.2,3832.5c5.725,1.321,25.645.838,28.911.66" transform="translate(-64.492 -62.384)" fill="#eee" stroke="#221f1f" stroke-miterlimit="10" stroke-width="0.5"/>
        <line id="선_2792" data-name="선 2792" x1="0.661" y1="56.371" transform="translate(645.421 3770.887)" fill="#eee" stroke="#221f1f" stroke-miterlimit="10" stroke-width="0.5"/>
        <path id="패스_7022" data-name="패스 7022" d="M787,3752.5" transform="translate(-145.432)" fill="none" stroke="#eee" stroke-miterlimit="10" stroke-width="1"/>
        <path id="패스_7023" data-name="패스 7023" d="M1419.334,3883.135s-25.121-2.7-29.295-1.131c0,0,2.194,32.8,1.326,34.784l16.769,5.176,12.963-4.488S1420.443,3884.45,1419.334,3883.135Z" transform="translate(-615.682 -100.605)" fill="#eee" stroke="#221f1f" stroke-miterlimit="10" stroke-width="0.5"/>
        <path id="패스_7024" data-name="패스 7024" d="M1394.793,3855.352s-30.241,3.29-37.293,2.455" transform="translate(-590.308 -80.204)" fill="#eee" stroke="#221f1f" stroke-miterlimit="10" stroke-width="0.5"/>
        <path id="패스_7025" data-name="패스 7025" d="M1320.1,3808.019" transform="translate(-561.144 -43.294)" fill="#eee" stroke="#221f1f" stroke-miterlimit="10" stroke-width="0.5"/>
        <path id="패스_7026" data-name="패스 7026" d="M1318.7,3870.511" transform="translate(-560.048 -92.025)" fill="#eee" stroke="#221f1f" stroke-miterlimit="10" stroke-width="0.5"/>
        <path id="패스_7027" data-name="패스 7027" d="M1364.416,4755.982s27.3,1.542,38.095-1.982" transform="translate(-595.701 -780.969)" fill="#eee" stroke="#221f1f" stroke-miterlimit="10" stroke-width="0.5"/>
        <path id="패스_7028" data-name="패스 7028" d="M834.369,3793.492l7.745-.774a.906.906,0,0,0,.8-1.1,61.626,61.626,0,0,1-.936-7.29,1.4,1.4,0,0,0-1.659-1.261c-9.923,1.963-36.113,1.175-36.113,1.175s-1.921-.214-.929,9.871a.561.561,0,0,0,.528.505c3.267.178,21.981.633,27.706-.687" transform="translate(-157.9 -23.816)" fill="#eee" stroke="#221f1f" stroke-miterlimit="10" stroke-width="0.5"/>
        <path id="패스_7029" data-name="패스 7029" d="M930.644,3783.771l1.3-.108a.474.474,0,0,1,.511.406,77.693,77.693,0,0,1,.862,12.752.886.886,0,0,1-.738.826,6.393,6.393,0,0,1-.713.083,1.178,1.178,0,0,1-1.229-1.194c.023-2.4.047-9.886-.517-12.029A.588.588,0,0,1,930.644,3783.771Z" transform="translate(-257.023 -24.3)" fill="#eee" stroke="#221f1f" stroke-miterlimit="10" stroke-width="0.5"/>
        <ellipse id="타원_97" data-name="타원 97" cx="1.743" cy="2.092" rx="1.743" ry="2.092" transform="translate(648.044 3763.655)" fill="#eee" stroke="#221f1f" stroke-miterlimit="10" stroke-width="0.5"/>
      </g>
      <g id="그룹_7807" data-name="그룹 7807" transform="translate(11979.75 -4954)">
        <line id="선_2771" data-name="선 2771" y2="217.486" transform="translate(-17499.5 3110.5)" fill="none" stroke="#343434" stroke-width="1"/>
        <line id="선_2772" data-name="선 2772" y2="5" transform="translate(-17497 3110) rotate(90)" fill="none" stroke="#343434" stroke-width="1"/>
        <line id="선_2773" data-name="선 2773" y2="5" transform="translate(-17497 3327.486) rotate(90)" fill="none" stroke="#343434" stroke-width="1"/>
      </g>
      <g id="그룹_7805" data-name="그룹 7805" transform="translate(11964 -4943.811)">
        <line id="선_2774" data-name="선 2774" x2="74.848" transform="translate(-17456.5 3095)" fill="none" stroke="#343434" stroke-width="1"/>
        <line id="선_2775" data-name="선 2775" y2="5" transform="translate(-17456.326 3092.5)" fill="none" stroke="#343434" stroke-width="1"/>
        <line id="선_2776" data-name="선 2776" y2="5" transform="translate(-17381.428 3092.5)" fill="none" stroke="#343434" stroke-width="1"/>
      </g>
      <g id="그룹_7806" data-name="그룹 7806" transform="translate(12007.5 -4714)">
        <line id="선_2774-2" data-name="선 2774" x2="40.768" transform="translate(-17456.5 3095)" fill="none" stroke="#343434" stroke-width="1"/>
        <line id="선_2775-2" data-name="선 2775" y2="5" transform="translate(-17456.326 3092.5)" fill="none" stroke="#343434" stroke-width="1"/>
        <line id="선_2776-2" data-name="선 2776" y2="5" transform="translate(-17415.508 3092.5)" fill="none" stroke="#343434" stroke-width="1"/>
      </g>
      <g id="그룹_7804" data-name="그룹 7804" transform="translate(11982 -4943)">
        <line id="선_2778" data-name="선 2778" x2="86.503" transform="translate(-17480 3155.5)" fill="none" stroke="#343434" stroke-width="1"/>
        <line id="선_2777" data-name="선 2777" y2="5" transform="translate(-17479.768 3153)" fill="none" stroke="#343434" stroke-width="1"/>
        <line id="선_2779" data-name="선 2779" y2="5" transform="translate(-17393.434 3153)" fill="none" stroke="#343434" stroke-width="1"/>
      </g>
      <g id="그룹_7808" data-name="그룹 7808" transform="translate(12050.5 -4938.595)">
        <line id="선_2771-2" data-name="선 2771" y2="54.223" transform="translate(-17499.5 3110.5)" fill="none" stroke="#343434" stroke-width="1"/>
        <line id="선_2772-2" data-name="선 2772" y2="5" transform="translate(-17497 3110) rotate(90)" fill="none" stroke="#343434" stroke-width="1"/>
        <line id="선_2773-2" data-name="선 2773" y2="5" transform="translate(-17497 3164.223) rotate(90)" fill="none" stroke="#343434" stroke-width="1"/>
      </g>
      <g id="그룹_7809" data-name="그룹 7809" transform="translate(12171.5 -4956)">
        <line id="선_2771-3" data-name="선 2771" y2="68.105" transform="translate(-17499.5 3110.5)" fill="none" stroke="#343434" stroke-width="1"/>
        <line id="선_2772-3" data-name="선 2772" y2="5" transform="translate(-17497 3110) rotate(90)" fill="none" stroke="#343434" stroke-width="1"/>
        <line id="선_2773-3" data-name="선 2773" y2="5" transform="translate(-17497 3178.105) rotate(90)" fill="none" stroke="#343434" stroke-width="1"/>
      </g>
    </g>
  </g>
</svg>
