<svg xmlns="http://www.w3.org/2000/svg" width="470" height="510" viewBox="0 0 470 510">
  <g id="그룹_7887" data-name="그룹 7887" transform="translate(-1330 -211)">
    <rect id="사각형_2270" data-name="사각형 2270" width="470" height="510" transform="translate(1330 211)" fill="none"/>
    <g id="그룹_7885" data-name="그룹 7885" transform="translate(22803.75 -10015.936)">
      <g id="그룹_7806" data-name="그룹 7806" transform="translate(-3699.501 7427.113)">
        <line id="선_2774" data-name="선 2774" x2="86.292" transform="translate(-17456.5 3095)" fill="none" stroke="#343434" stroke-width="1"/>
        <line id="선_2775" data-name="선 2775" y2="5" transform="translate(-17456.326 3092.5)" fill="none" stroke="#343434" stroke-width="1"/>
        <line id="선_2776" data-name="선 2776" y2="5" transform="translate(-17369.984 3092.5)" fill="none" stroke="#343434" stroke-width="1"/>
      </g>
      <g id="그룹_7884" data-name="그룹 7884" transform="translate(-31831.934 6541.274)">
        <path id="패스_7157" data-name="패스 7157" d="M11184.689,4111.413s46.334,8.177,89.164-1.557c0,0,2.726,10.123,2.726,10.9s-50.228,10.124-91.89,1.558C11145.084,4114.172,11184.689,4111.413,11184.689,4111.413Z" transform="translate(-509.922 -165.774)" fill="#eee"/>
        <path id="패스_7158" data-name="패스 7158" d="M11337.991,3869.406a10.194,10.194,0,0,0-5.826-3.322c-6.178-.673-8.694,2.928-8.694,2.928" transform="translate(-611.908 -6.742)" fill="#eee" stroke="#221f1f" stroke-miterlimit="10" stroke-width="0.5"/>
        <path id="패스_7159" data-name="패스 7159" d="M10435.534,4088.875l-45.826,41.818s-9.9,7.423-.413,10.374a6.442,6.442,0,0,0,.817.19c3.832.666,33.866,6.162,47.945,17.383a70.958,70.958,0,0,0,8.169,5.692c8.021,4.722,22.753,12.259,35.395,12.477,0,0,5.334.6,14.019-1.7a61.716,61.716,0,0,0,32.9-21.952l27.5-35.506" transform="translate(0 -152.091)" fill="#eee" stroke="#221f1f" stroke-miterlimit="10" stroke-width="0.5"/>
        <path id="패스_7160" data-name="패스 7160" d="M10414.375,4180.157s-2.255,2.255,11.022,5.874c5.882,1.6,11.692,3.464,17.392,5.633,10.717,4.08,26.8,10.7,38.957,17.9a47.132,47.132,0,0,0,22.443,6.69c10.1.324,22.762-2.372,32.949-14.47l24.171-29.26" transform="translate(-18.943 -206.643)" fill="#eee" stroke="#221f1f" stroke-miterlimit="10" stroke-width="0.5"/>
        <path id="패스_7161" data-name="패스 7161" d="M10425.619,4176.34s.318,3.181,11.658,6.828c5.8,1.868,5.834,1.123,11.031,3.089,10.726,4.058,26.795,10.7,38.955,17.9a48.813,48.813,0,0,0,22.445,6.69c15.775.8,24.669-4.916,34.857-17.014l17.492-21.309" transform="translate(-26.37 -206.643)" fill="#eee" stroke="#221f1f" stroke-miterlimit="10" stroke-width="0.5"/>
        <path id="패스_7162" data-name="패스 7162" d="M10434.488,4172.881s-2.254,2.572,11.022,6.192c5.884,1.6,5.834,1.123,11.032,3.088,10.725,4.058,26.8,10.7,38.955,17.9,6.824,4.039,14.074,5.642,22,5.9,10.1.325,18.436-1.578,28.623-13.676l16.856-20.673" transform="translate(-32.059 -206.046)" fill="#eee" stroke="#221f1f" stroke-miterlimit="10" stroke-width="0.5"/>
        <path id="패스_7163" data-name="패스 7163" d="M10531.563,3917.958c1.53-4.872,3.014-9.758,4.5-14.644,3.309-10.906,20.285-54.074,80.116-46.839,0,0,48.362,5.581,59.1,42.73a49.809,49.809,0,0,1,1.857,15.512c-.309,9.2-1.515,31.468-6.1,44.686a6.677,6.677,0,0,0-.189.686c-.167.731-1.1,2.9-6.324,4.2,0,0-37.529,5.407-66.153-2.862,0,0-49.683-17.152-59.22-18.377a17.414,17.414,0,0,1-3.5-.794c-3.956-1.373-10.721-4.956-7.808-12.9.492-1.343.983-2.685,1.412-4.049Z" transform="translate(-92.572)" fill="#eee" stroke="#221f1f" stroke-miterlimit="10" stroke-width="0.5"/>
        <path id="패스_7164" data-name="패스 7164" d="M10828.137,3868.513s32.682,26.875,3.1,105.749" transform="translate(-288.873 -8.38)" fill="none" stroke="#221f1f" stroke-miterlimit="10" stroke-width="0.5"/>
        <path id="패스_7165" data-name="패스 7165" d="M10862.662,3882.685s34.349,21.627,4.771,100.5" transform="translate(-311.389 -17.623)" fill="none" stroke="#221f1f" stroke-miterlimit="10" stroke-width="0.5"/>
        <path id="패스_7166" data-name="패스 7166" d="M11105.706,3934.5s12.656-55.377,73.609-60.054c0,0,54.409-3.138,73.978,41.213.72,1.631,1.289,3.321,1.967,4.969,3.054,7.438,10.893,29.916,11.729,48.571.018.379.057.756.1,1.133.105.835-.009,2.85-3.364,3.482-1.352.255-1.819.441-3.187.594a271.458,271.458,0,0,1-29.6.905,5.337,5.337,0,0,1-4.582-7.6c1.3-2.855,2.074-6.882,1-12.356,0,0-2.94-36.833-38.095-38.527-.578-.028-1.156-.06-1.733-.109-4.522-.384-30.826-1.229-41.429,29.614,0,0-3.993,13.463-3.131,21.755a5.431,5.431,0,0,1-5.107,6c-8.786.456-23.393.877-32.448-.667a4.782,4.782,0,0,0-.966-.187c-1.479-.08-4.769-.827-3.911-6.009l5.16-32.732" transform="translate(-466.435 -12.216)" fill="#eee" stroke="#221f1f" stroke-miterlimit="10" stroke-width="0.5"/>
        <path id="패스_7167" data-name="패스 7167" d="M11223.847,4113.228s38.611,7.681,84.485-.888" transform="translate(-546.938 -167.394)" fill="none" stroke="#221f1f" stroke-miterlimit="10" stroke-width="0.5"/>
        <path id="패스_7168" data-name="패스 7168" d="M11222.586,4145.975s29.641,7.877,82.984.09" transform="translate(-546.115 -189.329)" fill="none" stroke="#221f1f" stroke-miterlimit="10" stroke-width="0.5"/>
        <path id="패스_7169" data-name="패스 7169" d="M11336.095,3874.238s2.459,32.957.093,42.2" transform="translate(-620.141 -12.115)" fill="none" stroke="#221f1f" stroke-miterlimit="10" stroke-width="0.5"/>
        <path id="패스_7170" data-name="패스 7170" d="M11349.375,3875.036s2.02,32.972-.348,42.216" transform="translate(-628.575 -12.635)" fill="none" stroke="#221f1f" stroke-miterlimit="10" stroke-width="0.5"/>
        <path id="패스_7171" data-name="패스 7171" d="M11213.269,4048.939s-6.677-59.818,48.742-59.033c0,0,46.72-.435,41.254,60.668" transform="translate(-539.875 -87.544)" fill="none" stroke="#221f1f" stroke-miterlimit="10" stroke-width="0.5"/>
      </g>
      <g id="그룹_7807" data-name="그룹 7807" transform="matrix(0.839, 0.545, -0.545, 0.839, -4997.467, 17414.082)">
        <line id="선_2771" data-name="선 2771" y2="58.347" transform="translate(-17499.5 3110.5)" fill="none" stroke="#343434" stroke-width="1"/>
        <path id="패스_7173" data-name="패스 7173" d="M0,0V5" transform="translate(-17497 3110) rotate(90)" fill="none" stroke="#343434" stroke-width="1"/>
        <line id="선_2773" data-name="선 2773" y2="5" transform="translate(-17497 3168.347) rotate(90)" fill="none" stroke="#343434" stroke-width="1"/>
      </g>
      <g id="그룹_7808" data-name="그룹 7808" transform="translate(-3614.5 7340)">
        <line id="선_2771-2" data-name="선 2771" y2="49.078" transform="translate(-17499.5 3110.5)" fill="none" stroke="#343434" stroke-width="1"/>
        <line id="선_2772" data-name="선 2772" y2="5" transform="translate(-17497 3110) rotate(90)" fill="none" stroke="#343434" stroke-width="1"/>
        <line id="선_2773-2" data-name="선 2773" y2="5" transform="translate(-17497 3159.078) rotate(90)" fill="none" stroke="#343434" stroke-width="1"/>
      </g>
      <path id="패스_7172" data-name="패스 7172" d="M-21401.756,10457.849s42.936,33.156,147.961,33.063" transform="translate(5.537)" fill="none" stroke="#343434" stroke-width="1"/>
      <line id="선_2816" data-name="선 2816" y1="5" x2="2.219" transform="translate(-21397.328 10455.349)" fill="none" stroke="#343434" stroke-width="1"/>
      <line id="선_2818" data-name="선 2818" x2="4.768" y2="3.25" transform="translate(-21367.895 10484.25)" fill="none" stroke="#343434" stroke-width="1"/>
      <line id="선_2819" data-name="선 2819" x2="4.768" y2="3.25" transform="translate(-21307.887 10398.25)" fill="none" stroke="#343434" stroke-width="1"/>
      <line id="선_2817" data-name="선 2817" y1="5.089" transform="translate(-21248.258 10488.367)" fill="none" stroke="#343434" stroke-width="1"/>
      <path id="패스_7174" data-name="패스 7174" d="M-21365.512,10486s8.023-58.022,60.01-86.205" fill="none" stroke="#343434" stroke-width="1"/>
    </g>
  </g>
</svg>
