<svg xmlns="http://www.w3.org/2000/svg" width="470" height="510" viewBox="0 0 470 510">
  <g id="그룹_7860" data-name="그룹 7860" transform="translate(-1330 -211)">
    <rect id="사각형_2262" data-name="사각형 2262" width="470" height="510" transform="translate(1330 211)" fill="none"/>
    <g id="그룹_7840" data-name="그룹 7840" transform="translate(23003 -4812.001)">
      <g id="그룹_7828" data-name="그룹 7828" transform="translate(-28313.791 3192.346)">
        <path id="패스_7030" data-name="패스 7030" d="M6907.95,2605.843l32.073-1.843,2.581,80.736-14.009,44.977L6905,2622.433Z" transform="translate(-62.635 -454.888)" fill="#eee"/>
        <path id="패스_7031" data-name="패스 7031" d="M7271.279,2612.79l1.106-.363-4.978-2.718-7.742-2.174-5.529-.725-5.163,2.174-1.474,1.812,5.161.362,12.166,1.812Z" transform="translate(-278.869 -456.662)" fill="#eee"/>
        <path id="패스_7032" data-name="패스 7032" d="M7160.792,1930.5c16.05,5.917,32.724,18.477,40.8,23.585a15.866,15.866,0,0,1,7.205,10.8c4.519,27.222,19.862,127.26,8.768,220.741,0,0-8.848-6.161-23.594-1.812" transform="translate(-224.126 -29.68)" fill="#eee" stroke="#221f1f" stroke-miterlimit="10" stroke-width="0.5"/>
        <path id="패스_7033" data-name="패스 7033" d="M6817.053,2612.79l-.553-.544,4.423-2.537,7.742-2.174,5.53-.725,5.161,2.174,1.475,1.812-5.162.362-12.165,1.812Z" transform="translate(-6.761 -456.662)" fill="#eee"/>
        <path id="패스_7034" data-name="패스 7034" d="M6881.211,2610.645l7.741,5.53-8.2,4.193.092-3.825.185-6.106Z" transform="translate(-47.324 -458.952)" fill="#eee"/>
        <path id="패스_7035" data-name="패스 7035" d="M6886.488,1967.363l115.391,6.886,10.322,229.759-19.908,2.9-114.653-.363L6864,2196.4Z" transform="translate(-36.749 -52.953)" fill="#eee"/>
        <path id="패스_7036" data-name="패스 7036" d="M6833.334,2183.815c-14.747-4.349-23.595,1.812-23.595,1.812-11.094-93.481,4.25-193.519,8.768-220.741a15.867,15.867,0,0,1,7.2-10.8c8.078-5.109,24.75-17.668,40.8-23.585" transform="translate(0 -29.68)" fill="#eee" stroke="#221f1f" stroke-miterlimit="10" stroke-width="0.5"/>
        <path id="패스_7037" data-name="패스 7037" d="M6848,2006.5c16.037,12.166,14.193,64.516,14.193,64.516l-3.183,310.924a4.746,4.746,0,0,0,4.912,4.807l33.232-.1" transform="translate(-26.648 -77.662)" fill="#eee" stroke="#221f1f" stroke-miterlimit="10" stroke-width="0.5"/>
        <path id="패스_7038" data-name="패스 7038" d="M6961,1915.784l3.256-14.869.43-.246,3.917-3.7,2.719-2.938,3.249-3.456s1.313-1.855,2.166-2.148l2.327-1.4,3.905-1.509,4.62-1.025,5.208-.634,4.47-.311,3.663-.008,3.94.169,6.452.691,3.318.707,3.318,1.014,2.765,1.275,2,1.2,1.444,1.444,2.964,3.3,4.955,5.138,2.772,2.542.983,1.859,5.9,21.751-15.116,7.742-64.516-13.272Z" transform="translate(-97.989 -0.034)" fill="#eee"/>
        <path id="패스_7039" data-name="패스 7039" d="M7022.139,1967.5l-59.093,117.234a351.99,351.99,0,0,0-.652,36.222c.787,23.4-2.458,199.855,5.742,239.029a6.588,6.588,0,0,0,6.535,5.236l86.018-1.092a6.227,6.227,0,0,0,5.888-5.948c1.227-27.96,1.983-142.633,1.945-144.084l-4.356-167.7s.368-52.35,16.4-64.516" transform="translate(-98.745 -53.04)" fill="#eee" stroke="#221f1f" stroke-miterlimit="10" stroke-width="0.5"/>
        <path id="패스_7040" data-name="패스 7040" d="M6816.5,2619.435s11.8,4.711,23.594-1.812" transform="translate(-6.761 -463.489)" fill="#eee" stroke="#221f1f" stroke-miterlimit="10" stroke-width="0.5"/>
        <path id="패스_7041" data-name="패스 7041" d="M7026.885,1926.258l4.409-2.562a1.6,1.6,0,0,0,.6-2.055l-8.236-17.106a6.308,6.308,0,0,0-1.928-2.312c-4.751-3.536-12.805-12.83-12.805-12.83-6.267-6.267-23.963-5.9-23.963-5.9h-.107s-17.7-.369-23.963,5.9c0,0-8.055,9.293-12.8,12.83a6.3,6.3,0,0,0-1.928,2.313l-8.237,17.106a1.6,1.6,0,0,0,.6,2.055l4.3,2.931" transform="translate(-83.322 0)" fill="none" stroke="#221f1f" stroke-miterlimit="10" stroke-width="0.5"/>
        <line id="선_2793" data-name="선 2793" x2="18.433" y2="50.138" transform="translate(6879.784 1914.46)" fill="#eee" stroke="#221f1f" stroke-miterlimit="10" stroke-width="0.5"/>
        <path id="패스_7042" data-name="패스 7042" d="M7052.5,2529.5" transform="translate(-155.757 -407.853)" fill="none" stroke="#221f1f" stroke-miterlimit="10" stroke-width="0.5"/>
        <path id="패스_7043" data-name="패스 7043" d="M7274.094,2619.435s-11.8,4.711-23.594-1.812" transform="translate(-280.763 -463.489)" fill="#eee" stroke="#221f1f" stroke-miterlimit="10" stroke-width="0.5"/>
        <circle id="타원_98" data-name="타원 98" cx="4.424" cy="4.424" r="4.424" transform="translate(6861.352 1998.884)" fill="#eee" stroke="#221f1f" stroke-miterlimit="10" stroke-width="0.5"/>
        <circle id="타원_99" data-name="타원 99" cx="4.424" cy="4.424" r="4.424" transform="translate(6871.49 2035.381)" fill="#eee" stroke="#221f1f" stroke-miterlimit="10" stroke-width="0.5"/>
        <circle id="타원_100" data-name="타원 100" cx="4.424" cy="4.424" r="4.424" transform="translate(6910.937 2035.381)" fill="#eee" stroke="#221f1f" stroke-miterlimit="10" stroke-width="0.5"/>
        <circle id="타원_101" data-name="타원 101" cx="4.424" cy="4.424" r="4.424" transform="translate(6871.49 2077.777)" fill="#eee" stroke="#221f1f" stroke-miterlimit="10" stroke-width="0.5"/>
        <circle id="타원_102" data-name="타원 102" cx="4.424" cy="4.424" r="4.424" transform="translate(6910.937 2077.777)" fill="#eee" stroke="#221f1f" stroke-miterlimit="10" stroke-width="0.5"/>
        <circle id="타원_103" data-name="타원 103" cx="4.424" cy="4.424" r="4.424" transform="translate(6918.494 1998.884)" fill="#eee" stroke="#221f1f" stroke-miterlimit="10" stroke-width="0.5"/>
        <path id="패스_7044" data-name="패스 7044" d="M6964.284,2004.462c-23.594-38.709-27.173-52.258-30.32-60.856a2.808,2.808,0,0,1,.785-3.074L6960.6,1925.2a26.761,26.761,0,0,1,.4-20.985,6.385,6.385,0,0,1,5.8-3.715H6998a6.385,6.385,0,0,1,5.8,3.715,26.757,26.757,0,0,1,.4,20.985l25.846,15.33a2.807,2.807,0,0,1,.787,3.076c-3.147,8.6-41.118,68.6-85.726,98.828" transform="translate(-80.813 -10.74)" fill="none" stroke="#221f1f" stroke-miterlimit="10" stroke-width="0.5"/>
      </g>
      <g id="그룹_7829" data-name="그룹 7829" transform="translate(-5623.873 -1660.999)">
        <line id="선_2687" data-name="선 2687" x2="63.893" transform="translate(-15820.826 6722.5)" fill="none" stroke="#343434" stroke-width="1"/>
        <line id="선_2690" data-name="선 2690" y2="5" transform="translate(-15821.127 6719.999)" fill="none" stroke="#343434" stroke-width="1"/>
        <line id="선_2693" data-name="선 2693" y2="5" transform="translate(-15756.934 6720)" fill="none" stroke="#343434" stroke-width="1"/>
      </g>
      <g id="그룹_7832" data-name="그룹 7832" transform="translate(-5663.174 -1564.999)">
        <line id="선_2685" data-name="선 2685" x2="163.295" transform="translate(-15830.826 6682.5)" fill="none" stroke="#343434" stroke-width="1"/>
        <line id="선_2688" data-name="선 2688" y2="5" transform="translate(-15830.599 6680)" fill="none" stroke="#343434" stroke-width="1"/>
        <line id="선_2691" data-name="선 2691" y2="5" transform="translate(-15667.531 6680)" fill="none" stroke="#343434" stroke-width="1"/>
      </g>
      <g id="그룹_7833" data-name="그룹 7833" transform="translate(82 -56.5)">
        <line id="선_2795" data-name="선 2795" y2="409" transform="translate(-21615 5152.5)" fill="none" stroke="#343434" stroke-width="1"/>
        <line id="선_2794" data-name="선 2794" y2="5" transform="translate(-21612.5 5152.501) rotate(90)" fill="none" stroke="#343434" stroke-width="1"/>
        <line id="선_2796" data-name="선 2796" y2="5" transform="translate(-21612.5 5561.027) rotate(90)" fill="none" stroke="#343434" stroke-width="1"/>
      </g>
      <g id="그룹_7839" data-name="그룹 7839" transform="translate(-4723.751 8880)">
        <line id="선_2736" data-name="선 2736" y2="215.232" transform="translate(-16609.75 -3752)" fill="none" stroke="#343434" stroke-width="1"/>
        <line id="선_2737" data-name="선 2737" y2="5" transform="translate(-16607.25 -3752) rotate(90)" fill="none" stroke="#343434" stroke-width="1"/>
        <line id="선_2738" data-name="선 2738" y2="5" transform="translate(-16607.25 -3537.267) rotate(90)" fill="none" stroke="#343434" stroke-width="1"/>
      </g>
      <g id="그룹_7837" data-name="그룹 7837" transform="translate(-17671.25 -11574.5) rotate(-90)">
        <line id="선_2728" data-name="선 2728" y2="37.798" transform="translate(-16769 -3846.25)" fill="none" stroke="#343434" stroke-width="1"/>
        <line id="선_2730" data-name="선 2730" y2="5" transform="translate(-16766.5 -3846.25) rotate(90)" fill="none" stroke="#343434" stroke-width="1"/>
        <line id="선_2734" data-name="선 2734" y2="5" transform="translate(-16766.5 -3808.951) rotate(90)" fill="none" stroke="#343434" stroke-width="1"/>
      </g>
      <g id="그룹_7838" data-name="그룹 7838" transform="translate(-5653.674 -1527.999)">
        <line id="선_2687-2" data-name="선 2687" x2="124.348" transform="translate(-15820.826 6722.5)" fill="none" stroke="#343434" stroke-width="1"/>
        <line id="선_2690-2" data-name="선 2690" y2="5" transform="translate(-15821.326 6720)" fill="none" stroke="#343434" stroke-width="1"/>
        <line id="선_2693-2" data-name="선 2693" y2="5" transform="translate(-15696.479 6720)" fill="none" stroke="#343434" stroke-width="1"/>
      </g>
    </g>
  </g>
</svg>
