<svg xmlns="http://www.w3.org/2000/svg" width="320" height="339" viewBox="0 0 320 339">
  <g id="그룹_8011" data-name="그룹 8011" transform="translate(-20 -916)">
    <rect id="사각형_2301" data-name="사각형 2301" width="320" height="339" transform="translate(20 916)" fill="none"/>
    <g id="그룹_8009" data-name="그룹 8009" transform="translate(14957 -3349.867)">
      <g id="그룹_7906" data-name="그룹 7906" transform="translate(-21562.359 -1032.509)">
        <path id="패스_7211" data-name="패스 7211" d="M6758.029,5487.822l.48-1.28,1.77-4.818,1.288-3.491,2.917-7.788,2.482-6.7,2.863-7.758,1.87-4.973,7.741-20.875,8.239-22.217,6.78-18.339,6.765-18.121,3.413-9.268.559-1.717-2.233-2.482-6.579-.993-5.585,17.377-27.058,84.153-7.448,28.05Z" transform="translate(-19.75 -27.047)" fill="#eee"/>
        <path id="패스_7212" data-name="패스 7212" d="M6776.672,5357l-20.883,59.887-3.383,9.774-2.162,6.237-.506,1.552-1.437,4.261-1.572,5-1.583,5.337-.993,3.6-3.817,13.684-.91,3.258-2.053,7.53-2.11,7.525-1.567,5.693-1.147,4.1-1.634,5.927-.491,1.823-.24,1.908-.108,1.04.054,2.42.225,2.4.31,1.761.838,3.042,1.109,2.862,1.381,2.723,1.1,1.994,8.688-22.094-5.958-14.4" transform="translate(-0.041 -27.047)" fill="#eee"/>
        <path id="패스_7213" data-name="패스 7213" d="M6934.95,5328.262l.373-.393-.973-2.524-.517-.973-.693-.869-.435-.487-.424-.352-.662-.455-.517-.289-.693-.3-.92-.31-1.231-.146-1.541-.083-1.489.114-1.149.31-.8.3-1.241.693-.993.8-.978,1.063-.784,1.3-.5,1.226-1.125,3.219,8.1,3.119.76.427.807-2.3.14.3.559,1.4Z" transform="translate(-141.066 -0.047)" fill="#eee"/>
        <path id="패스_7214" data-name="패스 7214" d="M7007.676,5485.953l-.666-2.141-2.949-7.742-10.535-27.507-17.066-44.838-12.645-33.2-7.525-19.818,7.944-3.455,6.061,15.826,20.251,52.875,16.632,43.193,8.191,21.555.559,1.158.435.869.5.745.5.993-5.709,1.738Z" transform="translate(-170.102 -19.717)" fill="#eee"/>
        <path id="패스_7215" data-name="패스 7215" d="M7155.292,5913.76l1.986-16.136,9.433-.124.487.838.506,1.272.455,1.489.166,1.076.052,1.188.01,1.438-.175,1.623-.311,1.635-.486,1.676-.817,2.109-.693,1.438-.187.724h-5.461Z" transform="translate(-319.704 -433.374)" fill="#eee"/>
        <path id="패스_7216" data-name="패스 7216" d="M6770.292,5998.442l.248.993.4,3.786,1.1,9.192.644,5.422.373,1.661.294.776.869,1.481.682.846.652.6.815.582.876.481,1.226.5,2,.5,1.221.27,3.2.755,4.514.962,4.771,1.147,2.048.458,10.759,2.451,11.942,2.728,13.922,3.145,4.22.994,5.709,1.241.683.1,1.562.093,1.572-.083,1.469-.238.952-.248,1.882-.651,2.089-.911,4.189-1.79,2.813-1.158,4.843-2.054.535-.263.645-.357.674-.512.59-.527.295-.373.6-.847.394-.76.274-.843.255-.916.24-1.815,1.2-11.708.766-7.406.765-7.2,2.979-29.788,1.242-12.164-37.98-1.985-51.634,21.6Z" transform="translate(-30.275 -476.601)" fill="#eee"/>
        <path id="패스_7217" data-name="패스 7217" d="M6740.141,5522.214l2.289,19.1a8.185,8.185,0,0,0,6.307,7l62.77,14.3a14.621,14.621,0,0,0,8.937-.786l14.142-5.971a7.08,7.08,0,0,0,4.29-5.793l7.264-70.058c3.723-6.951,2.762-12.939,1.039-15.535a19.946,19.946,0,0,1-2-3.82l-51.79-135.093a6.993,6.993,0,0,0-6.086-4.456l-1.139-.072a8.328,8.328,0,0,0-8.384,5.573l-26.792,76.925q-3.9,11.188-7.059,22.612l-13.471,48.652s-2.482,8.937,4.345,19.983" transform="translate(0 0)" fill="none" stroke="#221f1f" stroke-miterlimit="10" stroke-width="0.5"/>
        <path id="패스_7218" data-name="패스 7218" d="M6751.955,5879.48l91.18,4.363a6.065,6.065,0,0,1,5.614,7.452c-2.695,11.4-7.9,34.8-10.931,57.44,0,0-1.428,11.9-16.169,8.9-.786-.16-1.573-.318-2.363-.455l-61.175-10.64a14.868,14.868,0,0,1-12.093-11.958,36.428,36.428,0,0,1-.544-5.21l-2.731-37.731a20.246,20.246,0,0,1,.681-5.936A8.406,8.406,0,0,1,6751.955,5879.48Z" transform="translate(-9.553 -419.82)" fill="#eee" stroke="#221f1f" stroke-miterlimit="10" stroke-width="0.5"/>
        <path id="패스_7219" data-name="패스 7219" d="M6855.679,5890.345c-4.22,9.434-8.961,39.6-11.833,61.06,0,0-1.354,11.279-15.326,8.436-.746-.151-1.491-.3-2.24-.432l-57.983-10.083a14.08,14.08,0,0,1-11.454-11.286,34.668,34.668,0,0,1-.525-4.987l-1.766-24.4a109.378,109.378,0,0,1,.714-22.649h0" transform="translate(-18.229 -424.73)" fill="#eee" stroke="#221f1f" stroke-miterlimit="10" stroke-width="0.5"/>
        <line id="선_2823" data-name="선 2823" y1="129.084" x2="47.91" transform="translate(6738.402 5331.318)" fill="none" stroke="#221f1f" stroke-miterlimit="10" stroke-width="0.5"/>
        <path id="패스_7220" data-name="패스 7220" d="M7151.792,6007.5s3.723,1.242,6.082,0" transform="translate(-317.073 -516.068)" fill="#eee" stroke="#221f1f" stroke-miterlimit="10" stroke-width="0.5"/>
        <path id="패스_7221" data-name="패스 7221" d="M6941.793,5323.5l54.86,143.978s4.717,3.972,3.973,15.639l-4.656,73.044" transform="translate(-159.204 -1.863)" fill="none" stroke="#221f1f" stroke-miterlimit="10" stroke-width="0.5"/>
      </g>
      <g id="그룹_7806" data-name="그룹 7806" transform="translate(2860.387 5745.213) rotate(14)">
        <line id="선_2774" data-name="선 2774" x2="81.811" transform="translate(-17456.5 3095)" fill="none" stroke="#343434" stroke-width="1"/>
        <line id="선_2775" data-name="선 2775" y2="5" transform="translate(-17456.326 3092.5)" fill="none" stroke="#343434" stroke-width="1"/>
        <line id="선_2776" data-name="선 2776" y2="5" transform="translate(-17374.465 3092.5)" fill="none" stroke="#343434" stroke-width="1"/>
      </g>
      <g id="그룹_7898" data-name="그룹 7898" transform="translate(-406.342 -5890.749) rotate(-26)">
        <line id="선_2774-2" data-name="선 2774" x2="27.394" transform="translate(-17456.5 3095)" fill="none" stroke="#343434" stroke-width="1"/>
        <line id="선_2775-2" data-name="선 2775" y2="5" transform="translate(-17456.326 3092.5)" fill="none" stroke="#343434" stroke-width="1"/>
        <line id="선_2776-2" data-name="선 2776" y2="5" transform="translate(-17428.885 3092.5)" fill="none" stroke="#343434" stroke-width="1"/>
      </g>
      <g id="그룹_7808" data-name="그룹 7808" transform="translate(2656 1318)">
        <line id="선_2771" data-name="선 2771" y2="89.752" transform="translate(-17499.5 3110.5)" fill="none" stroke="#343434" stroke-width="1"/>
        <line id="선_2772" data-name="선 2772" y2="5" transform="translate(-17497 3110) rotate(90)" fill="none" stroke="#343434" stroke-width="1"/>
        <line id="선_2773" data-name="선 2773" y2="5" transform="translate(-17497 3199.752) rotate(90)" fill="none" stroke="#343434" stroke-width="1"/>
      </g>
      <path id="패스_7222" data-name="패스 7222" d="M-20893.811,14340.119l50.057-133.68s9.941-20.09,21.541,0,57.893,143.318,57.893,143.318" transform="translate(6057.342 -9918.644)" fill="none" stroke="#343434" stroke-width="1"/>
      <line id="선_2824" data-name="선 2824" x2="5" transform="translate(-14839.053 4421.528)" fill="none" stroke="#343434" stroke-width="1"/>
      <line id="선_2825" data-name="선 2825" x2="5" transform="translate(-14709.563 4431.113)" fill="none" stroke="#343434" stroke-width="1"/>
    </g>
  </g>
</svg>
