<svg xmlns="http://www.w3.org/2000/svg" width="470" height="510" viewBox="0 0 470 510">
  <g id="그룹_7925" data-name="그룹 7925" transform="translate(-1330 -211)">
    <rect id="사각형_2270" data-name="사각형 2270" width="470" height="510" transform="translate(1330 211)" fill="none"/>
    <g id="그룹_7907" data-name="그룹 7907" transform="translate(22372.811 -13947.511)">
      <g id="그룹_7806" data-name="그룹 7806" transform="translate(-3188.423 15817.762) rotate(14)">
        <line id="선_2774" data-name="선 2774" x2="122.316" transform="translate(-17456.5 3095)" fill="none" stroke="#343434" stroke-width="1"/>
        <line id="선_2775" data-name="선 2775" y2="5" transform="translate(-17456.326 3092.5)" fill="none" stroke="#343434" stroke-width="1"/>
        <line id="선_2776" data-name="선 2776" y2="5" transform="translate(-17333.961 3092.5)" fill="none" stroke="#343434" stroke-width="1"/>
      </g>
      <g id="그룹_7898" data-name="그룹 7898" transform="translate(-5890.883 4954.875) rotate(-23)">
        <line id="선_2774-2" data-name="선 2774" x2="50.376" transform="translate(-17456.5 3095)" fill="none" stroke="#343434" stroke-width="1"/>
        <line id="선_2775-2" data-name="선 2775" y2="5" transform="translate(-17456.326 3092.5)" fill="none" stroke="#343434" stroke-width="1"/>
        <line id="선_2776-2" data-name="선 2776" y2="5" transform="translate(-17405.902 3092.5)" fill="none" stroke="#343434" stroke-width="1"/>
      </g>
      <g id="그룹_7808" data-name="그룹 7808" transform="translate(-3405.811 11331)">
        <line id="선_2771" data-name="선 2771" y2="142.521" transform="translate(-17499.5 3110.5)" fill="none" stroke="#343434" stroke-width="1"/>
        <line id="선_2772" data-name="선 2772" y2="5" transform="translate(-17497 3110) rotate(90)" fill="none" stroke="#343434" stroke-width="1"/>
        <line id="선_2773" data-name="선 2773" y2="5" transform="translate(-17497 3252.521) rotate(90)" fill="none" stroke="#343434" stroke-width="1"/>
      </g>
      <g id="그룹_7906" data-name="그룹 7906" transform="translate(-27619.02 8898.403)">
        <path id="패스_7211" data-name="패스 7211" d="M6759.042,5564.067l.761-2.026,2.8-7.625,2.038-5.525,4.617-12.328,3.929-10.609,4.531-12.279,2.959-7.871,12.253-33.042,13.041-35.166,10.731-29.027,10.708-28.683,5.4-14.669.884-2.717-3.536-3.929L6819.747,5357l-8.84,27.5-42.828,133.2-11.788,44.4Z" transform="translate(-15.949 -21.842)" fill="#eee"/>
        <path id="패스_7212" data-name="패스 7212" d="M6803.831,5357l-33.054,94.791-5.354,15.471-3.422,9.872-.8,2.456-2.276,6.745-2.488,7.908-2.5,8.447-1.571,5.7-6.042,21.659-1.44,5.157-3.25,11.918-3.34,11.911-2.481,9.012-1.817,6.483-2.586,9.381-.778,2.886-.38,3.021-.172,1.646.085,3.831.356,3.793.491,2.788,1.326,4.813,1.756,4.53,2.186,4.31,1.744,3.156,13.752-34.97-9.43-22.789" transform="translate(-0.034 -21.842)" fill="#eee"/>
        <path id="패스_7213" data-name="패스 7213" d="M6945.023,5332.446l.589-.622-1.539-3.995-.818-1.54-1.1-1.375-.688-.77-.672-.557-1.047-.72-.819-.458-1.1-.475-1.457-.491-1.948-.229-2.439-.131-2.357.18-1.818.491-1.261.475-1.964,1.1-1.572,1.261-1.547,1.682-1.241,2.063-.785,1.94-1.781,5.1,12.818,4.937,1.2.675,1.277-3.635.221.479.884,2.21Z" transform="translate(-113.918 -0.038)" fill="#eee"/>
        <path id="패스_7214" data-name="패스 7214" d="M7037.625,5566.793l-1.055-3.389-4.667-12.254-16.675-43.541-27.012-70.971-20.014-52.552-11.911-31.369,12.574-5.468,9.594,25.048,32.055,83.691,26.326,68.367,12.966,34.119.885,1.833.688,1.375.785,1.179.787,1.572-9.037,2.75Z" transform="translate(-137.366 -15.923)" fill="#eee"/>
        <path id="패스_7215" data-name="패스 7215" d="M7155.292,5923.236l3.144-25.54,14.931-.2.77,1.326.8,2.014.72,2.357.263,1.7.081,1.882.016,2.276-.278,2.57-.491,2.586-.769,2.653-1.293,3.339-1.1,2.276-.295,1.146h-8.644Z" transform="translate(-258.176 -349.971)" fill="#eee"/>
        <path id="패스_7216" data-name="패스 7216" d="M6770.292,6023.761l.393,1.572.626,5.992,1.743,14.549,1.019,8.583.59,2.628.467,1.228,1.375,2.345,1.08,1.338,1.032.946,1.29.92,1.387.762,1.94.785,3.168.787,1.932.425,5.067,1.2,7.146,1.521,7.551,1.817,3.242.726,17.03,3.879,18.9,4.318,22.036,4.977,6.68,1.572,9.037,1.965,1.081.163,2.472.148,2.488-.131,2.325-.377,1.506-.393,2.979-1.031,3.307-1.44,6.631-2.833,4.453-1.833,7.666-3.25.847-.417,1.02-.565,1.068-.81.934-.835.467-.59.957-1.341.623-1.2.434-1.334.4-1.45.38-2.873,1.9-18.533,1.211-11.722,1.211-11.4,4.715-47.149,1.965-19.254L6877.951,5955l-81.727,34.184Z" transform="translate(-24.449 -384.878)" fill="#eee"/>
        <path id="패스_7217" data-name="패스 7217" d="M6746.04,5639.473l3.624,30.238a12.954,12.954,0,0,0,9.983,11.08L6859,5703.432a23.141,23.141,0,0,0,14.146-1.244l22.384-9.452a11.205,11.205,0,0,0,6.789-9.17l11.5-110.889c5.894-11,4.371-20.481,1.645-24.589a31.542,31.542,0,0,1-3.161-6.046l-81.974-213.828a11.07,11.07,0,0,0-9.634-7.053l-1.8-.113a13.182,13.182,0,0,0-13.271,8.821l-42.407,121.757q-6.167,17.708-11.173,35.791l-21.321,77.008s-3.929,14.146,6.876,31.63" transform="translate(0 0)" fill="none" stroke="#221f1f" stroke-miterlimit="10" stroke-width="0.5"/>
        <path id="패스_7218" data-name="패스 7218" d="M6757.333,5879.486l144.322,6.906a9.6,9.6,0,0,1,8.886,11.8c-4.265,18.042-12.5,55.088-17.3,90.918,0,0-2.261,18.835-25.592,14.088-1.244-.253-2.49-.5-3.741-.722l-96.829-16.84a23.535,23.535,0,0,1-19.142-18.928,57.865,57.865,0,0,1-.862-8.245l-4.322-59.723a32.044,32.044,0,0,1,1.078-9.4A13.3,13.3,0,0,1,6757.333,5879.486Z" transform="translate(-7.715 -339.026)" fill="#eee" stroke="#221f1f" stroke-miterlimit="10" stroke-width="0.5"/>
        <path id="패스_7219" data-name="패스 7219" d="M6914.784,5892.876c-6.679,14.931-14.184,62.686-18.729,96.646,0,0-2.143,17.853-24.258,13.353-1.18-.24-2.359-.478-3.546-.685l-91.776-15.96a22.283,22.283,0,0,1-18.128-17.863,54.8,54.8,0,0,1-.832-7.893l-2.795-38.624a173.126,173.126,0,0,1,1.13-35.85h0" transform="translate(-14.721 -342.99)" fill="#eee" stroke="#221f1f" stroke-miterlimit="10" stroke-width="0.5"/>
        <line id="선_2823" data-name="선 2823" y1="204.316" x2="75.833" transform="translate(6743.289 5337.319)" fill="none" stroke="#221f1f" stroke-miterlimit="10" stroke-width="0.5"/>
        <path id="패스_7220" data-name="패스 7220" d="M7151.792,6007.5s5.894,1.965,9.626,0" transform="translate(-256.051 -416.75)" fill="#eee" stroke="#221f1f" stroke-miterlimit="10" stroke-width="0.5"/>
        <path id="패스_7221" data-name="패스 7221" d="M6941.793,5323.5l86.834,227.892s7.465,6.287,6.287,24.753l-7.368,115.616" transform="translate(-128.565 -1.504)" fill="none" stroke="#221f1f" stroke-miterlimit="10" stroke-width="0.5"/>
      </g>
      <path id="패스_7222" data-name="패스 7222" d="M-20893.811,14425.415l78.982-218.815s15.686-31.7,33.988,0,91.348,234.024,91.348,234.024" transform="translate(-3 4)" fill="none" stroke="#343434" stroke-width="1"/>
      <line id="선_2824" data-name="선 2824" x2="5" transform="translate(-20899.311 14429.5)" fill="none" stroke="#343434" stroke-width="1"/>
      <line id="선_2825" data-name="선 2825" x2="5" transform="translate(-20694.992 14444.624)" fill="none" stroke="#343434" stroke-width="1"/>
    </g>
  </g>
</svg>
