<svg xmlns="http://www.w3.org/2000/svg" width="320" height="339" viewBox="0 0 320 339">
  <g id="그룹_7983" data-name="그룹 7983" transform="translate(-20 -917)">
    <rect id="사각형_2301" data-name="사각형 2301" width="320" height="339" transform="translate(20 917)" fill="none"/>
    <g id="그룹_7981" data-name="그룹 7981" transform="translate(12135.457 2112.651)">
      <g id="그룹_7967" data-name="그룹 7967" transform="translate(-13204.312 -7032.105)">
        <path id="패스_7315" data-name="패스 7315" d="M1317.4,5893.816l1.21-.863,2.562-.414.787,4.843.641,2.536.707,2.722.947,2.762.907,2.308.987,2.228,1.268,2.349,1.245,2.041,1.565,2.188,1.868,2.064,1.1,1.05.943.657,1.441.748,1.957.427,1.477.018,1.405-.267,1.459-.569.979-.534.872-.712,1.156-1.067,1.3-1.467,1.027-1.241.667-.909,1.414-2.294,1.081-1.921.93-2.042.836-2.1.943-2.579,1.014-3.612.658-2.793.3-1.458.267-1.779.285-1.637,2.437.445.907.943,4.7,30.528-.854,18.359-21.349,6.191-17.933-5.978L1309,5923.348l4.7-14.944Z" transform="translate(-90.291 -0.036)" fill="#eee"/>
        <path id="패스_7316" data-name="패스 7316" d="M1241.243,6504.424l-.661-.1a8.381,8.381,0,0,1,.378-1.658c.094.1.779-5.663.779-5.663l6.82,1.079,1.889.622-1.323.83Z" transform="translate(-36.479 -475.485)" fill="#eee"/>
        <path id="패스_7317" data-name="패스 7317" d="M1240.582,6511.35s6.276,1.426,9.11-5.412" transform="translate(-36.479 -482.514)" fill="#eee" stroke="#221f1f" stroke-miterlimit="10" stroke-width="0.5"/>
        <path id="패스_7318" data-name="패스 7318" d="M1228.149,5895.5l-11.044,5.135c-.745.347-1.5.667-2.255,1-6.153,2.687-9.249,9.088-10.088,11.086a6.214,6.214,0,0,0-.349,1.115l-5.685,39.469c-.734,5.295-1.348,10.577-2.217,15.853-2.176,13.216-3.745,26.838-.279,39.756,1.553,5.787,3.255,11.488,6.17,16.106,0,0,.725,3.834,1.477,6.263a.156.156,0,0,0,.306-.017c.029-.146.418-5.774,9.027-5.442" transform="translate(0 -2.396)" fill="#eee" stroke="#221f1f" stroke-miterlimit="10" stroke-width="0.5"/>
        <path id="패스_7319" data-name="패스 7319" d="M1243.432,5978.5s2.787,5.544,3.92,15.115c.92,7.773,1.649,16.4,2.74,24.152l.147,1.047c5.555,39.475,1.04,76.475-2.762,116.156a546.061,546.061,0,0,0-2.622,71.988,3.253,3.253,0,0,0,3.25,3.172h43.7" transform="translate(-38.72 -67.676)" fill="#eee" stroke="#221f1f" stroke-miterlimit="10" stroke-width="0.5"/>
        <path id="패스_7320" data-name="패스 7320" d="M1232.617,6480.33s1.256-6.334,10.863-5.907" transform="translate(-30.214 -457.711)" fill="#eee" stroke="#221f1f" stroke-miterlimit="10" stroke-width="0.5"/>
        <path id="패스_7321" data-name="패스 7321" d="M1338.279,5923.727" transform="translate(-113.319 -24.597)" fill="none" stroke="#221f1f" stroke-miterlimit="10" stroke-width="0.5"/>
        <path id="패스_7322" data-name="패스 7322" d="M1615.408,6504.424l.661-.1a8.39,8.39,0,0,0-.378-1.658c-.094.1-.779-5.663-.779-5.663l-6.82,1.079-1.889.622,1.323.83Z" transform="translate(-324.045 -475.485)" fill="#eee"/>
        <path id="패스_7323" data-name="패스 7323" d="M1618.853,6511.35s-6.276,1.426-9.11-5.412" transform="translate(-326.829 -482.514)" fill="#eee" stroke="#221f1f" stroke-miterlimit="10" stroke-width="0.5"/>
        <path id="패스_7324" data-name="패스 7324" d="M1539.783,5895.5l11.044,5.135c.745.347,1.5.667,2.255,1,6.153,2.687,9.249,9.088,10.088,11.086a6.2,6.2,0,0,1,.349,1.115l5.685,39.469c.734,5.295,1.348,10.577,2.216,15.853,2.177,13.216,3.746,26.838.279,39.756-1.553,5.787-3.255,11.488-6.17,16.106,0,0-.725,3.834-1.477,6.263a.156.156,0,0,1-.306-.017c-.028-.146-.418-5.774-9.027-5.442" transform="translate(-271.805 -2.396)" fill="#eee" stroke="#221f1f" stroke-miterlimit="10" stroke-width="0.5"/>
        <path id="패스_7325" data-name="패스 7325" d="M1471.369,5978.5s-2.787,5.544-3.92,15.115c-.92,7.773-1.649,16.4-2.74,24.152l-.147,1.047c-5.555,39.475-1.04,76.475,2.762,116.156a546.1,546.1,0,0,1,2.622,71.988,3.253,3.253,0,0,1-3.25,3.172H1423" transform="translate(-179.953 -67.676)" fill="#eee" stroke="#221f1f" stroke-miterlimit="10" stroke-width="0.5"/>
        <path id="패스_7326" data-name="패스 7326" d="M1620.363,6481.115s-1.256-6.121-10.863-5.694" transform="translate(-326.638 -458.495)" fill="#eee" stroke="#221f1f" stroke-miterlimit="10" stroke-width="0.5"/>
        <path id="패스_7327" data-name="패스 7327" d="M1393.081,5892.939l-2.716-.485s-1.642,18.042-11.919,27.017a8.02,8.02,0,0,1-4.96,1.964h0a8.046,8.046,0,0,1-5.735-2.087c-10-9.11-11.755-26.894-11.755-26.894l-2.716.485" transform="translate(-125.117)" fill="none" stroke="#221f1f" stroke-miterlimit="10" stroke-width="0.5"/>
        <path id="패스_7328" data-name="패스 7328" d="M1554.721,5923.727" transform="translate(-283.554 -24.597)" fill="none" stroke="#221f1f" stroke-miterlimit="10" stroke-width="0.5"/>
        <path id="패스_7329" data-name="패스 7329" d="M1393.081,5894.727s-1.459,19.676-13.555,29.474a10.1,10.1,0,0,1-6.026,2.219h0a10.146,10.146,0,0,1-6.9-2.373c-11.748-9.942-13.325-29.32-13.325-29.32" transform="translate(-125.117 -1.788)" fill="none" stroke="#221f1f" stroke-miterlimit="10" stroke-width="0.5"/>
        <path id="패스_7330" data-name="패스 7330" d="M1342.551,6180.315l-24.764-2.135L1299,6042.832l3.843-82.832,13.663,19.641,22.2,3.416,16.225-12.382,2.989,19.641,5.551,50.382-6.4,144.315Z" transform="translate(-82.425 -53.126)" fill="#eee"/>
      </g>
      <g id="그룹_7829" data-name="그룹 7829" transform="translate(3844.047 -7869.651)">
        <line id="선_2687" data-name="선 2687" x2="40.87" transform="translate(-15820.826 6722.5)" fill="none" stroke="#343434" stroke-width="1"/>
        <line id="선_2690" data-name="선 2690" y2="5" transform="translate(-15821.127 6719.999)" fill="none" stroke="#343434" stroke-width="1"/>
        <line id="선_2693" data-name="선 2693" y2="5" transform="translate(-15779.956 6720)" fill="none" stroke="#343434" stroke-width="1"/>
      </g>
      <g id="그룹_7832" data-name="그룹 7832" transform="translate(3834.826 -7803)">
        <line id="선_2685" data-name="선 2685" x2="79.052" transform="translate(-15830.826 6682.5)" fill="none" stroke="#343434" stroke-width="1"/>
        <line id="선_2688" data-name="선 2688" y2="5" transform="translate(-15830.599 6680)" fill="none" stroke="#343434" stroke-width="1"/>
        <line id="선_2691" data-name="선 2691" y2="5" transform="translate(-15751.774 6680)" fill="none" stroke="#343434" stroke-width="1"/>
      </g>
      <g id="그룹_7876" data-name="그룹 7876" transform="translate(3839.236 -7659.6)">
        <line id="선_2685-2" data-name="선 2685" x2="70.526" transform="translate(-15830.826 6682.5)" fill="none" stroke="#343434" stroke-width="1"/>
        <line id="선_2688-2" data-name="선 2688" y2="5" transform="translate(-15830.599 6680)" fill="none" stroke="#343434" stroke-width="1"/>
        <line id="선_2691-2" data-name="선 2691" y2="5" transform="translate(-15760.3 6680)" fill="none" stroke="#343434" stroke-width="1"/>
      </g>
      <g id="그룹_7833" data-name="그룹 7833" transform="translate(9563.543 -6292.501)">
        <line id="선_2795" data-name="선 2795" y2="249.697" transform="translate(-21615 5152.501)" fill="none" stroke="#343434" stroke-width="1"/>
        <line id="선_2794" data-name="선 2794" y2="5" transform="translate(-21612.5 5152.501) rotate(90)" fill="none" stroke="#343434" stroke-width="1"/>
        <line id="선_2796" data-name="선 2796" y2="5" transform="translate(-21612.5 5402.501) rotate(90)" fill="none" stroke="#343434" stroke-width="1"/>
      </g>
      <g id="그룹_7839" data-name="그룹 7839" transform="translate(4707.361 2632)">
        <line id="선_2736" data-name="선 2736" y2="117.757" transform="translate(-16609.75 -3752)" fill="none" stroke="#343434" stroke-width="1"/>
        <line id="선_2737" data-name="선 2737" y2="5" transform="translate(-16607.25 -3752) rotate(90)" fill="none" stroke="#343434" stroke-width="1"/>
        <line id="선_2738" data-name="선 2738" y2="5" transform="translate(-16607.25 -3634.742) rotate(90)" fill="none" stroke="#343434" stroke-width="1"/>
      </g>
      <g id="그룹_7838" data-name="그룹 7838" transform="translate(3830.455 -7809.65)">
        <line id="선_2687-2" data-name="선 2687" x2="69.144" transform="translate(-15820.955 6722.5)" fill="none" stroke="#343434" stroke-width="1"/>
        <line id="선_2690-2" data-name="선 2690" y2="5" transform="translate(-15821.455 6720)" fill="none" stroke="#343434" stroke-width="1"/>
        <line id="선_2693-2" data-name="선 2693" y2="5" transform="translate(-15751.79 6719.999)" fill="none" stroke="#343434" stroke-width="1"/>
      </g>
    </g>
  </g>
</svg>
