<svg xmlns="http://www.w3.org/2000/svg" width="470" height="510" viewBox="0 0 470 510">
  <g id="그룹_7830" data-name="그룹 7830" transform="translate(18946 -6643)">
    <g id="그룹_7824" data-name="그룹 7824" transform="translate(0 -10)">
      <g id="그룹_7813" data-name="그룹 7813" transform="translate(-29479.027 2271.002)">
        <path id="패스_6955" data-name="패스 6955" d="M10792.793,5149.777l13.258-5.777-10.811,7.05-.783,9.987-.353-4.8-.607-3.505Z" transform="translate(-73.545 -365.695)" fill="#eee"/>
        <path id="패스_6956" data-name="패스 6956" d="M10795.938,5145.731l18.038-9.106L10795,5162.652l.471-1.411Z" transform="translate(-74.714 -361.786)" fill="#eee"/>
        <path id="패스_6957" data-name="패스 6957" d="M10824.939,4711.752l126.433-176.723,1.646-.862.939,4.71v1.851l-.235,1.821,1.881,9.871,14.569,58.751-55.461,132.073s-79.9,85.072-80.372,86.011-10.339-25.38-10.339-25.38Z" transform="translate(-90.084 -42.489)" fill="#eee"/>
        <path id="패스_6958" data-name="패스 6958" d="M10709,5062.762l1.646-26.791L10784.2,4965l-14.178,80.215-22.014,10.262v5.17Z" transform="translate(-29.135 -270.826)" fill="#eee"/>
        <path id="패스_6959" data-name="패스 6959" d="M11178,4808" transform="translate(-277.701 -187.618)" fill="#eee"/>
        <line id="선_2780" data-name="선 2780" y1="19.74" x2="4.23" transform="translate(10773.867 4664.563)" fill="#eee"/>
        <line id="선_2781" data-name="선 2781" y1="21.62" x2="3.76" transform="translate(10822.748 4728.955)" fill="#eee"/>
        <path id="패스_6960" data-name="패스 6960" d="M10896.307,4510.087c-38.935-10.8-52.265-19.365-56.719-24.449a6.264,6.264,0,0,1-.375-7.753c11.979-16.875,47.612-19.156,54.779-19.156,2.314,0,3.859.113,5.791.124,38.625.21,54.045,11,57.422,15.149a6.615,6.615,0,0,1,.492,7.67c-2.128,3.378-6.039,7.274-9.644,10.5a51.758,51.758,0,0,1-22.188,11.708,163.026,163.026,0,0,1-19.665,3.36,30.569,30.569,0,0,0-10.274,3.042l-5.771,2.885a.229.229,0,0,0,.137.432c6.272-1.039,30.5-4.889,41.439-4.327a19.339,19.339,0,0,0,9.807-2.052c5.83-2.978,14.838-6.963,18.219-5.119" transform="translate(-97.529 -2.507)" fill="#eee"/>
        <path id="패스_6961" data-name="패스 6961" d="M10824,4553s27.025,4,59.573,9.752" transform="translate(-90.084 -52.47)" fill="#eee"/>
        <path id="패스_6962" data-name="패스 6962" d="M10770.619,4892.556c2.821-11.281-5.169-28.2-5.169-28.2-7.694-23.507-2.173-181.5-1.108-209.941a29.048,29.048,0,0,0-1.861-11.465c-2.1-5.486-6.138-12.685-13.48-15.948" transform="translate(-50.335 -91.689)" fill="none"/>
        <path id="패스_6963" data-name="패스 6963" d="M10777,4989.54c1.213-10.144,15.754-39.851,21.079-50.613a6.994,6.994,0,0,1,6.3-3.891l115.251.429a10.089,10.089,0,0,1,9.1,5.805" transform="translate(-65.174 -254.946)" fill="#eee"/>
        <path id="패스_6964" data-name="패스 6964" d="M10784.5,5134" transform="translate(-69.149 -360.395)" fill="#eee"/>
        <path id="패스_6965" data-name="패스 6965" d="M10679.395,4793.815s7.051-14.57,39.481-5.17l-.94,25.851a.39.39,0,0,1-.015.056,4.18,4.18,0,0,1-3.434,3.014c-24.531,3.789-30.393-.719-30.393-.719l-.439-16.3a8.306,8.306,0,0,0-.726-3.269,6.268,6.268,0,0,0-3.535-3.467c-.387-2.127-3.08-4.89-6.116-7.405a44.045,44.045,0,0,1-14.718-23.687c-21.863-91.61,42.455-233.523,42.455-233.523,13.63-27.261,32.9-28.671,32.9-28.671l2.763-15.393a20.934,20.934,0,0,0,.27-4.816c-.2-3.862,4.487-24.441,62.3-26.321,0,0,59.221-.47,64.354,19.2a15.2,15.2,0,0,1,.189,2.07,26,26,0,0,1-1.068,11.378,5.185,5.185,0,0,0-.228,2.646c.44,2.648,1.141,8.188-.267,10.3" fill="#eee"/>
        <path id="패스_6966" data-name="패스 6966" d="M10718,5221.529s4.229-7.05,33.84-2.35" transform="translate(-33.905 -404.683)" fill="#eee"/>
        <path id="패스_6967" data-name="패스 6967" d="M10918.291,4563.47s1.409,112.8,3.29,128.783h3.29s-1.881-125.493-4.231-128.312l-5.64-.94" transform="translate(-138.313 -57.77)" fill="#eee"/>
        <path id="패스_6968" data-name="패스 6968" d="M10928.831,4838s-.941,11.28,1.88,13.63c0,0,3.29.47,1.41-13.63" transform="translate(-145.564 -203.518)" fill="#eee"/>
        <path id="패스_6969" data-name="패스 6969" d="M10988.526,4568.823s-4.229,104.342-.939,128.313h3.29s-3.133-124.866,1.018-128.469" transform="translate(-176.119 -60.773)" fill="#eee"/>
        <path id="패스_6970" data-name="패스 6970" d="M10988.791,4842s-.94,9.708,1.409,11.866c0,0,3.29,2.157,1.881-11.866" transform="translate(-177.324 -205.637)" fill="#eee"/>
        <line id="선_2782" data-name="선 2782" y1="5.053" x2="0.176" transform="translate(10718.875 4783.593)" fill="#eee"/>
        <line id="선_2783" data-name="선 2783" x1="31.021" y2="75.671" transform="translate(10712.766 4680.073)" fill="#eee"/>
        <path id="패스_6971" data-name="패스 6971" d="M11072,4936" transform="translate(-221.522 -255.457)" fill="#eee"/>
        <path id="패스_6972" data-name="패스 6972" d="M10896.307,4510.087c-38.935-10.8-52.265-19.365-56.719-24.449a6.264,6.264,0,0,1-.375-7.753c11.979-16.875,47.612-19.156,54.779-19.156,2.314,0,3.859.113,5.791.124,38.625.21,54.045,11,57.422,15.149a6.615,6.615,0,0,1,.492,7.67c-2.128,3.378-6.039,7.274-9.644,10.5a51.758,51.758,0,0,1-22.188,11.708,163.026,163.026,0,0,1-19.665,3.36,30.569,30.569,0,0,0-10.274,3.042l-5.771,2.885a.229.229,0,0,0,.137.432c6.272-1.039,30.5-4.889,41.439-4.327a19.339,19.339,0,0,0,9.807-2.052c5.83-2.978,16.014-6.728,19.395-4.884" transform="translate(-97.529 -2.507)" fill="none" stroke="#221f1f" stroke-miterlimit="10" stroke-width="0.5"/>
        <path id="패스_6973" data-name="패스 6973" d="M10824,4553s27.025,4,59.573,9.752" transform="translate(-90.084 -52.47)" fill="none" stroke="#221f1f" stroke-miterlimit="10" stroke-width="0.5"/>
        <path id="패스_6974" data-name="패스 6974" d="M10770.854,4892.79c2.82-11.28-5.4-28.435-5.4-28.435-7.694-23.507-2.173-181.5-1.108-209.941a29.048,29.048,0,0,0-1.861-11.465c-2.1-5.486-6.138-12.685-13.48-15.948" transform="translate(-50.335 -91.689)" fill="none" stroke="#221f1f" stroke-miterlimit="10" stroke-width="0.5"/>
        <path id="패스_6975" data-name="패스 6975" d="M10784.5,5134" transform="translate(-69.149 -360.395)" fill="none" stroke="#221f1f" stroke-miterlimit="10" stroke-width="0.5"/>
        <path id="패스_6976" data-name="패스 6976" d="M10679.395,4793.815s7.051-14.57,39.481-5.17l-.94,25.851a.39.39,0,0,1-.015.056,4.18,4.18,0,0,1-3.434,3.014c-24.531,3.789-30.393-.719-30.393-.719l-.439-16.3a8.306,8.306,0,0,0-.726-3.269,6.268,6.268,0,0,0-3.535-3.467c-.387-2.127-3.08-4.89-6.116-7.405a44.045,44.045,0,0,1-14.718-23.687c-21.863-91.61,42.455-233.523,42.455-233.523,13.63-27.261,32.9-28.671,32.9-28.671l2.763-15.393a20.934,20.934,0,0,0,.27-4.816c-.2-3.862,4.487-24.441,62.3-26.321,0,0,59.221-.47,64.354,19.2a15.2,15.2,0,0,1,.189,2.07,26,26,0,0,1-1.068,11.378,5.185,5.185,0,0,0-.228,2.646c.44,2.648,2.316,8.424.908,10.537" fill="none" stroke="#221f1f" stroke-miterlimit="10" stroke-width="0.5"/>
        <path id="패스_6977" data-name="패스 6977" d="M10718,5221.529s4.229-7.05,33.84-2.35" transform="translate(-33.905 -404.683)" fill="none" stroke="#221f1f" stroke-miterlimit="10" stroke-width="0.5"/>
        <path id="패스_6978" data-name="패스 6978" d="M10918.291,4563.47s1.409,112.8,3.29,128.783h3.29s-1.881-125.493-4.231-128.312l-5.64-.94" transform="translate(-138.313 -57.77)" fill="#eee" stroke="#221f1f" stroke-miterlimit="10" stroke-width="0.5"/>
        <path id="패스_6979" data-name="패스 6979" d="M10928.831,4838s-.941,11.28,1.88,13.63c0,0,3.29.47,1.41-13.63" transform="translate(-145.564 -203.518)" fill="none" stroke="#221f1f" stroke-miterlimit="10" stroke-width="0.5"/>
        <path id="패스_6980" data-name="패스 6980" d="M10988.526,4568.823s-4.229,104.342-.939,128.313h3.29s-3.133-124.866,1.018-128.469" transform="translate(-176.119 -60.773)" fill="none" stroke="#221f1f" stroke-miterlimit="10" stroke-width="0.5"/>
        <path id="패스_6981" data-name="패스 6981" d="M10988.791,4842s-.94,9.708,1.409,11.866c0,0,3.29,2.157,1.881-11.866" transform="translate(-177.324 -205.637)" fill="none" stroke="#221f1f" stroke-miterlimit="10" stroke-width="0.5"/>
        <line id="선_2784" data-name="선 2784" x1="0.176" y2="5.053" transform="translate(10718.875 4783.593)" fill="none" stroke="#221f1f" stroke-miterlimit="10" stroke-width="0.5"/>
        <path id="패스_6982" data-name="패스 6982" d="M11084.694,4951l22.012,10.262v5.17l39.7,3.055-2.338-27.73L11113.979,4789l-29.284,162" transform="translate(-228.25 -177.548)" fill="#eee"/>
        <path id="패스_6983" data-name="패스 6983" d="M10795.028,4891.5l156.749-.94c-2.821-11.28,5.169-28.2,5.169-28.2,7.693-23.507,2.172-181.5,1.108-209.941a29.026,29.026,0,0,1,1.86-11.465c2.1-5.487,6.138-12.685,13.482-15.949" transform="translate(-74.729 -90.629)" fill="#eee"/>
        <path id="패스_6984" data-name="패스 6984" d="M11122.76,4991.928c-1.213-10.144-15.754-39.851-21.079-50.612" transform="translate(-237.252 -258.274)" fill="#eee"/>
        <line id="선_2785" data-name="선 2785" x1="167.323" y2="0.705" transform="translate(10714.658 4772.665)" fill="#eee"/>
        <path id="패스_6985" data-name="패스 6985" d="M11154.049,4844.286s-7.05-14.571-39.48-5.171l.94,25.851c0,.019.009.038.013.056a4.183,4.183,0,0,0,3.436,3.014c24.529,3.79,30.392-.719,30.392-.719l.44-16.295a8.274,8.274,0,0,1,.727-3.269,6.263,6.263,0,0,1,3.533-3.466c.387-2.127,3.079-4.89,6.116-7.406a44.044,44.044,0,0,0,14.719-23.686c21.861-91.611-42.454-233.523-42.454-233.523-13.632-27.261-32.9-28.671-32.9-28.671" transform="translate(-236.111 -51.41)" fill="#eee"/>
        <path id="패스_6986" data-name="패스 6986" d="M11167.368,5219.528s-4.229-7.051-33.84-2.35" transform="translate(-254.131 -403.622)" fill="#eee"/>
        <line id="선_2786" data-name="선 2786" x1="0.176" y1="5.053" transform="translate(10878.28 4782.653)" fill="#eee"/>
        <line id="선_2787" data-name="선 2787" x2="31.021" y2="75.671" transform="translate(10853.546 4679.133)" fill="#eee"/>
        <path id="패스_6987" data-name="패스 6987" d="M10795.028,4891.5l156.749-.94c-2.821-11.28,5.169-28.2,5.169-28.2,7.693-23.507,2.172-181.5,1.108-209.941a29.026,29.026,0,0,1,1.86-11.465c2.1-5.487,6.138-12.685,13.482-15.949" transform="translate(-74.729 -90.629)" fill="none" stroke="#221f1f" stroke-miterlimit="10" stroke-width="0.5"/>
        <line id="선_2788" data-name="선 2788" x1="166.396" y2="0.705" transform="translate(10715.585 4772.665)" fill="none" stroke="#221f1f" stroke-miterlimit="10" stroke-width="0.5"/>
        <path id="패스_6988" data-name="패스 6988" d="M11154.049,4844.286s-7.05-14.571-39.48-5.171l.94,25.851c0,.019.009.038.013.056a4.183,4.183,0,0,0,3.436,3.014c24.529,3.79,30.392-.719,30.392-.719l.44-16.295a8.274,8.274,0,0,1,.727-3.269,6.263,6.263,0,0,1,3.533-3.466c.387-2.127,3.079-4.89,6.116-7.406a44.044,44.044,0,0,0,14.719-23.686c21.861-91.611-42.454-233.523-42.454-233.523-13.632-27.261-32.9-28.671-32.9-28.671" transform="translate(-236.111 -51.41)" fill="none" stroke="#221f1f" stroke-miterlimit="10" stroke-width="0.5"/>
        <path id="패스_6989" data-name="패스 6989" d="M11167.368,5219.528s-4.229-7.051-33.84-2.35" transform="translate(-254.131 -403.622)" fill="none" stroke="#221f1f" stroke-miterlimit="10" stroke-width="0.5"/>
        <line id="선_2789" data-name="선 2789" x2="0.176" y2="5.053" transform="translate(10878.28 4782.653)" fill="none" stroke="#221f1f" stroke-miterlimit="10" stroke-width="0.5"/>
      </g>
      <line id="선_2686" data-name="선 2686" y2="323" transform="translate(-18857 6766.501)" fill="none" stroke="#343434" stroke-width="1"/>
      <line id="선_2689" data-name="선 2689" y2="5" transform="translate(-18854.5 6766.501) rotate(90)" fill="none" stroke="#343434" stroke-width="1"/>
      <g id="그룹_7815" data-name="그룹 7815" transform="translate(-2946.174 121.001)">
        <line id="선_2685" data-name="선 2685" x2="190.937" transform="translate(-15830.826 6682.5)" fill="none" stroke="#343434" stroke-width="1"/>
        <line id="선_2688" data-name="선 2688" y2="5" transform="translate(-15830.599 6680)" fill="none" stroke="#343434" stroke-width="1"/>
        <line id="선_2691" data-name="선 2691" y2="5" transform="translate(-15639.89 6680)" fill="none" stroke="#343434" stroke-width="1"/>
      </g>
      <line id="선_2692" data-name="선 2692" y2="5" transform="translate(-18854.5 7089.501) rotate(90)" fill="none" stroke="#343434" stroke-width="1"/>
      <g id="그룹_7281" data-name="그룹 7281" transform="translate(-14977.75 -9880.5) rotate(-90)">
        <line id="선_2728" data-name="선 2728" y2="55.798" transform="translate(-16769 -3846.25)" fill="none" stroke="#343434" stroke-width="1"/>
        <line id="선_2730" data-name="선 2730" y2="5" transform="translate(-16766.5 -3846.25) rotate(90)" fill="none" stroke="#343434" stroke-width="1"/>
        <line id="선_2734" data-name="선 2734" y2="5" transform="translate(-16766.5 -3790.952) rotate(90)" fill="none" stroke="#343434" stroke-width="1"/>
      </g>
      <g id="그룹_7282" data-name="그룹 7282" transform="matrix(1, -0.017, 0.017, 1, -1909.801, 10271.593)">
        <line id="선_2736" data-name="선 2736" y2="270.466" transform="translate(-16609.75 -3752)" fill="none" stroke="#343434" stroke-width="1"/>
        <line id="선_2737" data-name="선 2737" y2="5" transform="translate(-16607.25 -3752) rotate(90)" fill="none" stroke="#343434" stroke-width="1"/>
        <line id="선_2738" data-name="선 2738" y2="5" transform="translate(-16607.25 -3482.033) rotate(90)" fill="none" stroke="#343434" stroke-width="1"/>
      </g>
      <g id="그룹_7814" data-name="그룹 7814" transform="translate(-2943.674 166.001)">
        <line id="선_2687" data-name="선 2687" x2="168.309" transform="translate(-15820.826 6722.5)" fill="none" stroke="#343434" stroke-width="1"/>
        <line id="선_2690" data-name="선 2690" y2="5" transform="translate(-15821.326 6720)" fill="none" stroke="#343434" stroke-width="1"/>
        <line id="선_2693" data-name="선 2693" y2="5" transform="translate(-15652.518 6720)" fill="none" stroke="#343434" stroke-width="1"/>
      </g>
      <g id="그룹_7816" data-name="그룹 7816" transform="translate(-2938.674 116.001)">
        <line id="선_2694" data-name="선 2694" x2="117.748" transform="translate(-15799.826 6648)" fill="none" stroke="#343434" stroke-width="1"/>
        <line id="선_2695" data-name="선 2695" y2="5" transform="translate(-15800.326 6645.5)" fill="none" stroke="#343434" stroke-width="1"/>
        <line id="선_2696" data-name="선 2696" y2="5" transform="translate(-15681.578 6645.5)" fill="none" stroke="#343434" stroke-width="1"/>
      </g>
    </g>
    <rect id="사각형_2277" data-name="사각형 2277" width="470" height="510" transform="translate(-18946 6643)" fill="none"/>
  </g>
</svg>
