<svg xmlns="http://www.w3.org/2000/svg" width="320" height="339" viewBox="0 0 320 339">
  <g id="그룹_7973" data-name="그룹 7973" transform="translate(-20 -917)">
    <rect id="사각형_2301" data-name="사각형 2301" width="320" height="339" transform="translate(20 917)" fill="none"/>
    <g id="그룹_7971" data-name="그룹 7971" transform="translate(20997.799 3570.75)">
      <g id="그룹_7813" data-name="그룹 7813" transform="translate(-31564.445 -7058.067)">
        <path id="패스_6955" data-name="패스 6955" d="M10792.793,5147.826l8.78-3.825-7.158,4.668-.52,6.612-.233-3.176-.4-2.321Z" transform="translate(-95.583 -475.277)" fill="#eee"/>
        <path id="패스_6956" data-name="패스 6956" d="M10795.623,5142.655l11.942-6.03L10795,5153.858l.312-.934Z" transform="translate(-97.104 -470.197)" fill="#eee"/>
        <path id="패스_6957" data-name="패스 6957" d="M10824.623,4651.748l83.71-117.01,1.091-.57.621,3.118v1.226l-.154,1.206,1.243,6.535,9.647,38.9-36.721,87.445s-52.9,56.327-53.214,56.949-6.847-16.8-6.847-16.8Z" transform="translate(-117.078 -55.222)" fill="#eee"/>
        <path id="패스_6958" data-name="패스 6958" d="M10709,5029.729l1.09-17.738,48.7-46.99-9.388,53.111-14.575,6.794v3.423Z" transform="translate(-37.865 -351.981)" fill="#eee"/>
        <path id="패스_6959" data-name="패스 6959" d="M11178,4808" transform="translate(-360.915 -243.838)" fill="#eee"/>
        <line id="선_2780" data-name="선 2780" y1="13.07" x2="2.801" transform="translate(10733.373 4593.414)" fill="#eee"/>
        <line id="선_2781" data-name="선 2781" y1="14.315" x2="2.49" transform="translate(10765.738 4636.048)" fill="#eee"/>
        <path id="패스_6960" data-name="패스 6960" d="M10876.622,4492.733c-25.778-7.15-34.6-12.821-37.553-16.187a4.147,4.147,0,0,1-.249-5.134c7.931-11.173,31.525-12.683,36.27-12.683,1.532,0,2.556.074,3.835.082,25.572.139,35.783,7.282,38.02,10.031a4.381,4.381,0,0,1,.324,5.078,37.63,37.63,0,0,1-6.385,6.95,34.256,34.256,0,0,1-14.69,7.752,107.664,107.664,0,0,1-13.021,2.224,20.245,20.245,0,0,0-6.8,2.015l-3.821,1.91a.152.152,0,0,0,.09.287c4.151-.688,20.194-3.238,27.438-2.866a12.788,12.788,0,0,0,6.492-1.358c3.861-1.971,9.825-4.61,12.063-3.389" transform="translate(-126.755 -3.259)" fill="#eee"/>
        <path id="패스_6961" data-name="패스 6961" d="M10824,4553s17.895,2.646,39.445,6.457" transform="translate(-117.078 -68.193)" fill="#eee"/>
        <path id="패스_6962" data-name="패스 6962" d="M10763.315,4802.826c1.867-7.469-3.422-18.671-3.422-18.671-5.1-15.565-1.439-120.17-.734-139a19.2,19.2,0,0,0-1.233-7.592c-1.389-3.632-4.063-8.4-8.925-10.56" transform="translate(-65.419 -119.165)" fill="none"/>
        <path id="패스_6963" data-name="패스 6963" d="M10777,4971.124c.8-6.717,10.432-26.386,13.957-33.511a4.633,4.633,0,0,1,4.17-2.577l76.309.284a6.683,6.683,0,0,1,6.024,3.844" transform="translate(-84.704 -331.342)" fill="#eee"/>
        <path id="패스_6964" data-name="패스 6964" d="M10784.5,5134" transform="translate(-89.87 -468.389)" fill="#eee"/>
        <path id="패스_6965" data-name="패스 6965" d="M10670.823,4678.993s4.669-9.647,26.141-3.423l-.621,17.116c0,.012,0,.025-.011.037a2.768,2.768,0,0,1-2.273,2c-16.241,2.509-20.124-.476-20.124-.476l-.288-10.79a5.553,5.553,0,0,0-.481-2.165,4.156,4.156,0,0,0-2.342-2.295c-.256-1.409-2.038-3.238-4.05-4.9a29.167,29.167,0,0,1-9.744-15.683c-14.475-60.656,28.11-154.617,28.11-154.617,9.024-18.05,21.784-18.983,21.784-18.983l1.828-10.191a13.839,13.839,0,0,0,.178-3.189c-.134-2.557,2.973-16.183,41.25-17.428,0,0,39.21-.311,42.607,12.71a9.7,9.7,0,0,1,.126,1.371,17.236,17.236,0,0,1-.707,7.533,3.434,3.434,0,0,0-.151,1.751c.293,1.754.756,5.421-.177,6.821" transform="translate(-0.001)" fill="#eee"/>
        <path id="패스_6966" data-name="패스 6966" d="M10718,5220.189s2.8-4.669,22.405-1.557" transform="translate(-44.065 -525.948)" fill="#eee"/>
        <path id="패스_6967" data-name="패스 6967" d="M10917.178,4563.312s.935,74.688,2.18,85.268h2.178s-1.245-83.09-2.8-84.957L10915,4563" transform="translate(-179.759 -75.082)" fill="#eee"/>
        <path id="패스_6968" data-name="패스 6968" d="M10928.781,4838s-.624,7.47,1.242,9.024c0,0,2.181.311.936-9.024" transform="translate(-189.183 -264.503)" fill="#eee"/>
        <path id="패스_6969" data-name="패스 6969" d="M10987.787,4568.77s-2.8,69.086-.623,84.957h2.179s-2.073-82.674.674-85.06" transform="translate(-228.895 -78.985)" fill="#eee"/>
        <path id="패스_6970" data-name="패스 6970" d="M10988.728,4842s-.621,6.428.934,7.856c0,0,2.179,1.428,1.246-7.856" transform="translate(-230.459 -267.258)" fill="#eee"/>
        <line id="선_2782" data-name="선 2782" y1="3.345" x2="0.117" transform="translate(10696.963 4672.224)" fill="#eee"/>
        <line id="선_2783" data-name="선 2783" x1="20.539" y2="50.102" transform="translate(10692.918 4603.684)" fill="#eee"/>
        <path id="패스_6971" data-name="패스 6971" d="M11072,4936" transform="translate(-287.902 -332.005)" fill="#eee"/>
        <path id="패스_6972" data-name="패스 6972" d="M10876.622,4492.733c-25.778-7.15-34.6-12.821-37.553-16.187a4.147,4.147,0,0,1-.249-5.134c7.931-11.173,31.525-12.683,36.27-12.683,1.532,0,2.556.074,3.835.082,25.572.139,35.783,7.282,38.02,10.031a4.381,4.381,0,0,1,.324,5.078,37.63,37.63,0,0,1-6.385,6.95,34.256,34.256,0,0,1-14.69,7.752,107.664,107.664,0,0,1-13.021,2.224,20.245,20.245,0,0,0-6.8,2.015l-3.821,1.91a.152.152,0,0,0,.09.287c4.151-.688,20.194-3.238,27.438-2.866a12.788,12.788,0,0,0,6.492-1.358c3.861-1.971,10.6-4.455,12.842-3.233" transform="translate(-126.755 -3.259)" fill="none" stroke="#221f1f" stroke-miterlimit="10" stroke-width="0.5"/>
        <path id="패스_6973" data-name="패스 6973" d="M10824,4553s17.895,2.646,39.445,6.457" transform="translate(-117.078 -68.193)" fill="none" stroke="#221f1f" stroke-miterlimit="10" stroke-width="0.5"/>
        <path id="패스_6974" data-name="패스 6974" d="M10763.472,4802.98c1.867-7.468-3.578-18.826-3.578-18.826-5.1-15.565-1.439-120.17-.734-139a19.2,19.2,0,0,0-1.233-7.592c-1.389-3.632-4.063-8.4-8.925-10.56" transform="translate(-65.419 -119.165)" fill="none" stroke="#221f1f" stroke-miterlimit="10" stroke-width="0.5"/>
        <path id="패스_6975" data-name="패스 6975" d="M10784.5,5134" transform="translate(-89.87 -468.389)" fill="none" stroke="#221f1f" stroke-miterlimit="10" stroke-width="0.5"/>
        <path id="패스_6976" data-name="패스 6976" d="M10670.823,4678.993s4.669-9.647,26.141-3.423l-.621,17.116c0,.012,0,.025-.011.037a2.768,2.768,0,0,1-2.273,2c-16.241,2.509-20.124-.476-20.124-.476l-.288-10.79a5.553,5.553,0,0,0-.481-2.165,4.156,4.156,0,0,0-2.342-2.295c-.256-1.409-2.038-3.238-4.05-4.9a29.167,29.167,0,0,1-9.744-15.683c-14.475-60.656,28.11-154.617,28.11-154.617,9.024-18.05,21.784-18.983,21.784-18.983l1.828-10.191a13.839,13.839,0,0,0,.178-3.189c-.134-2.557,2.973-16.183,41.25-17.428,0,0,39.21-.311,42.607,12.71a9.7,9.7,0,0,1,.126,1.371,17.236,17.236,0,0,1-.707,7.533,3.434,3.434,0,0,0-.151,1.751c.293,1.754,1.535,5.577.6,6.977" transform="translate(-0.001)" fill="none" stroke="#221f1f" stroke-miterlimit="10" stroke-width="0.5"/>
        <path id="패스_6977" data-name="패스 6977" d="M10718,5220.189s2.8-4.669,22.405-1.557" transform="translate(-44.065 -525.948)" fill="none" stroke="#221f1f" stroke-miterlimit="10" stroke-width="0.5"/>
        <path id="패스_6978" data-name="패스 6978" d="M10917.178,4563.312s.935,74.688,2.18,85.268h2.178s-1.245-83.09-2.8-84.957L10915,4563" transform="translate(-179.759 -75.082)" fill="#eee" stroke="#221f1f" stroke-miterlimit="10" stroke-width="0.5"/>
        <path id="패스_6979" data-name="패스 6979" d="M10928.781,4838s-.624,7.47,1.242,9.024c0,0,2.181.311.936-9.024" transform="translate(-189.183 -264.503)" fill="none" stroke="#221f1f" stroke-miterlimit="10" stroke-width="0.5"/>
        <path id="패스_6980" data-name="패스 6980" d="M10987.787,4568.77s-2.8,69.086-.623,84.957h2.179s-2.073-82.674.674-85.06" transform="translate(-228.895 -78.985)" fill="none" stroke="#221f1f" stroke-miterlimit="10" stroke-width="0.5"/>
        <path id="패스_6981" data-name="패스 6981" d="M10988.728,4842s-.621,6.428.934,7.856c0,0,2.179,1.428,1.246-7.856" transform="translate(-230.459 -267.258)" fill="none" stroke="#221f1f" stroke-miterlimit="10" stroke-width="0.5"/>
        <line id="선_2784" data-name="선 2784" x1="0.117" y2="3.345" transform="translate(10696.963 4672.224)" fill="none" stroke="#221f1f" stroke-miterlimit="10" stroke-width="0.5"/>
        <path id="패스_6982" data-name="패스 6982" d="M11084.7,4896.259l14.572,6.794v3.423l26.289,2.023-1.549-18.36L11104.084,4789l-19.389,107.258" transform="translate(-296.647 -230.752)" fill="#eee"/>
        <path id="패스_6983" data-name="패스 6983" d="M10795.029,4801.447l103.785-.622c-1.868-7.468,3.422-18.671,3.422-18.671,5.095-15.565,1.438-120.171.733-139a19.218,19.218,0,0,1,1.232-7.592c1.391-3.633,4.064-8.4,8.927-10.56" transform="translate(-97.123 -117.787)" fill="#eee"/>
        <path id="패스_6984" data-name="패스 6984" d="M11115.638,4974.827c-.8-6.717-10.43-26.385-13.956-33.511" transform="translate(-308.347 -335.667)" fill="#eee"/>
        <line id="선_2785" data-name="선 2785" x1="110.785" y2="0.467" transform="translate(10694.172 4664.988)" fill="#eee"/>
        <path id="패스_6985" data-name="패스 6985" d="M11135.628,4745.187s-4.668-9.648-26.14-3.424l.622,17.116c0,.013.006.025.009.037a2.773,2.773,0,0,0,2.275,2c16.24,2.509,20.121-.477,20.121-.477l.292-10.789a5.5,5.5,0,0,1,.481-2.164,4.148,4.148,0,0,1,2.339-2.295c.257-1.409,2.038-3.238,4.05-4.9a29.165,29.165,0,0,0,9.745-15.683c14.476-60.655-28.109-154.616-28.109-154.616-9.025-18.05-21.783-18.983-21.783-18.983" transform="translate(-306.865 -66.815)" fill="#eee"/>
        <path id="패스_6986" data-name="패스 6986" d="M11155.934,5218.189s-2.8-4.669-22.405-1.557" transform="translate(-330.283 -524.57)" fill="#eee"/>
        <line id="선_2786" data-name="선 2786" x1="0.117" y1="3.345" transform="translate(10802.505 4671.602)" fill="#eee"/>
        <line id="선_2787" data-name="선 2787" x2="20.539" y2="50.102" transform="translate(10786.128 4603.061)" fill="#eee"/>
        <path id="패스_6987" data-name="패스 6987" d="M10795.029,4801.447l103.785-.622c-1.868-7.468,3.422-18.671,3.422-18.671,5.095-15.565,1.438-120.171.733-139a19.218,19.218,0,0,1,1.232-7.592c1.391-3.633,4.064-8.4,8.927-10.56" transform="translate(-97.123 -117.787)" fill="none" stroke="#221f1f" stroke-miterlimit="10" stroke-width="0.5"/>
        <line id="선_2788" data-name="선 2788" x1="110.172" y2="0.467" transform="translate(10694.784 4664.988)" fill="none" stroke="#221f1f" stroke-miterlimit="10" stroke-width="0.5"/>
        <path id="패스_6988" data-name="패스 6988" d="M11135.628,4745.187s-4.668-9.648-26.14-3.424l.622,17.116c0,.013.006.025.009.037a2.773,2.773,0,0,0,2.275,2c16.24,2.509,20.121-.477,20.121-.477l.292-10.789a5.5,5.5,0,0,1,.481-2.164,4.148,4.148,0,0,1,2.339-2.295c.257-1.409,2.038-3.238,4.05-4.9a29.165,29.165,0,0,0,9.745-15.683c14.476-60.655-28.109-154.616-28.109-154.616-9.025-18.05-21.783-18.983-21.783-18.983" transform="translate(-306.865 -66.815)" fill="none" stroke="#221f1f" stroke-miterlimit="10" stroke-width="0.5"/>
        <path id="패스_6989" data-name="패스 6989" d="M11155.934,5218.189s-2.8-4.669-22.405-1.557" transform="translate(-330.283 -524.57)" fill="none" stroke="#221f1f" stroke-miterlimit="10" stroke-width="0.5"/>
        <line id="선_2789" data-name="선 2789" x2="0.117" y2="3.345" transform="translate(10802.505 4671.602)" fill="none" stroke="#221f1f" stroke-miterlimit="10" stroke-width="0.5"/>
      </g>
      <g id="그룹_7815" data-name="그룹 7815" transform="translate(-5046.174 -9234.75)">
        <line id="선_2685" data-name="선 2685" x2="124.984" transform="translate(-15830.826 6682.5)" fill="none" stroke="#343434" stroke-width="1"/>
        <line id="선_2688" data-name="선 2688" y2="5" transform="translate(-15830.599 6680)" fill="none" stroke="#343434" stroke-width="1"/>
        <line id="선_2691" data-name="선 2691" y2="5" transform="translate(-15705.842 6680)" fill="none" stroke="#343434" stroke-width="1"/>
      </g>
      <g id="그룹_7970" data-name="그룹 7970" transform="translate(23.201 98.288)">
        <line id="선_2686" data-name="선 2686" y2="202.747" transform="translate(-20950 -2669.25)" fill="none" stroke="#343434" stroke-width="1"/>
        <line id="선_2689" data-name="선 2689" y2="5" transform="translate(-20947.5 -2669.25) rotate(90)" fill="none" stroke="#343434" stroke-width="1"/>
        <line id="선_2692" data-name="선 2692" y2="5" transform="translate(-20947.5 -2466.503) rotate(90)" fill="none" stroke="#343434" stroke-width="1"/>
      </g>
      <g id="그룹_7282" data-name="그룹 7282" transform="matrix(1, -0.017, 0.017, 1, -4075.801, 916.592)">
        <line id="선_2736" data-name="선 2736" y2="176.725" transform="translate(-16609.75 -3752)" fill="none" stroke="#343434" stroke-width="1"/>
        <line id="선_2737" data-name="선 2737" y2="5" transform="translate(-16607.25 -3752) rotate(90)" fill="none" stroke="#343434" stroke-width="1"/>
        <line id="선_2738" data-name="선 2738" y2="5" transform="translate(-16607.25 -3575.775) rotate(90)" fill="none" stroke="#343434" stroke-width="1"/>
      </g>
      <g id="그룹_7816" data-name="그룹 7816" transform="translate(-5048.674 -9256.75)">
        <line id="선_2694" data-name="선 2694" x2="71.294" transform="translate(-15799.826 6648)" fill="none" stroke="#343434" stroke-width="1"/>
        <line id="선_2695" data-name="선 2695" y2="5" transform="translate(-15800.326 6645.5)" fill="none" stroke="#343434" stroke-width="1"/>
        <line id="선_2696" data-name="선 2696" y2="5" transform="translate(-15728.032 6645.5)" fill="none" stroke="#343434" stroke-width="1"/>
      </g>
      <g id="그룹_7835" data-name="그룹 7835" transform="translate(-17052.549 -19262) rotate(-90)">
        <line id="선_2728" data-name="선 2728" y2="25.628" transform="translate(-16769 -3846.25)" fill="none" stroke="#343434" stroke-width="1"/>
        <line id="선_2730" data-name="선 2730" y2="5" transform="translate(-16766.5 -3846.25) rotate(90)" fill="none" stroke="#343434" stroke-width="1"/>
        <line id="선_2734" data-name="선 2734" y2="5" transform="translate(-16766.5 -3821.122) rotate(90)" fill="none" stroke="#343434" stroke-width="1"/>
      </g>
      <g id="그룹_7836" data-name="그룹 7836" transform="translate(-5047.674 -9215)">
        <line id="선_2687" data-name="선 2687" x2="109.818" transform="translate(-15820.826 6722.5)" fill="none" stroke="#343434" stroke-width="1"/>
        <line id="선_2690" data-name="선 2690" y2="5" transform="translate(-15821.326 6720)" fill="none" stroke="#343434" stroke-width="1"/>
        <line id="선_2693" data-name="선 2693" y2="5" transform="translate(-15711.008 6720)" fill="none" stroke="#343434" stroke-width="1"/>
      </g>
    </g>
  </g>
</svg>
