<svg xmlns="http://www.w3.org/2000/svg" width="320" height="339" viewBox="0 0 320 339">
  <g id="그룹_7956" data-name="그룹 7956" transform="translate(-20 -917)">
    <rect id="사각형_2301" data-name="사각형 2301" width="320" height="339" transform="translate(20 917)" fill="none"/>
    <g id="그룹_7953" data-name="그룹 7953" transform="translate(18645 6559)">
      <g id="그룹_7846" data-name="그룹 7846" transform="translate(-20363.361 -7456.501)">
        <path id="패스_7045" data-name="패스 7045" d="M2304.3,2591.392l-.3-.9,3.887-1.5,14.054,1.794.6,3.289-.6.9-1.794.3Z" transform="translate(-344.214 -495.235)" fill="#eee"/>
        <path id="패스_7046" data-name="패스 7046" d="M1881,2596.382l2.093-2.093,5.382-3.289h6.28l4.187.6-.748,1.345-16,3.738Z" transform="translate(-47.704 -496.637)" fill="#eee"/>
        <path id="패스_7047" data-name="패스 7047" d="M2059,1883.1l.6-.6h36.781l2.093,6.28-13.157,28.109-15.251-5.383-10.765-18.839Z" transform="translate(-172.477 0)" fill="#eee"/>
        <path id="패스_7048" data-name="패스 7048" d="M1973.363,1947.492l4.784-2.492,67.282,2.392,10.765,43.958,7.476,75.953-53.377,49.19-5.233-.449L1962,2035.008Z" transform="translate(-104.482 -43.811)" fill="#eee"/>
        <path id="패스_7049" data-name="패스 7049" d="M2040.864,1882.5h-19.437c-2.824,1.027-13.137,13.509-16,17.026a2.95,2.95,0,0,0-.65,2.17c.33,3.184,1.812,11.729,8.377,17.381a2.635,2.635,0,0,0,2.911.336c4.132-2.1,15.668-8.048,21.247-11.8a.85.85,0,0,0,.122-1.314c-3.175-3.112-15.484-16.513-16-23.8" transform="translate(-134.455 0)" fill="#eee" stroke="#221f1f" stroke-miterlimit="10" stroke-width="0.5"/>
        <path id="패스_7050" data-name="패스 7050" d="M2119,1882.5h19.437c2.823,1.027,13.137,13.509,16,17.026a2.949,2.949,0,0,1,.65,2.17c-.33,3.184-1.812,11.729-8.377,17.381a2.636,2.636,0,0,1-2.911.336c-4.132-2.1-15.668-8.048-21.247-11.8a.85.85,0,0,1-.122-1.314c3.175-3.112,15.483-16.513,16-23.8" transform="translate(-214.535 0)" fill="#eee" stroke="#221f1f" stroke-miterlimit="10" stroke-width="0.5"/>
        <path id="패스_7051" data-name="패스 7051" d="M1870.376,1950.5s-26.464,8.074-36.332,32.594c0,0-40.126,109.33-9.7,149.358a3.809,3.809,0,0,0,3.015,1.507c1.744.006,4.189.526,4,3.434,0,0-.9,10.765,1.794,10.167,0,0,9.805-7.564,17.756-3.982a.506.506,0,0,0,.706-.507c-.245-2.955-.925-12.246.078-13.751,0,0,2.093-3.887.6-7.775" transform="translate(0 -47.666)" fill="#eee" stroke="#221f1f" stroke-miterlimit="10" stroke-width="0.5"/>
        <path id="패스_7052" data-name="패스 7052" d="M1870,2552.292s11.513-6.878,21.68-5.98" transform="translate(-39.993 -465.255)" fill="#eee" stroke="#221f1f" stroke-miterlimit="10" stroke-width="0.5"/>
        <path id="패스_7053" data-name="패스 7053" d="M1880.5,2600.387s12.858,2.392,17.643-3.887" transform="translate(-47.354 -500.493)" fill="#eee" stroke="#221f1f" stroke-miterlimit="10" stroke-width="0.5"/>
        <path id="패스_7054" data-name="패스 7054" d="M1883.5,2059.5s18.241,17.045,17.045,49.639c0,0-4.785,59.208-.6,65.787l-.3,20.633s.3,2.392,3.289,2.392l49.041-1.2" transform="translate(-49.456 -124.072)" fill="#eee" stroke="#221f1f" stroke-miterlimit="10" stroke-width="0.5"/>
        <path id="패스_7055" data-name="패스 7055" d="M2239,1950.5s26.464,8.074,36.332,32.594c0,0,40.126,109.33,9.7,149.358a3.809,3.809,0,0,1-3.016,1.507c-1.744.006-4.189.526-4,3.434,0,0,.9,10.765-1.794,10.167,0,0-9.805-7.564-17.756-3.982a.506.506,0,0,1-.706-.507c.245-2.955.926-12.246-.078-13.751,0,0-2.094-3.887-.6-7.775" transform="translate(-298.651 -47.666)" fill="#eee" stroke="#221f1f" stroke-miterlimit="10" stroke-width="0.5"/>
        <path id="패스_7056" data-name="패스 7056" d="M2323.18,2552.292s-11.513-6.878-21.68-5.98" transform="translate(-342.462 -465.255)" fill="#eee" stroke="#221f1f" stroke-miterlimit="10" stroke-width="0.5"/>
        <path id="패스_7057" data-name="패스 7057" d="M2322.143,2600.387s-12.858,2.392-17.643-3.887" transform="translate(-344.565 -500.493)" fill="#eee" stroke="#221f1f" stroke-miterlimit="10" stroke-width="0.5"/>
        <path id="패스_7058" data-name="패스 7058" d="M2194.37,2059.5s-18.241,17.045-17.045,49.639c0,0,4.784,59.208.6,65.787l.3,20.633s-.3,2.392-3.29,2.392l-51.433-1.2" transform="translate(-217.689 -124.072)" fill="#eee" stroke="#221f1f" stroke-miterlimit="10" stroke-width="0.5"/>
        <rect id="사각형_2290" data-name="사각형 2290" width="3.289" height="2.99" transform="translate(1902.521 2070.291)" fill="#eee" stroke="#221f1f" stroke-miterlimit="10" stroke-width="0.5"/>
        <path id="패스_7059" data-name="패스 7059" d="M2114.2,1964.5l-.7,9.868h0a4.48,4.48,0,0,0,4.713.562h0a.841.841,0,0,0,.519-.8l-.665-9.627Z" transform="translate(-210.68 -57.479)" fill="#eee" stroke="#221f1f" stroke-miterlimit="10" stroke-width="0.5"/>
        <line id="선_2797" data-name="선 2797" x1="1.67" y2="152.53" transform="translate(1902.521 1917.76)" fill="#eee" stroke="#221f1f" stroke-miterlimit="10" stroke-width="0.5"/>
        <line id="선_2798" data-name="선 2798" y1="152.655" x2="1.177" transform="translate(1905.811 1917.636)" fill="#eee" stroke="#221f1f" stroke-miterlimit="10" stroke-width="0.5"/>
        <line id="선_2799" data-name="선 2799" y1="1.196" x2="52.33" transform="translate(1850.49 2049.657)" fill="#eee" stroke="#221f1f" stroke-miterlimit="10" stroke-width="0.5"/>
        <line id="선_2800" data-name="선 2800" x1="54.124" y1="1.196" transform="translate(1906.11 2049.657)" fill="#eee" stroke="#221f1f" stroke-miterlimit="10" stroke-width="0.5"/>
      </g>
      <g id="그룹_7829" data-name="그룹 7829" transform="translate(-2657.469 -12306)">
        <line id="선_2687" data-name="선 2687" x2="40.422" transform="translate(-15820.826 6722.5)" fill="none" stroke="#343434" stroke-width="1"/>
        <line id="선_2690" data-name="선 2690" y2="5" transform="translate(-15821.127 6719.999)" fill="none" stroke="#343434" stroke-width="1"/>
        <line id="선_2693" data-name="선 2693" y2="5" transform="translate(-15779.934 6720)" fill="none" stroke="#343434" stroke-width="1"/>
      </g>
      <g id="그룹_7832" data-name="그룹 7832" transform="translate(-2693.667 -12205.001)">
        <line id="선_2685" data-name="선 2685" x2="131.081" transform="translate(-15830.826 6682.5)" fill="none" stroke="#343434" stroke-width="1"/>
        <line id="선_2688" data-name="선 2688" y2="5" transform="translate(-15830.599 6680)" fill="none" stroke="#343434" stroke-width="1"/>
        <line id="선_2691" data-name="선 2691" y2="5" transform="translate(-15699.745 6680)" fill="none" stroke="#343434" stroke-width="1"/>
      </g>
      <g id="그룹_7833" data-name="그룹 7833" transform="translate(3056.501 -10708.494)">
        <line id="선_2795" data-name="선 2795" y2="180" transform="translate(-21615 5152.494)" fill="none" stroke="#343434" stroke-width="1"/>
        <line id="선_2794" data-name="선 2794" y2="5" transform="translate(-21612.5 5152.501) rotate(90)" fill="none" stroke="#343434" stroke-width="1"/>
        <line id="선_2796" data-name="선 2796" y2="5" transform="translate(-21612.5 5331.876) rotate(90)" fill="none" stroke="#343434" stroke-width="1"/>
      </g>
      <g id="그룹_7839" data-name="그룹 7839" transform="translate(-1778.774 -1761)">
        <line id="선_2736" data-name="선 2736" y2="152.634" transform="translate(-16609.75 -3752)" fill="none" stroke="#343434" stroke-width="1"/>
        <line id="선_2737" data-name="선 2737" y2="5" transform="translate(-16607.25 -3752) rotate(90)" fill="none" stroke="#343434" stroke-width="1"/>
        <line id="선_2738" data-name="선 2738" y2="5" transform="translate(-16607.25 -3599.865) rotate(90)" fill="none" stroke="#343434" stroke-width="1"/>
      </g>
      <g id="그룹_7837" data-name="그룹 7837" transform="translate(-14695.75 -22237.5) rotate(-90)">
        <line id="선_2728" data-name="선 2728" y2="28.064" transform="translate(-16769 -3846.25)" fill="none" stroke="#343434" stroke-width="1"/>
        <line id="선_2730" data-name="선 2730" y2="5" transform="translate(-16766.5 -3846.25) rotate(90)" fill="none" stroke="#343434" stroke-width="1"/>
        <line id="선_2734" data-name="선 2734" y2="5" transform="translate(-16766.5 -3818.685) rotate(90)" fill="none" stroke="#343434" stroke-width="1"/>
      </g>
      <g id="그룹_7838" data-name="그룹 7838" transform="translate(-2688.611 -12191)">
        <line id="선_2687-2" data-name="선 2687" x2="102.414" transform="translate(-15820.826 6722.5)" fill="none" stroke="#343434" stroke-width="1"/>
        <line id="선_2690-2" data-name="선 2690" y2="5" transform="translate(-15821.39 6720)" fill="none" stroke="#343434" stroke-width="1"/>
        <line id="선_2693-2" data-name="선 2693" y2="5" transform="translate(-15718.412 6720)" fill="none" stroke="#343434" stroke-width="1"/>
      </g>
    </g>
  </g>
</svg>
