<svg xmlns="http://www.w3.org/2000/svg" width="470" height="510" viewBox="0 0 470 510">
  <g id="그룹_7861" data-name="그룹 7861" transform="translate(-1330 -211)">
    <rect id="사각형_2262" data-name="사각형 2262" width="470" height="510" transform="translate(1330 211)" fill="none"/>
    <g id="그룹_7847" data-name="그룹 7847" transform="translate(20944 -4763)">
      <g id="그룹_7846" data-name="그룹 7846" transform="translate(-21322.5 3175.826)">
        <path id="패스_7045" data-name="패스 7045" d="M2304.507,2593.053l-.507-1.52,6.587-2.533,23.814,3.04,1.013,5.573-1.013,1.52-3.04.507Z" transform="translate(-242.245 -348.528)" fill="#eee"/>
        <path id="패스_7046" data-name="패스 7046" d="M1881,2600.12l3.547-3.547,9.12-5.573h10.64l7.094,1.013-1.267,2.28-27.107,6.333Z" transform="translate(-33.572 -349.515)" fill="#eee"/>
        <path id="패스_7047" data-name="패스 7047" d="M2059,1883.513l1.013-1.013h62.322l3.547,10.64-22.294,47.628-25.841-9.12-18.24-31.921Z" transform="translate(-121.383)" fill="#eee"/>
        <path id="패스_7048" data-name="패스 7048" d="M1981.254,1949.222l8.107-4.222,114,4.053,18.241,74.482,12.667,128.7-90.443,83.35-8.867-.76L1962,2097.512Z" transform="translate(-73.531 -30.832)" fill="#eee"/>
        <path id="패스_7049" data-name="패스 7049" d="M2065.936,1882.5H2033c-4.784,1.74-22.26,22.891-27.115,28.849a5,5,0,0,0-1.1,3.678c.559,5.4,3.07,19.875,14.194,29.451a4.466,4.466,0,0,0,4.933.57c7-3.558,26.549-13.636,36-19.988a1.441,1.441,0,0,0,.206-2.227c-5.379-5.273-26.236-27.98-27.118-40.332" transform="translate(-94.624)" fill="#eee" stroke="#221f1f" stroke-miterlimit="10" stroke-width="0.5"/>
        <path id="패스_7050" data-name="패스 7050" d="M2119,1882.5h32.935c4.784,1.74,22.26,22.891,27.115,28.849a5,5,0,0,1,1.1,3.678c-.56,5.4-3.07,19.875-14.194,29.451a4.466,4.466,0,0,1-4.933.57c-7-3.558-26.549-13.636-36-19.988a1.441,1.441,0,0,1-.206-2.227c5.38-5.273,26.236-27.98,27.118-40.332" transform="translate(-150.982)" fill="#eee" stroke="#221f1f" stroke-miterlimit="10" stroke-width="0.5"/>
        <path id="패스_7051" data-name="패스 7051" d="M1910.256,1950.5s-44.841,13.68-61.562,55.229c0,0-67.991,185.251-16.44,253.076a6.455,6.455,0,0,0,5.109,2.554c2.955.011,7.1.891,6.77,5.819,0,0-1.52,18.241,3.04,17.227,0,0,16.614-12.817,30.086-6.747a.857.857,0,0,0,1.2-.86c-.416-5.006-1.568-20.75.132-23.3,0,0,3.547-6.587,1.013-13.174" transform="translate(0 -33.546)" fill="#eee" stroke="#221f1f" stroke-miterlimit="10" stroke-width="0.5"/>
        <path id="패스_7052" data-name="패스 7052" d="M1870,2556.5s19.507-11.654,36.734-10.134" transform="translate(-28.146 -327.429)" fill="#eee" stroke="#221f1f" stroke-miterlimit="10" stroke-width="0.5"/>
        <path id="패스_7053" data-name="패스 7053" d="M1880.5,2603.087s21.787,4.053,29.894-6.587" transform="translate(-33.326 -352.228)" fill="#eee" stroke="#221f1f" stroke-miterlimit="10" stroke-width="0.5"/>
        <path id="패스_7054" data-name="패스 7054" d="M1883.5,2059.5s30.908,28.881,28.881,84.109c0,0-8.107,100.323-1.013,111.47l-.507,34.961s.507,4.053,5.574,4.053l83.1-2.027" transform="translate(-34.806 -87.317)" fill="#eee" stroke="#221f1f" stroke-miterlimit="10" stroke-width="0.5"/>
        <path id="패스_7055" data-name="패스 7055" d="M2239,1950.5s44.842,13.68,61.562,55.229c0,0,67.991,185.251,16.44,253.076a6.455,6.455,0,0,1-5.11,2.554c-2.955.011-7.1.891-6.77,5.819,0,0,1.52,18.241-3.04,17.227,0,0-16.614-12.817-30.086-6.747a.857.857,0,0,1-1.2-.86c.416-5.006,1.568-20.75-.132-23.3,0,0-3.547-6.587-1.013-13.174" transform="translate(-210.18 -33.546)" fill="#eee" stroke="#221f1f" stroke-miterlimit="10" stroke-width="0.5"/>
        <path id="패스_7056" data-name="패스 7056" d="M2338.235,2556.5s-19.507-11.654-36.735-10.134" transform="translate(-241.012 -327.429)" fill="#eee" stroke="#221f1f" stroke-miterlimit="10" stroke-width="0.5"/>
        <path id="패스_7057" data-name="패스 7057" d="M2334.394,2603.087s-21.788,4.053-29.894-6.587" transform="translate(-242.492 -352.228)" fill="#eee" stroke="#221f1f" stroke-miterlimit="10" stroke-width="0.5"/>
        <path id="패스_7058" data-name="패스 7058" d="M2243.584,2059.5s-30.907,28.881-28.881,84.109c0,0,8.107,100.323,1.013,111.47l.507,34.961s-.507,4.053-5.573,4.053l-87.15-2.027" transform="translate(-153.202 -87.317)" fill="#eee" stroke="#221f1f" stroke-miterlimit="10" stroke-width="0.5"/>
        <rect id="사각형_2290" data-name="사각형 2290" width="5.574" height="5.067" transform="translate(1964.725 2200.697)" fill="#eee" stroke="#221f1f" stroke-miterlimit="10" stroke-width="0.5"/>
        <path id="패스_7059" data-name="패스 7059" d="M2114.69,1964.5l-1.19,16.721h0a7.591,7.591,0,0,0,7.985.952h0a1.426,1.426,0,0,0,.878-1.361l-1.126-16.312Z" transform="translate(-148.268 -40.452)" fill="#eee" stroke="#221f1f" stroke-miterlimit="10" stroke-width="0.5"/>
        <line id="선_2797" data-name="선 2797" x1="2.829" y2="258.451" transform="translate(1964.725 1942.246)" fill="#eee" stroke="#221f1f" stroke-miterlimit="10" stroke-width="0.5"/>
        <line id="선_2798" data-name="선 2798" y1="258.662" x2="1.995" transform="translate(1970.298 1942.035)" fill="#eee" stroke="#221f1f" stroke-miterlimit="10" stroke-width="0.5"/>
        <line id="선_2799" data-name="선 2799" y1="2.027" x2="88.67" transform="translate(1876.562 2165.736)" fill="#eee" stroke="#221f1f" stroke-miterlimit="10" stroke-width="0.5"/>
        <line id="선_2800" data-name="선 2800" x1="91.71" y1="2.027" transform="translate(1970.805 2165.736)" fill="#eee" stroke="#221f1f" stroke-miterlimit="10" stroke-width="0.5"/>
      </g>
      <g id="그룹_7829" data-name="그룹 7829" transform="translate(-3563.97 -1681)">
        <line id="선_2687" data-name="선 2687" x2="63.893" transform="translate(-15820.826 6722.5)" fill="none" stroke="#343434" stroke-width="1"/>
        <line id="선_2690" data-name="선 2690" y2="5" transform="translate(-15821.127 6719.999)" fill="none" stroke="#343434" stroke-width="1"/>
        <line id="선_2693" data-name="선 2693" y2="5" transform="translate(-15756.934 6720)" fill="none" stroke="#343434" stroke-width="1"/>
      </g>
      <g id="그룹_7832" data-name="그룹 7832" transform="translate(-3635.173 -1537.001)">
        <line id="선_2685" data-name="선 2685" x2="224.987" transform="translate(-15830.826 6682.5)" fill="none" stroke="#343434" stroke-width="1"/>
        <line id="선_2688" data-name="선 2688" y2="5" transform="translate(-15830.599 6680)" fill="none" stroke="#343434" stroke-width="1"/>
        <line id="선_2691" data-name="선 2691" y2="5" transform="translate(-15605.839 6680)" fill="none" stroke="#343434" stroke-width="1"/>
      </g>
      <g id="그룹_7833" data-name="그룹 7833" transform="translate(2083.5 -58.494)">
        <line id="선_2795" data-name="선 2795" y2="293" transform="translate(-21615 5152.494)" fill="none" stroke="#343434" stroke-width="1"/>
        <line id="선_2794" data-name="선 2794" y2="5" transform="translate(-21612.5 5152.501) rotate(90)" fill="none" stroke="#343434" stroke-width="1"/>
        <line id="선_2796" data-name="선 2796" y2="5" transform="translate(-21612.5 5444.876) rotate(90)" fill="none" stroke="#343434" stroke-width="1"/>
      </g>
      <g id="그룹_7839" data-name="그룹 7839" transform="translate(-2623.752 8910)">
        <line id="선_2736" data-name="선 2736" y2="261.906" transform="translate(-16609.75 -3752)" fill="none" stroke="#343434" stroke-width="1"/>
        <line id="선_2737" data-name="선 2737" y2="5" transform="translate(-16607.25 -3752) rotate(90)" fill="none" stroke="#343434" stroke-width="1"/>
        <line id="선_2738" data-name="선 2738" y2="5" transform="translate(-16607.25 -3490.594) rotate(90)" fill="none" stroke="#343434" stroke-width="1"/>
      </g>
      <g id="그룹_7837" data-name="그룹 7837" transform="translate(-15647.75 -11544.5) rotate(-90)">
        <line id="선_2728" data-name="선 2728" y2="47.834" transform="translate(-16769 -3846.25)" fill="none" stroke="#343434" stroke-width="1"/>
        <line id="선_2730" data-name="선 2730" y2="5" transform="translate(-16766.5 -3846.25) rotate(90)" fill="none" stroke="#343434" stroke-width="1"/>
        <line id="선_2734" data-name="선 2734" y2="5" transform="translate(-16766.5 -3798.916) rotate(90)" fill="none" stroke="#343434" stroke-width="1"/>
      </g>
      <g id="그룹_7838" data-name="그룹 7838" transform="translate(-3620.674 -1498)">
        <line id="선_2687-2" data-name="선 2687" x2="177.998" transform="translate(-15820.826 6722.5)" fill="none" stroke="#343434" stroke-width="1"/>
        <line id="선_2690-2" data-name="선 2690" y2="5" transform="translate(-15821.326 6720)" fill="none" stroke="#343434" stroke-width="1"/>
        <line id="선_2693-2" data-name="선 2693" y2="5" transform="translate(-15642.828 6720)" fill="none" stroke="#343434" stroke-width="1"/>
      </g>
    </g>
  </g>
</svg>
