<svg xmlns="http://www.w3.org/2000/svg" width="320" height="339" viewBox="0 0 320 339">
  <g id="그룹_7963" data-name="그룹 7963" transform="translate(-20 -917)">
    <rect id="사각형_2301" data-name="사각형 2301" width="320" height="339" transform="translate(20 917)" fill="none"/>
    <g id="그룹_7961" data-name="그룹 7961" transform="translate(12355 6415.392)">
      <g id="그룹_7854" data-name="그룹 7854" transform="translate(-20187.027 -7302.393)">
        <path id="패스_7078" data-name="패스 7078" d="M8383.809,2499.125l-.331-1.654-.056-1.489.056-1.82-2.978-.662v2.978Z" transform="translate(-310.113 -417.524)" fill="#eee"/>
        <path id="패스_7079" data-name="패스 7079" d="M7949.883,2082.576l-15.883-31.1,49.628-172.851,48.646,21.964,51.95-14.89L8114,1984.3l6.617,77.429-77.428,17.868-92.98-20.846Z" transform="translate(-11.357 -6.103)" fill="#eee"/>
        <path id="패스_7080" data-name="패스 7080" d="M7934.887,2078.4s4.963-10.258,27.795-3.64l-.662,18.2c0,.013-.007.027-.01.04a2.943,2.943,0,0,1-2.418,2.122c-17.27,2.667-21.4-.507-21.4-.507l-.31-11.472a5.833,5.833,0,0,0-.512-2.3,4.408,4.408,0,0,0-2.487-2.44c-.272-1.5-2.169-3.442-4.307-5.214a31.008,31.008,0,0,1-10.361-16.675c-15.391-64.5,29.889-164.4,29.889-164.4,9.6-19.192,29.78-20.1,29.78-20.1" transform="translate(0 -1.673)" fill="#eee"/>
        <path id="패스_7081" data-name="패스 7081" d="M8403.183,2054.422c15.391-64.5-29.89-164.4-29.89-164.4C8363.7,1870.827,8344,1870,8344,1870" transform="translate(-285.691 -0.335)" fill="#eee"/>
        <path id="패스_7082" data-name="패스 7082" d="M8421.824,2451.492s-4.963-10.258-27.795-3.64l.661,18.2c0,.013.007.026.01.04a2.945,2.945,0,0,0,2.418,2.122c17.271,2.667,21.4-.507,21.4-.507l.31-11.472a5.85,5.85,0,0,1,.511-2.3,4.414,4.414,0,0,1,2.489-2.44c.271-1.5,2.167-3.443,4.3-5.214a30.99,30.99,0,0,0,10.361-16.675" transform="translate(-319.166 -374.77)" fill="#eee"/>
        <path id="패스_7083" data-name="패스 7083" d="M8102.658,2076.722s-4.963-10.258-27.795-3.64l.661,18.2c0,.013.007.027.01.04a2.944,2.944,0,0,0,2.418,2.122c17.269,2.668,21.4-.507,21.4-.507l.309-11.472a5.852,5.852,0,0,1,.511-2.3,4.411,4.411,0,0,1,2.489-2.44c.272-1.5,2.168-3.443,4.306-5.214a31.013,31.013,0,0,0,10.362-16.675l.168-.759c15.382-64.5-29.892-164.39-29.892-164.39q-.2-.4-.4-.789a36.229,36.229,0,0,0-32.2-19.4h-12.935a1.775,1.775,0,0,0-1.748,1.492l0,.049-.042.113s-2.647,12.243-25.147,12.243c-19.192,0-22.37-11.659-22.37-11.659a1.775,1.775,0,0,0-1.748-1.492h-8.3a36.229,36.229,0,0,0-32.2,19.4q-.2.39-.4.789s-45.276,99.9-29.891,164.393a31.019,31.019,0,0,0,10.365,16.686c2.138,1.771,4.033,3.716,4.305,5.213a4.41,4.41,0,0,1,2.488,2.44,5.817,5.817,0,0,1,.511,2.3l.31,11.471s4.127,3.174,21.4.507a2.944,2.944,0,0,0,2.418-2.122l.009-.04.662-18.2c-22.832-6.618-27.795,3.64-27.795,3.64" fill="#eee" stroke="#221f1f" stroke-miterlimit="10" stroke-width="0.5"/>
        <path id="패스_7084" data-name="패스 7084" d="M8245,1894.508l10.919-14.559,2.978-1.654.663-3.971.661-1.323,7.61,11.912.993,5.625s-13.9,4.963-14.56,4.963S8245,1894.508,8245,1894.508Z" transform="translate(-219.449 -2.342)" fill="#eee"/>
        <path id="패스_7085" data-name="패스 7085" d="M8027.221,2132.708c1.986-7.941-3.64-19.854-3.64-19.854-5.417-16.55-1.529-127.776-.78-147.8a20.435,20.435,0,0,0-1.31-8.071c-1.479-3.863-4.321-8.93-9.491-11.228" transform="translate(-63.547 -51.022)" fill="none"/>
        <path id="패스_7086" data-name="패스 7086" d="M8047.5,2452.754" transform="translate(-87.3 -390.26)" fill="#eee"/>
        <path id="패스_7087" data-name="패스 7087" d="M7981,2539.108s2.978-4.963,23.824-1.655" transform="translate(-42.805 -446.172)" fill="#eee"/>
        <line id="선_2805" data-name="선 2805" y1="3.557" x2="0.124" transform="translate(7962.682 2069.525)" fill="#eee"/>
        <path id="패스_7088" data-name="패스 7088" d="M8012,1945.754c5.17,2.3,8.013,7.365,9.491,11.228a20.435,20.435,0,0,1,1.31,8.071c-.75,20.025-4.637,131.252.78,147.8,0,0,5.792,12.078,3.806,20.019l110.187-.25" transform="translate(-63.547 -51.022)" fill="#eee" stroke="#221f1f" stroke-miterlimit="10" stroke-width="0.5"/>
        <path id="패스_7089" data-name="패스 7089" d="M8047.5,2452.754" transform="translate(-87.3 -390.26)" fill="none" stroke="#221f1f" stroke-miterlimit="10" stroke-width="0.5"/>
        <path id="패스_7090" data-name="패스 7090" d="M7981,2539.108s2.978-4.963,23.824-1.655" transform="translate(-42.805 -446.172)" fill="none" stroke="#221f1f" stroke-miterlimit="10" stroke-width="0.5"/>
        <line id="선_2806" data-name="선 2806" x1="0.124" y2="3.557" transform="translate(7962.682 2069.525)" fill="none" stroke="#221f1f" stroke-miterlimit="10" stroke-width="0.5"/>
        <line id="선_2807" data-name="선 2807" x1="117.798" y2="0.496" transform="translate(7959.712 2061.832)" fill="#eee"/>
        <line id="선_2808" data-name="선 2808" x1="117.145" y2="0.496" transform="translate(7960.365 2061.832)" fill="none" stroke="#221f1f" stroke-miterlimit="10" stroke-width="0.5"/>
        <path id="패스_7091" data-name="패스 7091" d="M8390.17,2470.607c-1.984-7.941,3.64-19.853,3.64-19.853" transform="translate(-316.3 -388.922)" fill="none"/>
        <path id="패스_7092" data-name="패스 7092" d="M8401.528,2452.754" transform="translate(-324.184 -390.26)" fill="#eee"/>
        <path id="패스_7093" data-name="패스 7093" d="M8419.852,2539.108s-2.978-4.963-23.824-1.655" transform="translate(-320.502 -446.172)" fill="#eee"/>
        <line id="선_2809" data-name="선 2809" x1="0.124" y1="3.557" transform="translate(8074.739 2069.525)" fill="#eee"/>
        <path id="패스_7094" data-name="패스 7094" d="M8401.528,2452.754" transform="translate(-324.184 -390.26)" fill="none" stroke="#221f1f" stroke-miterlimit="10" stroke-width="0.5"/>
        <path id="패스_7095" data-name="패스 7095" d="M8419.852,2539.108s-2.978-4.963-23.824-1.655" transform="translate(-320.502 -446.172)" fill="none" stroke="#221f1f" stroke-miterlimit="10" stroke-width="0.5"/>
        <line id="선_2810" data-name="선 2810" x2="0.124" y2="3.557" transform="translate(8074.739 2069.525)" fill="none" stroke="#221f1f" stroke-miterlimit="10" stroke-width="0.5"/>
        <path id="패스_7096" data-name="패스 7096" d="M8403,2452.254" transform="translate(-325.168 -389.925)" fill="#eee"/>
        <path id="패스_7097" data-name="패스 7097" d="M8391,2510.754" transform="translate(-317.139 -429.068)" fill="none" stroke="#221f1f" stroke-miterlimit="10" stroke-width="0.5"/>
        <path id="패스_7098" data-name="패스 7098" d="M8401.028,2452.254" transform="translate(-323.849 -389.925)" fill="none" stroke="#221f1f" stroke-miterlimit="10" stroke-width="0.5"/>
        <path id="패스_7099" data-name="패스 7099" d="M8402.527,2110.6c5.417-16.55,1.53-127.776.78-147.8a20.44,20.44,0,0,1,1.312-8.072c1.477-3.862,4.32-8.93,9.49-11.228" transform="translate(-324.852 -49.514)" fill="none"/>
        <path id="패스_7100" data-name="패스 7100" d="M8405.842,1943.5c-5.171,2.3-8.014,7.367-9.492,11.23a20.432,20.432,0,0,0-1.309,8.067c.744,19.938,4.6,130.346-.715,147.6-.043.14-.082.279-.113.421h0a5.067,5.067,0,0,1-.326.985c-1.02,2.266-5.032,12.287-3.275,19.316" transform="translate(-316.585 -49.514)" fill="none" stroke="#221f1f" stroke-miterlimit="10" stroke-width="0.5"/>
        <path id="패스_7101" data-name="패스 7101" d="M8187.406,1869.5s-4.081,18.2-30.325,18.2c-22.385,0-27.582-17.537-27.582-17.537" transform="translate(-142.167)" fill="none" stroke="#221f1f" stroke-miterlimit="10" stroke-width="0.5"/>
      </g>
      <g id="그룹_7829" data-name="그룹 7829" transform="translate(3621.653 -12162.393)">
        <line id="선_2687" data-name="선 2687" x2="58.106" transform="translate(-15820.826 6722.5)" fill="none" stroke="#343434" stroke-width="1"/>
        <line id="선_2690" data-name="선 2690" y2="5" transform="translate(-15821.127 6719.999)" fill="none" stroke="#343434" stroke-width="1"/>
        <line id="선_2693" data-name="선 2693" y2="5" transform="translate(-15762.72 6720)" fill="none" stroke="#343434" stroke-width="1"/>
      </g>
      <g id="그룹_7832" data-name="그룹 7832" transform="translate(3595.668 -12091.393)">
        <line id="선_2685" data-name="선 2685" x2="133.158" transform="translate(-15830.826 6682.5)" fill="none" stroke="#343434" stroke-width="1"/>
        <line id="선_2688" data-name="선 2688" y2="5" transform="translate(-15830.599 6680)" fill="none" stroke="#343434" stroke-width="1"/>
        <line id="선_2691" data-name="선 2691" y2="5" transform="translate(-15697.668 6680)" fill="none" stroke="#343434" stroke-width="1"/>
      </g>
      <g id="그룹_7839" data-name="그룹 7839" transform="translate(4510.248 -1650.466)">
        <line id="선_2736" data-name="선 2736" y2="188.455" transform="translate(-16609.75 -3752)" fill="none" stroke="#343434" stroke-width="1"/>
        <line id="선_2737" data-name="선 2737" y2="5" transform="translate(-16607.25 -3752) rotate(90)" fill="none" stroke="#343434" stroke-width="1"/>
        <line id="선_2738" data-name="선 2738" y2="5" transform="translate(-16607.25 -3564.044) rotate(90)" fill="none" stroke="#343434" stroke-width="1"/>
      </g>
      <g id="그룹_7833" data-name="그룹 7833" transform="translate(9330.5 -10585.494)">
        <line id="선_2795" data-name="선 2795" y2="213.405" transform="translate(-21615 5152.494)" fill="none" stroke="#343434" stroke-width="1"/>
        <line id="선_2794" data-name="선 2794" y2="5" transform="translate(-21612.5 5152.501) rotate(90)" fill="none" stroke="#343434" stroke-width="1"/>
        <line id="선_2796" data-name="선 2796" y2="5" transform="translate(-21612.5 5365.281) rotate(90)" fill="none" stroke="#343434" stroke-width="1"/>
      </g>
      <g id="그룹_7837" data-name="그룹 7837" transform="translate(-8409.75 -22118.5) rotate(-90)">
        <line id="선_2728" data-name="선 2728" y2="25.491" transform="translate(-16769 -3846.25)" fill="none" stroke="#343434" stroke-width="1"/>
        <line id="선_2730" data-name="선 2730" y2="5" transform="translate(-16766.5 -3846.25) rotate(90)" fill="none" stroke="#343434" stroke-width="1"/>
        <line id="선_2734" data-name="선 2734" y2="5" transform="translate(-16766.5 -3821.259) rotate(90)" fill="none" stroke="#343434" stroke-width="1"/>
      </g>
      <g id="그룹_7960" data-name="그룹 7960" transform="translate(-8379.75 -22118.5) rotate(-90)">
        <line id="선_2728-2" data-name="선 2728" y2="116.161" transform="translate(-16769 -3846.25)" fill="none" stroke="#343434" stroke-width="1"/>
        <line id="선_2730-2" data-name="선 2730" y2="5" transform="translate(-16766.5 -3846.25) rotate(90)" fill="none" stroke="#343434" stroke-width="1"/>
        <line id="선_2734-2" data-name="선 2734" y2="5" transform="translate(-16766.5 -3730.589) rotate(90)" fill="none" stroke="#343434" stroke-width="1"/>
      </g>
    </g>
  </g>
</svg>
