<svg xmlns="http://www.w3.org/2000/svg" width="470" height="510" viewBox="0 0 470 510">
  <g id="그룹_7863" data-name="그룹 7863" transform="translate(-1330 -211)">
    <rect id="사각형_2262" data-name="사각형 2262" width="470" height="510" transform="translate(1330 211)" fill="none"/>
    <g id="그룹_7855" data-name="그룹 7855" transform="translate(16436 -4800)">
      <g id="그룹_7854" data-name="그룹 7854" transform="translate(-22918.027 3238.49)">
        <path id="패스_7078" data-name="패스 7078" d="M8385.5,2502.006l-.5-2.5-.083-2.251.083-2.752-4.5-1v4.5Z" transform="translate(-231.586 -311.798)" fill="#eee"/>
        <path id="패스_7079" data-name="패스 7079" d="M7958.015,2187.01,7934,2139.98l75.041-261.359,73.555,33.211,78.551-22.514,45.029,149.1,10.006,117.076-117.075,27.018-140.591-31.521Z" transform="translate(-8.481 -4.558)" fill="#eee"/>
        <path id="패스_7080" data-name="패스 7080" d="M7944.031,2184.079s7.5-15.51,42.027-5.5l-1,27.518c0,.02-.01.04-.015.06a4.45,4.45,0,0,1-3.656,3.208c-26.113,4.033-32.353-.766-32.353-.766l-.469-17.346a8.808,8.808,0,0,0-.772-3.48,6.668,6.668,0,0,0-3.762-3.69c-.412-2.264-3.279-5.205-6.511-7.884a46.885,46.885,0,0,1-15.667-25.213c-23.272-97.52,45.193-248.585,45.193-248.585,14.51-29.019,45.03-30.4,45.03-30.4" transform="translate(0 -1.249)" fill="#eee"/>
        <path id="패스_7081" data-name="패스 7081" d="M8433.486,2148.855c23.272-97.52-45.193-248.586-45.193-248.586C8373.784,1871.251,8344,1870,8344,1870" transform="translate(-213.348 -0.25)" fill="#eee"/>
        <path id="패스_7082" data-name="패스 7082" d="M8436.056,2462.7s-7.5-15.51-42.026-5.5l1,27.518c.006.02.01.04.015.06a4.451,4.451,0,0,0,3.656,3.208c26.113,4.034,32.353-.766,32.353-.766l.468-17.346a8.867,8.867,0,0,1,.772-3.48,6.672,6.672,0,0,1,3.763-3.69c.411-2.264,3.277-5.205,6.51-7.884a46.865,46.865,0,0,0,15.668-25.213" transform="translate(-238.347 -279.87)" fill="#eee"/>
        <path id="패스_7083" data-name="패스 7083" d="M8197.71,2182.83s-7.5-15.51-42.027-5.5l1,27.518c0,.02.01.04.015.06a4.451,4.451,0,0,0,3.656,3.208c26.112,4.034,32.354-.766,32.354-.766l.468-17.345a8.838,8.838,0,0,1,.772-3.48,6.669,6.669,0,0,1,3.763-3.69c.411-2.264,3.278-5.205,6.511-7.884a46.894,46.894,0,0,0,15.667-25.213l.255-1.148c23.259-97.52-45.2-248.565-45.2-248.565q-.3-.6-.609-1.193a54.779,54.779,0,0,0-48.686-29.327h-19.558a2.683,2.683,0,0,0-2.643,2.256l0,.074-.062.171s-4,18.512-38.024,18.512c-29.019,0-33.824-17.629-33.824-17.629a2.684,2.684,0,0,0-2.642-2.256H8016.34a54.779,54.779,0,0,0-48.687,29.326q-.305.589-.608,1.193s-68.458,151.051-45.2,248.57a46.9,46.9,0,0,0,15.672,25.23c3.232,2.678,6.1,5.619,6.509,7.882a6.668,6.668,0,0,1,3.762,3.69,8.8,8.8,0,0,1,.772,3.48l.469,17.345s6.24,4.8,32.353.766a4.451,4.451,0,0,0,3.656-3.208c0-.02.01-.04.014-.06l1-27.518c-34.522-10.007-42.027,5.5-42.027,5.5" transform="translate(0 0)" fill="#eee" stroke="#221f1f" stroke-miterlimit="10" stroke-width="0.5"/>
        <path id="패스_7084" data-name="패스 7084" d="M8245,1905.521l16.511-22.014,4.5-2.5,1-6,1-2,11.508,18.012,1.5,8.505s-21.014,7.5-22.015,7.5S8245,1905.521,8245,1905.521Z" transform="translate(-163.88 -1.749)" fill="#eee"/>
        <path id="패스_7085" data-name="패스 7085" d="M8035.015,2228.437c3-12.008-5.5-30.019-5.5-30.019-8.19-25.024-2.312-193.2-1.179-223.482a30.9,30.9,0,0,0-1.981-12.2c-2.235-5.841-6.533-13.5-14.351-16.978" transform="translate(-47.456 -38.102)" fill="none"/>
        <path id="패스_7086" data-name="패스 7086" d="M8047.5,2452.754" transform="translate(-65.194 -291.438)" fill="#eee"/>
        <path id="패스_7087" data-name="패스 7087" d="M7981,2540.538s4.5-7.505,36.023-2.5" transform="translate(-31.966 -333.192)" fill="#eee"/>
        <line id="선_2805" data-name="선 2805" y1="5.378" x2="0.188" transform="translate(7986.059 2171.948)" fill="#eee"/>
        <path id="패스_7088" data-name="패스 7088" d="M8012,1945.754c7.818,3.474,12.116,11.137,14.351,16.978a30.9,30.9,0,0,1,1.981,12.2c-1.133,30.279-7.011,198.459,1.179,223.482,0,0,8.757,18.262,5.754,30.27l166.607-.377" transform="translate(-47.456 -38.102)" fill="#eee" stroke="#221f1f" stroke-miterlimit="10" stroke-width="0.5"/>
        <path id="패스_7089" data-name="패스 7089" d="M8047.5,2452.754" transform="translate(-65.194 -291.438)" fill="none" stroke="#221f1f" stroke-miterlimit="10" stroke-width="0.5"/>
        <path id="패스_7090" data-name="패스 7090" d="M7981,2540.538s4.5-7.505,36.023-2.5" transform="translate(-31.966 -333.192)" fill="none" stroke="#221f1f" stroke-miterlimit="10" stroke-width="0.5"/>
        <line id="선_2806" data-name="선 2806" x1="0.188" y2="5.378" transform="translate(7986.059 2171.948)" fill="none" stroke="#221f1f" stroke-miterlimit="10" stroke-width="0.5"/>
        <line id="선_2807" data-name="선 2807" x1="178.115" y2="0.75" transform="translate(7981.569 2160.315)" fill="#eee"/>
        <line id="선_2808" data-name="선 2808" x1="177.128" y2="0.75" transform="translate(7982.556 2160.315)" fill="none" stroke="#221f1f" stroke-miterlimit="10" stroke-width="0.5"/>
        <path id="패스_7091" data-name="패스 7091" d="M8390.388,2480.773c-3-12.008,5.5-30.019,5.5-30.019" transform="translate(-236.206 -290.439)" fill="none"/>
        <path id="패스_7092" data-name="패스 7092" d="M8401.528,2452.754" transform="translate(-242.094 -291.438)" fill="#eee"/>
        <path id="패스_7093" data-name="패스 7093" d="M8432.051,2540.538s-4.5-7.505-36.023-2.5" transform="translate(-239.344 -333.192)" fill="#eee"/>
        <line id="선_2809" data-name="선 2809" x1="0.188" y1="5.378" transform="translate(8155.494 2171.948)" fill="#eee"/>
        <path id="패스_7094" data-name="패스 7094" d="M8401.528,2452.754" transform="translate(-242.094 -291.438)" fill="none" stroke="#221f1f" stroke-miterlimit="10" stroke-width="0.5"/>
        <path id="패스_7095" data-name="패스 7095" d="M8432.051,2540.538s-4.5-7.505-36.023-2.5" transform="translate(-239.344 -333.192)" fill="none" stroke="#221f1f" stroke-miterlimit="10" stroke-width="0.5"/>
        <line id="선_2810" data-name="선 2810" x2="0.188" y2="5.378" transform="translate(8155.494 2171.948)" fill="none" stroke="#221f1f" stroke-miterlimit="10" stroke-width="0.5"/>
        <path id="패스_7096" data-name="패스 7096" d="M8403,2452.254" transform="translate(-242.829 -291.188)" fill="#eee"/>
        <path id="패스_7097" data-name="패스 7097" d="M8391,2510.754" transform="translate(-236.833 -320.419)" fill="none" stroke="#221f1f" stroke-miterlimit="10" stroke-width="0.5"/>
        <path id="패스_7098" data-name="패스 7098" d="M8401.028,2452.254" transform="translate(-241.844 -291.188)" fill="none" stroke="#221f1f" stroke-miterlimit="10" stroke-width="0.5"/>
        <path id="패스_7099" data-name="패스 7099" d="M8402.528,2196.164c8.189-25.024,2.313-193.2,1.179-223.482a30.921,30.921,0,0,1,1.982-12.2c2.233-5.84,6.534-13.5,14.35-16.977" transform="translate(-242.593 -36.976)" fill="none"/>
        <path id="패스_7100" data-name="패스 7100" d="M8413.866,1943.5c-7.819,3.475-12.118,11.14-14.353,16.98a30.867,30.867,0,0,0-1.98,12.2c1.127,30.146,6.962,197.089-1.079,223.172-.066.211-.124.422-.172.637h0a7.754,7.754,0,0,1-.493,1.489c-1.541,3.426-7.609,18.578-4.952,29.207" transform="translate(-236.42 -36.976)" fill="none" stroke="#221f1f" stroke-miterlimit="10" stroke-width="0.5"/>
        <path id="패스_7101" data-name="패스 7101" d="M8217.057,1869.5s-6.17,27.518-45.853,27.518c-33.847,0-41.7-26.517-41.7-26.517" transform="translate(-106.168 0)" fill="none" stroke="#221f1f" stroke-miterlimit="10" stroke-width="0.5"/>
      </g>
      <g id="그룹_7829" data-name="그룹 7829" transform="translate(927.127 -1628)">
        <line id="선_2687" data-name="선 2687" x2="87.259" transform="translate(-15820.826 6722.5)" fill="none" stroke="#343434" stroke-width="1"/>
        <line id="선_2690" data-name="선 2690" y2="5" transform="translate(-15821.127 6719.999)" fill="none" stroke="#343434" stroke-width="1"/>
        <line id="선_2693" data-name="선 2693" y2="5" transform="translate(-15733.567 6720)" fill="none" stroke="#343434" stroke-width="1"/>
      </g>
      <g id="그룹_7832" data-name="그룹 7832" transform="translate(881.826 -1540.001)">
        <line id="선_2685" data-name="선 2685" x2="202.474" transform="translate(-15830.826 6682.5)" fill="none" stroke="#343434" stroke-width="1"/>
        <line id="선_2688" data-name="선 2688" y2="5" transform="translate(-15830.599 6680)" fill="none" stroke="#343434" stroke-width="1"/>
        <line id="선_2691" data-name="선 2691" y2="5" transform="translate(-15628.353 6680)" fill="none" stroke="#343434" stroke-width="1"/>
      </g>
      <g id="그룹_7833" data-name="그룹 7833" transform="translate(6596.5 -39.494)">
        <line id="선_2795" data-name="선 2795" y2="316.582" transform="translate(-21615 5152.494)" fill="none" stroke="#343434" stroke-width="1"/>
        <line id="선_2794" data-name="선 2794" y2="5" transform="translate(-21612.5 5152.501) rotate(90)" fill="none" stroke="#343434" stroke-width="1"/>
        <line id="선_2796" data-name="선 2796" y2="5" transform="translate(-21612.5 5468.458) rotate(90)" fill="none" stroke="#343434" stroke-width="1"/>
      </g>
      <g id="그룹_7839" data-name="그룹 7839" transform="translate(1866.248 8903)">
        <line id="선_2736" data-name="선 2736" y2="287.465" transform="translate(-16609.75 -3752)" fill="none" stroke="#343434" stroke-width="1"/>
        <line id="선_2737" data-name="선 2737" y2="5" transform="translate(-16607.25 -3752) rotate(90)" fill="none" stroke="#343434" stroke-width="1"/>
        <line id="선_2738" data-name="선 2738" y2="5" transform="translate(-16607.25 -3465.034) rotate(90)" fill="none" stroke="#343434" stroke-width="1"/>
      </g>
      <g id="그룹_7837" data-name="그룹 7837" transform="translate(-11136.75 -11533.5) rotate(-90)">
        <line id="선_2728" data-name="선 2728" y2="42.963" transform="translate(-16769 -3846.25)" fill="none" stroke="#343434" stroke-width="1"/>
        <line id="선_2730" data-name="선 2730" y2="5" transform="translate(-16766.5 -3846.25) rotate(90)" fill="none" stroke="#343434" stroke-width="1"/>
        <line id="선_2734" data-name="선 2734" y2="5" transform="translate(-16766.5 -3803.787) rotate(90)" fill="none" stroke="#343434" stroke-width="1"/>
      </g>
      <g id="그룹_7838" data-name="그룹 7838" transform="translate(884.985 -1487)">
        <line id="선_2687-2" data-name="선 2687" x2="179.158" transform="translate(-15821.485 6722.5)" fill="none" stroke="#343434" stroke-width="1"/>
        <line id="선_2690-2" data-name="선 2690" y2="5" transform="translate(-15821.985 6720)" fill="none" stroke="#343434" stroke-width="1"/>
        <line id="선_2693-2" data-name="선 2693" y2="5" transform="translate(-15642.327 6720)" fill="none" stroke="#343434" stroke-width="1"/>
      </g>
    </g>
  </g>
</svg>
