<svg xmlns="http://www.w3.org/2000/svg" width="320" height="339" viewBox="0 0 320 339">
  <g id="그룹_7966" data-name="그룹 7966" transform="translate(-20 -917)">
    <rect id="사각형_2301" data-name="사각형 2301" width="320" height="339" transform="translate(20 917)" fill="none"/>
    <g id="그룹_7964" data-name="그룹 7964" transform="translate(9248 6382)">
      <g id="그룹_7858" data-name="그룹 7858" transform="translate(-14012.85 -7214.278)">
        <path id="패스_7102" data-name="패스 7102" d="M4914.662,2487.3l-1.162-.166s.5-2.822.663-2.656,7.967-4.647,7.967-4.647l7.634-1.327,3.32,1-2.325,1.328Z" transform="translate(-40.448 -448.938)" fill="#eee"/>
        <path id="패스_7103" data-name="패스 7103" d="M5339.756,2489.8s-13.277,3.651-18.256-7.3" transform="translate(-313.017 -451.61)" fill="#eee" stroke="#221f1f" stroke-miterlimit="10" stroke-width="0.5"/>
        <path id="패스_7104" data-name="패스 7104" d="M5321.83,2479.491l-.83-.56,6.141-1.431,13.278,4.647-1,3.983-1.328.332Z" transform="translate(-312.683 -448.269)" fill="#eee"/>
        <path id="패스_7105" data-name="패스 7105" d="M4913.5,2489.8s13.278,3.651,18.256-7.3" transform="translate(-40.448 -451.61)" fill="#eee" stroke="#221f1f" stroke-miterlimit="10" stroke-width="0.5"/>
        <path id="패스_7106" data-name="패스 7106" d="M5085.332,1808l.643-.809,1.017-.187h36.181l1,.332.332,1.66-1.66,6.971-8.962,9.294-8.3,2.988-8.631-1.992L5085,1812.311Z" transform="translate(-155.021 -0.334)" fill="#eee"/>
        <path id="패스_7107" data-name="패스 7107" d="M5012.24,1847.655,5022.2,1845l20.912,7.3,25.891-4.979,7.967,21.908-8.3,11.95-25.559-7.967-3.651,195.844-37.509-7.967L4990,1943.586Z" transform="translate(-91.555 -25.72)" fill="#eee"/>
        <path id="패스_7108" data-name="패스 7108" d="M4923.174,1849.5l-27.55,9.294c-11.771,3.923-17.625,14.944-19.165,18.282a9.416,9.416,0,0,0-.613,1.787l-19.11,81.284a138.944,138.944,0,0,0,1.738,71.013c2.729,9.271,6.468,18.4,11.59,25.8,0,0,1.273,6.141,2.595,10.032a.279.279,0,0,0,.538-.027c.05-.233,2.986-7.88,18.111-7.35" transform="translate(0 -28.727)" fill="#eee" stroke="#221f1f" stroke-miterlimit="10" stroke-width="0.5"/>
        <path id="패스_7109" data-name="패스 7109" d="M4923.5,1932.5a58.252,58.252,0,0,1,14.937,43.484v159.371a3.947,3.947,0,0,0,3.622,3.935c9.7.8,36.845,2.594,56.293-.49" transform="translate(-47.129 -84.176)" fill="#eee" stroke="#221f1f" stroke-miterlimit="10" stroke-width="0.5"/>
        <path id="패스_7110" data-name="패스 7110" d="M4904.5,2458.068s6.639-10.622,21.244-7.634" transform="translate(-34.436 -429.834)" fill="#eee" stroke="#221f1f" stroke-miterlimit="10" stroke-width="0.5"/>
        <path id="패스_7111" data-name="패스 7111" d="M5224.955,1849.5l27.551,9.294c11.771,3.923,17.625,14.944,19.164,18.282a9.381,9.381,0,0,1,.612,1.787l19.111,81.284a138.939,138.939,0,0,1-1.739,71.013c-2.728,9.271-6.468,18.4-11.589,25.8,0,0-1.274,6.141-2.595,10.032a.279.279,0,0,1-.538-.027c-.051-.233-2.986-7.88-18.111-7.35" transform="translate(-248.519 -28.727)" fill="#eee" stroke="#221f1f" stroke-miterlimit="10" stroke-width="0.5"/>
        <path id="패스_7112" data-name="패스 7112" d="M5206.986,1898.095a58.256,58.256,0,0,0-14.937,43.484v159.012a4.311,4.311,0,0,1-3.985,4.3c-10.945.825-41.856,2.6-60.064-1.99V1881" transform="translate(-183.747 -49.771)" fill="#eee" stroke="#221f1f" stroke-miterlimit="10" stroke-width="0.5"/>
        <path id="패스_7113" data-name="패스 7113" d="M5342.2,2458.068s-6.639-10.622-21.245-7.634" transform="translate(-312.653 -429.834)" fill="#eee" stroke="#221f1f" stroke-miterlimit="10" stroke-width="0.5"/>
        <line id="선_2811" data-name="선 2811" y2="223.726" transform="translate(4955.207 1831.229)" fill="#eee" stroke="#221f1f" stroke-miterlimit="10" stroke-width="0.5"/>
        <circle id="타원_106" data-name="타원 106" cx="1.992" cy="1.992" r="1.992" transform="translate(4947.572 1832.059)" fill="#eee" stroke="#221f1f" stroke-miterlimit="10" stroke-width="0.5"/>
        <circle id="타원_107" data-name="타원 107" cx="1.992" cy="1.992" r="1.992" transform="translate(4947.572 1851.976)" fill="#eee" stroke="#221f1f" stroke-miterlimit="10" stroke-width="0.5"/>
        <circle id="타원_108" data-name="타원 108" cx="1.992" cy="1.992" r="1.992" transform="translate(4947.572 1873.552)" fill="#eee" stroke="#221f1f" stroke-miterlimit="10" stroke-width="0.5"/>
        <circle id="타원_109" data-name="타원 109" cx="1.992" cy="1.992" r="1.992" transform="translate(4947.572 1896.787)" fill="#eee" stroke="#221f1f" stroke-miterlimit="10" stroke-width="0.5"/>
        <circle id="타원_110" data-name="타원 110" cx="1.992" cy="1.992" r="1.992" transform="translate(4947.572 1919.691)" fill="#eee" stroke="#221f1f" stroke-miterlimit="10" stroke-width="0.5"/>
        <circle id="타원_111" data-name="타원 111" cx="1.992" cy="1.992" r="1.992" transform="translate(4947.572 1939.939)" fill="#eee" stroke="#221f1f" stroke-miterlimit="10" stroke-width="0.5"/>
        <circle id="타원_112" data-name="타원 112" cx="1.992" cy="1.992" r="1.992" transform="translate(4947.572 1961.515)" fill="#eee" stroke="#221f1f" stroke-miterlimit="10" stroke-width="0.5"/>
        <circle id="타원_113" data-name="타원 113" cx="1.992" cy="1.992" r="1.992" transform="translate(4947.572 1984.751)" fill="#eee" stroke="#221f1f" stroke-miterlimit="10" stroke-width="0.5"/>
        <path id="패스_7114" data-name="패스 7114" d="M5109.845,1806.873s3.973,7.166-18.429,18.975a.365.365,0,0,0-.086.585l15.926,15.325a1.3,1.3,0,0,0,2.07-.383l7.6-16.207a7.584,7.584,0,0,0-.143-6.728l-5.129-9.83a3.927,3.927,0,0,0-3.481-2.11h-34.56a3.926,3.926,0,0,0-3.481,2.11l-5.129,9.83a7.587,7.587,0,0,0-.144,6.728l7.6,16.207a1.294,1.294,0,0,0,2.07.383l15.927-15.325a.365.365,0,0,0-.086-.585c-22.4-11.809-18.429-18.975-18.429-18.975" transform="translate(-141.085)" fill="#eee" stroke="#221f1f" stroke-miterlimit="10" stroke-width="0.5"/>
      </g>
      <g id="그룹_7829" data-name="그룹 7829" transform="translate(6731.357 -12139)">
        <line id="선_2687" data-name="선 2687" x2="52.469" transform="translate(-15820.826 6722.5)" fill="none" stroke="#343434" stroke-width="1"/>
        <line id="선_2690" data-name="선 2690" y2="5" transform="translate(-15821.127 6719.999)" fill="none" stroke="#343434" stroke-width="1"/>
        <line id="선_2693" data-name="선 2693" y2="5" transform="translate(-15768.357 6720)" fill="none" stroke="#343434" stroke-width="1"/>
      </g>
      <g id="그룹_7832" data-name="그룹 7832" transform="translate(6698.668 -12050)">
        <line id="선_2685" data-name="선 2685" x2="138.158" transform="translate(-15830.826 6682.5)" fill="none" stroke="#343434" stroke-width="1"/>
        <line id="선_2688" data-name="선 2688" y2="5" transform="translate(-15830.599 6680)" fill="none" stroke="#343434" stroke-width="1"/>
        <line id="선_2691" data-name="선 2691" y2="5" transform="translate(-15692.668 6680)" fill="none" stroke="#343434" stroke-width="1"/>
      </g>
      <g id="그룹_7839" data-name="그룹 7839" transform="translate(7618.248 -1607)">
        <line id="선_2736" data-name="선 2736" y2="176.207" transform="translate(-16609.75 -3752)" fill="none" stroke="#343434" stroke-width="1"/>
        <line id="선_2737" data-name="선 2737" y2="5" transform="translate(-16607.25 -3752) rotate(90)" fill="none" stroke="#343434" stroke-width="1"/>
        <line id="선_2738" data-name="선 2738" y2="5" transform="translate(-16607.25 -3576.292) rotate(90)" fill="none" stroke="#343434" stroke-width="1"/>
      </g>
      <g id="그룹_7833" data-name="그룹 7833" transform="translate(12436.5 -10537.494)">
        <line id="선_2795" data-name="선 2795" y2="226.694" transform="translate(-21615 5152.494)" fill="none" stroke="#343434" stroke-width="1"/>
        <line id="선_2794" data-name="선 2794" y2="5" transform="translate(-21612.5 5152.501) rotate(90)" fill="none" stroke="#343434" stroke-width="1"/>
        <line id="선_2796" data-name="선 2796" y2="5" transform="translate(-21612.5 5378.57) rotate(90)" fill="none" stroke="#343434" stroke-width="1"/>
      </g>
      <g id="그룹_7837" data-name="그룹 7837" transform="translate(-5303.75 -22070.107) rotate(-90)">
        <line id="선_2728" data-name="선 2728" y2="25.491" transform="translate(-16769 -3846.25)" fill="none" stroke="#343434" stroke-width="1"/>
        <line id="선_2730" data-name="선 2730" y2="5" transform="translate(-16766.5 -3846.25) rotate(90)" fill="none" stroke="#343434" stroke-width="1"/>
        <line id="선_2734" data-name="선 2734" y2="5" transform="translate(-16766.5 -3821.259) rotate(90)" fill="none" stroke="#343434" stroke-width="1"/>
      </g>
      <g id="그룹_7960" data-name="그룹 7960" transform="translate(-5273.75 -22070.107) rotate(-90)">
        <line id="선_2728-2" data-name="선 2728" y2="116.161" transform="translate(-16769 -3846.25)" fill="none" stroke="#343434" stroke-width="1"/>
        <line id="선_2730-2" data-name="선 2730" y2="5" transform="translate(-16766.5 -3846.25) rotate(90)" fill="none" stroke="#343434" stroke-width="1"/>
        <line id="선_2734-2" data-name="선 2734" y2="5" transform="translate(-16766.5 -3730.589) rotate(90)" fill="none" stroke="#343434" stroke-width="1"/>
      </g>
    </g>
  </g>
</svg>
