<svg xmlns="http://www.w3.org/2000/svg" width="470" height="510" viewBox="0 0 470 510">
  <g id="그룹_7865" data-name="그룹 7865" transform="translate(-1330 -211)">
    <rect id="사각형_2262" data-name="사각형 2262" width="470" height="510" transform="translate(1330 211)" fill="none"/>
    <g id="그룹_7859" data-name="그룹 7859" transform="translate(14549 -4813.893)">
      <g id="그룹_7858" data-name="그룹 7858" transform="translate(-17964.402 3291.14)">
        <path id="패스_7102" data-name="패스 7102" d="M4915.317,2492.255l-1.817-.26s.778-4.412,1.038-4.153,12.458-7.267,12.458-7.267l11.938-2.076,5.191,1.557-3.634,2.076Z" transform="translate(-29.119 -323.191)" fill="#eee"/>
        <path id="패스_7103" data-name="패스 7103" d="M5350.048,2493.919s-20.762,5.71-28.548-11.419" transform="translate(-225.342 -325.115)" fill="#eee" stroke="#221f1f" stroke-miterlimit="10" stroke-width="0.5"/>
        <path id="패스_7104" data-name="패스 7104" d="M5322.3,2480.614l-1.3-.876,9.6-2.239,20.763,7.267-1.558,6.229-2.076.519Z" transform="translate(-225.101 -322.71)" fill="#eee"/>
        <path id="패스_7105" data-name="패스 7105" d="M4913.5,2493.919s20.762,5.71,28.548-11.419" transform="translate(-29.119 -325.115)" fill="#eee" stroke="#221f1f" stroke-miterlimit="10" stroke-width="0.5"/>
        <path id="패스_7106" data-name="패스 7106" d="M5085.52,1808.557l1.005-1.265,1.589-.292h56.578l1.558.519.519,2.6-2.6,10.9-14.015,14.534-12.977,4.672-13.5-3.114L5085,1815.3Z" transform="translate(-111.6 -0.24)" fill="#eee"/>
        <path id="패스_7107" data-name="패스 7107" d="M5024.776,1849.152l15.572-4.152,32.7,11.419,40.487-7.786,12.458,34.258-12.977,18.686-39.968-12.458-5.709,306.246-58.655-12.458L4990,1999.161Z" transform="translate(-65.91 -18.516)" fill="#eee"/>
        <path id="패스_7108" data-name="패스 7108" d="M4962.759,1849.5l-43.082,14.534c-18.405,6.135-27.562,23.369-29.967,28.589a14.7,14.7,0,0,0-.958,2.795l-29.884,127.105a217.263,217.263,0,0,0,2.718,111.046c4.267,14.5,10.114,28.777,18.123,40.345,0,0,1.992,9.6,4.058,15.687a.436.436,0,0,0,.841-.042c.078-.364,4.669-12.323,28.321-11.493" transform="translate(0 -20.68)" fill="#eee" stroke="#221f1f" stroke-miterlimit="10" stroke-width="0.5"/>
        <path id="패스_7109" data-name="패스 7109" d="M4923.5,1932.5s26.472,25.953,23.358,68v249.213a6.171,6.171,0,0,0,5.664,6.154c15.167,1.253,57.615,4.057,88.027-.767" transform="translate(-33.928 -60.598)" fill="#eee" stroke="#221f1f" stroke-miterlimit="10" stroke-width="0.5"/>
        <path id="패스_7110" data-name="패스 7110" d="M4904.5,2462.671s10.381-16.61,33.22-11.938" transform="translate(-24.79 -309.438)" fill="#eee" stroke="#221f1f" stroke-miterlimit="10" stroke-width="0.5"/>
        <path id="패스_7111" data-name="패스 7111" d="M5224.955,1849.5l43.082,14.534c18.406,6.135,27.561,23.369,29.967,28.589a14.7,14.7,0,0,1,.958,2.795l29.884,127.105a217.269,217.269,0,0,1-2.719,111.046c-4.267,14.5-10.114,28.777-18.123,40.345,0,0-1.992,9.6-4.057,15.687a.437.437,0,0,1-.842-.042c-.078-.364-4.669-12.323-28.32-11.493" transform="translate(-178.91 -20.68)" fill="#eee" stroke="#221f1f" stroke-miterlimit="10" stroke-width="0.5"/>
        <path id="패스_7112" data-name="패스 7112" d="M5251.513,1907.732s-26.472,25.953-23.357,68V2224.38a6.742,6.742,0,0,1-6.232,6.724c-17.115,1.29-65.452,4.06-93.923-3.111V1881" transform="translate(-132.28 -35.83)" fill="#eee" stroke="#221f1f" stroke-miterlimit="10" stroke-width="0.5"/>
        <path id="패스_7113" data-name="패스 7113" d="M5354.175,2462.671s-10.381-16.61-33.22-11.938" transform="translate(-225.08 -309.438)" fill="#eee" stroke="#221f1f" stroke-miterlimit="10" stroke-width="0.5"/>
        <line id="선_2811" data-name="선 2811" y2="349.847" transform="translate(5012.849 1845.17)" fill="#eee" stroke="#221f1f" stroke-miterlimit="10" stroke-width="0.5"/>
        <circle id="타원_106" data-name="타원 106" cx="3.114" cy="3.114" r="3.114" transform="translate(5000.911 1846.468)" fill="#eee" stroke="#221f1f" stroke-miterlimit="10" stroke-width="0.5"/>
        <circle id="타원_107" data-name="타원 107" cx="3.114" cy="3.114" r="3.114" transform="translate(5000.911 1877.611)" fill="#eee" stroke="#221f1f" stroke-miterlimit="10" stroke-width="0.5"/>
        <circle id="타원_108" data-name="타원 108" cx="3.114" cy="3.114" r="3.114" transform="translate(5000.911 1911.35)" fill="#eee" stroke="#221f1f" stroke-miterlimit="10" stroke-width="0.5"/>
        <circle id="타원_109" data-name="타원 109" cx="3.114" cy="3.114" r="3.114" transform="translate(5000.911 1947.685)" fill="#eee" stroke="#221f1f" stroke-miterlimit="10" stroke-width="0.5"/>
        <circle id="타원_110" data-name="타원 110" cx="3.114" cy="3.114" r="3.114" transform="translate(5000.911 1983.5)" fill="#eee" stroke="#221f1f" stroke-miterlimit="10" stroke-width="0.5"/>
        <circle id="타원_111" data-name="타원 111" cx="3.114" cy="3.114" r="3.114" transform="translate(5000.911 2015.162)" fill="#eee" stroke="#221f1f" stroke-miterlimit="10" stroke-width="0.5"/>
        <circle id="타원_112" data-name="타원 112" cx="3.114" cy="3.114" r="3.114" transform="translate(5000.911 2048.901)" fill="#eee" stroke="#221f1f" stroke-miterlimit="10" stroke-width="0.5"/>
        <circle id="타원_113" data-name="타원 113" cx="3.114" cy="3.114" r="3.114" transform="translate(5000.911 2085.236)" fill="#eee" stroke="#221f1f" stroke-miterlimit="10" stroke-width="0.5"/>
        <path id="패스_7114" data-name="패스 7114" d="M5135.609,1807.084s6.212,11.206-28.818,29.673a.57.57,0,0,0-.135.915l24.9,23.965a2.024,2.024,0,0,0,3.237-.6l11.88-25.344a11.86,11.86,0,0,0-.223-10.521l-8.021-15.371a6.14,6.14,0,0,0-5.443-3.3h-54.042a6.14,6.14,0,0,0-5.443,3.3l-8.021,15.371a11.863,11.863,0,0,0-.224,10.521l11.88,25.344a2.024,2.024,0,0,0,3.237.6l24.905-23.965a.571.571,0,0,0-.135-.915c-35.03-18.467-28.818-29.673-28.818-29.673" transform="translate(-101.567)" fill="#eee" stroke="#221f1f" stroke-miterlimit="10" stroke-width="0.5"/>
      </g>
      <g id="그룹_7829" data-name="그룹 7829" transform="translate(2820.127 -1640.107)">
        <line id="선_2687" data-name="선 2687" x2="83.681" transform="translate(-15820.826 6722.5)" fill="none" stroke="#343434" stroke-width="1"/>
        <line id="선_2690" data-name="선 2690" y2="5" transform="translate(-15821.127 6719.999)" fill="none" stroke="#343434" stroke-width="1"/>
        <line id="선_2693" data-name="선 2693" y2="5" transform="translate(-15737.146 6720)" fill="none" stroke="#343434" stroke-width="1"/>
      </g>
      <g id="그룹_7832" data-name="그룹 7832" transform="translate(2759.826 -1520)">
        <line id="선_2685" data-name="선 2685" x2="221.216" transform="translate(-15830.826 6682.5)" fill="none" stroke="#343434" stroke-width="1"/>
        <line id="선_2688" data-name="선 2688" y2="5" transform="translate(-15830.599 6680)" fill="none" stroke="#343434" stroke-width="1"/>
        <line id="선_2691" data-name="선 2691" y2="5" transform="translate(-15609.61 6680)" fill="none" stroke="#343434" stroke-width="1"/>
      </g>
      <g id="그룹_7833" data-name="그룹 7833" transform="translate(8485.5 -31.494)">
        <line id="선_2795" data-name="선 2795" y2="367.468" transform="translate(-21615 5152.494)" fill="none" stroke="#343434" stroke-width="1"/>
        <line id="선_2794" data-name="선 2794" y2="5" transform="translate(-21612.5 5152.501) rotate(90)" fill="none" stroke="#343434" stroke-width="1"/>
        <line id="선_2796" data-name="선 2796" y2="5" transform="translate(-21612.5 5519.344) rotate(90)" fill="none" stroke="#343434" stroke-width="1"/>
      </g>
      <g id="그룹_7839" data-name="그룹 7839" transform="translate(3764.248 8925)">
        <line id="선_2736" data-name="선 2736" y2="276.47" transform="translate(-16609.75 -3752)" fill="none" stroke="#343434" stroke-width="1"/>
        <line id="선_2737" data-name="선 2737" y2="5" transform="translate(-16607.25 -3752) rotate(90)" fill="none" stroke="#343434" stroke-width="1"/>
        <line id="선_2738" data-name="선 2738" y2="5" transform="translate(-16607.25 -3476.029) rotate(90)" fill="none" stroke="#343434" stroke-width="1"/>
      </g>
      <g id="그룹_7837" data-name="그룹 7837" transform="translate(-9249.75 -11502.607) rotate(-90)">
        <line id="선_2728" data-name="선 2728" y2="42.963" transform="translate(-16769 -3846.25)" fill="none" stroke="#343434" stroke-width="1"/>
        <line id="선_2730" data-name="선 2730" y2="5" transform="translate(-16766.5 -3846.25) rotate(90)" fill="none" stroke="#343434" stroke-width="1"/>
        <line id="선_2734" data-name="선 2734" y2="5" transform="translate(-16766.5 -3803.787) rotate(90)" fill="none" stroke="#343434" stroke-width="1"/>
      </g>
      <g id="그룹_7838" data-name="그룹 7838" transform="translate(2771.985 -1456.107)">
        <line id="선_2687-2" data-name="선 2687" x2="179.158" transform="translate(-15821.485 6722.5)" fill="none" stroke="#343434" stroke-width="1"/>
        <line id="선_2690-2" data-name="선 2690" y2="5" transform="translate(-15821.985 6720)" fill="none" stroke="#343434" stroke-width="1"/>
        <line id="선_2693-2" data-name="선 2693" y2="5" transform="translate(-15642.327 6720)" fill="none" stroke="#343434" stroke-width="1"/>
      </g>
    </g>
  </g>
</svg>
