<svg xmlns="http://www.w3.org/2000/svg" width="470" height="510" viewBox="0 0 470 510">
  <g id="그룹_7936" data-name="그룹 7936" transform="translate(-1330 -211)">
    <rect id="사각형_2270" data-name="사각형 2270" width="470" height="510" transform="translate(1330 211)" fill="none"/>
    <g id="그룹_7928" data-name="그룹 7928" transform="translate(-10687.809 -3365)">
      <path id="패스_7228" data-name="패스 7228" d="M12833.93,3906.218s9.5-14.134,33.786-17.962a128.925,128.925,0,0,1,37.038-.394c14.988,1.989,39.543,5.042,48.308,4.933,2.125-.026,4.247.033,6.368.144,9.57.5,27.254,1.628,37.494,4.927.511.165,1.025.316,1.544.458,3.032.83,15.261,5.067,16.789,19.766" transform="translate(-540.49 -89.316)" fill="#eee" stroke="#221f1f" stroke-miterlimit="10" stroke-width="0.5"/>
      <g id="그룹_7926" data-name="그룹 7926" transform="translate(12030.808 3754)">
        <path id="패스_7229" data-name="패스 7229" d="M12263.035,3829.951l3.54-3.54.355-2.125,3.894.708.707,1.771-2.478,2.832-2.832,3.541-2.478-1.062Z" transform="translate(-12187.094 -3801.302)" fill="#eee"/>
        <path id="패스_7230" data-name="패스 7230" d="M12255.457,3852.687l1.063-1.771.707-3.9,4.6,2.479-4.957,3.187Z" transform="translate(-12181.994 -3816.602)" fill="#eee"/>
        <path id="패스_7231" data-name="패스 7231" d="M12281.439,3818.458l2.125-2.479,4.6-.354v1.77l-2.833,3.187Z" transform="translate(-12199.479 -3795.474)" fill="#eee"/>
        <path id="패스_7232" data-name="패스 7232" d="M12247.691,3866.26l-.354-2.832,1.416-.708,1.416.708,1.062-.354Z" transform="translate(-12176.53 -3827.168)" fill="#eee"/>
        <path id="패스_7233" data-name="패스 7233" d="M12232.723,3873.57l.707-1.416,6.373-6.727.707,1.416-7.434,7.081Z" transform="translate(-12166.694 -3828.989)" fill="#eee"/>
        <path id="패스_7234" data-name="패스 7234" d="M12230.557,3836.745l25.136-27.615,19.119,4.957-39.3,28.676-4.956,2.125Z" transform="translate(-12165.235 -3791.102)" fill="#eee"/>
        <path id="패스_7235" data-name="패스 7235" d="M12552.1,4069.232l6.372-4.6.709,4.6-1.416,4.249-5.665-4.249" transform="translate(-12381.628 -3963.05)" fill="#eee"/>
        <path id="패스_7236" data-name="패스 7236" d="M12510.956,3845.775l15.257-8.221,2.444-.276,9.558,3.187,2.479,4.6,3.188,5.665v1.771l-13.808,9.2-10.288,2.837Z" transform="translate(-12353.941 -3810.045)" fill="#eee"/>
        <path id="패스_7237" data-name="패스 7237" d="M12193.336,3846.407l34.341-31.863,25.137,6.727,30.093,8.851,3.54,3.541,10.621,25.49-7.08,16.994-66.913,25.844-50.98,10.267Z" transform="translate(-12125.891 -3794.745)" fill="#eee"/>
        <path id="패스_7238" data-name="패스 7238" d="M12307.517,3943.917s5.311,3.187,4.957,9.205l-.708,14.869c-.354,6.373-6.02,11.683-6.02,11.683l-16.992,12.746v-8.143c-3.542.354-23.366,24.428-23.366,24.428-12.856,15.844-31.77,21.591-37.343,23-1.442.363-2.874.761-4.307,1.16-49.089,13.672-71.288-16.721-71.288-16.721-.812-1.355.033-6.028.474-8.146.138-.654.23-1.314.324-1.976a7.575,7.575,0,0,1,5.5-6.578" transform="translate(-12112.443 -3881.811)" fill="#eee" stroke="#221f1f" stroke-miterlimit="10" stroke-width="0.5"/>
        <path id="패스_7239" data-name="패스 7239" d="M12155.676,4022.929s8.732,26.608,59.359,21.3c0,0,36.819-3.895,51.688-23.366,0,0,18.366-25.582,29.531-31.6a44.178,44.178,0,0,0,4.211-2.534c4.814-3.337,13.9-10.5,14.415-17.377" transform="translate(-12114.842 -3898.923)" fill="#eee" stroke="#221f1f" stroke-miterlimit="10" stroke-width="0.5"/>
        <path id="패스_7240" data-name="패스 7240" d="M12031.753,3925.1s-1.653,7.317-.59,9.795c0,0,12.391,19.472,46.378,13.454,0,0,2.478-8.5,10.975-10.976,0,0,20.906-6.753,28.075-14.744.906-1.009,1.832-2,2.827-2.921l7.687-7.117s-3.271-.3.546-3.892c1.792-1.688,3.515-3.45,5.22-5.227l13-13.539,14.761-19.908a1.314,1.314,0,0,1,1.366-.5c1.4.339,3.739,1.595,1.929,6.247" transform="translate(-12030.807 -3831.721)" fill="#eee" stroke="#221f1f" stroke-miterlimit="10" stroke-width="0.5"/>
        <path id="패스_7241" data-name="패스 7241" d="M12039.213,4017.508s-6.458,3.9-5.395,8.152c0,0,3.895,15.931,36.819,15.578,0,0,10.267-.709,15.223-2.125" transform="translate(-12032.754 -3931.337)" fill="#eee" stroke="#221f1f" stroke-miterlimit="10" stroke-width="0.5"/>
        <path id="패스_7242" data-name="패스 7242" d="M12317.709,3772.914l3.027-5.046a.615.615,0,0,1,.635-.291c.133.023.3.062.525.121a11.074,11.074,0,0,1,2.928,1.288c2.273,1.405,7.367,4.6,8.461,5.7,0,0,5.6-1.556,9.219-5.251a32.737,32.737,0,0,1,3.109-2.859c3.338-2.624,9.666-6.67,16-5.7,0,0,1.061.708,1.061-.708a6.9,6.9,0,0,1-.762-4.833,1.842,1.842,0,0,1,2.094-1.308l6.811,1.184s1.063,0,1.063,8.143c0,0,7.08,9.914,7.789,18.41,0,0,.709,6.373.355,7.435" transform="translate(-12223.889 -3754)" fill="#eee" stroke="#221f1f" stroke-miterlimit="10" stroke-width="0.5"/>
        <path id="패스_7243" data-name="패스 7243" d="M12490.928,3850.211s13.1-12.037,23.012-12.391" transform="translate(-12340.462 -3810.41)" fill="#eee" stroke="#221f1f" stroke-miterlimit="10" stroke-width="0.5"/>
        <path id="패스_7244" data-name="패스 7244" d="M12314.98,3837.084l-.355-9.2c-.354-9.2-3.893-9.913-3.893-9.913l-6.951-2.116a3.816,3.816,0,0,0-4.582,2.038,12.636,12.636,0,0,0-.858,5.033s9.559,2.125,10.265,3.541c0,0,12.038,15.932,11.332,31.155a28.294,28.294,0,0,1-4.58,12.674,18.032,18.032,0,0,1-3.765,3.867c-3.912,3.013-16.07,12.6-24.583,21.694,0,0-16.284,20.18-20.532,22.657,0,0-17.52,17.214-58,18.13a57.96,57.96,0,0,1-24.251-4.6c-8.745-3.769-16.521-10.7-12.629-19.9" transform="translate(-12124.863 -3795.512)" fill="#eee" stroke="#221f1f" stroke-miterlimit="10" stroke-width="0.5"/>
        <path id="패스_7245" data-name="패스 7245" d="M12365.342,3817.249a14.676,14.676,0,0,1,4.6,7.435" transform="translate(-12255.943 -3796.566)" fill="none" stroke="#221f1f" stroke-miterlimit="10" stroke-width="0.5"/>
        <path id="패스_7246" data-name="패스 7246" d="M12315.542,3800.235s2.833-4.6,8.5-1.062l15.775,9.6c.25.152.5.308.746.466.136.085.328.2.571.344a18.438,18.438,0,0,0,20.641-1.632c4.4-3.48,10.229-9.593,10.3-17.564" transform="translate(-12222.429 -3778.489)" fill="none" stroke="#221f1f" stroke-miterlimit="10" stroke-width="0.5"/>
        <path id="패스_7247" data-name="패스 7247" d="M12453.686,3775.559s6.515.534,9.7,2.3" transform="translate(-12315.398 -3768.509)" fill="none" stroke="#221f1f" stroke-miterlimit="10" stroke-width="0.5"/>
        <path id="패스_7248" data-name="패스 7248" d="M12109.914,3888.7l-7.788,7.435c-3.187,2.833-1.416,3.186-1.416,3.186a94.618,94.618,0,0,1-33.633,18.056c-15.224,3.541-17,13.808-17,13.808s-2.369,11.588,15.378,17.273a46.611,46.611,0,0,0,16.272,2.1c8.116-.36,22.969-1.807,36.679-7.339" transform="translate(-12043.707 -3844.654)" fill="#eee" stroke="#221f1f" stroke-miterlimit="10" stroke-width="0.5"/>
        <line id="선_2826" data-name="선 2826" y1="5.49" x2="5.028" transform="translate(67.551 36.969)" fill="#eee" stroke="#221f1f" stroke-miterlimit="10" stroke-width="0.5"/>
        <path id="패스_7249" data-name="패스 7249" d="M12246.525,3864.1s-1.484-2.459-.086-3.625a1.707,1.707,0,0,1,2.354.245c1.688,1.928,6.188,6.742,10.572,8.577a1.976,1.976,0,0,1,.889.689c.306.448.421,1.021-.971,1.037a5.179,5.179,0,0,1-2.681-.741c-2.265-1.336-7.484-4.759-8.857-8.609" transform="translate(-12175.521 -3825.409)" fill="#eee" stroke="#221f1f" stroke-miterlimit="10" stroke-width="0.5"/>
        <path id="패스_7250" data-name="패스 7250" d="M12257.567,3845.271s-3.229-3.5,1.021-4.2c0,0,8.79,6.837,12.633,9.271a1.829,1.829,0,0,1,.842,1.159c.092.447-.021.9-.84.937a2.093,2.093,0,0,1-1-.229c-1.626-.792-7.814-3.965-11.627-8.172a.632.632,0,0,0-1.071.22h0a4.452,4.452,0,0,1-1.362,4.124" transform="translate(-12182.47 -3812.595)" fill="#eee" stroke="#221f1f" stroke-miterlimit="10" stroke-width="0.5"/>
        <path id="패스_7251" data-name="패스 7251" d="M12266.409,3825.052l.179-.18a3.518,3.518,0,0,0,.882-1.661c.137-.547.618-.6,1.046-.521a2.367,2.367,0,0,1,1.045.491,119.852,119.852,0,0,1,10.449,9.071,1.407,1.407,0,0,0,1.72.257c.762-.467.448-1.273.074-1.844a3.968,3.968,0,0,0-.854-.917l-5.669-4.535c-.612-.491-1.21-1-1.806-1.514-4.442-3.818-6.358-2.54-6.358-2.54-2.479,1.416-.708,3.894-.708,3.894-1.416.354-2.832,2.479-2.832,2.479" transform="translate(-12187.457 -3799.058)" fill="#eee" stroke="#221f1f" stroke-miterlimit="10" stroke-width="0.5"/>
        <line id="선_2827" data-name="선 2827" y1="2.853" x2="2.723" transform="translate(82.424 19.445)" fill="none" stroke="#221f1f" stroke-miterlimit="10" stroke-width="0.5"/>
        <path id="패스_7252" data-name="패스 7252" d="M12285.145,3805.663s-2.977-6.471,2.688-3.286c0,0,1.34-2.01,2.067-2.837a.541.541,0,0,1,.759-.048c1.2,1.034,5.114,4.412,5.854,5.01" transform="translate(-12201.446 -3784.526)" fill="#eee" stroke="#221f1f" stroke-miterlimit="10" stroke-width="0.5"/>
        <path id="패스_7253" data-name="패스 7253" d="M12289.144,3808.588s10.5,5.867,13.04,8.085a2.106,2.106,0,0,1,.7,1.159c.1.517.011,1.117-.974,1.149a2.347,2.347,0,0,1-1.618-.61c-2.006-1.767-9.146-7.816-13.975-8.721" transform="translate(-12202.759 -3790.737)" fill="#eee" stroke="#221f1f" stroke-miterlimit="10" stroke-width="0.5"/>
        <line id="선_2828" data-name="선 2828" x1="3.311" y2="3.599" transform="translate(88.542 23.129)" fill="none" stroke="#221f1f" stroke-miterlimit="10" stroke-width="0.5"/>
        <line id="선_2829" data-name="선 2829" x1="4.178" y2="5.511" transform="translate(82.916 28.118)" fill="none" stroke="#221f1f" stroke-miterlimit="10" stroke-width="0.5"/>
        <line id="선_2830" data-name="선 2830" x1="3.479" y2="4.004" transform="translate(77.642 35.71)" fill="none" stroke="#221f1f" stroke-miterlimit="10" stroke-width="0.5"/>
        <line id="선_2831" data-name="선 2831" x1="3.27" y2="5.14" transform="translate(72.849 41.334)" fill="none" stroke="#221f1f" stroke-miterlimit="10" stroke-width="0.5"/>
        <path id="패스_7254" data-name="패스 7254" d="M12463.368,3877.429a10.27,10.27,0,0,0-2.478-6.019c-5.31-7.434-15.931-10.267-15.931-10.267-6.019-1.417-7.082,3.895-7.082,3.895" transform="translate(-12304.761 -3825.945)" fill="#eee" stroke="#221f1f" stroke-miterlimit="10" stroke-width="0.5"/>
        <path id="패스_7255" data-name="패스 7255" d="M12592.917,3823s-5.475-.04-2.709,8.068" transform="translate(-12406.751 -3800.439)" fill="none" stroke="#221f1f" stroke-miterlimit="10" stroke-width="0.5"/>
        <path id="패스_7256" data-name="패스 7256" d="M12450.872,3869.344s4.248-4.957,15.224,2.124a75.411,75.411,0,0,0,8.215,4.871,18.277,18.277,0,0,0,13.26,1.279,10.031,10.031,0,0,0,5-2.917,9.436,9.436,0,0,0,1-1.462c1.562-2.833,5.187-7.666,5.624-15.933" transform="translate(-12313.506 -3823.524)" fill="none" stroke="#221f1f" stroke-miterlimit="10" stroke-width="0.5"/>
        <path id="패스_7257" data-name="패스 7257" d="M12419.021,3884.373s11.84,2.029,16.341,8.4a1.953,1.953,0,0,1,.389,1.23c-.026.471-.257.924-1.146.617a2.612,2.612,0,0,1-1.033-.687,24.792,24.792,0,0,0-14.28-7.343,1.151,1.151,0,0,1-.323-2.2Z" transform="translate(-12291.569 -3841.739)" fill="#eee" stroke="#221f1f" stroke-miterlimit="10" stroke-width="0.5"/>
        <path id="패스_7258" data-name="패스 7258" d="M12405.3,3905.2a1.993,1.993,0,0,1,2.052-2.486,4.882,4.882,0,0,1,1.782.181c2.408.671,10.866,3.319,13.913,8.145a2.333,2.333,0,0,1,.377,1.463,1.048,1.048,0,0,1-1.205,1.076,2.078,2.078,0,0,1-1.395-.69C12419.118,3911.044,12412.339,3904.281,12405.3,3905.2Z" transform="translate(-12282.8 -3854.069)" fill="#eee" stroke="#221f1f" stroke-miterlimit="10" stroke-width="0.5"/>
        <path id="패스_7259" data-name="패스 7259" d="M12389.161,3925.3s0-2.479,3.541-1.416c0,0,10.862,3.055,15.3,7.835a1.828,1.828,0,0,1,.488,1.032.847.847,0,0,1-.711,1.047,1.6,1.6,0,0,1-1.348-.376C12404.6,3931.86,12397.146,3925.916,12389.161,3925.3Z" transform="translate(-12271.975 -3868.152)" fill="#eee" stroke="#221f1f" stroke-miterlimit="10" stroke-width="0.5"/>
        <path id="패스_7260" data-name="패스 7260" d="M12372.922,3943.26a2.827,2.827,0,0,1,2.813-1.9,4.207,4.207,0,0,1,1.608.345c2.409,1,12.39,5.182,15.608,7.228a3.179,3.179,0,0,1,1.094,1.136,1.279,1.279,0,0,1,.01,1.515,1.143,1.143,0,0,1-1.5.131C12390.222,3950.081,12380.906,3943.875,12372.922,3943.26Z" transform="translate(-12261.045 -3880.093)" fill="#eee" stroke="#221f1f" stroke-miterlimit="10" stroke-width="0.5"/>
        <path id="패스_7261" data-name="패스 7261" d="M12358.185,3962.514c-.092-.413.063-.853.951-1.065a3.644,3.644,0,0,1,2.167.18c3.414,1.34,16.782,6.646,18.324,8.188,0,0,1.379,1.378.435,2.285a1.424,1.424,0,0,1-1.781.1c-2.554-1.744-12.216-8.068-18.937-8.718A1.3,1.3,0,0,1,12358.185,3962.514Z" transform="translate(-12251.111 -3893.55)" fill="#eee" stroke="#221f1f" stroke-miterlimit="10" stroke-width="0.5"/>
        <line id="선_2832" data-name="선 2832" x1="2.755" y2="3.598" transform="translate(133.118 47.533)" fill="none" stroke="#221f1f" stroke-miterlimit="10" stroke-width="0.5"/>
        <line id="선_2833" data-name="선 2833" x1="3.656" y2="4.951" transform="translate(127.339 53.173)" fill="none" stroke="#221f1f" stroke-miterlimit="10" stroke-width="0.5"/>
        <line id="선_2834" data-name="선 2834" x1="2.371" y2="4.839" transform="translate(124.059 60.114)" fill="none" stroke="#221f1f" stroke-miterlimit="10" stroke-width="0.5"/>
        <line id="선_2835" data-name="선 2835" x1="2.701" y2="5.559" transform="translate(120.787 66.851)" fill="none" stroke="#221f1f" stroke-miterlimit="10" stroke-width="0.5"/>
        <path id="패스_7262" data-name="패스 7262" d="M12397.164,3980.91a12.443,12.443,0,0,0,2.687,9.028c.562.752,1.132,1.5,1.669,2.27l9.613,13.778s0,.708,2.833-.708,18.055-14.87,27.614-14.161c0,0,7.632,1.354,9.833,4.572" transform="translate(-12277.307 -3906.708)" fill="none" stroke="#221f1f" stroke-miterlimit="10" stroke-width="0.5"/>
        <line id="선_2836" data-name="선 2836" x1="2.742" y2="3.933" transform="translate(129.28 45.837)" fill="none" stroke="#221f1f" stroke-miterlimit="10" stroke-width="0.5"/>
        <line id="선_2837" data-name="선 2837" x1="3.5" y2="5.187" transform="translate(124.552 51.822)" fill="none" stroke="#221f1f" stroke-miterlimit="10" stroke-width="0.5"/>
        <line id="선_2838" data-name="선 2838" x1="3.63" y2="4.476" transform="translate(119.858 58.641)" fill="none" stroke="#221f1f" stroke-miterlimit="10" stroke-width="0.5"/>
        <line id="선_2839" data-name="선 2839" x1="3.714" y2="5.109" transform="translate(115.155 64.953)" fill="none" stroke="#221f1f" stroke-miterlimit="10" stroke-width="0.5"/>
        <path id="패스_7263" data-name="패스 7263" d="M12343.14,3972.7a8.354,8.354,0,0,1-6.525,3.334s-8.6-.641-11.329,6.018" transform="translate(-12228.987 -3901.179)" fill="none" stroke="#221f1f" stroke-miterlimit="10" stroke-width="0.5"/>
        <line id="선_2840" data-name="선 2840" y1="9.559" x2="10.621" transform="translate(57.001 45.112)" fill="#eee" stroke="#221f1f" stroke-miterlimit="10" stroke-width="0.5"/>
        <line id="선_2841" data-name="선 2841" y1="4.972" x2="4.519" transform="translate(69.121 38.752)" fill="#eee" stroke="#221f1f" stroke-miterlimit="10" stroke-width="0.5"/>
        <line id="선_2842" data-name="선 2842" y1="3.77" x2="3.177" transform="translate(75.098 33.513)" fill="#eee" stroke="#221f1f" stroke-miterlimit="10" stroke-width="0.5"/>
        <line id="선_2843" data-name="선 2843" y1="5.482" x2="4.387" transform="translate(79.998 25.961)" fill="#eee" stroke="#221f1f" stroke-miterlimit="10" stroke-width="0.5"/>
        <line id="선_2844" data-name="선 2844" y1="3.53" x2="2.603" transform="translate(85.734 20.871)" fill="none" stroke="#221f1f" stroke-miterlimit="10" stroke-width="0.5"/>
        <line id="선_2845" data-name="선 2845" x1="1.901" y2="2.864" transform="translate(89.184 16.581)" fill="#eee"/>
        <line id="선_2846" data-name="선 2846" x2="5.31" y2="4.013" transform="translate(171 106.595)" fill="#eee" stroke="#221f1f" stroke-miterlimit="10" stroke-width="0.5"/>
        <path id="패스_7264" data-name="패스 7264" d="M12249.51,3900.628s-2.244,3.182,1.3,7.784c0,0,7.081,10.975,7.787,14.161,0,0,1.063,2.833,4.248.708,0,0,13.81-12.392,28.324-11.33" transform="translate(-12177.52 -3852.679)" fill="#eee" stroke="#221f1f" stroke-miterlimit="10" stroke-width="0.5"/>
        <path id="패스_7265" data-name="패스 7265" d="M12230.5,3881.7a2.345,2.345,0,0,1,1.431.561c1.693,1.407,7.554,6.139,10.859,7.04a3.783,3.783,0,0,1,.532.208.821.821,0,0,1-.678,1.494,55.9,55.9,0,0,1-12.743-7.643.924.924,0,0,1,.548-1.66Z" transform="translate(-12164.551 -3839.938)" fill="#eee" stroke="#221f1f" stroke-miterlimit="10" stroke-width="0.5"/>
        <path id="패스_7266" data-name="패스 7266" d="M12520.765,3853.26" transform="translate(-12360.543 -3820.801)" fill="#eee"/>
      </g>
      <g id="그룹_7927" data-name="그룹 7927" transform="translate(12030.808 3754)">
        <path id="패스_7267" data-name="패스 7267" d="M12263.035,3829.951l3.54-3.54.355-2.125,3.894.708.707,1.771-2.478,2.832-2.832,3.541-2.478-1.062Z" transform="translate(-12187.094 -3801.302)" fill="#eee"/>
        <path id="패스_7268" data-name="패스 7268" d="M12255.457,3852.687l1.063-1.771.707-3.9,4.6,2.479-4.957,3.187Z" transform="translate(-12181.994 -3816.602)" fill="#eee"/>
        <path id="패스_7269" data-name="패스 7269" d="M12281.439,3818.458l2.125-2.479,4.6-.354v1.77l-2.833,3.187Z" transform="translate(-12199.479 -3795.474)" fill="#eee"/>
        <path id="패스_7270" data-name="패스 7270" d="M12247.691,3866.26l-.354-2.832,1.416-.708,1.416.708,1.062-.354Z" transform="translate(-12176.53 -3827.168)" fill="#eee"/>
        <path id="패스_7271" data-name="패스 7271" d="M12232.723,3873.57l.707-1.416,6.373-6.727.707,1.416-7.434,7.081Z" transform="translate(-12166.694 -3828.989)" fill="#eee"/>
        <path id="패스_7272" data-name="패스 7272" d="M12230.557,3836.745l25.136-27.615,19.119,4.957-39.3,28.676-4.956,2.125Z" transform="translate(-12165.235 -3791.102)" fill="#eee"/>
        <path id="패스_7273" data-name="패스 7273" d="M12552.1,4069.232l6.372-4.6.709,4.6-1.416,4.249-5.665-4.249" transform="translate(-12381.628 -3963.05)" fill="#eee"/>
        <path id="패스_7274" data-name="패스 7274" d="M12510.956,3845.775l15.257-8.221,2.444-.276,9.558,3.187,2.479,4.6,3.188,5.665v1.771l-13.808,9.2-10.288,2.837Z" transform="translate(-12353.941 -3810.045)" fill="#eee"/>
        <path id="패스_7275" data-name="패스 7275" d="M12193.336,3846.407l34.341-31.863,25.137,6.727,30.093,8.851,3.54,3.541,10.621,25.49-7.08,16.994-66.913,25.844-50.98,10.267Z" transform="translate(-12125.891 -3794.745)" fill="#eee"/>
        <path id="패스_7276" data-name="패스 7276" d="M12307.517,3943.917s5.311,3.187,4.957,9.205l-.708,14.869c-.354,6.373-6.02,11.683-6.02,11.683l-16.992,12.746v-8.143c-3.542.354-23.366,24.428-23.366,24.428-12.856,15.844-31.77,21.591-37.343,23-1.442.363-2.874.761-4.307,1.16-49.089,13.672-71.288-16.721-71.288-16.721-.812-1.355.033-6.028.474-8.146.138-.654.23-1.314.324-1.976a7.575,7.575,0,0,1,5.5-6.578" transform="translate(-12112.443 -3881.811)" fill="#eee" stroke="#221f1f" stroke-miterlimit="10" stroke-width="0.5"/>
        <path id="패스_7277" data-name="패스 7277" d="M12155.676,4022.929s8.732,26.608,59.359,21.3c0,0,36.819-3.895,51.688-23.366,0,0,18.366-25.582,29.531-31.6a44.178,44.178,0,0,0,4.211-2.534c4.814-3.337,13.9-10.5,14.415-17.377" transform="translate(-12114.842 -3898.923)" fill="#eee" stroke="#221f1f" stroke-miterlimit="10" stroke-width="0.5"/>
        <path id="패스_7278" data-name="패스 7278" d="M12031.753,3925.1s-1.653,7.317-.59,9.795c0,0,12.391,19.472,46.378,13.454,0,0,2.478-8.5,10.975-10.976,0,0,20.906-6.753,28.075-14.744.906-1.009,1.832-2,2.827-2.921l7.687-7.117s-3.271-.3.546-3.892c1.792-1.688,3.515-3.45,5.22-5.227l13-13.539,14.761-19.908a1.314,1.314,0,0,1,1.366-.5c1.4.339,3.739,1.595,1.929,6.247" transform="translate(-12030.807 -3831.721)" fill="#eee" stroke="#221f1f" stroke-miterlimit="10" stroke-width="0.5"/>
        <path id="패스_7279" data-name="패스 7279" d="M12039.213,4017.508s-6.458,3.9-5.395,8.152c0,0,3.895,15.931,36.819,15.578,0,0,10.267-.709,15.223-2.125" transform="translate(-12032.754 -3931.337)" fill="#eee" stroke="#221f1f" stroke-miterlimit="10" stroke-width="0.5"/>
        <path id="패스_7280" data-name="패스 7280" d="M12317.709,3772.914l3.027-5.046a.615.615,0,0,1,.635-.291c.133.023.3.062.525.121a11.074,11.074,0,0,1,2.928,1.288c2.273,1.405,7.367,4.6,8.461,5.7,0,0,5.6-1.556,9.219-5.251a32.737,32.737,0,0,1,3.109-2.859c3.338-2.624,9.666-6.67,16-5.7,0,0,1.061.708,1.061-.708a6.9,6.9,0,0,1-.762-4.833,1.842,1.842,0,0,1,2.094-1.308l6.811,1.184s1.063,0,1.063,8.143c0,0,7.08,9.914,7.789,18.41,0,0,.709,6.373.355,7.435" transform="translate(-12223.889 -3754)" fill="#eee" stroke="#221f1f" stroke-miterlimit="10" stroke-width="0.5"/>
        <path id="패스_7281" data-name="패스 7281" d="M12490.928,3850.211s13.1-12.037,23.012-12.391" transform="translate(-12340.462 -3810.41)" fill="#eee" stroke="#221f1f" stroke-miterlimit="10" stroke-width="0.5"/>
        <path id="패스_7282" data-name="패스 7282" d="M12314.98,3837.084l-.355-9.2c-.354-9.2-3.893-9.913-3.893-9.913l-6.951-2.116a3.816,3.816,0,0,0-4.582,2.038,12.636,12.636,0,0,0-.858,5.033s9.559,2.125,10.265,3.541c0,0,12.038,15.932,11.332,31.155a28.294,28.294,0,0,1-4.58,12.674,18.032,18.032,0,0,1-3.765,3.867c-3.912,3.013-16.07,12.6-24.583,21.694,0,0-16.284,20.18-20.532,22.657,0,0-17.52,17.214-58,18.13a57.96,57.96,0,0,1-24.251-4.6c-8.745-3.769-16.521-10.7-12.629-19.9" transform="translate(-12124.863 -3795.512)" fill="#eee" stroke="#221f1f" stroke-miterlimit="10" stroke-width="0.5"/>
        <path id="패스_7283" data-name="패스 7283" d="M12365.342,3817.249a14.676,14.676,0,0,1,4.6,7.435" transform="translate(-12255.943 -3796.566)" fill="none" stroke="#221f1f" stroke-miterlimit="10" stroke-width="0.5"/>
        <path id="패스_7284" data-name="패스 7284" d="M12315.542,3800.235s2.833-4.6,8.5-1.062l15.775,9.6c.25.152.5.308.746.466.136.085.328.2.571.344a18.438,18.438,0,0,0,20.641-1.632c4.4-3.48,10.229-9.593,10.3-17.564" transform="translate(-12222.429 -3778.489)" fill="none" stroke="#221f1f" stroke-miterlimit="10" stroke-width="0.5"/>
        <path id="패스_7285" data-name="패스 7285" d="M12453.686,3775.559s6.515.534,9.7,2.3" transform="translate(-12315.398 -3768.509)" fill="none" stroke="#221f1f" stroke-miterlimit="10" stroke-width="0.5"/>
        <path id="패스_7286" data-name="패스 7286" d="M12109.914,3888.7l-7.788,7.435c-3.187,2.833-1.416,3.186-1.416,3.186a94.618,94.618,0,0,1-33.633,18.056c-15.224,3.541-17,13.808-17,13.808s-2.369,11.588,15.378,17.273a46.611,46.611,0,0,0,16.272,2.1c8.116-.36,22.969-1.807,36.679-7.339" transform="translate(-12043.707 -3844.654)" fill="#eee" stroke="#221f1f" stroke-miterlimit="10" stroke-width="0.5"/>
        <line id="선_2847" data-name="선 2847" y1="5.49" x2="5.028" transform="translate(67.551 36.969)" fill="#eee" stroke="#221f1f" stroke-miterlimit="10" stroke-width="0.5"/>
        <path id="패스_7287" data-name="패스 7287" d="M12246.525,3864.1s-1.484-2.459-.086-3.625a1.707,1.707,0,0,1,2.354.245c1.688,1.928,6.188,6.742,10.572,8.577a1.976,1.976,0,0,1,.889.689c.306.448.421,1.021-.971,1.037a5.179,5.179,0,0,1-2.681-.741c-2.265-1.336-7.484-4.759-8.857-8.609" transform="translate(-12175.521 -3825.409)" fill="#eee" stroke="#221f1f" stroke-miterlimit="10" stroke-width="0.5"/>
        <path id="패스_7288" data-name="패스 7288" d="M12257.567,3845.271s-3.229-3.5,1.021-4.2c0,0,8.79,6.837,12.633,9.271a1.829,1.829,0,0,1,.842,1.159c.092.447-.021.9-.84.937a2.093,2.093,0,0,1-1-.229c-1.626-.792-7.814-3.965-11.627-8.172a.632.632,0,0,0-1.071.22h0a4.452,4.452,0,0,1-1.362,4.124" transform="translate(-12182.47 -3812.595)" fill="#eee" stroke="#221f1f" stroke-miterlimit="10" stroke-width="0.5"/>
        <path id="패스_7289" data-name="패스 7289" d="M12266.409,3825.052l.179-.18a3.518,3.518,0,0,0,.882-1.661c.137-.547.618-.6,1.046-.521a2.367,2.367,0,0,1,1.045.491,119.852,119.852,0,0,1,10.449,9.071,1.407,1.407,0,0,0,1.72.257c.762-.467.448-1.273.074-1.844a3.968,3.968,0,0,0-.854-.917l-5.669-4.535c-.612-.491-1.21-1-1.806-1.514-4.442-3.818-6.358-2.54-6.358-2.54-2.479,1.416-.708,3.894-.708,3.894-1.416.354-2.832,2.479-2.832,2.479" transform="translate(-12187.457 -3799.058)" fill="#eee" stroke="#221f1f" stroke-miterlimit="10" stroke-width="0.5"/>
        <line id="선_2848" data-name="선 2848" y1="2.853" x2="2.723" transform="translate(82.424 19.445)" fill="none" stroke="#221f1f" stroke-miterlimit="10" stroke-width="0.5"/>
        <path id="패스_7290" data-name="패스 7290" d="M12285.145,3805.663s-2.977-6.471,2.688-3.286c0,0,1.34-2.01,2.067-2.837a.541.541,0,0,1,.759-.048c1.2,1.034,5.114,4.412,5.854,5.01" transform="translate(-12201.446 -3784.526)" fill="#eee" stroke="#221f1f" stroke-miterlimit="10" stroke-width="0.5"/>
        <path id="패스_7291" data-name="패스 7291" d="M12289.144,3808.588s10.5,5.867,13.04,8.085a2.106,2.106,0,0,1,.7,1.159c.1.517.011,1.117-.974,1.149a2.347,2.347,0,0,1-1.618-.61c-2.006-1.767-9.146-7.816-13.975-8.721" transform="translate(-12202.759 -3790.737)" fill="#eee" stroke="#221f1f" stroke-miterlimit="10" stroke-width="0.5"/>
        <line id="선_2849" data-name="선 2849" x1="3.311" y2="3.599" transform="translate(88.542 23.129)" fill="none" stroke="#221f1f" stroke-miterlimit="10" stroke-width="0.5"/>
        <line id="선_2850" data-name="선 2850" x1="4.178" y2="5.511" transform="translate(82.916 28.118)" fill="none" stroke="#221f1f" stroke-miterlimit="10" stroke-width="0.5"/>
        <line id="선_2851" data-name="선 2851" x1="3.479" y2="4.004" transform="translate(77.642 35.71)" fill="none" stroke="#221f1f" stroke-miterlimit="10" stroke-width="0.5"/>
        <line id="선_2852" data-name="선 2852" x1="3.27" y2="5.14" transform="translate(72.849 41.334)" fill="none" stroke="#221f1f" stroke-miterlimit="10" stroke-width="0.5"/>
        <path id="패스_7292" data-name="패스 7292" d="M12463.368,3877.429a10.27,10.27,0,0,0-2.478-6.019c-5.31-7.434-15.931-10.267-15.931-10.267-6.019-1.417-7.082,3.895-7.082,3.895" transform="translate(-12304.761 -3825.945)" fill="#eee" stroke="#221f1f" stroke-miterlimit="10" stroke-width="0.5"/>
        <path id="패스_7293" data-name="패스 7293" d="M12592.917,3823s-5.475-.04-2.709,8.068" transform="translate(-12406.751 -3800.439)" fill="none" stroke="#221f1f" stroke-miterlimit="10" stroke-width="0.5"/>
        <path id="패스_7294" data-name="패스 7294" d="M12450.872,3869.344s4.248-4.957,15.224,2.124a75.411,75.411,0,0,0,8.215,4.871,18.277,18.277,0,0,0,13.26,1.279,10.031,10.031,0,0,0,5-2.917,9.436,9.436,0,0,0,1-1.462c1.562-2.833,5.187-7.666,5.624-15.933" transform="translate(-12313.506 -3823.524)" fill="none" stroke="#221f1f" stroke-miterlimit="10" stroke-width="0.5"/>
        <path id="패스_7295" data-name="패스 7295" d="M12419.021,3884.373s11.84,2.029,16.341,8.4a1.953,1.953,0,0,1,.389,1.23c-.026.471-.257.924-1.146.617a2.612,2.612,0,0,1-1.033-.687,24.792,24.792,0,0,0-14.28-7.343,1.151,1.151,0,0,1-.323-2.2Z" transform="translate(-12291.569 -3841.739)" fill="#eee" stroke="#221f1f" stroke-miterlimit="10" stroke-width="0.5"/>
        <path id="패스_7296" data-name="패스 7296" d="M12405.3,3905.2a1.993,1.993,0,0,1,2.052-2.486,4.882,4.882,0,0,1,1.782.181c2.408.671,10.866,3.319,13.913,8.145a2.333,2.333,0,0,1,.377,1.463,1.048,1.048,0,0,1-1.205,1.076,2.078,2.078,0,0,1-1.395-.69C12419.118,3911.044,12412.339,3904.281,12405.3,3905.2Z" transform="translate(-12282.8 -3854.069)" fill="#eee" stroke="#221f1f" stroke-miterlimit="10" stroke-width="0.5"/>
        <path id="패스_7297" data-name="패스 7297" d="M12389.161,3925.3s0-2.479,3.541-1.416c0,0,10.862,3.055,15.3,7.835a1.828,1.828,0,0,1,.488,1.032.847.847,0,0,1-.711,1.047,1.6,1.6,0,0,1-1.348-.376C12404.6,3931.86,12397.146,3925.916,12389.161,3925.3Z" transform="translate(-12271.975 -3868.152)" fill="#eee" stroke="#221f1f" stroke-miterlimit="10" stroke-width="0.5"/>
        <path id="패스_7298" data-name="패스 7298" d="M12372.922,3943.26a2.827,2.827,0,0,1,2.813-1.9,4.207,4.207,0,0,1,1.608.345c2.409,1,12.39,5.182,15.608,7.228a3.179,3.179,0,0,1,1.094,1.136,1.279,1.279,0,0,1,.01,1.515,1.143,1.143,0,0,1-1.5.131C12390.222,3950.081,12380.906,3943.875,12372.922,3943.26Z" transform="translate(-12261.045 -3880.093)" fill="#eee" stroke="#221f1f" stroke-miterlimit="10" stroke-width="0.5"/>
        <path id="패스_7299" data-name="패스 7299" d="M12358.185,3962.514c-.092-.413.063-.853.951-1.065a3.644,3.644,0,0,1,2.167.18c3.414,1.34,16.782,6.646,18.324,8.188,0,0,1.379,1.378.435,2.285a1.424,1.424,0,0,1-1.781.1c-2.554-1.744-12.216-8.068-18.937-8.718A1.3,1.3,0,0,1,12358.185,3962.514Z" transform="translate(-12251.111 -3893.55)" fill="#eee" stroke="#221f1f" stroke-miterlimit="10" stroke-width="0.5"/>
        <line id="선_2853" data-name="선 2853" x1="2.755" y2="3.598" transform="translate(133.118 47.533)" fill="none" stroke="#221f1f" stroke-miterlimit="10" stroke-width="0.5"/>
        <line id="선_2854" data-name="선 2854" x1="3.656" y2="4.951" transform="translate(127.339 53.173)" fill="none" stroke="#221f1f" stroke-miterlimit="10" stroke-width="0.5"/>
        <line id="선_2855" data-name="선 2855" x1="2.371" y2="4.839" transform="translate(124.059 60.114)" fill="none" stroke="#221f1f" stroke-miterlimit="10" stroke-width="0.5"/>
        <line id="선_2856" data-name="선 2856" x1="2.701" y2="5.559" transform="translate(120.787 66.851)" fill="none" stroke="#221f1f" stroke-miterlimit="10" stroke-width="0.5"/>
        <path id="패스_7300" data-name="패스 7300" d="M12397.164,3980.91a12.443,12.443,0,0,0,2.687,9.028c.562.752,1.132,1.5,1.669,2.27l9.613,13.778s0,.708,2.833-.708,18.055-14.87,27.614-14.161c0,0,7.632,1.354,9.833,4.572" transform="translate(-12277.307 -3906.708)" fill="none" stroke="#221f1f" stroke-miterlimit="10" stroke-width="0.5"/>
        <line id="선_2857" data-name="선 2857" x1="2.742" y2="3.933" transform="translate(129.28 45.837)" fill="none" stroke="#221f1f" stroke-miterlimit="10" stroke-width="0.5"/>
        <line id="선_2858" data-name="선 2858" x1="3.5" y2="5.187" transform="translate(124.552 51.822)" fill="none" stroke="#221f1f" stroke-miterlimit="10" stroke-width="0.5"/>
        <line id="선_2859" data-name="선 2859" x1="3.63" y2="4.476" transform="translate(119.858 58.641)" fill="none" stroke="#221f1f" stroke-miterlimit="10" stroke-width="0.5"/>
        <line id="선_2860" data-name="선 2860" x1="3.714" y2="5.109" transform="translate(115.155 64.953)" fill="none" stroke="#221f1f" stroke-miterlimit="10" stroke-width="0.5"/>
        <path id="패스_7301" data-name="패스 7301" d="M12343.14,3972.7a8.354,8.354,0,0,1-6.525,3.334s-8.6-.641-11.329,6.018" transform="translate(-12228.987 -3901.179)" fill="none" stroke="#221f1f" stroke-miterlimit="10" stroke-width="0.5"/>
        <line id="선_2861" data-name="선 2861" y1="9.559" x2="10.621" transform="translate(57.001 45.112)" fill="#eee" stroke="#221f1f" stroke-miterlimit="10" stroke-width="0.5"/>
        <line id="선_2862" data-name="선 2862" y1="4.972" x2="4.519" transform="translate(69.121 38.752)" fill="#eee" stroke="#221f1f" stroke-miterlimit="10" stroke-width="0.5"/>
        <line id="선_2863" data-name="선 2863" y1="3.77" x2="3.177" transform="translate(75.098 33.513)" fill="#eee" stroke="#221f1f" stroke-miterlimit="10" stroke-width="0.5"/>
        <line id="선_2864" data-name="선 2864" y1="5.482" x2="4.387" transform="translate(79.998 25.961)" fill="#eee" stroke="#221f1f" stroke-miterlimit="10" stroke-width="0.5"/>
        <line id="선_2865" data-name="선 2865" y1="3.53" x2="2.603" transform="translate(85.734 20.871)" fill="none" stroke="#221f1f" stroke-miterlimit="10" stroke-width="0.5"/>
        <line id="선_2866" data-name="선 2866" x1="1.901" y2="2.864" transform="translate(89.184 16.581)" fill="#eee"/>
        <line id="선_2867" data-name="선 2867" x2="5.31" y2="4.013" transform="translate(171 106.595)" fill="#eee" stroke="#221f1f" stroke-miterlimit="10" stroke-width="0.5"/>
        <path id="패스_7302" data-name="패스 7302" d="M12249.51,3900.628s-2.244,3.182,1.3,7.784c0,0,7.081,10.975,7.787,14.161,0,0,1.063,2.833,4.248.708,0,0,13.81-12.392,28.324-11.33" transform="translate(-12177.52 -3852.679)" fill="#eee" stroke="#221f1f" stroke-miterlimit="10" stroke-width="0.5"/>
        <path id="패스_7303" data-name="패스 7303" d="M12230.5,3881.7a2.345,2.345,0,0,1,1.431.561c1.693,1.407,7.554,6.139,10.859,7.04a3.783,3.783,0,0,1,.532.208.821.821,0,0,1-.678,1.494,55.9,55.9,0,0,1-12.743-7.643.924.924,0,0,1,.548-1.66Z" transform="translate(-12164.551 -3839.938)" fill="#eee" stroke="#221f1f" stroke-miterlimit="10" stroke-width="0.5"/>
        <path id="패스_7304" data-name="패스 7304" d="M12520.765,3853.26" transform="translate(-12360.543 -3820.801)" fill="#eee"/>
      </g>
      <path id="패스_7305" data-name="패스 7305" d="M13204.783,3975.172s39.105,12.1,49.58,3.491a20.82,20.82,0,0,0,3.957-4.387,25.249,25.249,0,0,0,4.254-11.172l2.186-16.813a13.814,13.814,0,0,0-4.428-12.1c-.115-.1-.234-.207-.355-.31a22.833,22.833,0,0,0-11.463-5.171l-34.848-5.256" transform="translate(-790.07 -114.042)" fill="#eee" stroke="#221f1f" stroke-miterlimit="10" stroke-width="0.5"/>
      <path id="패스_7306" data-name="패스 7306" d="M13384.87,3969.844" transform="translate(-911.266 -145.26)" fill="#eee" stroke="#221f1f" stroke-miterlimit="10" stroke-width="0.5"/>
      <path id="패스_7307" data-name="패스 7307" d="M12838.108,3957.641c18.475,5.474,33.651,4.833,43.021,3.375a56.242,56.242,0,0,0,13.605-4.005c21.3-9.18,46.724-5.189,46.724-5.189l1.162,2.561c23.742-22.346,7.681-54.935,7.681-54.935-8.593,1.146-52.442-4.133-67.911-6.065a101.99,101.99,0,0,0-14.807-.795c-56.279,1.2-52.288,37.12-52.288,37.12S12815.527,3949.727,12838.108,3957.641Z" transform="translate(-527.909 -93.254)" fill="#eee" stroke="#221f1f" stroke-miterlimit="10" stroke-width="0.5"/>
      <path id="패스_7308" data-name="패스 7308" d="M12968.715,3917.1c-9.053.655-55-5.665-68.424-7.283a91.824,91.824,0,0,0-12.854-.665c-48.85,1-45.385,31.062-45.385,31.062s.2,16.751,19.8,23.373a88.646,88.646,0,0,0,37.344,2.825,50.193,50.193,0,0,0,11.811-3.353c18.49-7.682,52.309-4.715,52.309-4.715" transform="translate(-545.921 -104.407)" fill="#eee" stroke="#221f1f" stroke-miterlimit="10" stroke-width="0.5"/>
      <path id="패스_7309" data-name="패스 7309" d="M13201.223,3966.384s21.414-17.458,7.177-52.18" transform="translate(-787.673 -107.815)" fill="none" stroke="#221f1f" stroke-miterlimit="10" stroke-width="0.5"/>
    </g>
    <g id="그룹_7808" data-name="그룹 7808" transform="translate(19051 -2657.947)">
      <line id="선_2771" data-name="선 2771" y2="34.739" transform="translate(-17499.5 3110.5)" fill="none" stroke="#343434" stroke-width="1"/>
      <line id="선_2772" data-name="선 2772" y2="5" transform="translate(-17497 3110) rotate(90)" fill="none" stroke="#343434" stroke-width="1"/>
      <line id="선_2773" data-name="선 2773" y2="5" transform="translate(-17497 3144.739) rotate(90)" fill="none" stroke="#343434" stroke-width="1"/>
    </g>
    <g id="그룹_7934" data-name="그룹 7934" transform="translate(19149 -2673.066)">
      <line id="선_2771-2" data-name="선 2771" y2="64.729" transform="translate(-17499.5 3110.5)" fill="none" stroke="#343434" stroke-width="1"/>
      <line id="선_2772-2" data-name="선 2772" y2="5" transform="translate(-17497 3110) rotate(90)" fill="none" stroke="#343434" stroke-width="1"/>
      <line id="선_2773-2" data-name="선 2773" y2="5" transform="translate(-17497 3174.729) rotate(90)" fill="none" stroke="#343434" stroke-width="1"/>
    </g>
    <g id="그룹_7933" data-name="그룹 7933" transform="translate(4893.284 17969.172) rotate(90)">
      <line id="선_2771-3" data-name="선 2771" y2="180.904" transform="translate(-17499.5 3110.5)" fill="none" stroke="#343434" stroke-width="1"/>
      <line id="선_2772-3" data-name="선 2772" y2="5" transform="translate(-17497 3110) rotate(90)" fill="none" stroke="#343434" stroke-width="1"/>
      <line id="선_2773-3" data-name="선 2773" y2="5" transform="translate(-17497 3290.904) rotate(90)" fill="none" stroke="#343434" stroke-width="1"/>
    </g>
  </g>
</svg>
