<svg xmlns="http://www.w3.org/2000/svg" width="320" height="339" viewBox="0 0 320 339">
  <g id="그룹_8015" data-name="그룹 8015" transform="translate(-20 -917)">
    <rect id="사각형_2301" data-name="사각형 2301" width="320" height="339" transform="translate(20 917)" fill="none"/>
    <g id="그룹_8013" data-name="그룹 8013" transform="translate(12293.095 -2949.77)">
      <g id="그룹_7928" data-name="그룹 7928" transform="translate(-24290.902 231.77)">
        <path id="패스_7228" data-name="패스 7228" d="M12833.93,3899.55s6.252-9.3,22.234-11.821a84.849,84.849,0,0,1,24.374-.259c9.863,1.309,26.022,3.318,31.791,3.246,1.4-.017,2.795.021,4.19.095,6.3.331,17.936,1.071,24.675,3.242.336.109.675.208,1.016.3a14.887,14.887,0,0,1,11.049,13.008" transform="translate(-630.287 -104.155)" fill="#eee" stroke="#221f1f" stroke-miterlimit="10" stroke-width="0.5"/>
        <g id="그룹_7926" data-name="그룹 7926" transform="translate(12030.808 3754)">
          <path id="패스_7229" data-name="패스 7229" d="M12263.035,3828.015l2.33-2.33.233-1.4,2.563.466.466,1.165-1.631,1.864-1.864,2.33-1.63-.7Z" transform="translate(-12213.06 -3809.161)" fill="#eee"/>
          <path id="패스_7230" data-name="패스 7230" d="M12255.457,3850.75l.7-1.165.465-2.563,3.029,1.631-3.262,2.1Z" transform="translate(-12207.112 -3827.003)" fill="#eee"/>
          <path id="패스_7231" data-name="패스 7231" d="M12281.439,3817.49l1.4-1.631,3.027-.232v1.165l-1.863,2.1Z" transform="translate(-12227.502 -3802.364)" fill="#eee"/>
          <path id="패스_7232" data-name="패스 7232" d="M12247.57,3865.05l-.232-1.863.932-.466.932.466.7-.233Z" transform="translate(-12200.74 -3839.323)" fill="#eee"/>
          <path id="패스_7233" data-name="패스 7233" d="M12232.723,3870.785l.465-.932,4.194-4.427.466.932-4.893,4.659Z" transform="translate(-12189.271 -3841.448)" fill="#eee"/>
          <path id="패스_7234" data-name="패스 7234" d="M12230.557,3827.3l16.541-18.173,12.582,3.262-25.861,18.872-3.262,1.4Z" transform="translate(-12187.569 -3797.266)" fill="#eee"/>
          <path id="패스_7235" data-name="패스 7235" d="M12552.1,4067.658l4.193-3.029.467,3.029-.932,2.8-3.729-2.8" transform="translate(-12439.913 -3997.781)" fill="#eee"/>
          <path id="패스_7236" data-name="패스 7236" d="M12510.955,3842.87l10.041-5.41,1.609-.182,6.289,2.1,1.631,3.029,2.1,3.728v1.165l-9.086,6.057-6.771,1.867Z" transform="translate(-12407.626 -3819.357)" fill="#eee"/>
          <path id="패스_7237" data-name="패스 7237" d="M12186.072,3835.513l22.6-20.969,16.542,4.427,19.8,5.825,2.33,2.33,6.989,16.774-4.659,11.184-44.035,17.008-33.549,6.756Z" transform="translate(-12141.688 -3801.514)" fill="#eee"/>
          <path id="패스_7238" data-name="패스 7238" d="M12254.381,3943.917a7.052,7.052,0,0,1,3.263,6.058l-.466,9.785c-.233,4.194-3.961,7.688-3.961,7.688l-11.183,8.388v-5.359c-2.331.233-15.378,16.076-15.378,16.076-8.46,10.427-20.906,14.208-24.574,15.133-.949.239-1.891.5-2.834.764-32.3,9-46.914-11-46.914-11-.533-.892.021-3.967.313-5.361.09-.43.151-.865.213-1.3a4.985,4.985,0,0,1,3.619-4.329" transform="translate(-12126.006 -3903.046)" fill="#eee" stroke="#221f1f" stroke-miterlimit="10" stroke-width="0.5"/>
          <path id="패스_7239" data-name="패스 7239" d="M12155.676,4004.607s5.746,17.51,39.063,14.015c0,0,24.23-2.563,34.016-15.377,0,0,12.087-16.835,19.435-20.8a29.151,29.151,0,0,0,2.771-1.668c3.169-2.2,9.149-6.913,9.487-11.436" transform="translate(-12128.804 -3923)" fill="#eee" stroke="#221f1f" stroke-miterlimit="10" stroke-width="0.5"/>
          <path id="패스_7240" data-name="패스 7240" d="M12031.43,3906.084s-1.088,4.816-.389,6.446c0,0,8.154,12.814,30.521,8.854,0,0,1.63-5.592,7.222-7.223,0,0,13.759-4.444,18.476-9.7.6-.664,1.206-1.316,1.861-1.922l5.059-4.684s-2.154-.2.358-2.562c1.179-1.111,2.313-2.27,3.435-3.44l8.555-8.91,9.714-13.1a.864.864,0,0,1,.9-.329c.918.223,2.46,1.05,1.269,4.111" transform="translate(-12030.807 -3844.634)" fill="#eee" stroke="#221f1f" stroke-miterlimit="10" stroke-width="0.5"/>
          <path id="패스_7241" data-name="패스 7241" d="M12037.328,4017.508s-4.25,2.569-3.551,5.365c0,0,2.563,10.484,24.23,10.252a67.855,67.855,0,0,0,10.018-1.4" transform="translate(-12033.076 -3960.8)" fill="#eee" stroke="#221f1f" stroke-miterlimit="10" stroke-width="0.5"/>
          <path id="패스_7242" data-name="패스 7242" d="M12317.709,3766.447l1.992-3.32a.4.4,0,0,1,.418-.192c.087.016.2.041.346.08a7.28,7.28,0,0,1,1.926.848,56.824,56.824,0,0,1,5.568,3.749,15.448,15.448,0,0,0,6.066-3.456,21.686,21.686,0,0,1,2.047-1.882c2.2-1.727,6.361-4.39,10.526-3.749,0,0,.7.466.7-.465a4.548,4.548,0,0,1-.5-3.181,1.214,1.214,0,0,1,1.379-.86l4.481.779s.7,0,.7,5.358c0,0,4.659,6.524,5.126,12.116a29.827,29.827,0,0,1,.234,4.893" transform="translate(-12255.967 -3754)" fill="#eee" stroke="#221f1f" stroke-miterlimit="10" stroke-width="0.5"/>
          <path id="패스_7243" data-name="패스 7243" d="M12490.928,3845.974s8.621-7.921,15.145-8.154" transform="translate(-12391.908 -3819.782)" fill="#eee" stroke="#221f1f" stroke-miterlimit="10" stroke-width="0.5"/>
          <path id="패스_7244" data-name="패스 7244" d="M12265.6,3829.767l-.234-6.058c-.232-6.057-2.562-6.523-2.562-6.523l-4.574-1.393a2.511,2.511,0,0,0-3.016,1.341,8.321,8.321,0,0,0-.564,3.312s6.291,1.4,6.756,2.33c0,0,7.922,10.485,7.457,20.5a18.624,18.624,0,0,1-3.014,8.341,11.87,11.87,0,0,1-2.479,2.545,151.1,151.1,0,0,0-16.178,14.277s-10.716,13.28-13.512,14.911c0,0-11.529,11.328-38.17,11.931a38.138,38.138,0,0,1-15.959-3.028c-5.756-2.48-10.873-7.039-8.312-13.1" transform="translate(-12140.489 -3802.409)" fill="#eee" stroke="#221f1f" stroke-miterlimit="10" stroke-width="0.5"/>
          <path id="패스_7245" data-name="패스 7245" d="M12365.342,3817.249a9.661,9.661,0,0,1,3.029,4.893" transform="translate(-12293.348 -3803.638)" fill="none" stroke="#221f1f" stroke-miterlimit="10" stroke-width="0.5"/>
          <path id="패스_7246" data-name="패스 7246" d="M12315.542,3796.868s1.864-3.029,5.593-.7l10.381,6.319c.164.1.327.2.491.307.089.056.216.134.376.227a12.135,12.135,0,0,0,13.584-1.074c2.893-2.29,6.73-6.313,6.777-11.559" transform="translate(-12254.266 -3782.558)" fill="none" stroke="#221f1f" stroke-miterlimit="10" stroke-width="0.5"/>
          <path id="패스_7247" data-name="패스 7247" d="M12453.686,3775.559s4.287.352,6.384,1.516" transform="translate(-12362.681 -3770.919)" fill="none" stroke="#221f1f" stroke-miterlimit="10" stroke-width="0.5"/>
          <path id="패스_7248" data-name="패스 7248" d="M12089.42,3888.7l-5.125,4.893c-2.1,1.864-.932,2.1-.932,2.1a62.268,62.268,0,0,1-22.133,11.882c-10.02,2.33-11.185,9.086-11.185,9.086s-1.56,7.626,10.12,11.368a30.675,30.675,0,0,0,10.709,1.383c5.341-.237,15.115-1.189,24.137-4.83" transform="translate(-12045.851 -3859.715)" fill="#eee" stroke="#221f1f" stroke-miterlimit="10" stroke-width="0.5"/>
          <line id="선_2826" data-name="선 2826" y1="3.613" x2="3.309" transform="translate(44.454 24.329)" fill="#eee" stroke="#221f1f" stroke-miterlimit="10" stroke-width="0.5"/>
          <path id="패스_7249" data-name="패스 7249" d="M12246.291,3862.733s-.977-1.618-.057-2.385a1.122,1.122,0,0,1,1.549.161c1.111,1.269,4.073,4.437,6.958,5.644a1.306,1.306,0,0,1,.585.454c.2.295.277.672-.639.682a3.412,3.412,0,0,1-1.765-.487c-1.49-.879-4.925-3.132-5.829-5.666" transform="translate(-12199.564 -3837.273)" fill="#eee" stroke="#221f1f" stroke-miterlimit="10" stroke-width="0.5"/>
          <path id="패스_7250" data-name="패스 7250" d="M12257.088,3843.834s-2.126-2.3.671-2.766c0,0,5.784,4.5,8.313,6.1a1.206,1.206,0,0,1,.555.762c.06.294-.014.595-.553.616a1.383,1.383,0,0,1-.658-.151,27.9,27.9,0,0,1-7.651-5.378.416.416,0,0,0-.705.145h0a2.931,2.931,0,0,1-.9,2.714" transform="translate(-12207.666 -3822.331)" fill="#eee" stroke="#221f1f" stroke-miterlimit="10" stroke-width="0.5"/>
          <path id="패스_7251" data-name="패스 7251" d="M12265.44,3823.65l.118-.118a2.325,2.325,0,0,0,.58-1.093c.09-.36.406-.393.688-.343a1.546,1.546,0,0,1,.688.323,78.82,78.82,0,0,1,6.877,5.969.926.926,0,0,0,1.132.169c.5-.307.295-.838.049-1.213a2.608,2.608,0,0,0-.562-.6l-3.73-2.984c-.4-.323-.8-.659-1.188-1-2.923-2.513-4.185-1.672-4.185-1.672a1.713,1.713,0,0,0-.466,2.563c-.932.233-1.864,1.631-1.864,1.631" transform="translate(-12213.482 -3806.544)" fill="#eee" stroke="#221f1f" stroke-miterlimit="10" stroke-width="0.5"/>
          <line id="선_2827" data-name="선 2827" y1="1.877" x2="1.792" transform="translate(54.242 12.796)" fill="none" stroke="#221f1f" stroke-miterlimit="10" stroke-width="0.5"/>
          <path id="패스_7252" data-name="패스 7252" d="M12284.877,3803.507s-1.959-4.258,1.77-2.162c0,0,.881-1.323,1.359-1.867a.357.357,0,0,1,.5-.032c.787.68,3.365,2.9,3.854,3.3" transform="translate(-12229.796 -3789.597)" fill="#eee" stroke="#221f1f" stroke-miterlimit="10" stroke-width="0.5"/>
          <path id="패스_7253" data-name="패스 7253" d="M12288.176,3808.588s6.908,3.861,8.582,5.321a1.391,1.391,0,0,1,.457.762c.068.34.007.735-.641.757a1.543,1.543,0,0,1-1.064-.4c-1.32-1.163-6.02-5.144-9.2-5.739" transform="translate(-12231.327 -3796.841)" fill="#eee" stroke="#221f1f" stroke-miterlimit="10" stroke-width="0.5"/>
          <line id="선_2828" data-name="선 2828" x1="2.179" y2="2.368" transform="translate(58.269 15.221)" fill="none" stroke="#221f1f" stroke-miterlimit="10" stroke-width="0.5"/>
          <line id="선_2829" data-name="선 2829" x1="2.75" y2="3.627" transform="translate(54.566 18.504)" fill="none" stroke="#221f1f" stroke-miterlimit="10" stroke-width="0.5"/>
          <line id="선_2830" data-name="선 2830" x1="2.289" y2="2.635" transform="translate(51.095 23.5)" fill="none" stroke="#221f1f" stroke-miterlimit="10" stroke-width="0.5"/>
          <line id="선_2831" data-name="선 2831" x1="2.152" y2="3.382" transform="translate(47.941 27.201)" fill="none" stroke="#221f1f" stroke-miterlimit="10" stroke-width="0.5"/>
          <path id="패스_7254" data-name="패스 7254" d="M12454.652,3871.779a6.756,6.756,0,0,0-1.631-3.961c-3.494-4.892-10.483-6.756-10.483-6.756-3.96-.932-4.661,2.563-4.661,2.563" transform="translate(-12350.274 -3837.897)" fill="#eee" stroke="#221f1f" stroke-miterlimit="10" stroke-width="0.5"/>
          <path id="패스_7255" data-name="패스 7255" d="M12591.724,3823s-3.6-.026-1.782,5.309" transform="translate(-12469.211 -3808.154)" fill="none" stroke="#221f1f" stroke-miterlimit="10" stroke-width="0.5"/>
          <path id="패스_7256" data-name="패스 7256" d="M12450.872,3865.228s2.795-3.262,10.019,1.4a49.55,49.55,0,0,0,5.405,3.206,12.029,12.029,0,0,0,8.727.842,6.6,6.6,0,0,0,3.289-1.92,6.271,6.271,0,0,0,.655-.962c1.027-1.864,3.413-5.045,3.7-10.485" transform="translate(-12360.473 -3835.074)" fill="none" stroke="#221f1f" stroke-miterlimit="10" stroke-width="0.5"/>
          <path id="패스_7257" data-name="패스 7257" d="M12418.767,3884.373s7.792,1.335,10.754,5.53a1.283,1.283,0,0,1,.256.809c-.018.31-.169.608-.754.406a1.726,1.726,0,0,1-.681-.452,16.311,16.311,0,0,0-9.4-4.832.758.758,0,0,1-.213-1.447Z" transform="translate(-12334.893 -3856.316)" fill="#eee" stroke="#221f1f" stroke-miterlimit="10" stroke-width="0.5"/>
          <path id="패스_7258" data-name="패스 7258" d="M12405.279,3904.343a1.311,1.311,0,0,1,1.35-1.636,3.21,3.21,0,0,1,1.173.119c1.585.442,7.151,2.185,9.155,5.36a1.529,1.529,0,0,1,.248.963.689.689,0,0,1-.793.708,1.362,1.362,0,0,1-.917-.454C12414.375,3908.189,12409.914,3903.739,12405.279,3904.343Z" transform="translate(-12324.666 -3870.694)" fill="#eee" stroke="#221f1f" stroke-miterlimit="10" stroke-width="0.5"/>
          <path id="패스_7259" data-name="패스 7259" d="M12389.161,3924.726s0-1.631,2.33-.932c0,0,7.148,2.01,10.071,5.157a1.21,1.21,0,0,1,.32.679.557.557,0,0,1-.467.689,1.055,1.055,0,0,1-.888-.248C12399.322,3929.043,12394.416,3925.131,12389.161,3924.726Z" transform="translate(-12312.042 -3887.117)" fill="#eee" stroke="#221f1f" stroke-miterlimit="10" stroke-width="0.5"/>
          <path id="패스_7260" data-name="패스 7260" d="M12372.922,3942.611a1.861,1.861,0,0,1,1.852-1.249,2.773,2.773,0,0,1,1.059.227,106.392,106.392,0,0,1,10.271,4.756,2.088,2.088,0,0,1,.72.748.842.842,0,0,1,.007,1,.753.753,0,0,1-.99.086C12384.307,3947.1,12378.176,3943.016,12372.922,3942.611Z" transform="translate(-12299.297 -3901.042)" fill="#eee" stroke="#221f1f" stroke-miterlimit="10" stroke-width="0.5"/>
          <path id="패스_7261" data-name="패스 7261" d="M12358.177,3962.119c-.061-.272.041-.562.626-.7a2.4,2.4,0,0,1,1.426.119c2.247.882,11.045,4.373,12.059,5.388,0,0,.908.907.287,1.5a.938.938,0,0,1-1.173.068c-1.681-1.148-8.039-5.31-12.462-5.737A.854.854,0,0,1,12358.177,3962.119Z" transform="translate(-12287.713 -3916.734)" fill="#eee" stroke="#221f1f" stroke-miterlimit="10" stroke-width="0.5"/>
          <line id="선_2832" data-name="선 2832" x1="1.813" y2="2.367" transform="translate(87.603 31.281)" fill="none" stroke="#221f1f" stroke-miterlimit="10" stroke-width="0.5"/>
          <line id="선_2833" data-name="선 2833" x1="2.406" y2="3.258" transform="translate(83.8 34.992)" fill="none" stroke="#221f1f" stroke-miterlimit="10" stroke-width="0.5"/>
          <line id="선_2834" data-name="선 2834" x1="1.56" y2="3.185" transform="translate(81.641 39.56)" fill="none" stroke="#221f1f" stroke-miterlimit="10" stroke-width="0.5"/>
          <line id="선_2835" data-name="선 2835" x1="1.778" y2="3.659" transform="translate(79.488 43.994)" fill="none" stroke="#221f1f" stroke-miterlimit="10" stroke-width="0.5"/>
          <path id="패스_7262" data-name="패스 7262" d="M12397.137,3980.91a8.187,8.187,0,0,0,1.768,5.941c.369.5.745.987,1.1,1.494l6.326,9.067s0,.465,1.864-.466,11.882-9.786,18.173-9.319c0,0,5.022.891,6.471,3.009" transform="translate(-12318.26 -3932.078)" fill="none" stroke="#221f1f" stroke-miterlimit="10" stroke-width="0.5"/>
          <line id="선_2836" data-name="선 2836" x1="1.804" y2="2.588" transform="translate(85.078 30.165)" fill="none" stroke="#221f1f" stroke-miterlimit="10" stroke-width="0.5"/>
          <line id="선_2837" data-name="선 2837" x1="2.303" y2="3.413" transform="translate(81.966 34.104)" fill="none" stroke="#221f1f" stroke-miterlimit="10" stroke-width="0.5"/>
          <line id="선_2838" data-name="선 2838" x1="2.389" y2="2.946" transform="translate(78.877 38.591)" fill="none" stroke="#221f1f" stroke-miterlimit="10" stroke-width="0.5"/>
          <line id="선_2839" data-name="선 2839" x1="2.444" y2="3.362" transform="translate(75.782 42.745)" fill="none" stroke="#221f1f" stroke-miterlimit="10" stroke-width="0.5"/>
          <path id="패스_7263" data-name="패스 7263" d="M12337.035,3972.7a5.5,5.5,0,0,1-4.295,2.194s-5.658-.422-7.455,3.96" transform="translate(-12261.913 -3925.632)" fill="none" stroke="#221f1f" stroke-miterlimit="10" stroke-width="0.5"/>
          <line id="선_2840" data-name="선 2840" y1="6.291" x2="6.99" transform="translate(37.512 29.688)" fill="#eee" stroke="#221f1f" stroke-miterlimit="10" stroke-width="0.5"/>
          <line id="선_2841" data-name="선 2841" y1="3.272" x2="2.974" transform="translate(45.488 25.502)" fill="#eee" stroke="#221f1f" stroke-miterlimit="10" stroke-width="0.5"/>
          <line id="선_2842" data-name="선 2842" y1="2.481" x2="2.091" transform="translate(49.421 22.054)" fill="#eee" stroke="#221f1f" stroke-miterlimit="10" stroke-width="0.5"/>
          <line id="선_2843" data-name="선 2843" y1="3.608" x2="2.887" transform="translate(52.646 17.085)" fill="#eee" stroke="#221f1f" stroke-miterlimit="10" stroke-width="0.5"/>
          <line id="선_2844" data-name="선 2844" y1="2.323" x2="1.713" transform="translate(56.42 13.735)" fill="none" stroke="#221f1f" stroke-miterlimit="10" stroke-width="0.5"/>
          <line id="선_2845" data-name="선 2845" x1="1.251" y2="1.885" transform="translate(58.691 10.912)" fill="#eee"/>
          <line id="선_2846" data-name="선 2846" x2="3.495" y2="2.641" transform="translate(112.533 70.149)" fill="#eee" stroke="#221f1f" stroke-miterlimit="10" stroke-width="0.5"/>
          <path id="패스_7264" data-name="패스 7264" d="M12249.27,3900.628s-1.477,2.094.854,5.122c0,0,4.66,7.222,5.125,9.319,0,0,.7,1.864,2.795.466,0,0,9.088-8.155,18.64-7.456" transform="translate(-12201.895 -3869.073)" fill="#eee" stroke="#221f1f" stroke-miterlimit="10" stroke-width="0.5"/>
          <path id="패스_7265" data-name="패스 7265" d="M12230.174,3881.7a1.545,1.545,0,0,1,.941.369c1.114.926,4.971,4.04,7.146,4.633a2.469,2.469,0,0,1,.35.136.54.54,0,0,1-.445.983,36.8,36.8,0,0,1-8.387-5.03.608.608,0,0,1,.361-1.093Z" transform="translate(-12186.771 -3854.216)" fill="#eee" stroke="#221f1f" stroke-miterlimit="10" stroke-width="0.5"/>
          <path id="패스_7266" data-name="패스 7266" d="M12520.765,3853.26" transform="translate(-12415.325 -3831.899)" fill="#eee"/>
        </g>
        <g id="그룹_7927" data-name="그룹 7927" transform="translate(12030.808 3754)">
          <path id="패스_7267" data-name="패스 7267" d="M12263.035,3828.015l2.33-2.33.233-1.4,2.563.466.466,1.165-1.631,1.864-1.864,2.33-1.63-.7Z" transform="translate(-12213.06 -3809.161)" fill="#eee"/>
          <path id="패스_7268" data-name="패스 7268" d="M12255.457,3850.75l.7-1.165.465-2.563,3.029,1.631-3.262,2.1Z" transform="translate(-12207.112 -3827.003)" fill="#eee"/>
          <path id="패스_7269" data-name="패스 7269" d="M12281.439,3817.49l1.4-1.631,3.027-.232v1.165l-1.863,2.1Z" transform="translate(-12227.502 -3802.364)" fill="#eee"/>
          <path id="패스_7270" data-name="패스 7270" d="M12247.57,3865.05l-.232-1.863.932-.466.932.466.7-.233Z" transform="translate(-12200.74 -3839.323)" fill="#eee"/>
          <path id="패스_7271" data-name="패스 7271" d="M12232.723,3870.785l.465-.932,4.194-4.427.466.932-4.893,4.659Z" transform="translate(-12189.271 -3841.448)" fill="#eee"/>
          <path id="패스_7272" data-name="패스 7272" d="M12230.557,3827.3l16.541-18.173,12.582,3.262-25.861,18.872-3.262,1.4Z" transform="translate(-12187.569 -3797.266)" fill="#eee"/>
          <path id="패스_7273" data-name="패스 7273" d="M12552.1,4067.658l4.193-3.029.467,3.029-.932,2.8-3.729-2.8" transform="translate(-12439.913 -3997.781)" fill="#eee"/>
          <path id="패스_7274" data-name="패스 7274" d="M12510.955,3842.87l10.041-5.41,1.609-.182,6.289,2.1,1.631,3.029,2.1,3.728v1.165l-9.086,6.057-6.771,1.867Z" transform="translate(-12407.626 -3819.357)" fill="#eee"/>
          <path id="패스_7275" data-name="패스 7275" d="M12186.072,3835.513l22.6-20.969,16.542,4.427,19.8,5.825,2.33,2.33,6.989,16.774-4.659,11.184-44.035,17.008-33.549,6.756Z" transform="translate(-12141.688 -3801.514)" fill="#eee"/>
          <path id="패스_7276" data-name="패스 7276" d="M12254.381,3943.917a7.052,7.052,0,0,1,3.263,6.058l-.466,9.785c-.233,4.194-3.961,7.688-3.961,7.688l-11.183,8.388v-5.359c-2.331.233-15.378,16.076-15.378,16.076-8.46,10.427-20.906,14.208-24.574,15.133-.949.239-1.891.5-2.834.764-32.3,9-46.914-11-46.914-11-.533-.892.021-3.967.313-5.361.09-.43.151-.865.213-1.3a4.985,4.985,0,0,1,3.619-4.329" transform="translate(-12126.006 -3903.046)" fill="#eee" stroke="#221f1f" stroke-miterlimit="10" stroke-width="0.5"/>
          <path id="패스_7277" data-name="패스 7277" d="M12155.676,4004.607s5.746,17.51,39.063,14.015c0,0,24.23-2.563,34.016-15.377,0,0,12.087-16.835,19.435-20.8a29.151,29.151,0,0,0,2.771-1.668c3.169-2.2,9.149-6.913,9.487-11.436" transform="translate(-12128.804 -3923)" fill="#eee" stroke="#221f1f" stroke-miterlimit="10" stroke-width="0.5"/>
          <path id="패스_7278" data-name="패스 7278" d="M12031.43,3906.084s-1.088,4.816-.389,6.446c0,0,8.154,12.814,30.521,8.854,0,0,1.63-5.592,7.222-7.223,0,0,13.759-4.444,18.476-9.7.6-.664,1.206-1.316,1.861-1.922l5.059-4.684s-2.154-.2.358-2.562c1.179-1.111,2.313-2.27,3.435-3.44l8.555-8.91,9.714-13.1a.864.864,0,0,1,.9-.329c.918.223,2.46,1.05,1.269,4.111" transform="translate(-12030.807 -3844.634)" fill="#eee" stroke="#221f1f" stroke-miterlimit="10" stroke-width="0.5"/>
          <path id="패스_7279" data-name="패스 7279" d="M12037.328,4017.508s-4.25,2.569-3.551,5.365c0,0,2.563,10.484,24.23,10.252a67.855,67.855,0,0,0,10.018-1.4" transform="translate(-12033.076 -3960.8)" fill="#eee" stroke="#221f1f" stroke-miterlimit="10" stroke-width="0.5"/>
          <path id="패스_7280" data-name="패스 7280" d="M12317.709,3766.447l1.992-3.32a.4.4,0,0,1,.418-.192c.087.016.2.041.346.08a7.28,7.28,0,0,1,1.926.848,56.824,56.824,0,0,1,5.568,3.749,15.448,15.448,0,0,0,6.066-3.456,21.686,21.686,0,0,1,2.047-1.882c2.2-1.727,6.361-4.39,10.526-3.749,0,0,.7.466.7-.465a4.548,4.548,0,0,1-.5-3.181,1.214,1.214,0,0,1,1.379-.86l4.481.779s.7,0,.7,5.358c0,0,4.659,6.524,5.126,12.116a29.827,29.827,0,0,1,.234,4.893" transform="translate(-12255.967 -3754)" fill="#eee" stroke="#221f1f" stroke-miterlimit="10" stroke-width="0.5"/>
          <path id="패스_7281" data-name="패스 7281" d="M12490.928,3845.974s8.621-7.921,15.145-8.154" transform="translate(-12391.908 -3819.782)" fill="#eee" stroke="#221f1f" stroke-miterlimit="10" stroke-width="0.5"/>
          <path id="패스_7282" data-name="패스 7282" d="M12265.6,3829.767l-.234-6.058c-.232-6.057-2.562-6.523-2.562-6.523l-4.574-1.393a2.511,2.511,0,0,0-3.016,1.341,8.321,8.321,0,0,0-.564,3.312s6.291,1.4,6.756,2.33c0,0,7.922,10.485,7.457,20.5a18.624,18.624,0,0,1-3.014,8.341,11.87,11.87,0,0,1-2.479,2.545,151.1,151.1,0,0,0-16.178,14.277s-10.716,13.28-13.512,14.911c0,0-11.529,11.328-38.17,11.931a38.138,38.138,0,0,1-15.959-3.028c-5.756-2.48-10.873-7.039-8.312-13.1" transform="translate(-12140.489 -3802.409)" fill="#eee" stroke="#221f1f" stroke-miterlimit="10" stroke-width="0.5"/>
          <path id="패스_7283" data-name="패스 7283" d="M12365.342,3817.249a9.661,9.661,0,0,1,3.029,4.893" transform="translate(-12293.348 -3803.638)" fill="none" stroke="#221f1f" stroke-miterlimit="10" stroke-width="0.5"/>
          <path id="패스_7284" data-name="패스 7284" d="M12315.542,3796.868s1.864-3.029,5.593-.7l10.381,6.319c.164.1.327.2.491.307.089.056.216.134.376.227a12.135,12.135,0,0,0,13.584-1.074c2.893-2.29,6.73-6.313,6.777-11.559" transform="translate(-12254.266 -3782.558)" fill="none" stroke="#221f1f" stroke-miterlimit="10" stroke-width="0.5"/>
          <path id="패스_7285" data-name="패스 7285" d="M12453.686,3775.559s4.287.352,6.384,1.516" transform="translate(-12362.681 -3770.919)" fill="none" stroke="#221f1f" stroke-miterlimit="10" stroke-width="0.5"/>
          <path id="패스_7286" data-name="패스 7286" d="M12089.42,3888.7l-5.125,4.893c-2.1,1.864-.932,2.1-.932,2.1a62.268,62.268,0,0,1-22.133,11.882c-10.02,2.33-11.185,9.086-11.185,9.086s-1.56,7.626,10.12,11.368a30.675,30.675,0,0,0,10.709,1.383c5.341-.237,15.115-1.189,24.137-4.83" transform="translate(-12045.851 -3859.715)" fill="#eee" stroke="#221f1f" stroke-miterlimit="10" stroke-width="0.5"/>
          <line id="선_2847" data-name="선 2847" y1="3.613" x2="3.309" transform="translate(44.454 24.329)" fill="#eee" stroke="#221f1f" stroke-miterlimit="10" stroke-width="0.5"/>
          <path id="패스_7287" data-name="패스 7287" d="M12246.291,3862.733s-.977-1.618-.057-2.385a1.122,1.122,0,0,1,1.549.161c1.111,1.269,4.073,4.437,6.958,5.644a1.306,1.306,0,0,1,.585.454c.2.295.277.672-.639.682a3.412,3.412,0,0,1-1.765-.487c-1.49-.879-4.925-3.132-5.829-5.666" transform="translate(-12199.564 -3837.273)" fill="#eee" stroke="#221f1f" stroke-miterlimit="10" stroke-width="0.5"/>
          <path id="패스_7288" data-name="패스 7288" d="M12257.088,3843.834s-2.126-2.3.671-2.766c0,0,5.784,4.5,8.313,6.1a1.206,1.206,0,0,1,.555.762c.06.294-.014.595-.553.616a1.383,1.383,0,0,1-.658-.151,27.9,27.9,0,0,1-7.651-5.378.416.416,0,0,0-.705.145h0a2.931,2.931,0,0,1-.9,2.714" transform="translate(-12207.666 -3822.331)" fill="#eee" stroke="#221f1f" stroke-miterlimit="10" stroke-width="0.5"/>
          <path id="패스_7289" data-name="패스 7289" d="M12265.44,3823.65l.118-.118a2.325,2.325,0,0,0,.58-1.093c.09-.36.406-.393.688-.343a1.546,1.546,0,0,1,.688.323,78.82,78.82,0,0,1,6.877,5.969.926.926,0,0,0,1.132.169c.5-.307.295-.838.049-1.213a2.608,2.608,0,0,0-.562-.6l-3.73-2.984c-.4-.323-.8-.659-1.188-1-2.923-2.513-4.185-1.672-4.185-1.672a1.713,1.713,0,0,0-.466,2.563c-.932.233-1.864,1.631-1.864,1.631" transform="translate(-12213.482 -3806.544)" fill="#eee" stroke="#221f1f" stroke-miterlimit="10" stroke-width="0.5"/>
          <line id="선_2848" data-name="선 2848" y1="1.877" x2="1.792" transform="translate(54.242 12.796)" fill="none" stroke="#221f1f" stroke-miterlimit="10" stroke-width="0.5"/>
          <path id="패스_7290" data-name="패스 7290" d="M12284.877,3803.507s-1.959-4.258,1.77-2.162c0,0,.881-1.323,1.359-1.867a.357.357,0,0,1,.5-.032c.787.68,3.365,2.9,3.854,3.3" transform="translate(-12229.796 -3789.597)" fill="#eee" stroke="#221f1f" stroke-miterlimit="10" stroke-width="0.5"/>
          <path id="패스_7291" data-name="패스 7291" d="M12288.176,3808.588s6.908,3.861,8.582,5.321a1.391,1.391,0,0,1,.457.762c.068.34.007.735-.641.757a1.543,1.543,0,0,1-1.064-.4c-1.32-1.163-6.02-5.144-9.2-5.739" transform="translate(-12231.327 -3796.841)" fill="#eee" stroke="#221f1f" stroke-miterlimit="10" stroke-width="0.5"/>
          <line id="선_2849" data-name="선 2849" x1="2.179" y2="2.368" transform="translate(58.269 15.221)" fill="none" stroke="#221f1f" stroke-miterlimit="10" stroke-width="0.5"/>
          <line id="선_2850" data-name="선 2850" x1="2.75" y2="3.627" transform="translate(54.566 18.504)" fill="none" stroke="#221f1f" stroke-miterlimit="10" stroke-width="0.5"/>
          <line id="선_2851" data-name="선 2851" x1="2.289" y2="2.635" transform="translate(51.095 23.5)" fill="none" stroke="#221f1f" stroke-miterlimit="10" stroke-width="0.5"/>
          <line id="선_2852" data-name="선 2852" x1="2.152" y2="3.382" transform="translate(47.941 27.201)" fill="none" stroke="#221f1f" stroke-miterlimit="10" stroke-width="0.5"/>
          <path id="패스_7292" data-name="패스 7292" d="M12454.652,3871.779a6.756,6.756,0,0,0-1.631-3.961c-3.494-4.892-10.483-6.756-10.483-6.756-3.96-.932-4.661,2.563-4.661,2.563" transform="translate(-12350.274 -3837.897)" fill="#eee" stroke="#221f1f" stroke-miterlimit="10" stroke-width="0.5"/>
          <path id="패스_7293" data-name="패스 7293" d="M12591.724,3823s-3.6-.026-1.782,5.309" transform="translate(-12469.211 -3808.154)" fill="none" stroke="#221f1f" stroke-miterlimit="10" stroke-width="0.5"/>
          <path id="패스_7294" data-name="패스 7294" d="M12450.872,3865.228s2.795-3.262,10.019,1.4a49.55,49.55,0,0,0,5.405,3.206,12.029,12.029,0,0,0,8.727.842,6.6,6.6,0,0,0,3.289-1.92,6.271,6.271,0,0,0,.655-.962c1.027-1.864,3.413-5.045,3.7-10.485" transform="translate(-12360.473 -3835.074)" fill="none" stroke="#221f1f" stroke-miterlimit="10" stroke-width="0.5"/>
          <path id="패스_7295" data-name="패스 7295" d="M12418.767,3884.373s7.792,1.335,10.754,5.53a1.283,1.283,0,0,1,.256.809c-.018.31-.169.608-.754.406a1.726,1.726,0,0,1-.681-.452,16.311,16.311,0,0,0-9.4-4.832.758.758,0,0,1-.213-1.447Z" transform="translate(-12334.893 -3856.316)" fill="#eee" stroke="#221f1f" stroke-miterlimit="10" stroke-width="0.5"/>
          <path id="패스_7296" data-name="패스 7296" d="M12405.279,3904.343a1.311,1.311,0,0,1,1.35-1.636,3.21,3.21,0,0,1,1.173.119c1.585.442,7.151,2.185,9.155,5.36a1.529,1.529,0,0,1,.248.963.689.689,0,0,1-.793.708,1.362,1.362,0,0,1-.917-.454C12414.375,3908.189,12409.914,3903.739,12405.279,3904.343Z" transform="translate(-12324.666 -3870.694)" fill="#eee" stroke="#221f1f" stroke-miterlimit="10" stroke-width="0.5"/>
          <path id="패스_7297" data-name="패스 7297" d="M12389.161,3924.726s0-1.631,2.33-.932c0,0,7.148,2.01,10.071,5.157a1.21,1.21,0,0,1,.32.679.557.557,0,0,1-.467.689,1.055,1.055,0,0,1-.888-.248C12399.322,3929.043,12394.416,3925.131,12389.161,3924.726Z" transform="translate(-12312.042 -3887.117)" fill="#eee" stroke="#221f1f" stroke-miterlimit="10" stroke-width="0.5"/>
          <path id="패스_7298" data-name="패스 7298" d="M12372.922,3942.611a1.861,1.861,0,0,1,1.852-1.249,2.773,2.773,0,0,1,1.059.227,106.392,106.392,0,0,1,10.271,4.756,2.088,2.088,0,0,1,.72.748.842.842,0,0,1,.007,1,.753.753,0,0,1-.99.086C12384.307,3947.1,12378.176,3943.016,12372.922,3942.611Z" transform="translate(-12299.297 -3901.042)" fill="#eee" stroke="#221f1f" stroke-miterlimit="10" stroke-width="0.5"/>
          <path id="패스_7299" data-name="패스 7299" d="M12358.177,3962.119c-.061-.272.041-.562.626-.7a2.4,2.4,0,0,1,1.426.119c2.247.882,11.045,4.373,12.059,5.388,0,0,.908.907.287,1.5a.938.938,0,0,1-1.173.068c-1.681-1.148-8.039-5.31-12.462-5.737A.854.854,0,0,1,12358.177,3962.119Z" transform="translate(-12287.713 -3916.734)" fill="#eee" stroke="#221f1f" stroke-miterlimit="10" stroke-width="0.5"/>
          <line id="선_2853" data-name="선 2853" x1="1.813" y2="2.367" transform="translate(87.603 31.281)" fill="none" stroke="#221f1f" stroke-miterlimit="10" stroke-width="0.5"/>
          <line id="선_2854" data-name="선 2854" x1="2.406" y2="3.258" transform="translate(83.8 34.992)" fill="none" stroke="#221f1f" stroke-miterlimit="10" stroke-width="0.5"/>
          <line id="선_2855" data-name="선 2855" x1="1.56" y2="3.185" transform="translate(81.641 39.56)" fill="none" stroke="#221f1f" stroke-miterlimit="10" stroke-width="0.5"/>
          <line id="선_2856" data-name="선 2856" x1="1.778" y2="3.659" transform="translate(79.488 43.994)" fill="none" stroke="#221f1f" stroke-miterlimit="10" stroke-width="0.5"/>
          <path id="패스_7300" data-name="패스 7300" d="M12397.137,3980.91a8.187,8.187,0,0,0,1.768,5.941c.369.5.745.987,1.1,1.494l6.326,9.067s0,.465,1.864-.466,11.882-9.786,18.173-9.319c0,0,5.022.891,6.471,3.009" transform="translate(-12318.26 -3932.078)" fill="none" stroke="#221f1f" stroke-miterlimit="10" stroke-width="0.5"/>
          <line id="선_2857" data-name="선 2857" x1="1.804" y2="2.588" transform="translate(85.078 30.165)" fill="none" stroke="#221f1f" stroke-miterlimit="10" stroke-width="0.5"/>
          <line id="선_2858" data-name="선 2858" x1="2.303" y2="3.413" transform="translate(81.966 34.104)" fill="none" stroke="#221f1f" stroke-miterlimit="10" stroke-width="0.5"/>
          <line id="선_2859" data-name="선 2859" x1="2.389" y2="2.946" transform="translate(78.877 38.591)" fill="none" stroke="#221f1f" stroke-miterlimit="10" stroke-width="0.5"/>
          <line id="선_2860" data-name="선 2860" x1="2.444" y2="3.362" transform="translate(75.782 42.745)" fill="none" stroke="#221f1f" stroke-miterlimit="10" stroke-width="0.5"/>
          <path id="패스_7301" data-name="패스 7301" d="M12337.035,3972.7a5.5,5.5,0,0,1-4.295,2.194s-5.658-.422-7.455,3.96" transform="translate(-12261.913 -3925.632)" fill="none" stroke="#221f1f" stroke-miterlimit="10" stroke-width="0.5"/>
          <line id="선_2861" data-name="선 2861" y1="6.291" x2="6.99" transform="translate(37.512 29.688)" fill="#eee" stroke="#221f1f" stroke-miterlimit="10" stroke-width="0.5"/>
          <line id="선_2862" data-name="선 2862" y1="3.272" x2="2.974" transform="translate(45.488 25.502)" fill="#eee" stroke="#221f1f" stroke-miterlimit="10" stroke-width="0.5"/>
          <line id="선_2863" data-name="선 2863" y1="2.481" x2="2.091" transform="translate(49.421 22.054)" fill="#eee" stroke="#221f1f" stroke-miterlimit="10" stroke-width="0.5"/>
          <line id="선_2864" data-name="선 2864" y1="3.608" x2="2.887" transform="translate(52.646 17.085)" fill="#eee" stroke="#221f1f" stroke-miterlimit="10" stroke-width="0.5"/>
          <line id="선_2865" data-name="선 2865" y1="2.323" x2="1.713" transform="translate(56.42 13.735)" fill="none" stroke="#221f1f" stroke-miterlimit="10" stroke-width="0.5"/>
          <line id="선_2866" data-name="선 2866" x1="1.251" y2="1.885" transform="translate(58.691 10.912)" fill="#eee"/>
          <line id="선_2867" data-name="선 2867" x2="3.495" y2="2.641" transform="translate(112.533 70.149)" fill="#eee" stroke="#221f1f" stroke-miterlimit="10" stroke-width="0.5"/>
          <path id="패스_7302" data-name="패스 7302" d="M12249.27,3900.628s-1.477,2.094.854,5.122c0,0,4.66,7.222,5.125,9.319,0,0,.7,1.864,2.795.466,0,0,9.088-8.155,18.64-7.456" transform="translate(-12201.895 -3869.073)" fill="#eee" stroke="#221f1f" stroke-miterlimit="10" stroke-width="0.5"/>
          <path id="패스_7303" data-name="패스 7303" d="M12230.174,3881.7a1.545,1.545,0,0,1,.941.369c1.114.926,4.971,4.04,7.146,4.633a2.469,2.469,0,0,1,.35.136.54.54,0,0,1-.445.983,36.8,36.8,0,0,1-8.387-5.03.608.608,0,0,1,.361-1.093Z" transform="translate(-12186.771 -3854.216)" fill="#eee" stroke="#221f1f" stroke-miterlimit="10" stroke-width="0.5"/>
          <path id="패스_7304" data-name="패스 7304" d="M12520.765,3853.26" transform="translate(-12415.325 -3831.899)" fill="#eee"/>
        </g>
        <path id="패스_7305" data-name="패스 7305" d="M13204.783,3957.49s25.734,7.965,32.627,2.3a13.677,13.677,0,0,0,2.605-2.887,16.626,16.626,0,0,0,2.8-7.352l1.438-11.064a9.089,9.089,0,0,0-2.912-7.96q-.114-.1-.234-.2a15.031,15.031,0,0,0-7.545-3.4l-22.932-3.459" transform="translate(-921.332 -132.989)" fill="#eee" stroke="#221f1f" stroke-miterlimit="10" stroke-width="0.5"/>
        <path id="패스_7306" data-name="패스 7306" d="M13384.87,3969.844" transform="translate(-1062.664 -169.393)" fill="#eee" stroke="#221f1f" stroke-miterlimit="10" stroke-width="0.5"/>
        <path id="패스_7307" data-name="패스 7307" d="M12830.287,3935.392a64.861,64.861,0,0,0,28.312,2.221,37.02,37.02,0,0,0,8.954-2.636c14.019-6.042,30.748-3.415,30.748-3.415l.765,1.685c15.625-14.706,5.055-36.152,5.055-36.152-5.654.754-34.512-2.72-44.691-3.991a67.1,67.1,0,0,0-9.744-.523c-37.037.787-34.41,24.428-34.41,24.428S12815.427,3930.183,12830.287,3935.392Z" transform="translate(-615.614 -108.747)" fill="#eee" stroke="#221f1f" stroke-miterlimit="10" stroke-width="0.5"/>
        <path id="패스_7308" data-name="패스 7308" d="M12925.389,3914.381c-5.957.431-36.192-3.728-45.028-4.793a60.4,60.4,0,0,0-8.459-.437c-32.147.659-29.867,20.441-29.867,20.441s.133,11.023,13.03,15.381a58.34,58.34,0,0,0,24.576,1.859,33.044,33.044,0,0,0,7.772-2.206c12.168-5.056,34.423-3.1,34.423-3.1" transform="translate(-636.62 -121.752)" fill="#eee" stroke="#221f1f" stroke-miterlimit="10" stroke-width="0.5"/>
        <path id="패스_7309" data-name="패스 7309" d="M13201.223,3948.543s14.092-11.489,4.723-34.339" transform="translate(-918.538 -125.727)" fill="none" stroke="#221f1f" stroke-miterlimit="10" stroke-width="0.5"/>
      </g>
      <g id="그룹_7933" data-name="그룹 7933" transform="translate(-8854.624 21540.172) rotate(90)">
        <line id="선_2771" data-name="선 2771" y2="129.996" transform="translate(-17499.5 3110.5)" fill="none" stroke="#343434" stroke-width="1"/>
        <line id="선_2772" data-name="선 2772" y2="5" transform="translate(-17497 3110) rotate(90)" fill="none" stroke="#343434" stroke-width="1"/>
        <line id="선_2773" data-name="선 2773" y2="5" transform="translate(-17497 3239.996) rotate(90)" fill="none" stroke="#343434" stroke-width="1"/>
      </g>
      <g id="그룹_7808" data-name="그룹 7808" transform="translate(5378.123 917.053)">
        <line id="선_2771-2" data-name="선 2771" y2="19.635" transform="translate(-17499.5 3110.5)" fill="none" stroke="#343434" stroke-width="1"/>
        <line id="선_2772-2" data-name="선 2772" y2="5" transform="translate(-17497 3110) rotate(90)" fill="none" stroke="#343434" stroke-width="1"/>
        <line id="선_2773-2" data-name="선 2773" y2="5" transform="translate(-17497 3129.635) rotate(90)" fill="none" stroke="#343434" stroke-width="1"/>
      </g>
      <g id="그룹_7934" data-name="그룹 7934" transform="translate(5447 902.059)">
        <line id="선_2771-3" data-name="선 2771" y2="50.846" transform="translate(-17499.5 3110.5)" fill="none" stroke="#343434" stroke-width="1"/>
        <line id="선_2772-3" data-name="선 2772" y2="5" transform="translate(-17497 3110) rotate(90)" fill="none" stroke="#343434" stroke-width="1"/>
        <line id="선_2773-3" data-name="선 2773" y2="5" transform="translate(-17497 3160.846) rotate(90)" fill="none" stroke="#343434" stroke-width="1"/>
      </g>
    </g>
  </g>
</svg>
