<svg xmlns="http://www.w3.org/2000/svg" width="320" height="339" viewBox="0 0 320 339">
  <g id="그룹_7987" data-name="그룹 7987" transform="translate(9510 1190)">
    <rect id="사각형_2302" data-name="사각형 2302" width="320" height="339" transform="translate(-9510 -1190)" fill="none"/>
    <g id="그룹_7985" data-name="그룹 7985" transform="translate(-434.999 1348.133)">
      <g id="그룹_7880" data-name="그룹 7880" transform="translate(-11880.18 -6270.939)">
        <path id="패스_7144" data-name="패스 7144" d="M3028.5,3820.42l60.441-1.42-8.68,55.706-48.289,28.405-9.469-4.418Z" transform="translate(-82.346 -19.742)" fill="#eee"/>
        <path id="패스_7145" data-name="패스 7145" d="M3202.841,3833.316l18.306-.316,6.312,23.987h-16.412L3200,3835.209Z" transform="translate(-203.825 -29.323)" fill="#eee"/>
        <path id="패스_7146" data-name="패스 7146" d="M2906.7,3858.752s-7.575,58.073-3.113,173.559a2.576,2.576,0,0,0,2.512,2.567l117.717.605a2.526,2.526,0,0,0,2.538-2.489l.4-27.837c.089-20.028.121-40.055.785-60.073,1.282-38.647-2.56-75.832-3.532-84.462a1.579,1.579,0,0,0-1.979-1.344c-20.3,5.375-25.7-19.78-25.7-19.78" transform="translate(0 -33.772)" fill="#eee" stroke="#221f1f" stroke-miterlimit="10" stroke-width="0.5"/>
        <path id="패스_7147" data-name="패스 7147" d="M2918.5,3830.351l17.359,5.365,38.821-23.671-1.1-14.045-50.341,9.311Z" transform="translate(-11.17 -5.37)" fill="#eee"/>
        <path id="패스_7148" data-name="패스 7148" d="M2980.661,3792.472c-9.813,1.09-39.8-1.426-47.619-2.3a2.31,2.31,0,0,0-2.487,1.681c-.738,2.671-1.951,6.957-1.932,10.377a2.4,2.4,0,0,0,2.268,2.356l12.526,1.146" transform="translate(-18.099 0)" fill="#eee" stroke="#221f1f" stroke-miterlimit="10" stroke-width="0.5"/>
        <path id="패스_7149" data-name="패스 7149" d="M3089.1,3808.6l54.97-2.688a1.3,1.3,0,0,0,1.141-1.575,88.357,88.357,0,0,1-1.342-10.448,2,2,0,0,0-2.377-1.808c-14.222,2.813-51.761,1.684-51.761,1.684s-2.754-.306-1.332,14.148C3088.4,3807.912,3088.465,3808.6,3089.1,3808.6Z" transform="translate(-127.165 -1.292)" fill="#eee" stroke="#221f1f" stroke-miterlimit="10" stroke-width="0.5"/>
        <path id="패스_7150" data-name="패스 7150" d="M2975.5,3839.5s33.034,1.789,35.927.894" transform="translate(-50.18 -33.772)" fill="#eee" stroke="#221f1f" stroke-miterlimit="10" stroke-width="0.5"/>
        <path id="패스_7151" data-name="패스 7151" d="M3267.5,3835.5s4.419,20.831,6.312,21.778" transform="translate(-250.02 -31.034)" fill="#eee" stroke="#221f1f" stroke-miterlimit="10" stroke-width="0.5"/>
        <path id="패스_7152" data-name="패스 7152" d="M3089.5,3902.493s14.834,2.525,15.465-19.253l.315-40.241" transform="translate(-128.2 -36.167)" fill="#eee" stroke="#221f1f" stroke-miterlimit="10" stroke-width="0.5"/>
        <path id="패스_7153" data-name="패스 7153" d="M3089.646,4032.9c-.131-3.187-.184-115.445-.159-118.635L3089.8,3844" transform="translate(-128.187 -36.852)" fill="#eee" stroke="#221f1f" stroke-miterlimit="10" stroke-width="0.5"/>
        <ellipse id="타원_122" data-name="타원 122" cx="2.525" cy="3.156" rx="2.525" ry="3.156" transform="translate(2964.772 3796.891)" fill="#eee" stroke="#221f1f" stroke-miterlimit="10" stroke-width="0.5"/>
        <path id="패스_7154" data-name="패스 7154" d="M2940.224,3840s-4.156,24.776-23.724,19.095" transform="translate(-9.801 -34.115)" fill="none" stroke="#221f1f" stroke-miterlimit="10" stroke-width="0.5"/>
        <path id="패스_7155" data-name="패스 7155" d="M2922.918,3834.5s-4.419,19.568-4.419,21.146" transform="translate(-11.17 -30.35)" fill="#eee" stroke="#221f1f" stroke-miterlimit="10" stroke-width="0.5"/>
        <path id="패스_7156" data-name="패스 7156" d="M2906.5,4444.462s115.673-1.42,122.774.631" transform="translate(-2.957 -447.471)" fill="#eee" stroke="#221f1f" stroke-miterlimit="10" stroke-width="0.5"/>
      </g>
      <g id="그룹_7829" data-name="그룹 7829" transform="translate(6853.127 -9215.133)">
        <line id="선_2687" data-name="선 2687" x2="102.648" transform="translate(-15820.826 6722.5)" fill="none" stroke="#343434" stroke-width="1"/>
        <line id="선_2690" data-name="선 2690" y2="5" transform="translate(-15821.127 6719.999)" fill="none" stroke="#343434" stroke-width="1"/>
        <line id="선_2693" data-name="선 2693" y2="5" transform="translate(-15718.178 6720)" fill="none" stroke="#343434" stroke-width="1"/>
      </g>
      <g id="그룹_7832" data-name="그룹 7832" transform="translate(6852.827 -8934.867)">
        <line id="선_2685" data-name="선 2685" x2="123.629" transform="translate(-15830.826 6682.5)" fill="none" stroke="#343434" stroke-width="1"/>
        <line id="선_2688" data-name="선 2688" y2="5" transform="translate(-15830.599 6680)" fill="none" stroke="#343434" stroke-width="1"/>
        <line id="선_2691" data-name="선 2691" y2="5" transform="translate(-15707.197 6680)" fill="none" stroke="#343434" stroke-width="1"/>
      </g>
      <g id="그룹_7833" data-name="그룹 7833" transform="translate(12611.499 -7633.494)">
        <line id="선_2795" data-name="선 2795" y2="211.559" transform="translate(-21615 5152.494)" fill="none" stroke="#343434" stroke-width="1"/>
        <line id="선_2794" data-name="선 2794" y2="5" transform="translate(-21612.5 5152.501) rotate(90)" fill="none" stroke="#343434" stroke-width="1"/>
        <line id="선_2796" data-name="선 2796" y2="5" transform="translate(-21612.5 5363.435) rotate(90)" fill="none" stroke="#343434" stroke-width="1"/>
      </g>
      <g id="그룹_7838" data-name="그룹 7838" transform="translate(6847.985 -9113.865)">
        <line id="선_2687-2" data-name="선 2687" x2="118.431" transform="translate(-15821.485 6722.5)" fill="none" stroke="#343434" stroke-width="1"/>
        <line id="선_2690-2" data-name="선 2690" y2="5" transform="translate(-15821.985 6720)" fill="none" stroke="#343434" stroke-width="1"/>
        <line id="선_2693-2" data-name="선 2693" y2="5" transform="translate(-15703.055 6720)" fill="none" stroke="#343434" stroke-width="1"/>
      </g>
    </g>
  </g>
</svg>
