<svg xmlns="http://www.w3.org/2000/svg" width="470" height="510" viewBox="0 0 470 510">
  <g id="그룹_7883" data-name="그룹 7883" transform="translate(-1330 -211)">
    <rect id="사각형_2262" data-name="사각형 2262" width="470" height="510" transform="translate(1330 211)" fill="none"/>
    <g id="그룹_7881" data-name="그룹 7881" transform="translate(16053 -7279.367)">
      <g id="그룹_7880" data-name="그룹 7880" transform="translate(-17459.18 3791.56)">
        <path id="패스_7144" data-name="패스 7144" d="M3031.691,3821.177l92.631-2.177-13.3,85.375-74.008,43.534-14.512-6.772Z" transform="translate(-62.12 -14.893)" fill="#eee"/>
        <path id="패스_7145" data-name="패스 7145" d="M3204.354,3833.484l28.055-.484,9.674,36.762H3216.93L3200,3836.386Z" transform="translate(-153.761 -22.121)" fill="#eee"/>
        <path id="패스_7146" data-name="패스 7146" d="M2909.106,3869.007s-11.609,89-4.771,266a3.948,3.948,0,0,0,3.85,3.935l180.413.928a3.871,3.871,0,0,0,3.89-3.814l.619-42.663c.136-30.695.185-61.389,1.2-92.067,1.966-59.231-3.923-116.22-5.414-129.446a2.42,2.42,0,0,0-3.033-2.06c-31.119,8.238-39.384-30.315-39.384-30.315" transform="translate(0 -25.477)" fill="#eee" stroke="#221f1f" stroke-miterlimit="10" stroke-width="0.5"/>
        <path id="패스_7147" data-name="패스 7147" d="M2918.5,3847.581l26.6,8.223,59.5-36.279L3002.908,3798l-77.152,14.27Z" transform="translate(-8.426 -4.051)" fill="#eee"/>
        <path id="패스_7148" data-name="패스 7148" d="M3008.377,3793.707c-15.04,1.671-60.994-2.185-72.981-3.531a3.54,3.54,0,0,0-3.811,2.577c-1.131,4.093-2.99,10.662-2.96,15.9a3.672,3.672,0,0,0,3.476,3.61l19.2,1.756" transform="translate(-13.653 0)" fill="#eee" stroke="#221f1f" stroke-miterlimit="10" stroke-width="0.5"/>
        <path id="패스_7149" data-name="패스 7149" d="M3089.687,3817.417l84.248-4.12a1.99,1.99,0,0,0,1.749-2.413,135.476,135.476,0,0,1-2.056-16.012,3.065,3.065,0,0,0-3.644-2.771c-21.8,4.312-79.33,2.582-79.33,2.582s-4.221-.469-2.041,21.684C3088.613,3816.365,3088.719,3817.417,3089.687,3817.417Z" transform="translate(-95.931 -0.975)" fill="#eee" stroke="#221f1f" stroke-miterlimit="10" stroke-width="0.5"/>
        <path id="패스_7150" data-name="패스 7150" d="M2975.5,3839.5s50.629,2.741,55.063,1.37" transform="translate(-37.855 -25.477)" fill="#eee" stroke="#221f1f" stroke-miterlimit="10" stroke-width="0.5"/>
        <path id="패스_7151" data-name="패스 7151" d="M3267.5,3835.5s6.772,31.925,9.674,33.376" transform="translate(-188.61 -23.412)" fill="#eee" stroke="#221f1f" stroke-miterlimit="10" stroke-width="0.5"/>
        <path id="패스_7152" data-name="패스 7152" d="M3089.5,3934.18s22.734,3.87,23.7-29.507l.484-61.673" transform="translate(-96.712 -27.284)" fill="#eee" stroke="#221f1f" stroke-miterlimit="10" stroke-width="0.5"/>
        <path id="패스_7153" data-name="패스 7153" d="M3089.734,4133.5c-.2-4.884-.282-176.931-.244-181.821l.484-107.682" transform="translate(-96.701 -27.8)" fill="#eee" stroke="#221f1f" stroke-miterlimit="10" stroke-width="0.5"/>
        <ellipse id="타원_122" data-name="타원 122" cx="3.87" cy="4.837" rx="3.87" ry="4.837" transform="translate(2998.109 3800.479)" fill="#eee" stroke="#221f1f" stroke-miterlimit="10" stroke-width="0.5"/>
        <path id="패스_7154" data-name="패스 7154" d="M2952.859,3840s-6.369,37.971-36.359,29.265" transform="translate(-7.394 -25.735)" fill="none" stroke="#221f1f" stroke-miterlimit="10" stroke-width="0.5"/>
        <path id="패스_7155" data-name="패스 7155" d="M2925.272,3834.5s-6.772,29.99-6.772,32.409" transform="translate(-8.426 -22.895)" fill="#eee" stroke="#221f1f" stroke-miterlimit="10" stroke-width="0.5"/>
        <path id="패스_7156" data-name="패스 7156" d="M2906.5,4444.717s177.281-2.176,188.165.968" transform="translate(-2.231 -337.564)" fill="#eee" stroke="#221f1f" stroke-miterlimit="10" stroke-width="0.5"/>
      </g>
      <g id="그룹_7829" data-name="그룹 7829" transform="translate(1282.127 846.368)">
        <line id="선_2687" data-name="선 2687" x2="155.38" transform="translate(-15820.826 6722.5)" fill="none" stroke="#343434" stroke-width="1"/>
        <line id="선_2690" data-name="선 2690" y2="5" transform="translate(-15821.127 6719.999)" fill="none" stroke="#343434" stroke-width="1"/>
        <line id="선_2693" data-name="선 2693" y2="5" transform="translate(-15665.446 6720)" fill="none" stroke="#343434" stroke-width="1"/>
      </g>
      <g id="그룹_7832" data-name="그룹 7832" transform="translate(1275.826 1238.633)">
        <line id="선_2685" data-name="선 2685" x2="188.192" transform="translate(-15830.826 6682.5)" fill="none" stroke="#343434" stroke-width="1"/>
        <line id="선_2688" data-name="선 2688" y2="5" transform="translate(-15830.599 6680)" fill="none" stroke="#343434" stroke-width="1"/>
        <line id="선_2691" data-name="선 2691" y2="5" transform="translate(-15642.635 6680)" fill="none" stroke="#343434" stroke-width="1"/>
      </g>
      <g id="그룹_7833" data-name="그룹 7833" transform="translate(7028.5 2423.506)">
        <line id="선_2795" data-name="선 2795" y2="329.583" transform="translate(-21615 5152.494)" fill="none" stroke="#343434" stroke-width="1"/>
        <line id="선_2794" data-name="선 2794" y2="5" transform="translate(-21612.5 5152.501) rotate(90)" fill="none" stroke="#343434" stroke-width="1"/>
        <line id="선_2796" data-name="선 2796" y2="5" transform="translate(-21612.5 5481.459) rotate(90)" fill="none" stroke="#343434" stroke-width="1"/>
      </g>
      <g id="그룹_7838" data-name="그룹 7838" transform="translate(1268.985 994.634)">
        <line id="선_2687-2" data-name="선 2687" x2="183.944" transform="translate(-15821.485 6722.5)" fill="none" stroke="#343434" stroke-width="1"/>
        <line id="선_2690-2" data-name="선 2690" y2="5" transform="translate(-15821.985 6720)" fill="none" stroke="#343434" stroke-width="1"/>
        <line id="선_2693-2" data-name="선 2693" y2="5" transform="translate(-15637.541 6720)" fill="none" stroke="#343434" stroke-width="1"/>
      </g>
    </g>
  </g>
</svg>
