<svg xmlns="http://www.w3.org/2000/svg" width="470" height="510" viewBox="0 0 470 510">
  <g id="그룹_7913" data-name="그룹 7913" transform="translate(-1330 -211)">
    <rect id="사각형_2270" data-name="사각형 2270" width="470" height="510" transform="translate(1330 211)" fill="none"/>
    <g id="그룹_7911" data-name="그룹 7911" transform="translate(-4.5 33)">
      <g id="그룹_7808" data-name="그룹 7808" transform="translate(19133.598 -2831)">
        <line id="선_2771" data-name="선 2771" y2="167.663" transform="translate(-17499.5 3110.5)" fill="none" stroke="#343434" stroke-width="1"/>
        <line id="선_2772" data-name="선 2772" y2="5" transform="translate(-17497 3110) rotate(90)" fill="none" stroke="#343434" stroke-width="1"/>
        <line id="선_2773" data-name="선 2773" y2="5" transform="translate(-17497 3277.663) rotate(90)" fill="none" stroke="#343434" stroke-width="1"/>
      </g>
      <g id="그룹_7910" data-name="그룹 7910" transform="translate(17479.469 8502.127) rotate(37)">
        <line id="선_2771-2" data-name="선 2771" y2="162.607" transform="translate(-17499.5 3110.5)" fill="none" stroke="#343434" stroke-width="1"/>
        <line id="선_2772-2" data-name="선 2772" y2="5" transform="translate(-17497 3110) rotate(90)" fill="none" stroke="#343434" stroke-width="1"/>
        <line id="선_2773-2" data-name="선 2773" y2="5" transform="translate(-17497 3272.607) rotate(90)" fill="none" stroke="#343434" stroke-width="1"/>
      </g>
      <g id="그룹_7909" data-name="그룹 7909" transform="translate(-2752.498 -3507.712)">
        <path id="패스_7223" data-name="패스 7223" d="M4295.883,3787.645s30.063,2.661,49.513-.884a3,3,0,0,1,3.447,2.207,8.291,8.291,0,0,1,.216,2l.554,13.848a13.834,13.834,0,0,0,.666,4.435,10.638,10.638,0,0,1,.462,1,22.2,22.2,0,0,1,1.365,8.69l5.539,88.626s.75,7.5,1.774,10.386c.14.394.283.786.412,1.184l5.291,16.4s3.6,11.909-3.046,20.495c0,0-6.713,7.832-11.275,12.932q-4.677,5.228-9,10.756c-9.116,11.659-26.655,34.7-31.571,45.492-.607,1.332-1.254,2.643-1.974,3.917-4.947,8.769-22.058,35.393-46.529,33.612a27.012,27.012,0,0,1-23.759-18.681,44.557,44.557,0,0,1-.958-22.741,57.1,57.1,0,0,1,7.1-18.17c5.594-9.325,18.479-30.595,28.288-45.184a101.045,101.045,0,0,0,16.961-65.408q-.06-.662-.127-1.333s-1.939-73.948,2.77-76.994c0,0,1.662-4.708.831-8.862-.593-2.964-.2-8.749.076-11.82.09-1.008.113-2.018.119-3.031C4293.037,3789.31,4293.439,3787.458,4295.883,3787.645Z" transform="translate(0 0)" fill="#eee" stroke="#221f1f" stroke-miterlimit="10" stroke-width="0.5"/>
        <path id="패스_7224" data-name="패스 7224" d="M4406.052,3863.609s38.759,6.469,58.984-3.274" transform="translate(-114.046 -49.376)" fill="none" stroke="#221f1f" stroke-miterlimit="10" stroke-width="0.5"/>
        <path id="패스_7225" data-name="패스 7225" d="M4240.283,4493.491s21.9.176,31.049,1.873a8.213,8.213,0,0,1,5.169,3.294c4.3,5.984,15.926,22.758,15.285,28.243" transform="translate(-2.873 -474.006)" fill="none" stroke="#221f1f" stroke-miterlimit="10" stroke-width="0.5"/>
      </g>
    </g>
  </g>
</svg>
