<svg xmlns="http://www.w3.org/2000/svg" width="320" height="339" viewBox="0 0 320 339">
  <g id="그룹_7976" data-name="그룹 7976" transform="translate(-20 -917)">
    <rect id="사각형_2301" data-name="사각형 2301" width="320" height="339" transform="translate(20 917)" fill="none"/>
    <g id="그룹_7974" data-name="그룹 7974" transform="translate(17873 3105)">
      <g id="그룹_7867" data-name="그룹 7867" transform="translate(-21758.5 -3956.055)">
        <path id="패스_7115" data-name="패스 7115" d="M4134.868,1950.167l27.466-6.606a.875.875,0,0,0,.672-.8c1.762-29.974-10.1-77.227-11.905-84.2-.115-.441-.222-.881-.329-1.324-.79-3.245-6.686-23.051-34.4-31.2,0,0-14.41-4.323-19.882-7.781a1.294,1.294,0,0,0-1.927.7c-1.449,4.526-6.948,15.972-25.5,15.972H4068c-18.547,0-24.046-11.446-25.5-15.972a1.294,1.294,0,0,0-1.927-.7c-5.471,3.457-19.882,7.781-19.882,7.781-27.712,8.151-33.608,27.957-34.4,31.2-.107.443-.215.883-.329,1.324-1.8,6.972-13.667,54.225-11.905,84.2a.875.875,0,0,0,.672.8l27.466,6.606" transform="translate(-0.25 0)" fill="#eee" stroke="#221f1f" stroke-miterlimit="10" stroke-width="0.5"/>
        <path id="패스_7116" data-name="패스 7116" d="M4183.217,2011.5l2.1,176.821a2.407,2.407,0,0,1-2.407,2.436H4052.989a2.407,2.407,0,0,1-2.407-2.436l2.1-176.821" transform="translate(-49.666 -124.642)" fill="#eee" stroke="#221f1f" stroke-miterlimit="10" stroke-width="0.5"/>
        <line id="선_2812" data-name="선 2812" x2="28.454" y2="7.113" transform="translate(3973.5 1938.074)" fill="#eee" stroke="#221f1f" stroke-miterlimit="10" stroke-width="0.5"/>
        <line id="선_2813" data-name="선 2813" x1="28.454" y2="7.113" transform="translate(4134.618 1938.074)" fill="#eee" stroke="#221f1f" stroke-miterlimit="10" stroke-width="0.5"/>
        <path id="패스_7117" data-name="패스 7117" d="M4215.9,1821.5c-1.619,5.056-8.189,19.918-28.9,19.918H4185.8c-20.716,0-27.682-14.862-29.3-19.918" transform="translate(-117.913 -2.219)" fill="none" stroke="#221f1f" stroke-miterlimit="10" stroke-width="0.5"/>
        <line id="선_2814" data-name="선 2814" y1="0.267" x2="134.71" transform="translate(4000.975 2062.025)" fill="#eee" stroke="#221f1f" stroke-miterlimit="10" stroke-width="0.5"/>
      </g>
      <g id="그룹_7829" data-name="그룹 7829" transform="translate(-1899.873 -8873)">
        <line id="선_2687" data-name="선 2687" x2="63.525" transform="translate(-15820.826 6722.5)" fill="none" stroke="#343434" stroke-width="1"/>
        <line id="선_2690" data-name="선 2690" y2="5" transform="translate(-15821.127 6719.999)" fill="none" stroke="#343434" stroke-width="1"/>
        <line id="선_2693" data-name="선 2693" y2="5" transform="translate(-15757.301 6720)" fill="none" stroke="#343434" stroke-width="1"/>
      </g>
      <g id="그룹_7832" data-name="그룹 7832" transform="translate(-1939.174 -8784.012)">
        <line id="선_2685" data-name="선 2685" x2="158.344" transform="translate(-15830.826 6682.5)" fill="none" stroke="#343434" stroke-width="1"/>
        <line id="선_2688" data-name="선 2688" y2="5" transform="translate(-15830.599 6680)" fill="none" stroke="#343434" stroke-width="1"/>
        <line id="선_2691" data-name="선 2691" y2="5" transform="translate(-15672.482 6680)" fill="none" stroke="#343434" stroke-width="1"/>
      </g>
      <g id="그룹_7833" data-name="그룹 7833" transform="translate(3817.5 -7290.494)">
        <line id="선_2795" data-name="선 2795" y2="247.605" transform="translate(-21615 5152.494)" fill="none" stroke="#343434" stroke-width="1"/>
        <line id="선_2794" data-name="선 2794" y2="5" transform="translate(-21612.5 5152.501) rotate(90)" fill="none" stroke="#343434" stroke-width="1"/>
        <line id="선_2796" data-name="선 2796" y2="5" transform="translate(-21612.5 5399.481) rotate(90)" fill="none" stroke="#343434" stroke-width="1"/>
      </g>
      <g id="그룹_7839" data-name="그룹 7839" transform="translate(-1004.408 1645.988)">
        <line id="선_2736" data-name="선 2736" y2="96.146" transform="translate(-16609.75 -3752)" fill="none" stroke="#343434" stroke-width="1"/>
        <line id="선_2737" data-name="선 2737" y2="5" transform="translate(-16607.25 -3752) rotate(90)" fill="none" stroke="#343434" stroke-width="1"/>
        <line id="선_2738" data-name="선 2738" y2="5" transform="translate(-16607.25 -3656.354) rotate(90)" fill="none" stroke="#343434" stroke-width="1"/>
      </g>
      <g id="그룹_7837" data-name="그룹 7837" transform="translate(-17946.105 -19197.535) rotate(-104)">
        <line id="선_2728" data-name="선 2728" y2="30.394" transform="translate(-16769 -3846.25)" fill="none" stroke="#343434" stroke-width="1"/>
        <line id="선_2730" data-name="선 2730" y2="5" transform="translate(-16766.5 -3846.25) rotate(90)" fill="none" stroke="#343434" stroke-width="1"/>
        <line id="선_2734" data-name="선 2734" y2="5" transform="translate(-16766.5 -3816.355) rotate(90)" fill="none" stroke="#343434" stroke-width="1"/>
      </g>
      <g id="그룹_7838" data-name="그룹 7838" transform="translate(-1931.015 -8774.581)">
        <line id="선_2687-2" data-name="선 2687" x2="124.816" transform="translate(-15821.485 6722.5)" fill="none" stroke="#343434" stroke-width="1"/>
        <line id="선_2690-2" data-name="선 2690" y2="5" transform="translate(-15821.985 6720)" fill="none" stroke="#343434" stroke-width="1"/>
        <line id="선_2693-2" data-name="선 2693" y2="5" transform="translate(-15696.669 6720)" fill="none" stroke="#343434" stroke-width="1"/>
      </g>
    </g>
  </g>
</svg>
