<svg xmlns="http://www.w3.org/2000/svg" width="470" height="510" viewBox="0 0 470 510">
  <g id="그룹_7870" data-name="그룹 7870" transform="translate(-1330 -211)">
    <rect id="사각형_2262" data-name="사각형 2262" width="470" height="510" transform="translate(1330 211)" fill="none"/>
    <g id="그룹_7868" data-name="그룹 7868" transform="translate(22374 -7141.99)">
      <g id="그룹_7867" data-name="그룹 7867" transform="translate(-24904.5 5615.945)">
        <path id="패스_7115" data-name="패스 7115" d="M4212.992,2014.281l40.795-9.812a1.3,1.3,0,0,0,1-1.186c2.617-44.52-15-114.705-17.683-125.061-.17-.655-.329-1.308-.489-1.966-1.173-4.819-9.93-34.237-51.092-46.344,0,0-21.4-6.421-29.53-11.557a1.922,1.922,0,0,0-2.862,1.04c-2.153,6.723-10.32,23.723-37.868,23.723h-1.585c-27.547,0-35.715-17-37.868-23.723a1.922,1.922,0,0,0-2.863-1.04c-8.126,5.135-29.53,11.557-29.53,11.557-41.162,12.107-49.918,41.525-51.092,46.344-.16.658-.319,1.311-.489,1.966-2.679,10.356-20.3,80.541-17.683,125.061a1.3,1.3,0,0,0,1,1.186l40.8,9.812" transform="translate(-0.183)" fill="#eee" stroke="#221f1f" stroke-miterlimit="10" stroke-width="0.5"/>
        <path id="패스_7116" data-name="패스 7116" d="M4247.586,2011.5l3.126,262.633a3.575,3.575,0,0,1-3.575,3.618h-192.98a3.575,3.575,0,0,1-3.575-3.618l3.126-262.633" transform="translate(-36.361 -91.252)" fill="#eee" stroke="#221f1f" stroke-miterlimit="10" stroke-width="0.5"/>
        <line id="선_2812" data-name="선 2812" x2="42.262" y2="10.566" transform="translate(3973.5 1996.32)" fill="#eee" stroke="#221f1f" stroke-miterlimit="10" stroke-width="0.5"/>
        <line id="선_2813" data-name="선 2813" x1="42.262" y2="10.566" transform="translate(4212.81 1996.32)" fill="#eee" stroke="#221f1f" stroke-miterlimit="10" stroke-width="0.5"/>
        <path id="패스_7117" data-name="패스 7117" d="M4244.723,1821.5c-2.405,7.51-12.164,29.583-42.933,29.583h-1.77c-30.769,0-41.116-22.073-43.521-29.583" transform="translate(-86.325 -1.625)" fill="none" stroke="#221f1f" stroke-miterlimit="10" stroke-width="0.5"/>
        <line id="선_2814" data-name="선 2814" y1="0.396" x2="200.085" transform="translate(4014.309 2180.424)" fill="#eee" stroke="#221f1f" stroke-miterlimit="10" stroke-width="0.5"/>
      </g>
      <g id="그룹_7829" data-name="그룹 7829" transform="translate(-5012.873 701.99)">
        <line id="선_2687" data-name="선 2687" x2="87.259" transform="translate(-15820.826 6722.5)" fill="none" stroke="#343434" stroke-width="1"/>
        <line id="선_2690" data-name="선 2690" y2="5" transform="translate(-15821.127 6719.999)" fill="none" stroke="#343434" stroke-width="1"/>
        <line id="선_2693" data-name="선 2693" y2="5" transform="translate(-15733.567 6720)" fill="none" stroke="#343434" stroke-width="1"/>
      </g>
      <g id="그룹_7832" data-name="그룹 7832" transform="translate(-5071.174 796.989)">
        <line id="선_2685" data-name="선 2685" x2="224.848" transform="translate(-15830.826 6682.5)" fill="none" stroke="#343434" stroke-width="1"/>
        <line id="선_2688" data-name="선 2688" y2="5" transform="translate(-15830.599 6680)" fill="none" stroke="#343434" stroke-width="1"/>
        <line id="선_2691" data-name="선 2691" y2="5" transform="translate(-15605.979 6680)" fill="none" stroke="#343434" stroke-width="1"/>
      </g>
      <g id="그룹_7833" data-name="그룹 7833" transform="translate(670.5 2289.506)">
        <line id="선_2795" data-name="선 2795" y2="359.455" transform="translate(-21615 5152.494)" fill="none" stroke="#343434" stroke-width="1"/>
        <line id="선_2794" data-name="선 2794" y2="5" transform="translate(-21612.5 5152.501) rotate(90)" fill="none" stroke="#343434" stroke-width="1"/>
        <line id="선_2796" data-name="선 2796" y2="5" transform="translate(-21612.5 5511.331) rotate(90)" fill="none" stroke="#343434" stroke-width="1"/>
      </g>
      <g id="그룹_7839" data-name="그룹 7839" transform="translate(-4075.752 11221)">
        <line id="선_2736" data-name="선 2736" y2="156.957" transform="translate(-16609.75 -3752)" fill="none" stroke="#343434" stroke-width="1"/>
        <line id="선_2737" data-name="선 2737" y2="5" transform="translate(-16607.25 -3752) rotate(90)" fill="none" stroke="#343434" stroke-width="1"/>
        <line id="선_2738" data-name="선 2738" y2="5" transform="translate(-16607.25 -3595.542) rotate(90)" fill="none" stroke="#343434" stroke-width="1"/>
      </g>
      <g id="그룹_7837" data-name="그룹 7837" transform="matrix(-0.208, -0.978, 0.978, -0.208, -20413.801, -9556.282)">
        <line id="선_2728" data-name="선 2728" y2="45.392" transform="translate(-16769 -3846.25)" fill="none" stroke="#343434" stroke-width="1"/>
        <line id="선_2730" data-name="선 2730" y2="5" transform="translate(-16766.5 -3846.25) rotate(90)" fill="none" stroke="#343434" stroke-width="1"/>
        <line id="선_2734" data-name="선 2734" y2="5" transform="translate(-16766.5 -3801.358) rotate(90)" fill="none" stroke="#343434" stroke-width="1"/>
      </g>
      <g id="그룹_7838" data-name="그룹 7838" transform="translate(-5062.015 846.99)">
        <line id="선_2687-2" data-name="선 2687" x2="187.678" transform="translate(-15821.485 6722.5)" fill="none" stroke="#343434" stroke-width="1"/>
        <line id="선_2690-2" data-name="선 2690" y2="5" transform="translate(-15821.985 6720)" fill="none" stroke="#343434" stroke-width="1"/>
        <line id="선_2693-2" data-name="선 2693" y2="5" transform="translate(-15633.808 6720)" fill="none" stroke="#343434" stroke-width="1"/>
      </g>
    </g>
  </g>
</svg>
