<svg xmlns="http://www.w3.org/2000/svg" width="470" height="510" viewBox="0 0 470 510">
  <g id="그룹_7905" data-name="그룹 7905" transform="translate(-1330 -211)">
    <rect id="사각형_2270" data-name="사각형 2270" width="470" height="510" transform="translate(1330 211)" fill="none"/>
    <g id="그룹_7903" data-name="그룹 7903" transform="translate(20672.998 -11815.027)">
      <g id="그룹_7902" data-name="그룹 7902" transform="translate(-25856.586 8296.034)">
        <path id="패스_7205" data-name="패스 7205" d="M6817.108,3925.349c-3.5-17.006-16.546-101.506,12.473-113.422.234-.1.484-.146.724-.227,3.933-1.333,47.261-10.764,45.26,109.172a2.588,2.588,0,0,1-2.285,2.527h0a5.018,5.018,0,0,1-5.594-5.229c.664-13.6,1.25-55.576-8.189-79.491,0,0-5.278-12.41-13.81-18.22a14.231,14.231,0,0,0-20.438,5.053c-5.558,10.276-13.022,36.387-.392,95.817a5.411,5.411,0,0,1-4.019,6.388h0A3.074,3.074,0,0,1,6817.108,3925.349Z" transform="translate(-88.623 0)" fill="#eee" stroke="#221f1f" stroke-miterlimit="10" stroke-width="0.5"/>
        <path id="패스_7206" data-name="패스 7206" d="M6728.04,4075.979l112.243-11,2.708,2.754,16.386.161-103.25,17.541-12.975.232Z" transform="translate(-33.887 -167.278)" fill="#eee"/>
        <path id="패스_7207" data-name="패스 7207" d="M6728.04,4073.1l118.408-12.495-3.1,4.341,15.94.4" transform="translate(-33.887 -164.398)" fill="#eee" stroke="#221f1f" stroke-miterlimit="10" stroke-width="0.5"/>
        <path id="패스_7208" data-name="패스 7208" d="M6932.487,4079.284" transform="translate(-168.539 -176.701)" fill="none" stroke="red" stroke-miterlimit="10" stroke-width="1"/>
        <path id="패스_7209" data-name="패스 7209" d="M6809.667,4073.171l26.309-4.154a5.658,5.658,0,0,1,6.454,5.358l9.243,182.119a11.778,11.778,0,0,1-8.446,11.806l-112.96,31.928a19.557,19.557,0,0,1-11.72-.218l-34.851-13.9a10.413,10.413,0,0,1-7.083-10.582l14.839-194.411a2.539,2.539,0,0,1,2.69-2.361l37.379,2.328-16.3,6.357Z" transform="translate(0 -169.901)" fill="#eee" stroke="#221f1f" stroke-miterlimit="10" stroke-width="0.5"/>
        <line id="선_2822" data-name="선 2822" x2="9.145" y2="213.662" transform="translate(6715.224 3917.543)" fill="#eee" stroke="#221f1f" stroke-miterlimit="10" stroke-width="0.5"/>
        <path id="패스_7210" data-name="패스 7210" d="M6857.11,3935.349c-3.505-17.006-16.548-101.506,12.472-113.422.235-.1.485-.146.724-.227,3.933-1.334,47.262-10.764,45.26,109.172a2.587,2.587,0,0,1-2.284,2.527h0a5.018,5.018,0,0,1-5.593-5.229c.663-13.6,1.25-55.576-8.19-79.491,0,0-5.278-12.41-13.809-18.22a14.231,14.231,0,0,0-20.438,5.054c-5.558,10.275-13.022,36.387-.393,95.816a5.41,5.41,0,0,1-4.018,6.388h0A3.073,3.073,0,0,1,6857.11,3935.349Z" transform="translate(-114.968 -6.586)" fill="#eee" stroke="#221f1f" stroke-miterlimit="10" stroke-width="0.5"/>
      </g>
      <g id="그룹_7806" data-name="그룹 7806" transform="translate(-18995.658 12410.182) rotate(162)">
        <line id="선_2774" data-name="선 2774" x2="134.499" transform="translate(0 2.5)" fill="none" stroke="#343434" stroke-width="1"/>
        <line id="선_2775" data-name="선 2775" y1="5" transform="translate(0.174 0)" fill="none" stroke="#343434" stroke-width="1"/>
        <line id="선_2776" data-name="선 2776" y1="5" transform="translate(134.722 0)" fill="none" stroke="#343434" stroke-width="1"/>
      </g>
      <g id="그룹_7898" data-name="그룹 7898" transform="matrix(-0.891, -0.454, 0.454, -0.891, -19138.992, 12454.765)">
        <line id="선_2774-2" data-name="선 2774" x2="62.515" transform="translate(0 2.5)" fill="none" stroke="#343434" stroke-width="1"/>
        <line id="선_2775-2" data-name="선 2775" y1="5" transform="translate(0.174 0)" fill="none" stroke="#343434" stroke-width="1"/>
        <line id="선_2776-2" data-name="선 2776" y1="5" transform="translate(62.737 0)" fill="none" stroke="#343434" stroke-width="1"/>
      </g>
      <g id="그룹_7808" data-name="그룹 7808" transform="translate(-1700.998 9093)">
        <line id="선_2771" data-name="선 2771" y2="203.421" transform="translate(-17499.5 3110.5)" fill="none" stroke="#343434" stroke-width="1"/>
        <line id="선_2772" data-name="선 2772" y2="5" transform="translate(-17497 3110) rotate(90)" fill="none" stroke="#343434" stroke-width="1"/>
        <line id="선_2773" data-name="선 2773" y2="5" transform="translate(-17497 3313.421) rotate(90)" fill="none" stroke="#343434" stroke-width="1"/>
      </g>
    </g>
  </g>
</svg>
