<svg xmlns="http://www.w3.org/2000/svg" width="320" height="339" viewBox="0 0 320 339">
  <g id="그룹_8008" data-name="그룹 8008" transform="translate(-20 -917)">
    <rect id="사각형_2301" data-name="사각형 2301" width="320" height="339" transform="translate(20 917)" fill="none"/>
    <g id="그룹_8006" data-name="그룹 8006" transform="translate(18080 -3279.398)">
      <g id="그룹_7902" data-name="그룹 7902" transform="translate(-24633.588 411.406)">
        <path id="패스_7205" data-name="패스 7205" d="M6815.482,3894.146c-2.549-12.366-12.032-73.809,9.069-82.473.17-.07.352-.106.527-.165,2.859-.97,34.365-7.827,32.911,79.383a1.883,1.883,0,0,1-1.662,1.837h0a3.649,3.649,0,0,1-4.067-3.8c.482-9.889.908-40.412-5.955-57.8,0,0-3.838-9.024-10.042-13.248a10.348,10.348,0,0,0-14.861,3.675c-4.042,7.472-9.469,26.458-.285,69.672a3.934,3.934,0,0,1-2.922,4.645h0A2.235,2.235,0,0,1,6815.482,3894.146Z" transform="translate(-101.157 0)" fill="#eee" stroke="#221f1f" stroke-miterlimit="10" stroke-width="0.5"/>
        <path id="패스_7206" data-name="패스 7206" d="M6728.04,4072.977l81.616-8,1.969,2,11.915.117-75.077,12.755-9.435.169Z" transform="translate(-38.68 -190.937)" fill="#eee"/>
        <path id="패스_7207" data-name="패스 7207" d="M6728.04,4069.69l86.1-9.085-2.253,3.157,11.59.292" transform="translate(-38.68 -187.65)" fill="#eee" stroke="#221f1f" stroke-miterlimit="10" stroke-width="0.5"/>
        <path id="패스_7208" data-name="패스 7208" d="M6932.487,4079.284" transform="translate(-192.376 -201.692)" fill="none" stroke="red" stroke-miterlimit="10" stroke-width="1"/>
        <path id="패스_7209" data-name="패스 7209" d="M6773.355,4072.022l19.13-3.02a4.114,4.114,0,0,1,4.693,3.9l6.72,132.426a8.564,8.564,0,0,1-6.141,8.584l-82.138,23.216a14.224,14.224,0,0,1-8.522-.159l-25.341-10.105a7.572,7.572,0,0,1-5.15-7.694L6687.4,4077.8a1.845,1.845,0,0,1,1.956-1.717l27.179,1.693-11.85,4.623Z" transform="translate(0 -193.931)" fill="#eee" stroke="#221f1f" stroke-miterlimit="10" stroke-width="0.5"/>
        <line id="선_2822" data-name="선 2822" x2="6.649" y2="155.361" transform="translate(6704.682 3888.469)" fill="#eee" stroke="#221f1f" stroke-miterlimit="10" stroke-width="0.5"/>
        <path id="패스_7210" data-name="패스 7210" d="M6855.483,3904.145c-2.549-12.366-12.032-73.808,9.068-82.473.171-.07.353-.107.526-.165,2.86-.97,34.366-7.827,32.911,79.382a1.882,1.882,0,0,1-1.661,1.838h0a3.649,3.649,0,0,1-4.067-3.8c.482-9.889.909-40.411-5.955-57.8,0,0-3.837-9.024-10.041-13.249a10.349,10.349,0,0,0-14.862,3.675c-4.041,7.472-9.469,26.458-.285,69.671a3.934,3.934,0,0,1-2.922,4.645h0A2.235,2.235,0,0,1,6855.483,3904.145Z" transform="translate(-131.228 -7.518)" fill="#eee" stroke="#221f1f" stroke-miterlimit="10" stroke-width="0.5"/>
      </g>
      <g id="그룹_7806" data-name="그룹 7806" transform="translate(-17826.039 4438.484) rotate(162)">
        <line id="선_2774" data-name="선 2774" x2="97.649" transform="translate(0 2.5)" fill="none" stroke="#343434" stroke-width="1"/>
        <line id="선_2775" data-name="선 2775" y1="5" transform="translate(0.174 0)" fill="none" stroke="#343434" stroke-width="1"/>
        <line id="선_2776" data-name="선 2776" y1="5" transform="translate(97.872 0)" fill="none" stroke="#343434" stroke-width="1"/>
      </g>
      <g id="그룹_7898" data-name="그룹 7898" transform="matrix(-0.891, -0.454, 0.454, -0.891, -17929.367, 4470.291)">
        <line id="선_2774-2" data-name="선 2774" x2="39.662" transform="translate(0 2.5)" fill="none" stroke="#343434" stroke-width="1"/>
        <line id="선_2775-2" data-name="선 2775" y1="5" transform="translate(0.174 0)" fill="none" stroke="#343434" stroke-width="1"/>
        <line id="선_2776-2" data-name="선 2776" y1="5" transform="translate(39.884 0)" fill="none" stroke="#343434" stroke-width="1"/>
      </g>
      <g id="그룹_7808" data-name="그룹 7808" transform="translate(-468 1183)">
        <line id="선_2771" data-name="선 2771" y2="147.971" transform="translate(-17499.5 3110.5)" fill="none" stroke="#343434" stroke-width="1"/>
        <line id="선_2772" data-name="선 2772" y2="5" transform="translate(-17497 3110) rotate(90)" fill="none" stroke="#343434" stroke-width="1"/>
        <line id="선_2773" data-name="선 2773" y2="5" transform="translate(-17497 3257.971) rotate(90)" fill="none" stroke="#343434" stroke-width="1"/>
      </g>
    </g>
  </g>
</svg>
