<svg xmlns="http://www.w3.org/2000/svg" width="470" height="510" viewBox="0 0 470 510">
  <g id="그룹_7874" data-name="그룹 7874" transform="translate(-1330 -211)">
    <rect id="사각형_2262" data-name="사각형 2262" width="470" height="510" transform="translate(1330 211)" fill="none"/>
    <g id="그룹_7872" data-name="그룹 7872" transform="translate(20894 -7277.597)">
      <g id="그룹_7871" data-name="그룹 7871" transform="translate(-22474.68 5705.442)">
        <path id="패스_7118" data-name="패스 7118" d="M3053.023,1957.066l-3.888,3.888,26.179,108.6,2.074-76.2Z" transform="translate(-0.195 -38.263)" fill="#eee"/>
        <path id="패스_7119" data-name="패스 7119" d="M3447.03,1960.7l4.147,2.333-24.883,113.529-3.629-79.574Z" transform="translate(-160.664 -39.824)" fill="#eee"/>
        <path id="패스_7120" data-name="패스 7120" d="M3265.889,2025.593l-5.184,205.026c-95.386-9.331-190.253,0-190.253,0l4.1-202.161a35.917,35.917,0,0,0-.212-4.679h0c-5.962-63.5-25.661-101.865-25.661-101.865,4.927-23.36,21.773-30.067,40.726-39.245.018-.009.035-.019.053-.029a39.18,39.18,0,0,1,4.8-2.206l30.623-10.878,7.258-1.3s-1.9,58.036,31,79.45a12.6,12.6,0,0,0,11.38.391c11.29-6.172,35.862-26.334,33.825-80.1l9.331,2.333,28.131,10.67a38.486,38.486,0,0,1,4.723,2.168l.053.029c20.968,11.415,35.3,15.96,40.253,39.314,0,0-24.949,47.611-24.949,103.08" fill="#eee" stroke="#221f1f" stroke-miterlimit="10" stroke-width="0.5"/>
        <path id="패스_7121" data-name="패스 7121" d="M3417.667,2200.179" transform="translate(-158.517 -142.704)" fill="#eee" stroke="#221f1f" stroke-miterlimit="10" stroke-width="0.5"/>
        <path id="패스_7122" data-name="패스 7122" d="M3093.213,2195.635" transform="translate(-19.131 -140.752)" fill="#eee" stroke="#221f1f" stroke-miterlimit="10" stroke-width="0.5"/>
        <path id="패스_7123" data-name="패스 7123" d="M3182.279,1870.727" transform="translate(-57.394 -1.172)" fill="none" stroke="#221f1f" stroke-miterlimit="10" stroke-width="0.5"/>
        <path id="패스_7124" data-name="패스 7124" d="M3344.96,1872.09" transform="translate(-127.282 -1.757)" fill="none" stroke="#221f1f" stroke-miterlimit="10" stroke-width="0.5"/>
        <path id="패스_7125" data-name="패스 7125" d="M3095.94,2032.953" transform="translate(-20.303 -70.864)" fill="#eee" stroke="#221f1f" stroke-miterlimit="10" stroke-width="0.5"/>
        <path id="패스_7126" data-name="패스 7126" d="M3417.368,2190.336" transform="translate(-158.389 -138.476)" fill="none" stroke="#221f1f" stroke-miterlimit="10" stroke-width="0.5"/>
        <path id="패스_7127" data-name="패스 7127" d="M3086.851,2490.165s101.606-13.823,190.2,0" transform="translate(-16.398 -264.643)" fill="none" stroke="#221f1f" stroke-miterlimit="10" stroke-width="0.5"/>
        <path id="패스_7128" data-name="패스 7128" d="M3453.975,1963.428s-15.812,75.427-25.4,115.084" transform="translate(-163.202 -40.996)" fill="#eee" stroke="#221f1f" stroke-miterlimit="10" stroke-width="0.5"/>
        <path id="패스_7129" data-name="패스 7129" d="M3048.68,1962.519s2.592,30.067,25.92,106.79" transform="translate(0 -40.605)" fill="#eee" stroke="#221f1f" stroke-miterlimit="10" stroke-width="0.5"/>
        <path id="패스_7130" data-name="패스 7130" d="M3182.257,1870.727s-2.41,63.472,36.933,86.694c3.541,2.09,9.9,2.261,13.609.423,13.5-6.692,42.891-28.555,40.456-86.858" transform="translate(-57.372 -1.172)" fill="none" stroke="#221f1f" stroke-miterlimit="10" stroke-width="0.5"/>
      </g>
      <g id="그룹_7829" data-name="그룹 7829" transform="translate(-3526.873 838.597)">
        <line id="선_2687" data-name="선 2687" x2="87.259" transform="translate(-15820.826 6722.5)" fill="none" stroke="#343434" stroke-width="1"/>
        <line id="선_2690" data-name="선 2690" y2="5" transform="translate(-15821.127 6719.999)" fill="none" stroke="#343434" stroke-width="1"/>
        <line id="선_2693" data-name="선 2693" y2="5" transform="translate(-15733.567 6720)" fill="none" stroke="#343434" stroke-width="1"/>
      </g>
      <g id="그룹_7832" data-name="그룹 7832" transform="translate(-3590.174 943.596)">
        <line id="선_2685" data-name="선 2685" x2="233.752" transform="translate(-15830.826 6682.5)" fill="none" stroke="#343434" stroke-width="1"/>
        <line id="선_2688" data-name="선 2688" y2="5" transform="translate(-15830.599 6680)" fill="none" stroke="#343434" stroke-width="1"/>
        <line id="선_2691" data-name="선 2691" y2="5" transform="translate(-15597.074 6680)" fill="none" stroke="#343434" stroke-width="1"/>
      </g>
      <g id="그룹_7833" data-name="그룹 7833" transform="translate(2169.5 2424.113)">
        <line id="선_2795" data-name="선 2795" y2="359.455" transform="translate(-21615 5152.494)" fill="none" stroke="#343434" stroke-width="1"/>
        <line id="선_2794" data-name="선 2794" y2="5" transform="translate(-21612.5 5152.501) rotate(90)" fill="none" stroke="#343434" stroke-width="1"/>
        <line id="선_2796" data-name="선 2796" y2="5" transform="translate(-21612.5 5511.331) rotate(90)" fill="none" stroke="#343434" stroke-width="1"/>
      </g>
      <g id="그룹_7838" data-name="그룹 7838" transform="translate(-3575.015 1011.597)">
        <line id="선_2687-2" data-name="선 2687" x2="183.711" transform="translate(-15821.485 6722.5)" fill="none" stroke="#343434" stroke-width="1"/>
        <line id="선_2690-2" data-name="선 2690" y2="5" transform="translate(-15821.985 6720)" fill="none" stroke="#343434" stroke-width="1"/>
        <line id="선_2693-2" data-name="선 2693" y2="5" transform="translate(-15637.774 6720)" fill="none" stroke="#343434" stroke-width="1"/>
      </g>
    </g>
  </g>
</svg>
