<svg xmlns="http://www.w3.org/2000/svg" width="320" height="339" viewBox="0 0 320 339">
  <g id="그룹_7979" data-name="그룹 7979" transform="translate(-20 -917)">
    <rect id="사각형_2301" data-name="사각형 2301" width="320" height="339" transform="translate(20 917)" fill="none"/>
    <g id="그룹_7977" data-name="그룹 7977" transform="translate(14644 2610)">
      <g id="그룹_7871" data-name="그룹 7871" transform="translate(-17591.533 -3509.153)">
        <path id="패스_7118" data-name="패스 7118" d="M3051.7,1957.065l-2.564,2.564,17.266,71.626,1.368-50.258Z" transform="translate(-0.284 -55.56)" fill="#eee"/>
        <path id="패스_7119" data-name="패스 7119" d="M3438.735,1960.7l2.735,1.539-16.411,74.874-2.393-52.48Z" transform="translate(-233.297 -57.828)" fill="#eee"/>
        <path id="패스_7120" data-name="패스 7120" d="M3191.933,1971.935l-3.418,135.218c-62.909-6.154-125.475,0-125.475,0l2.7-133.329a23.732,23.732,0,0,0-.14-3.086h0c-3.932-41.882-16.924-67.182-16.924-67.182,3.25-15.406,14.36-19.83,26.859-25.883l.035-.019a25.848,25.848,0,0,1,3.168-1.455l20.2-7.174,4.787-.855s-1.25,38.276,20.445,52.4a8.311,8.311,0,0,0,7.5.258c7.446-4.07,23.652-17.367,22.308-52.827l6.154,1.539,18.553,7.037a25.383,25.383,0,0,1,3.115,1.43l.035.019c13.829,7.529,23.278,10.526,26.548,25.928,0,0-16.455,31.4-16.455,67.983" fill="#eee" stroke="#221f1f" stroke-miterlimit="10" stroke-width="0.5"/>
        <path id="패스_7121" data-name="패스 7121" d="M3417.667,2200.179" transform="translate(-230.179 -207.217)" fill="#eee" stroke="#221f1f" stroke-miterlimit="10" stroke-width="0.5"/>
        <path id="패스_7122" data-name="패스 7122" d="M3093.213,2195.635" transform="translate(-27.78 -204.383)" fill="#eee" stroke="#221f1f" stroke-miterlimit="10" stroke-width="0.5"/>
        <path id="패스_7123" data-name="패스 7123" d="M3182.279,1870.727" transform="translate(-83.341 -1.701)" fill="none" stroke="#221f1f" stroke-miterlimit="10" stroke-width="0.5"/>
        <path id="패스_7124" data-name="패스 7124" d="M3344.96,1872.09" transform="translate(-184.823 -2.551)" fill="none" stroke="#221f1f" stroke-miterlimit="10" stroke-width="0.5"/>
        <path id="패스_7125" data-name="패스 7125" d="M3095.94,2032.953" transform="translate(-29.481 -102.9)" fill="#eee" stroke="#221f1f" stroke-miterlimit="10" stroke-width="0.5"/>
        <path id="패스_7126" data-name="패스 7126" d="M3417.368,2190.336" transform="translate(-229.992 -201.077)" fill="none" stroke="#221f1f" stroke-miterlimit="10" stroke-width="0.5"/>
        <path id="패스_7127" data-name="패스 7127" d="M3086.851,2488.073s67.011-9.117,125.442,0" transform="translate(-23.812 -384.281)" fill="none" stroke="#221f1f" stroke-miterlimit="10" stroke-width="0.5"/>
        <path id="패스_7128" data-name="패스 7128" d="M3445.326,1963.428s-10.428,49.745-16.753,75.9" transform="translate(-236.982 -59.529)" fill="#eee" stroke="#221f1f" stroke-miterlimit="10" stroke-width="0.5"/>
        <path id="패스_7129" data-name="패스 7129" d="M3048.68,1962.519s1.71,19.83,17.095,70.43" transform="translate(0 -58.962)" fill="#eee" stroke="#221f1f" stroke-miterlimit="10" stroke-width="0.5"/>
        <path id="패스_7130" data-name="패스 7130" d="M3182.247,1870.727s-1.589,41.861,24.358,57.176a10.855,10.855,0,0,0,8.975.279c8.906-4.414,28.288-18.833,26.681-57.284" transform="translate(-83.309 -1.701)" fill="none" stroke="#221f1f" stroke-miterlimit="10" stroke-width="0.5"/>
      </g>
      <g id="그룹_7829" data-name="그룹 7829" transform="translate(1329.017 -8377)">
        <line id="선_2687" data-name="선 2687" x2="59.894" transform="translate(-15820.826 6722.5)" fill="none" stroke="#343434" stroke-width="1"/>
        <line id="선_2690" data-name="선 2690" y2="5" transform="translate(-15821.017 6720)" fill="none" stroke="#343434" stroke-width="1"/>
        <line id="선_2693" data-name="선 2693" y2="5" transform="translate(-15760.933 6720)" fill="none" stroke="#343434" stroke-width="1"/>
      </g>
      <g id="그룹_7832" data-name="그룹 7832" transform="translate(1290.826 -8290.001)">
        <line id="선_2685" data-name="선 2685" x2="152.862" transform="translate(-15830.826 6682.5)" fill="none" stroke="#343434" stroke-width="1"/>
        <line id="선_2688" data-name="선 2688" y2="5" transform="translate(-15830.599 6680)" fill="none" stroke="#343434" stroke-width="1"/>
        <line id="선_2691" data-name="선 2691" y2="5" transform="translate(-15677.964 6680)" fill="none" stroke="#343434" stroke-width="1"/>
      </g>
      <g id="그룹_7833" data-name="그룹 7833" transform="translate(7059.5 -6793.494)">
        <line id="선_2795" data-name="선 2795" y2="239.153" transform="translate(-21615 5152.494)" fill="none" stroke="#343434" stroke-width="1"/>
        <line id="선_2794" data-name="선 2794" y2="5" transform="translate(-21612.5 5152.501) rotate(90)" fill="none" stroke="#343434" stroke-width="1"/>
        <line id="선_2796" data-name="선 2796" y2="5" transform="translate(-21612.5 5391.029) rotate(90)" fill="none" stroke="#343434" stroke-width="1"/>
      </g>
      <g id="그룹_7838" data-name="그룹 7838" transform="translate(1298.985 -8258)">
        <line id="선_2687-2" data-name="선 2687" x2="120.54" transform="translate(-15821.485 6722.5)" fill="none" stroke="#343434" stroke-width="1"/>
        <line id="선_2690-2" data-name="선 2690" y2="5" transform="translate(-15821.985 6720)" fill="none" stroke="#343434" stroke-width="1"/>
        <line id="선_2693-2" data-name="선 2693" y2="5" transform="translate(-15700.945 6720)" fill="none" stroke="#343434" stroke-width="1"/>
      </g>
    </g>
  </g>
</svg>
