<svg xmlns="http://www.w3.org/2000/svg" width="16" height="13.808" viewBox="0 0 16 13.808">
    <path d="M265.13 68.913q-.108 2.332-3.263 6.383-3.262 4.231-5.522 4.231-1.4 0-2.366-2.582l-1.292-4.733q-.716-2.582-1.542-2.582a4.958 4.958 0 0 0-1.256.754l-.752-.969q1.174-1.029 2.33-2.08a5.3 5.3 0 0 1 2.367-1.434q1.864-.179 2.294 2.546.466 2.941.646 3.658.537 2.438 1.184 2.438.5 0 1.506-1.578a6.214 6.214 0 0 0 1.076-2.4q.142-1.361-1.076-1.362a3.111 3.111 0 0 0-1.184.25q1.185-3.836 4.518-3.728 2.475.071 2.331 3.19z" transform="translate(-249.138 -65.72)" style="fill:#fff;opacity:.5"/>
</svg>
