<svg xmlns="http://www.w3.org/2000/svg" width="19.999" height="16.099" viewBox="0 0 19.999 16.099">
    <g style="opacity:.5">
        <path data-name="패스 6754" d="M288.862 69.925c.085 1.115-.1 2.449-.839 2.515-1.2.107-.574-1.215-.559-2.012a3.888 3.888 0 0 0-3.857-3.912c-.547 0-1.817.37-1.622-.784.088-.508.519-.5.95-.558a5.1 5.1 0 0 1 5.927 4.751z" transform="translate(-268.881 -65.12)" style="fill:#fff"/>
        <path data-name="패스 6755" d="M287.858 71.886c1.4.763 3.072 1.143 2.8 3.411a4.343 4.343 0 0 1-.726 1.732c-2.36 3.3-9.477 4.69-13.92 2.179-1.491-.842-3.032-2.074-2.794-4.529.2-2.112 1.625-3.748 3.019-5.142a9.808 9.808 0 0 1 4.639-2.852c2.071-.52 2.682 1.206 2.124 2.907 1.2-.08 3.74-1.418 4.863-.112a2.548 2.548 0 0 1-.005 2.406zm-1.509 5.367a3.37 3.37 0 0 0 .893-2.181c0-2.777-3.5-3.8-6.26-3.578a7.775 7.775 0 0 0-3.578 1.063 4.118 4.118 0 0 0-2.124 2.572c-.565 2.788 2.469 4.1 4.7 4.249 2.57.17 5.146-.738 6.369-2.126z" transform="translate(-273.189 -64.397)" style="fill:#fff"/>
        <path data-name="패스 6756" d="M285.914 69.027c.118.851-.127 1.589-.614 1.62-.815.055-.51-.558-.561-1.285a1.521 1.521 0 0 0-.726-1.118c-.637-.3-1.622.216-1.622-.671 0-.659.572-.59.9-.616a2.406 2.406 0 0 1 2.623 2.07z" transform="translate(-268.673 -64.222)" style="fill:#fff"/>
        <path data-name="패스 6757" d="M282.449 72.671c1.191 3.6-5.015 5.273-6.149 2.179-.759-2.068 1.064-3.713 2.962-3.913a2.88 2.88 0 0 1 3.187 1.734zm-2.852.614a.42.42 0 0 0 .783-.222c-.06-.401-.787-.343-.78.222zm-1.006 1.9c1.044-.249 1.184-2.214-.391-1.846-1.323.311-1.067 2.194.391 1.848z" transform="translate(-271.748 -62.276)" style="fill:#fff"/>
    </g>
</svg>
