<svg xmlns="http://www.w3.org/2000/svg" width="16" height="17" viewBox="0 0 16 17">
  <defs>
    <style>
      .cls-1 {
        fill: #fff;
      }

      .cls-2 {
        fill: #343434;
      }
    </style>
  </defs>
  <g id="그룹_7915" data-name="그룹 7915" transform="translate(-638 -225)">
    <ellipse id="타원_112" data-name="타원 112" class="cls-1" cx="8" cy="4.5" rx="8" ry="4.5" transform="translate(638 233)"/>
    <path id="타원_112_-_윤곽선" data-name="타원 112 - 윤곽선" class="cls-2" d="M7.727.7A10.926,10.926,0,0,0,2.6,1.851C1.394,2.509.7,3.37.7,4.215s.691,1.706,1.9,2.364A10.926,10.926,0,0,0,7.727,7.727a10.926,10.926,0,0,0,5.127-1.149c1.206-.658,1.9-1.519,1.9-2.364s-.691-1.706-1.9-2.364A10.926,10.926,0,0,0,7.727.7m0-.7c4.267,0,7.727,1.887,7.727,4.215S11.994,8.429,7.727,8.429,0,6.542,0,4.215,3.459,0,7.727,0Z" transform="translate(638 233.429)"/>
    <ellipse id="타원_111" data-name="타원 111" class="cls-1" cx="8" cy="4" rx="8" ry="4" transform="translate(638 231)"/>
    <path id="타원_111_-_윤곽선" data-name="타원 111 - 윤곽선" class="cls-2" d="M7.727.7A10.926,10.926,0,0,0,2.6,1.851C1.394,2.509.7,3.37.7,4.215s.691,1.706,1.9,2.364A10.926,10.926,0,0,0,7.727,7.727a10.926,10.926,0,0,0,5.127-1.149c1.206-.658,1.9-1.519,1.9-2.364s-.691-1.706-1.9-2.364A10.926,10.926,0,0,0,7.727.7m0-.7c4.267,0,7.727,1.887,7.727,4.215S11.994,8.429,7.727,8.429,0,6.542,0,4.215,3.459,0,7.727,0Z" transform="translate(638 230.619)"/>
    <ellipse id="타원_110" data-name="타원 110" class="cls-1" cx="8" cy="4" rx="8" ry="4" transform="translate(638 228)"/>
    <path id="타원_110_-_윤곽선" data-name="타원 110 - 윤곽선" class="cls-2" d="M7.727.7A10.926,10.926,0,0,0,2.6,1.851C1.394,2.509.7,3.37.7,4.215s.691,1.706,1.9,2.364A10.926,10.926,0,0,0,7.727,7.727a10.926,10.926,0,0,0,5.127-1.149c1.206-.658,1.9-1.519,1.9-2.364s-.691-1.706-1.9-2.364A10.926,10.926,0,0,0,7.727.7m0-.7c4.267,0,7.727,1.887,7.727,4.215S11.994,8.429,7.727,8.429,0,6.542,0,4.215,3.459,0,7.727,0Z" transform="translate(638 227.81)"/>
    <ellipse id="타원_109" data-name="타원 109" class="cls-1" cx="8" cy="4" rx="8" ry="4" transform="translate(638 225)"/>
    <path id="타원_109_-_윤곽선" data-name="타원 109 - 윤곽선" class="cls-2" d="M7.727.7A10.926,10.926,0,0,0,2.6,1.851C1.394,2.509.7,3.37.7,4.215s.691,1.706,1.9,2.364A10.926,10.926,0,0,0,7.727,7.727a10.926,10.926,0,0,0,5.127-1.149c1.206-.658,1.9-1.519,1.9-2.364s-.691-1.706-1.9-2.364A10.926,10.926,0,0,0,7.727.7m0-.7c4.267,0,7.727,1.887,7.727,4.215S11.994,8.429,7.727,8.429,0,6.542,0,4.215,3.459,0,7.727,0Z" transform="translate(638 225)"/>
    <path id="선_2656" data-name="선 2656" class="cls-2" d="M.2,8.429H-.5V0H.2Z" transform="translate(638.5 229.566)"/>
    <path id="선_2657" data-name="선 2657" class="cls-2" d="M.2,8.429H-.5V0H.2Z" transform="translate(653.251 229.566)"/>
  </g>
</svg>
