<svg xmlns="http://www.w3.org/2000/svg" width="10.223" height="13.593" viewBox="0 0 10.223 13.593">
    <g data-name="그룹 8026">
        <path data-name="선 2936" d="M3.975-.058H0V-.5h3.975z" transform="rotate(30 1.728 11.809)" style="fill:#343434"/>
        <path data-name="선 2932" d="M7.066-.058H0V-.5h7.066z" transform="rotate(30 -13.678 4.351)" style="fill:#343434"/>
        <path data-name="선 2933" d="M-.058 5.168H-.5V0h.442z" transform="rotate(30 -15.122 11.828)" style="fill:#343434"/>
        <path data-name="선 2935" d="m-.057 4.405-.433-.087L.393-.1l.433.087z" transform="rotate(30 -1.72 9.869)" style="fill:#343434"/>
        <path data-name="선 2934" d="M.393 4.405-.49-.011-.057-.1l.883 4.418z" transform="rotate(30 -3.964 18.24)" style="fill:#343434"/>
        <path data-name="패스 6994" d="M-4511.621 2473.708a1.789 1.789 0 0 1-.607-1.344 1.884 1.884 0 0 1 .619-1.244l.287.336-.144-.168.144.167a1.46 1.46 0 0 0-.465.93 1.374 1.374 0 0 0 .478 1.011z" transform="rotate(30 2357.95 9666.291)" style="fill:#343434"/>
        <path data-name="패스 6995" d="M-4512.948 2473.464a1.492 1.492 0 0 1-.577-1.408c.2-.738 1.216-1.026 1.26-1.038l.116.426-.058-.213.058.213c-.228.063-.843.317-.95.726-.071.273.084.6.463.982z" transform="rotate(30 2345.553 9662.687)" style="fill:#343434"/>
        <path data-name="패스 6993" d="m-4512.39 2473.464-.312-.312c.379-.379.535-.71.462-.983-.128-.487-.941-.723-.949-.725l.117-.426c.043.012 1.064.3 1.26 1.038a1.494 1.494 0 0 1-.578 1.408z" transform="rotate(30 2342.407 9674.428)" style="fill:#343434"/>
        <path data-name="패스 6996" d="M.608 2.589A1.793 1.793 0 0 1 0 1.244 1.888 1.888 0 0 1 .621 0l.286.336L.764.168l.144.167a1.458 1.458 0 0 0-.465.93A1.376 1.376 0 0 0 .92 2.276z" transform="rotate(-150 5.11 1.212)" style="fill:#343434"/>
    </g>
</svg>
