<svg xmlns="http://www.w3.org/2000/svg" width="26.231" height="26.924" viewBox="0 0 26.231 26.924">
  <defs>
    <style>
      .cls-1 {
        fill: #fff;
      }

      .cls-2 {
        fill: #343434;
      }
    </style>
  </defs>
  <g id="그룹_7937" data-name="그룹 7937" transform="translate(-1462.539 -203)">
    <ellipse id="타원_142" data-name="타원 142" class="cls-1" cx="4.642" cy="4.178" rx="4.642" ry="4.178" transform="translate(1462.967 211.356)"/>
    <path id="타원_142_-_윤곽선" data-name="타원 142 - 윤곽선" class="cls-2" d="M4.526.7a3.83,3.83,0,1,0,3.83,3.83A3.834,3.834,0,0,0,4.526.7m0-.7A4.526,4.526,0,1,1,0,4.526,4.526,4.526,0,0,1,4.526,0Z" transform="translate(1462.539 210.722)"/>
    <ellipse id="타원_140" data-name="타원 140" class="cls-1" cx="4.642" cy="4.178" rx="4.642" ry="4.178" transform="translate(1478.75 211.356)"/>
    <path id="타원_140_-_윤곽선" data-name="타원 140 - 윤곽선" class="cls-2" d="M4.585.705a3.88,3.88,0,1,0,3.88,3.88A3.884,3.884,0,0,0,4.585.705m0-.705A4.585,4.585,0,1,1,0,4.585,4.585,4.585,0,0,1,4.585,0Z" transform="translate(1479.6 210.604)"/>
    <rect id="사각형_2311" data-name="사각형 2311" class="cls-1" width="15.783" height="25.995" rx="7.891" transform="translate(1467.609 203)"/>
    <path id="사각형_2311_-_윤곽선" data-name="사각형 2311 - 윤곽선" class="cls-2" d="M8.088.6A7.489,7.489,0,0,0,.6,8.088v9.586a7.489,7.489,0,0,0,12.784,5.3,7.44,7.44,0,0,0,2.193-5.3V8.088A7.489,7.489,0,0,0,8.088.6m0-.6a8.088,8.088,0,0,1,8.088,8.088v9.586A8.088,8.088,0,1,1,0,17.674V8.088A8.088,8.088,0,0,1,8.088,0Z" transform="translate(1467.49 203)"/>
    <rect id="사각형_2310" data-name="사각형 2310" class="cls-1" width="21.353" height="10.212" transform="translate(1464.824 219.711)"/>
    <path id="패스_6987" data-name="패스 6987" class="cls-2" d="M-18207.764,624.828l-.014-.6a4.856,4.856,0,0,0,4.479-2.691,10.245,10.245,0,0,0,.781-3.568l.6.035a10.8,10.8,0,0,1-.85,3.813A5.475,5.475,0,0,1-18207.764,624.828Z" transform="translate(19685.586 -399.141)"/>
    <ellipse id="타원_141" data-name="타원 141" class="cls-1" cx="1.393" cy="1.857" rx="1.393" ry="1.857" transform="translate(1475.965 223.425)"/>
    <path id="타원_141_-_윤곽선" data-name="타원 141 - 윤곽선" class="cls-2" d="M1.8.6A1.2,1.2,0,1,0,3,1.8,1.2,1.2,0,0,0,1.8.6m0-.6A1.8,1.8,0,1,1,0,1.8,1.8,1.8,0,0,1,1.8,0Z" transform="translate(1475.278 223.37)"/>
  </g>
</svg>
