<svg xmlns="http://www.w3.org/2000/svg" width="84.537" height="13.495" viewBox="0 0 84.537 13.495">
    <g data-name="블루마크 텍스트">
        <path data-name="패스 6785" d="M-275.743 99.947a3.356 3.356 0 0 0-.66-2.057 3 3 0 0 0-1.7-1.144l-.218-.055.187-.125a2.556 2.556 0 0 0 .926-1.039 3.242 3.242 0 0 0 .288-1.377 3.064 3.064 0 0 0-1.051-2.5 4.72 4.72 0 0 0-3.048-.87h-2.093v12.62h2.96a5.151 5.151 0 0 0 3.245-.921 3.056 3.056 0 0 0 1.164-2.532zm-6.137-8.039h.746a3.775 3.775 0 0 1 2.368.526 2.148 2.148 0 0 1 .622 1.716 2.675 2.675 0 0 1-.256 1.25 1.74 1.74 0 0 1-.864.766 4.76 4.76 0 0 1-1.851.264h-.763zm4.061 9.761a4.17 4.17 0 0 1-2.448.6h-1.613V97.45h1.426a4.626 4.626 0 0 1 2.607.6 2.04 2.04 0 0 1 .876 1.782 2.139 2.139 0 0 1-.848 1.837z" style="fill:#0000c5" transform="translate(283.108 -90.288)"/>
        <path data-name="패스 6786" d="M-271.8 90.781h-1.228V103.4h4.764v-1.127h-3.536z" style="fill:#0000c5" transform="translate(283.108 -90.288)"/>
        <path data-name="패스 6787" d="M-259.371 101.308a3.1 3.1 0 0 1-1.071.819 3.4 3.4 0 0 1-1.55.367 3.52 3.52 0 0 1-1.688-.436 2.783 2.783 0 0 1-1.189-1.146 5.377 5.377 0 0 1-.368-2.325v-7.806h-1.228v8.044a5.1 5.1 0 0 0 .6 2.75 4.425 4.425 0 0 0 1.647 1.488 4.637 4.637 0 0 0 2.222.558 4.761 4.761 0 0 0 1.806-.35 4.469 4.469 0 0 0 1.505-1.005 3.741 3.741 0 0 0 .9-1.408 6.393 6.393 0 0 0 .257-2v-8.077h-1.227v7.772a7.942 7.942 0 0 1-.139 1.723 2.761 2.761 0 0 1-.477 1.032z" style="fill:#0000c5" transform="translate(283.108 -90.288)"/>
        <path data-name="패스 6788" d="M-247.914 102.273h-5.219v-5.231h5.066v-1.126h-5.066v-4.008h5.219v-1.127h-6.447V103.4h6.447z" style="fill:#0000c5" transform="translate(283.108 -90.288)"/>
        <path data-name="패스 6789" d="m-238.634 100.963-.092-.211-4.529-10.464-2.517 13.112h1.258l1.649-8.67h.182l.026.059 4.023 8.994 4.066-9.053h.182l.015.081 1.634 8.589h1.258L-234 90.288z" style="fill:#0000c5" transform="translate(283.108 -90.288)"/>
        <path data-name="패스 6790" d="M-230.338 103.4h1.345l1.547-3.637h5.607l1.513 3.637h1.362l-5.612-13.079zm3.384-4.764 2.346-5.49 2.291 5.49z" style="fill:#0000c5" transform="translate(283.108 -90.288)"/>
        <path data-name="패스 6791" d="M-213.67 97.654a3.36 3.36 0 0 0 2.289-1.063 3.444 3.444 0 0 0 .833-2.373c0-2.313-1.469-3.437-4.49-3.437h-1.855V103.4h1.228v-5.627h.51l.03.043 3.846 5.584h1.5l-4.068-5.73zm-1.995-.939v-4.807h.848a3.962 3.962 0 0 1 2.241.536 2.118 2.118 0 0 1 .8 1.876 2.1 2.1 0 0 1-.815 1.815 3.991 3.991 0 0 1-2.345.58z" style="fill:#0000c5" transform="translate(283.108 -90.288)"/>
        <path data-name="패스 6792" d="m-198.571 103.4-6.134-6.755 5.914-5.864h-1.637l-5.6 5.634v-5.634h-1.228V103.4h1.228v-5.466l.461-.461.07.079 5.223 5.849z" style="fill:#0000c5" transform="translate(283.108 -90.288)"/>
    </g>
</svg>
