<svg xmlns="http://www.w3.org/2000/svg" width="15.129" height="16" viewBox="0 0 15.129 16">
    <g data-name="kakao ch" style="opacity:.5">
        <path data-name="패스 6748" d="M210.168 64.52a7.3 7.3 0 0 0-7.564 7 6.121 6.121 0 0 0 2.832 5.459h.008v3.349a.192.192 0 0 0 .307.155l2.868-2.131.063.027a8.243 8.243 0 0 0 1.487.136 7.018 7.018 0 1 0 0-13.993zm-5.385 6.988a2.781 2.781 0 0 1 2.849-2.836A2.628 2.628 0 0 1 210.3 70.9h-1.095a1.558 1.558 0 0 0-1.577-1.185 1.713 1.713 0 0 0-1.78 1.8 1.757 1.757 0 0 0 1.78 1.781 1.58 1.58 0 0 0 1.572-1.136h1.1a2.626 2.626 0 0 1-2.664 2.184 2.781 2.781 0 0 1-2.853-2.836zm10.076 2.728h-1.005v-2.268a.722.722 0 0 0-.771-.8c-.523 0-.857.32-.857.967v2.1h-1.006v-5.546h1.005v2.087a1.287 1.287 0 0 1 1.161-.545 1.378 1.378 0 0 1 1.051.428 1.616 1.616 0 0 1 .421 1.185z" transform="translate(-202.604 -64.52)" style="fill:#fff"/>
    </g>
</svg>
