<svg xmlns="http://www.w3.org/2000/svg" width="135" height="17.683" viewBox="0 0 135 17.683">
    <path data-name="패스 6696" d="M18.133.34h5.9a10.123 10.123 0 0 1 3.661.62 7.582 7.582 0 0 1 2.711 1.737 7.466 7.466 0 0 1 1.683 2.659 9.553 9.553 0 0 1 .579 3.389v.049a9.6 9.6 0 0 1-.59 3.412 7.555 7.555 0 0 1-4.448 4.494 9.964 9.964 0 0 1-3.684.643H18.13zm5.975 12.826a4.246 4.246 0 0 0 3.071-1.118 4.2 4.2 0 0 0 1.163-3.182v-.043a3.958 3.958 0 0 0-4.234-4.3h-1.739v8.647z"/>
    <path data-name="패스 6697" d="M33.654.34H45.94v4.008h-8.111v2.575h7.346v3.716h-7.346v2.7h8.22v4.007h-12.4z"/>
    <path data-name="패스 6698" d="M47.033.34h7.236a8.136 8.136 0 0 1 2.995.486 5.076 5.076 0 0 1 1.99 1.361 5.585 5.585 0 0 1 1.355 3.959v.048a5.788 5.788 0 0 1-.852 3.255 5.51 5.51 0 0 1-2.3 1.968l3.651 5.926h-4.9l-3.082-5.149h-1.858v5.149h-4.241zm7.039 8.162a2.383 2.383 0 0 0 1.683-.547 1.9 1.9 0 0 0 .591-1.469v-.049a1.839 1.839 0 0 0-.613-1.518 2.6 2.6 0 0 0-1.682-.5h-2.777V8.5z"/>
    <path data-name="패스 6699" d="M61.549.34h12.285v4.008h-8.11v2.575h7.345v3.716h-7.345v2.7h8.219v4.007H61.549z"/>
    <path data-name="패스 6700" d="M74.927.34h7.236a8.136 8.136 0 0 1 3 .486 5.077 5.077 0 0 1 1.99 1.361 5.585 5.585 0 0 1 1.355 3.959v.048a5.788 5.788 0 0 1-.852 3.255 5.51 5.51 0 0 1-2.3 1.968l3.651 5.926h-4.9l-3.082-5.149h-1.856v5.149h-4.241zm7.039 8.162a2.383 2.383 0 0 0 1.683-.547 1.9 1.9 0 0 0 .591-1.469v-.049a1.839 1.839 0 0 0-.613-1.518 2.6 2.6 0 0 0-1.682-.5h-2.776V8.5z"/>
    <path data-name="패스 6701" d="M89.443.34h7.236a8.144 8.144 0 0 1 2.995.486 5.065 5.065 0 0 1 1.989 1.361 5.585 5.585 0 0 1 1.355 3.959v.048a5.78 5.78 0 0 1-.852 3.255 5.51 5.51 0 0 1-2.3 1.968l3.651 5.926h-4.9l-3.082-5.149h-1.858v5.149h-4.241zm7.039 8.162a2.383 2.383 0 0 0 1.683-.547 1.9 1.9 0 0 0 .591-1.469v-.049a1.842 1.842 0 0 0-.613-1.518 2.6 2.6 0 0 0-1.683-.5h-2.776V8.5z"/>
    <path data-name="패스 6702" d="M111.653 17.683a7.757 7.757 0 0 1-3.279-.692 8.034 8.034 0 0 1-2.6-1.882 8.757 8.757 0 0 1-1.717-2.794 9.376 9.376 0 0 1-.622-3.424v-.049a9.476 9.476 0 0 1 .622-3.437 8.705 8.705 0 0 1 1.738-2.818 8.217 8.217 0 0 1 2.624-1.894 8.1 8.1 0 0 1 6.558 0 8.035 8.035 0 0 1 2.6 1.882 8.79 8.79 0 0 1 1.716 2.793 9.362 9.362 0 0 1 .623 3.426v.048a9.452 9.452 0 0 1-.623 3.437 8.672 8.672 0 0 1-1.738 2.817 8.178 8.178 0 0 1-2.623 1.9 7.757 7.757 0 0 1-3.279.687zm.033-4.25a3.506 3.506 0 0 0 1.6-.365 3.715 3.715 0 0 0 1.228-.983 4.689 4.689 0 0 0 .789-1.446 5.317 5.317 0 0 0 .285-1.748v-.049a5.328 5.328 0 0 0-.285-1.749 4.593 4.593 0 0 0-.811-1.457 4.034 4.034 0 0 0-1.25-1.008 3.612 3.612 0 0 0-3.189-.012 3.872 3.872 0 0 0-1.228.983 4.384 4.384 0 0 0-.789 1.445 5.514 5.514 0 0 0-.274 1.75v.048a5.323 5.323 0 0 0 .285 1.749 4.709 4.709 0 0 0 .8 1.457 3.9 3.9 0 0 0 1.238 1.008 3.418 3.418 0 0 0 1.601.377z"/>
    <path data-name="패스 6703" d="M120.922.34h7.236a8.136 8.136 0 0 1 2.995.486 5.065 5.065 0 0 1 1.989 1.361 5.581 5.581 0 0 1 1.356 3.959v.048a5.781 5.781 0 0 1-.853 3.255 5.5 5.5 0 0 1-2.3 1.968l3.651 5.926h-4.9l-3.082-5.149h-1.858v5.149h-4.241zm7.039 8.162a2.383 2.383 0 0 0 1.683-.547 1.9 1.9 0 0 0 .591-1.469v-.049a1.842 1.842 0 0 0-.613-1.518 2.6 2.6 0 0 0-1.682-.5h-2.777V8.5z"/>
    <path data-name="패스 6704" d="M12.653.34h-1.576L0 17.34h5.087l1.93-2.963h5.636v2.963h4.26v-17h-4.26zM9.438 10.663l3.215-4.934v4.934z"/>
</svg>
