<svg data-name="location icon" xmlns="http://www.w3.org/2000/svg" width="16" height="21" viewBox="0 0 16 21">
    <path data-name="패스 6978" d="M15.365 9.9a8.473 8.473 0 0 0 .135-1.419A7.752 7.752 0 0 0 8 .5 7.752 7.752 0 0 0 .5 8.481 8.473 8.473 0 0 0 .635 9.9c.024.145.056.285.087.426C1.926 15.874 8 20.5 8 20.5s6.073-4.626 7.277-10.17a7.59 7.59 0 0 0 .088-.43z" style="fill:#fff;stroke:#343434;stroke-linejoin:round"/>
    <path data-name="패스 6977" d="m3.526 9.705 2.134-6h1.732l2.134 6H7.893L7.5 8.479H5.512l-.395 1.226zM7.15 7.392 6.5 5.414l-.64 1.978z" transform="translate(1.473 .801)" style="fill:#343434"/>
</svg>
