<svg data-name="제품취급유의사항 아이콘" xmlns="http://www.w3.org/2000/svg" width="17" height="17.232" viewBox="0 0 17 17.232">
    <defs>
        <clipPath id="wq7utc6e1a">
            <path data-name="사각형 2315" transform="translate(0 -2.464)" style="fill:none" d="M0 0h17v17.232H0z"/>
        </clipPath>
    </defs>
    <g data-name="그룹 7768" transform="translate(0 2.464)" style="clip-path:url(#wq7utc6e1a)">
        <path data-name="패스 7097" d="M11.014 11.028 14.551 7.6a1.157 1.157 0 0 1 1.614 0 1.1 1.1 0 0 1 0 1.584s-3.383 3.346-4.124 4.074a4.361 4.361 0 0 1-3.2 1.014H2.773" style="stroke-miterlimit:10;stroke:#343434;fill:none"/>
        <path data-name="패스 7098" d="M2.773 10.46a5.27 5.27 0 0 1 3.393-1.227h3.942a1.121 1.121 0 1 1 0 2.241H6.649" style="stroke-linecap:round;stroke-miterlimit:10;stroke:#343434;fill:none"/>
        <path data-name="사각형 2314" transform="translate(.5 10.46)" style="stroke-miterlimit:10;stroke:#343434;fill:none" d="M0 0h2.273v3.808H0z"/>
        <path data-name="선 2694" transform="translate(7.941 -.732)" style="stroke-linejoin:round;stroke-width:1.5px;stroke:#343434;fill:none" d="M0 5V0"/>
        <path data-name="패스 7099" d="M7.341 6.25a.85.85 0 1 1 .85.85.851.851 0 0 1-.85-.85" transform="translate(-.25 -.098)" style="fill:#343434"/>
    </g>
</svg>
