<svg xmlns="http://www.w3.org/2000/svg" width="13" height="13" viewBox="0 0 13 13">
    <g data-name="인스타그램 아이콘" transform="translate(.5 .5)">
        <path data-name="사각형 2339" d="M2.443 0h7.113A2.444 2.444 0 0 1 12 2.444v7.113A2.443 2.443 0 0 1 9.557 12H2.443A2.443 2.443 0 0 1 0 9.557V2.443A2.443 2.443 0 0 1 2.443 0z" style="fill:none;stroke:gray;stroke-miterlimit:10"/>
        <circle data-name="타원 79" cx="2.5" cy="2.5" r="2.5" transform="translate(3.5 3.5)" style="stroke-width:1.124px;fill:none;stroke:gray;stroke-miterlimit:10"/>
        <path data-name="패스 6986" d="M12.9 2.849a.75.75 0 1 1-.75-.75.75.75 0 0 1 .75.75" transform="translate(-2.5 -.5)" style="fill:gray"/>
    </g>
</svg>
