<svg xmlns="http://www.w3.org/2000/svg" width="18.555" height="16" viewBox="0 0 18.555 16">
    <g style="opacity:.5">
        <path data-name="패스 6746" d="M117.877 69.781a6.58 6.58 0 0 0-4.436 1.792 5.269 5.269 0 0 0-1.636 4.463c-.673-.084-1.287-.176-1.9-.228a1.192 1.192 0 0 0-.647.109c-.6.339-1.173.72-1.853 1.145.125-.564.205-1.059.348-1.535a.583.583 0 0 0-.265-.772 5.247 5.247 0 0 1-2.287-5.893 5.837 5.837 0 0 1 4.1-4 6.875 6.875 0 0 1 7.509 2.2 5.146 5.146 0 0 1 1.067 2.719zm-7.926-.7a.8.8 0 0 0-.764-.795.772.772 0 0 0-.8.747.761.761 0 0 0 .755.791.785.785 0 0 0 .809-.744zm4.136-.795a.8.8 0 0 0-.777.783.777.777 0 0 0 .8.759.771.771 0 1 0-.02-1.541z" transform="translate(-104.986 -64.52)" style="fill:#fff"/>
        <path data-name="패스 6747" d="M119.873 79.045a5.839 5.839 0 0 0-1.579-.664 8.861 8.861 0 0 0-1.644.308 5.492 5.492 0 0 1-4.455-1.453 4.518 4.518 0 0 1 .712-7.368 5.993 5.993 0 0 1 7.748 1.153 4.4 4.4 0 0 1-.508 6.138c-.531.471-.723.859-.381 1.48a1.816 1.816 0 0 1 .107.406zm-6.209-6.012a.641.641 0 1 0 .005-1.283.641.641 0 1 0-.005 1.283zm4-1.281a.642.642 0 0 0-.637.613.633.633 0 0 0 .629.664.625.625 0 0 0 .636-.609.637.637 0 0 0-.625-.668z" transform="translate(-103.112 -63.045)" style="fill:#fff"/>
    </g>
</svg>
