<svg xmlns="http://www.w3.org/2000/svg" width="20" height="13.999" viewBox="0 0 20 13.999">
    <g style="opacity:.5">
        <path data-name="패스 6753" d="M195.546 67.906a2.51 2.51 0 0 0-1.769-1.77c-1.559-.416-7.815-.416-7.815-.416s-6.252 0-7.813.416a2.51 2.51 0 0 0-1.769 1.77 27.989 27.989 0 0 0 0 9.627 2.511 2.511 0 0 0 1.769 1.769c1.562.417 7.813.417 7.813.417s6.256 0 7.815-.417a2.508 2.508 0 0 0 1.769-1.769 27.987 27.987 0 0 0 0-9.627zm-11.581 7.813v-6l5.2 3z" transform="translate(-175.963 -65.72)" style="fill:#fff"/>
    </g>
</svg>
