<?xml version="1.0" encoding="utf-8"?>
<!-- Generator: Adobe Illustrator 26.3.1, SVG Export Plug-In . SVG Version: 6.00 Build 0)  -->
<svg version="1.1" id="레이어_1" xmlns="http://www.w3.org/2000/svg" xmlns:xlink="http://www.w3.org/1999/xlink" x="0px"
	 y="0px" viewBox="0 0 63.5 13.9" style="enable-background:new 0 0 63.5 13.9;" xml:space="preserve">
<style type="text/css">
	.st0{fill:#FFFFFF;}
</style>
<g>
	<path class="st0" d="M11.4,2.9c-1.1-1.3-2.8-2.1-4.5-2.1c-3.4,0-6,2.7-6,6.1c0,4,3.3,6,6,6c1.3,0,3.1-0.5,4.5-2v1.2
		c-1.4,1.2-3,1.7-4.4,1.7c-4,0-7-3.1-7-6.9C0,3,3.1,0,6.9,0c2.5,0,4.1,1.4,4.5,1.7V2.9z"/>
	<path class="st0" d="M20.7,1h-5.5v4.8h5.4v0.8h-5.4v6.1h5.5v0.8h-6.4V0.2h6.4V1z"/>
	<path class="st0" d="M23.6,13.5V0l11.2,11.7V0.2h0.9v13.7L24.4,2.1v11.4H23.6z"/>
	<path class="st0" d="M42.1,1v12.5h-0.9V1h-3.5V0.2h7.8V1H42.1z"/>
	<path class="st0" d="M54,1h-5.5v4.8h5.4v0.8h-5.4v6.1H54v0.8h-6.4V0.2H54V1z"/>
	<path class="st0" d="M62.5,13.5l-4.3-6.3h-0.4v6.3h-0.9V0.2h1.9c1,0,1.9,0.1,2.8,0.7c1,0.7,1.4,1.8,1.4,2.9C63,5,62.4,6.4,60.8,7
		c-0.7,0.2-1.3,0.3-1.6,0.3l4.4,6.3H62.5z M57.8,6.4H59c1.9,0,3-1,3-2.7c0-1.3-0.7-2-1.2-2.3c-0.6-0.3-1.5-0.4-2-0.4h-1.1V6.4z"/>
</g>
</svg>
