<?xml version="1.0" encoding="utf-8"?>
<!-- Generator: Adobe Illustrator 27.2.0, SVG Export Plug-In . SVG Version: 6.00 Build 0)  -->
<svg version="1.1" id="레이어_1" xmlns="http://www.w3.org/2000/svg" xmlns:xlink="http://www.w3.org/1999/xlink" x="0px"
	 y="0px" viewBox="0 0 30.2 13.9" style="enable-background:new 0 0 30.2 13.9;" xml:space="preserve">
<style type="text/css">
	.st0{fill:#FFFFFF;}
</style>
<g>
	<path class="st0" d="M0.9,7.3v6.4H0V0.2h2.6c2.2,0,3.9,1.2,3.9,3.5c0,2.2-1.6,3.6-3.9,3.6H0.9z M0.9,6.5h1.8c1.8,0,3-1,3-2.7
		C5.6,2,4.5,1,2.5,1H0.9V6.5z"/>
	<path class="st0" d="M19.8,2.9c-1.2-1.4-2.8-2.1-4.6-2.1c-3.5,0-6.1,2.8-6.1,6.2c0,4,3.3,6.1,6.1,6.1c1.4,0,3.2-0.5,4.5-2v1.2
		c-1.4,1.2-3,1.7-4.5,1.7c-4,0-7-3.2-7-6.9c0-3.9,3.1-7,7-7c2.6,0,4.1,1.4,4.5,1.8V2.9z"/>
	<path class="st0" d="M28.9,2.5c-0.8-1.6-2.3-1.7-2.7-1.7c-1.6,0-2.5,1.2-2.5,2.5c0,1.5,1,1.9,2.4,2.6c1.3,0.6,2,0.9,2.7,1.4
		c0.6,0.4,1.4,1.1,1.4,2.6c0,2.3-1.9,3.9-4.2,3.9c-1.7,0-2.6-0.8-3.1-1.4c-0.5-0.6-0.7-1.1-0.9-1.5l0.8-0.4c0.2,0.5,0.5,1.1,0.7,1.3
		c0.6,0.8,1.6,1.2,2.5,1.2c1.8,0,3.3-1.3,3.3-3.1c0-0.7-0.3-1.5-1.3-2.1c-0.4-0.2-1.2-0.6-2.3-1.2c-1.3-0.6-2-1-2.5-1.8
		c-0.3-0.5-0.4-1-0.4-1.5c0-1.6,1.1-3.4,3.5-3.4c1.4,0,2.6,0.6,3.3,1.9L28.9,2.5z"/>
</g>
</svg>
