<?xml version="1.0" encoding="utf-8"?>
<!-- Generator: Adobe Illustrator 27.2.0, SVG Export Plug-In . SVG Version: 6.00 Build 0)  -->
<svg version="1.1" id="레이어_1" xmlns="http://www.w3.org/2000/svg" xmlns:xlink="http://www.w3.org/1999/xlink" x="0px"
	 y="0px" viewBox="0 0 198.7 14.6" style="enable-background:new 0 0 198.7 14.6;" xml:space="preserve">
<style type="text/css">
	.st0{fill:#FFFFFF;}
</style>
<g>
	<path class="st0" d="M1,0.7l3.7,11.3L9.5,0L14,12.1l4.2-11.3h1L14,14.6L9.5,2.4l-5,12.1L0,0.7H1z"/>
	<path class="st0" d="M27.7,1.5h-5.5v4.9h5.4v0.8h-5.4v6.1h5.5v0.8h-6.4V0.7h6.4V1.5z"/>
	<path class="st0" d="M30.5,0.7h2.9c2.3,0,3.7,1.3,3.7,3.3c0,1.4-0.7,2.4-1.6,2.9c1.7,0.3,2.8,1.6,2.8,3.3c0,2.3-1.7,3.7-4.1,3.7
		h-3.7V0.7z M31.4,6.8h2.1c0.7,0,1.2-0.1,1.8-0.6c0.5-0.4,0.9-1.1,0.9-2c0-1.1-0.5-1.7-0.9-2.1c-0.7-0.5-1.5-0.6-2.2-0.6h-1.7V6.8z
		 M31.4,13.3h2.2c0.9,0,2,0,2.9-0.8c0.7-0.6,0.9-1.4,0.9-2c0-1.2-0.4-2-1.4-2.5c-0.4-0.2-1-0.4-2.5-0.4h-2.1V13.3z"/>
	<path class="st0" d="M56.6,3.4c-1.1-1.3-2.8-2.1-4.5-2.1c-3.4,0-6,2.7-6,6.1c0,4,3.3,6,6,6c1.3,0,3.1-0.5,4.5-2v1.2
		c-1.4,1.2-3,1.7-4.4,1.7c-4,0-7-3.1-7-6.9c0-3.8,3.1-6.9,6.9-6.9c2.5,0,4.1,1.4,4.5,1.7V3.4z"/>
	<path class="st0" d="M72.2,7.4c0,3.8-3,6.9-6.9,6.9c-3.9,0-6.9-3-6.9-6.9s3-6.9,6.9-6.9C69.2,0.5,72.2,3.6,72.2,7.4z M71.3,7.4
		c0-3.4-2.6-6.1-6-6.1c-3.4,0-6,2.7-6,6.1c0,3.4,2.6,6.1,6,6.1C68.7,13.5,71.3,10.8,71.3,7.4z"/>
	<path class="st0" d="M75.1,14.1V0.6l11.2,11.7V0.7h0.9v13.7L76,2.7v11.4H75.1z"/>
	<path class="st0" d="M93.7,1.5v12.6h-0.9V1.5h-3.5V0.7h7.8v0.8H93.7z"/>
	<path class="st0" d="M104.8,14.1l-4.3-6.3h-0.4v6.3h-0.9V0.7h1.9c1,0,1.9,0.1,2.8,0.7c1,0.7,1.4,1.8,1.4,2.9c0,1.3-0.6,2.7-2.2,3.2
		c-0.7,0.2-1.3,0.3-1.6,0.3l4.4,6.3H104.8z M100.1,7h1.3c1.9,0,3-1,3-2.7c0-1.3-0.7-2-1.2-2.3c-0.6-0.3-1.5-0.4-2-0.4h-1.1V7z"/>
	<path class="st0" d="M121.5,7.4c0,3.8-3,6.9-6.9,6.9c-3.9,0-6.9-3-6.9-6.9s3-6.9,6.9-6.9C118.5,0.5,121.5,3.6,121.5,7.4z
		 M120.6,7.4c0-3.4-2.6-6.1-6-6.1c-3.4,0-6,2.7-6,6.1c0,3.4,2.6,6.1,6,6.1C118,13.5,120.6,10.8,120.6,7.4z"/>
	<path class="st0" d="M125.3,0.7v12.6h3.7v0.8h-4.6V0.7H125.3z"/>
	<path class="st0" d="M146.5,3.4c-1.1-1.3-2.8-2.1-4.5-2.1c-3.4,0-6,2.7-6,6.1c0,4,3.3,6,6,6c1.3,0,3.1-0.5,4.5-2v1.2
		c-1.4,1.2-3,1.7-4.5,1.7c-4,0-7-3.1-7-6.9c0-3.8,3.1-6.9,6.9-6.9c2.5,0,4.1,1.4,4.5,1.7V3.4z"/>
	<path class="st0" d="M155.8,1.5h-5.5v4.9h5.4v0.8h-5.4v6.1h5.5v0.8h-6.4V0.7h6.4V1.5z"/>
	<path class="st0" d="M158.7,14.1V0.6l11.2,11.7V0.7h0.9v13.7L159.5,2.7v11.4H158.7z"/>
	<path class="st0" d="M177.2,1.5v12.6h-0.9V1.5h-3.5V0.7h7.8v0.8H177.2z"/>
	<path class="st0" d="M189.2,1.5h-5.5v4.9h5.4v0.8h-5.4v6.1h5.5v0.8h-6.4V0.7h6.4V1.5z"/>
	<path class="st0" d="M197.7,14.1l-4.3-6.3h-0.4v6.3h-0.9V0.7h1.9c1,0,1.9,0.1,2.8,0.7c1,0.7,1.4,1.8,1.4,2.9c0,1.3-0.6,2.7-2.2,3.2
		c-0.7,0.2-1.3,0.3-1.6,0.3l4.4,6.3H197.7z M192.9,7h1.3c1.9,0,3-1,3-2.7c0-1.3-0.7-2-1.2-2.3c-0.6-0.3-1.5-0.4-2-0.4h-1.1V7z"/>
</g>
</svg>
