<svg xmlns="http://www.w3.org/2000/svg" width="19" height="19" viewBox="0 0 19 19">
    <g data-name="언어변경아이콘" transform="translate(.5 .5)">
        <circle data-name="타원 21" cx="9" cy="9" r="9" style="fill:none;stroke:#343434;stroke-miterlimit:10"/>
        <path data-name="패스 6766" d="M157.761 156.074a6.984 6.984 0 0 0-1.6 1.8c-.438.875-.009 1.437.437 1.5.688.1 1.135-.462 1.7-.649s.8-.132 1.522.274a2.447 2.447 0 0 0 1.788.431" transform="translate(-145 -155.252)" style="fill:none;stroke:#343434;stroke-miterlimit:10"/>
        <path data-name="패스 6767" d="M151.788 155.527a5.991 5.991 0 0 1 1.149 2.379c.094 1.032-.344 1.625-1.469 1.938s-2.406.281-2.562.75.906.875 1.625 1.187a3.41 3.41 0 0 1 1.781 1.782c.437.937.781.781 1.406.343s1.344-.812 1.469.188a3.509 3.509 0 0 1-1.344 2.625 9.406 9.406 0 0 0-1.437 3c-.25.687-.871 1.841-1.822 1.531-1.343-.437-.4-3.75-1.241-4.844a3.533 3.533 0 0 1-.937-2.437 3.66 3.66 0 0 0-1.063-2.719 7.021 7.021 0 0 0-1.374-1.062" transform="translate(-145 -155.252)" style="fill:none;stroke:#343434;stroke-miterlimit:10"/>
        <path data-name="패스 6768" d="M162.694 161.919a16.41 16.41 0 0 1-3.163-.325 1.647 1.647 0 0 0-2 1.344c-.188.687-.157 1.656.656 1.968s1.875.344 2.219.844-.266 1.322-.341 1.781c-.128.782.309.956.559 1.407a1.729 1.729 0 0 1 .191 1.19" transform="translate(-145 -155.252)" style="fill:none;stroke:#343434;stroke-miterlimit:10"/>
    </g>
</svg>
