<svg xmlns="http://www.w3.org/2000/svg" width="12.446" height="16" viewBox="0 0 12.446 16">
    <g data-name="그룹 6632" style="opacity:.5">
        <path data-name="패스 6750" d="M234.14 76.124a4.35 4.35 0 0 1-2.147-1.021c-.42 2.2-.933 4.313-2.453 5.417-.469-3.329.689-5.831 1.227-8.484-.917-1.544.111-4.651 2.044-3.885 2.38.941-2.06 5.739.92 6.339 3.112.625 4.383-5.4 2.453-7.36-2.789-2.831-8.117-.064-7.462 3.987.16.989 1.184 1.291.409 2.657-1.785-.4-2.317-1.8-2.248-3.68a6 6 0 0 1 5.417-5.52c3.361-.376 6.516 1.235 6.95 4.4.491 3.568-1.517 7.432-5.111 7.154z" transform="translate(-226.877 -64.52)" style="fill:#fff"/>
    </g>
</svg>
