<svg xmlns="http://www.w3.org/2000/svg" width="16" height="16" viewBox="0 0 16 16">
    <g data-name="그룹 6634" style="opacity:.5">
        <path data-name="패스 6751" d="M162.418 64.52h-6.763a4.618 4.618 0 0 0-4.619 4.617V75.9a4.619 4.619 0 0 0 4.619 4.619h6.763a4.619 4.619 0 0 0 4.619-4.619v-6.763a4.618 4.618 0 0 0-4.619-4.617zm3.145 11.5a3.065 3.065 0 0 1-3.065 3.065h-6.923a3.065 3.065 0 0 1-3.065-3.065V69.1a3.065 3.065 0 0 1 3.065-3.065h6.925a3.065 3.065 0 0 1 3.065 3.065z" transform="translate(-151.037 -64.52)" style="fill:#fff"/>
        <path data-name="패스 6752" d="M158.075 67.436a4.151 4.151 0 1 0 4.152 4.151 4.151 4.151 0 0 0-4.152-4.151zm0 6.843a2.691 2.691 0 1 1 2.691-2.692 2.691 2.691 0 0 1-2.691 2.692z" transform="translate(-150.075 -63.548)" style="fill:#fff"/>
        <circle data-name="타원 20" cx=".967" cy=".967" r=".967" transform="translate(11.323 2.763)" style="fill:#fff"/>
    </g>
</svg>
