<svg xmlns="http://www.w3.org/2000/svg" width="20.24" height="24.303" viewBox="0 0 20.24 24.303">
  <defs>
    <style>
      .cls-1 {
        fill: #343434;
      }

      .cls-2 {
        fill: #fff;
      }
    </style>
  </defs>
  <g id="그룹_7936" data-name="그룹 7936" transform="translate(-1430.16 -166.316)">
    <path id="패스_6986" data-name="패스 6986" class="cls-1" d="M-18406.734,496.323a.33.33,0,0,1,.256.125.857.857,0,0,1,.131.6,54.058,54.058,0,0,1-2.436,9.692c-.643,1.975-1.289,3.757-1.826,5.018-.857,2.029-1.234,2.309-1.514,2.309-.113,0-.312-.055-.416-.424-.184-.7-.467-.7-.561-.7-.576,0-1.406,1.012-1.68,1.4l-.02.026-.021.02a8.549,8.549,0,0,0-2.062,3.993,2.962,2.962,0,0,1-1.146,1.683,3.077,3.077,0,0,1-1.795.553,3.663,3.663,0,0,1-3.545-3,4.584,4.584,0,0,1,.613-3.656,3.749,3.749,0,0,1,3-1.709,2.706,2.706,0,0,1,1.127.239,2.979,2.979,0,0,0,1.223.288,2.274,2.274,0,0,0,1.75-.834c.16-.328,1.982-4.06,3.912-7.745,1.184-2.258,2.176-4.057,2.953-5.349C-18407.449,496.631-18407.01,496.323-18406.734,496.323Zm-5.35,17.177a7.12,7.12,0,0,0,1.135-2.165c.529-1.271,1.164-3.033,1.787-4.961a51.983,51.983,0,0,0,2.344-9.353.691.691,0,0,0,0-.108,10.824,10.824,0,0,0-1.672,2.4c-.773,1.3-1.752,3.081-2.914,5.3-1.986,3.789-3.832,7.587-3.852,7.625l-.01.02-.014.018a2.7,2.7,0,0,1-2.125,1.049,3.382,3.382,0,0,1-1.4-.327,2.294,2.294,0,0,0-.953-.2,3.291,3.291,0,0,0-2.633,1.5,4.007,4.007,0,0,0-.527,3.2,3.184,3.184,0,0,0,3.088,2.6,2.473,2.473,0,0,0,2.488-1.859,9.031,9.031,0,0,1,2.205-4.239,7.19,7.19,0,0,1,.635-.759,2.175,2.175,0,0,1,1.4-.821c.332,0,.773.186,1.012,1.074A.012.012,0,0,1-18412.084,513.5Z" transform="translate(19853.664 -330.007)"/>
    <ellipse id="타원_136" data-name="타원 136" class="cls-2" cx="2.139" cy="1.782" rx="2.139" ry="1.782" transform="translate(1432.185 184.622)"/>
    <path id="타원_136_-_윤곽선" data-name="타원 136 - 윤곽선" class="cls-1" d="M2.132.533a1.6,1.6,0,1,0,1.6,1.6,1.6,1.6,0,0,0-1.6-1.6m0-.533A2.132,2.132,0,1,1,0,2.132,2.132,2.132,0,0,1,2.132,0Z" transform="translate(1432.207 184.278)"/>
    <path id="패스_6985" data-name="패스 6985" class="cls-2" d="M-18423.006,497.268c-.172-3.528,9.105,15.076,9.105,15.076a2.664,2.664,0,0,0,3.334.641c2.176-.962,5.363,1.337,4.543,4.812s-5.375,3.695-6.186.748a8.586,8.586,0,0,0-2.2-4.127s-2.047-1.974-2.682.331S-18422.83,500.8-18423.006,497.268Z" transform="translate(19856.291 -330.241)"/>
    <path id="패스_6985_-_윤곽선" data-name="패스 6985 - 윤곽선" class="cls-1" d="M-18423.119,496.323c.273,0,.713.308,2.055,2.542.775,1.292,1.77,3.092,2.949,5.349,1.934,3.687,3.756,7.419,3.914,7.745a2.259,2.259,0,0,0,1.748.834,2.965,2.965,0,0,0,1.223-.288,2.706,2.706,0,0,1,1.127-.239,3.755,3.755,0,0,1,3.006,1.709,4.6,4.6,0,0,1,.611,3.656,3.664,3.664,0,0,1-3.541,2.995,3.085,3.085,0,0,1-1.8-.553,2.946,2.946,0,0,1-1.143-1.683,8.5,8.5,0,0,0-2.064-3.993l-.012-.01a2.566,2.566,0,0,0-1.381-.721c-.408,0-.686.3-.855.929-.094.358-.293.411-.4.411-.273,0-.652-.3-1.518-2.459-.537-1.34-1.191-3.234-1.842-5.335-1.125-3.636-2.379-8.367-2.465-10.162a.869.869,0,0,1,.127-.6A.338.338,0,0,1-18423.119,496.323Zm10.666,17a2.7,2.7,0,0,1-2.125-1.049l-.012-.018-.012-.02c-.016-.038-1.863-3.836-3.85-7.625-1.164-2.223-2.143-4.008-2.914-5.3a10.745,10.745,0,0,0-1.672-2.4,1,1,0,0,0,0,.109,58.415,58.415,0,0,0,2.373,9.8c.631,2.049,1.27,3.923,1.8,5.278a8.552,8.552,0,0,0,1.139,2.326c.291-1.065.867-1.29,1.3-1.29h0a2.935,2.935,0,0,1,1.684.847,8.918,8.918,0,0,1,2.223,4.255,2.472,2.472,0,0,0,2.492,1.859,3.183,3.183,0,0,0,3.086-2.6,4,4,0,0,0-.529-3.2,3.288,3.288,0,0,0-2.633-1.5,2.278,2.278,0,0,0-.951.2A3.4,3.4,0,0,1-18412.453,513.326Z" transform="translate(19856.748 -330.007)"/>
    <ellipse id="타원_135" data-name="타원 135" class="cls-2" cx="2.139" cy="1.782" rx="2.139" ry="1.782" transform="translate(1444.135 184.628)"/>
    <path id="타원_135_-_윤곽선" data-name="타원 135 - 윤곽선" class="cls-1" d="M2.132.533a1.6,1.6,0,1,0,1.6,1.6,1.6,1.6,0,0,0-1.6-1.6m0-.533A2.132,2.132,0,1,1,0,2.132,2.132,2.132,0,0,1,2.132,0Z" transform="translate(1444.291 184.272)"/>
  </g>
</svg>
