<svg xmlns="http://www.w3.org/2000/svg" width="24.719" height="19.917" viewBox="0 0 24.719 19.917">
  <defs>
    <style>
      .cls-1 {
        fill: #343434;
      }

      .cls-2 {
        fill: #fff;
      }
    </style>
  </defs>
  <g id="그룹_7927" data-name="그룹 7927" transform="translate(-1437.361 -284.088)">
    <path id="패스_6988" data-name="패스 6988" class="cls-1" d="M2009.422-9.149a2.134,2.134,0,0,1-1.2-.339c-1.2-.791-1.282-2.721-1.25-3.608H2002v-.816h5.869l-.053.455c-.08.7-.084,2.67.857,3.288.761.5,2-.016,2.9-.536l.408.707A5.326,5.326,0,0,1,2009.422-9.149Z" transform="translate(-555.143 298)"/>
    <path id="패스_6991" data-name="패스 6991" class="cls-1" d="M2.454,4.4a2.133,2.133,0,0,1-1.2-.339C-.3,3.043.022.124.036,0l.81.094h0C.766.8.763,2.765,1.7,3.382c.761.5,2-.016,2.9-.536l.408.707A5.328,5.328,0,0,1,2.454,4.4Z" transform="translate(1447.68 303.644) rotate(180)"/>
    <path id="패스_6986" data-name="패스 6986" class="cls-1" d="M2004.3-9.056a5.327,5.327,0,0,1-2.556-.85l.408-.707c.9.521,2.137,1.036,2.9.536.943-.62,1.05-2.547.968-3.251l.81-.094c.014.124.222,3.007-1.331,4.027A2.134,2.134,0,0,1,2004.3-9.056Z" transform="translate(-559.159 297.907)"/>
    <path id="패스_6992" data-name="패스 6992" class="cls-1" d="M2.574,4.763A5.392,5.392,0,0,1,0,3.913l.411-.707c.908.521,2.152,1.036,2.919.536.95-.62.945-2.583.862-3.287L4.139,0H10.05V.816H5.04c.032.887-.047,2.817-1.259,3.608A2.161,2.161,0,0,1,2.574,4.763Z" transform="translate(1456.917 304.005) rotate(180)"/>
    <path id="패스_6987" data-name="패스 6987" class="cls-1" d="M2.518,4.763A5.2,5.2,0,0,1,0,3.913l.4-.707c.889.521,2.105,1.036,2.855.536.93-.62.924-2.583.844-3.287L4.049,0H9.832V.816H4.93C4.962,1.7,4.884,3.633,3.7,4.424A2.081,2.081,0,0,1,2.518,4.763Z" transform="translate(1437.361 295.399) rotate(-60)"/>
    <path id="패스_6993" data-name="패스 6993" class="cls-1" d="M4.94.816H0V0H4.94Z" transform="translate(1459.706 297.004) rotate(121)"/>
    <path id="패스_6989" data-name="패스 6989" class="cls-1" d="M4.506,4.763H4.054l.052-.455c.079-.7.083-2.67-.846-3.288-.751-.5-1.969.016-2.858.536L0,.85C1.579-.074,2.825-.246,3.7.339,4.89,1.13,4.968,3.06,4.936,3.947H9.844v.816Z" transform="translate(1457.955 297.781) rotate(-120)"/>
    <path id="패스_6990" data-name="패스 6990" class="cls-1" d="M0,.816V0H4.952V.816Z" transform="translate(1440.543 296.55) rotate(59)"/>
    <circle id="타원_121" data-name="타원 121" class="cls-2" cx="3.875" cy="3.875" r="3.875" transform="translate(1446.123 290.543)"/>
    <path id="타원_121_-_윤곽선" data-name="타원 121 - 윤곽선" class="cls-1" d="M3.875.816a3.06,3.06,0,1,0,3.06,3.06A3.063,3.063,0,0,0,3.875.816m0-.816A3.875,3.875,0,1,1,0,3.875,3.875,3.875,0,0,1,3.875,0Z" transform="translate(1446.123 290.03)"/>
  </g>
</svg>
