<svg xmlns="http://www.w3.org/2000/svg" width="21.279" height="25" viewBox="0 0 21.279 25">
  <defs>
    <style>
      .cls-1 {
        fill: #fff;
      }

      .cls-2 {
        fill: #343434;
      }
    </style>
  </defs>
  <g id="그룹_7933" data-name="그룹 7933" transform="translate(-931 -394)">
    <rect id="사각형_2305" data-name="사각형 2305" class="cls-1" width="15" height="21" transform="translate(931 394)"/>
    <path id="사각형_2305_-_윤곽선" data-name="사각형 2305 - 윤곽선" class="cls-2" d="M.591.591v20.1H14.186V.591H.591M0,0H14.777V21.279H0Z" transform="translate(931 394)"/>
    <path id="선_2659" data-name="선 2659" class="cls-2" d="M8.866.091H0V-.5H8.866Z" transform="translate(933.66 398.046)"/>
    <path id="선_2660" data-name="선 2660" class="cls-2" d="M5.32.091H0V-.5H5.32Z" transform="translate(933.66 401.593)"/>
    <path id="선_2661" data-name="선 2661" class="cls-2" d="M2.955.091H0V-.5H2.955Z" transform="translate(933.66 405.139)"/>
    <ellipse id="타원_122" data-name="타원 122" class="cls-1" cx="7" cy="7.5" rx="7" ry="7.5" transform="translate(938 404)"/>
    <path id="타원_122_-_윤곽선" data-name="타원 122 - 윤곽선" class="cls-2" d="M7.389.591A6.8,6.8,0,0,0,2.582,12.2,6.8,6.8,0,0,0,12.2,2.582,6.753,6.753,0,0,0,7.389.591m0-.591A7.389,7.389,0,1,1,0,7.389,7.389,7.389,0,0,1,7.389,0Z" transform="translate(937.502 404.048)"/>
    <path id="선_2662" data-name="선 2662" class="cls-2" d="M3.269,2.44-.277.076.051-.416,3.6,1.948Z" transform="translate(941.014 412.494)"/>
    <path id="선_2663" data-name="선 2663" class="cls-2" d="M.075,6.849-.41,6.512l4.729-6.8L4.8.052Z" transform="translate(944.319 408.007)"/>
  </g>
</svg>
